<?xml version="1.0" encoding="UTF-8"?> <svg xmlns="http://www.w3.org/2000/svg" xmlns:xlink="http://www.w3.org/1999/xlink" width="1032" height="726"><defs><path d="M60.9 292.4c-31-20.4-51.1-50.4-58-86.9-14.9-77.2 33.8-151.7 108.4-166 7.7-1.4 15.6-2.3 23.4-2.4a1 1 0 0 0 .9-.4c.2-.3 5.8-8.6 3-17.6-2-6-7.3-10.9-15.8-14.3 8.7-5 21.3-4.9 32.7.4 15.3 7.1 25 21.5 27 39.5 0 .5.3.8.8.9 65.4 16.2 105.5 53.8 116 108.7 8.2 42.6-1.6 85-26.8 116.3-24.7 30.9-62 47.8-107.4 49l-5.8.2c-36.6 0-71.3-9.7-98.4-27.4" id="a"></path><path id="c" d="M.7 66.1h213.8V.7H.7z"></path></defs><g transform="translate(183)" fill="none" fill-rule="evenodd"><circle fill="#C5A7D4" cx="332.5" cy="375.5" r="332"></circle><path d="M355.5 429.9a26.3 26.3 0 0 1 3.4-1.6h.1c8.5-39.6 8.1-78.5 8-101.8-.1-9-.2-15.7.2-20a291.2 291.2 0 0 0-16.5 43.2c-8.5 25.4-18 53.8-27.3 66.8 3.5-1.7 6.8-2.7 9.4-2.7 11.3 0 20.4 12.6 22.7 16.1" fill="#71A3C3" fill-rule="nonzero"></path><path d="M505 651.5c-4.6 1.8-10.8 4.1-17.7 8l-16 9.5c-20.6 12.3-34.2 20.2-40.3 20.2-.6 0-1.2 0-1.6-.3-4.3-1.5-5.6-15.1-7.7-41l-1.4-15.6c-14 7.6-32.9 15.2-52.6 15.2-7.3 0-14.7-1-22-3.5a59.9 59.9 0 0 1-24.1-14.5 197.1 197.1 0 0 0-4.7 25.5c-1 7.6-1.4 11-3.7 11-6 0-11.5-11.4-13.6-16.4a89.3 89.3 0 0 1-3.2-8.7c-2 7.5-7.3 21.7-6 85.4h219.1c.4-6.8 1.2-42-1.3-76l-3.2 1.2" fill="#83603C" fill-rule="nonzero"></path><path d="M313.2 664c.6-.5 1.2-5 1.7-9.3 1.4-10.3 3.6-27.7 12.4-47.8 21.1-48.6 35.4-86.6 38.2-102a300 300 0 0 1-16.7-15.2c-2 3.5-4.2 7-6.5 10.3-2.5 26.7-18.5 57.3-31.4 82-8.6 16.5-16 30.9-16 38 0 16 10.5 44 18.3 44" fill="#71A3C3" fill-rule="nonzero"></path><path d="M346.4 642.2c27 8.7 54.8-1.7 73.7-12l-2.4-24.9c-2.5-24.8-5-50.4-5.1-67.5l-2.4-1.3a292.5 292.5 0 0 1-43-30c-3.3 16.1-17.4 53.6-38.1 101.2-3 7-5.2 13.5-6.9 19.5a57.5 57.5 0 0 0 24.2 15" fill="#FFF" fill-rule="nonzero"></path><path d="M377.5 440.8c-2.4-3-5-5.7-8.2-7.7a19.1 19.1 0 0 0-8.6-3h-.8l-.5.1-1.4.6a91 91 0 0 0-19.7 16.4 52 52 0 0 0-7.5 10.1c-.5 1-1 1.9-1.2 2.9l-.4 1.4v1.2l1.3 2.7a147.9 147.9 0 0 0 14.7 17.8c-4.9-27.8 25.4-40 32.3-42.5" fill="#71A3C3" fill-rule="nonzero"></path><path d="M531.2 245.1a173 173 0 0 1-15.4 15.3 316 316 0 0 0-42.7 45.7c.3 3.4.4 6.8 0 10-.9 8.3-7 13.4-14.6 19.8a79 79 0 0 0-26.2 33.4 556.8 556.8 0 0 0-3.8 18.6 334.4 334.4 0 0 0-4 31c-.8 10-1.1 19.9-.2 29.7a277.3 277.3 0 0 1 24.9-23c1.8-1.4 3.8-2.8 5.3-4.2 1.4-1.7 2.8-3.5 4-5.4 2.4-3.8 4.5-8 6.5-12l5.9-12.6 11.2-25.3a489.1 489.1 0 0 1 24.9-49.6c4.7-8 9.9-15.7 16-22.7l2.3-2.6 2.5-2.6c1.6-1.7 3.4-3.1 5.2-4.6 3.8-2.8 8.1-5 12.7-6a75.7 75.7 0 0 0-21.2 17.1c-6 6.9-11.1 14.6-15.8 22.4A487.4 487.4 0 0 0 484 367l-11.3 25.3c-1.9 4.2-3.8 8.5-5.9 12.6a128 128 0 0 1-6.6 12.3c-1.3 2-2.7 3.9-4.3 5.7-1.8 1.8-3.7 3-5.5 4.4a274.7 274.7 0 0 0-26.6 25l1.5 3.2 2 4a93.9 93.9 0 0 0 4 7.6 34.7 34.7 0 0 1-7.9-10.7l-1.1-2.6-1.5 1.7a127.4 127.4 0 0 0 3.9 22l1.4 5.5 1.3 5.5 1.2 5.6 1.2 5.7a113.2 113.2 0 0 1-7.1-21.9 242.5 242.5 0 0 1-3.8-21.4 14.5 14.5 0 0 0-2.8 1.9 34.8 34.8 0 0 0-7.7 12c-.6 1.5-1 3.1-1.5 4.7-.3 1.6-.9 3.1-1.3 4.7l-1.2 4.8-1.2 4.8v-5l.6-5 .5-2.5.6-2.4c.5-1.6 1-3.2 1.7-4.8 1.2-3.2 2.7-6.2 4.8-9a23.5 23.5 0 0 1 5.6-5.4l.2-.1a392.8 392.8 0 0 0-28-10.2c-3.2-1-6.6-2-10-2.5a65 65 0 0 0-19 9.9c-11.7 9.1-15.8 20.5-12.3 33.7l1.5 1.4v.1a295.2 295.2 0 0 0 61.8 47.2c7.5 4.3 15.2 8.3 23.4 10.9 2 .6 4 1 6.1 1.2 1 0 2 0 3-.2l.6-.2c.3 0 .5-.2.8-.3l1.4-.6c3.8-1.9 7.4-4.3 10.8-7 6.8-5.2 13-11.3 18.8-17.7 11.8-12.7 22.1-26.7 31.5-41.2a867.2 867.2 0 0 0 26.8-44.7l12.8-22.7c2.2-3.7 4.6-7.4 7.1-11 2.5-3.5 5-7.2 8.5-10-3 3.3-5 7.1-7.3 10.8a174 174 0 0 0-3.2 5.7l-3.2 5.6-13 22.6a869.6 869.6 0 0 1-26.8 44.8 305 305 0 0 1-31.7 41.5c-6 6.4-12.2 12.6-19.1 18-3.5 2.6-7.1 5.1-11.1 7l-1.6.8-.8.3-.9.3c-1.2.2-2.3.3-3.5.2-2.3-.2-4.5-.7-6.6-1.3a108 108 0 0 1-19.4-8.6c.1 17 2.6 42 5 66.2 1 8.5 1.8 17.2 2.6 25.5l1.5 17.1c1.5 18.8 3.1 38.2 6.4 39.4 4.4 1.6 23.4-9.8 40.2-19.9l16-9.4c7-4 13.4-6.4 18-8.1a25 25 0 0 0 7.2-3.4c.3-.8-.3-6.5-.9-12.6-1.2-12-3-30-2.5-49.3-.1-4.4-.7-8.8-2-13a88.5 88.5 0 0 0-5.3-12.8c-2-4.2-4-8.5-5.3-13.1a37 37 0 0 1-1-14.2 80.2 80.2 0 0 0 8.2 26.4c2 4.3 4 8.6 5.3 13.2l.7 2.4c1.5-19.8 6-40.3 16.6-56.8a365.7 365.7 0 0 0 54.9-138.9c6-38 3-72-7.9-90.8-12.5-21.5-36.5-38.5-41-41.7M330.7 469.3a43 43 0 0 1-1.9-2.8c-.5-1-1.1-2-1.5-3.2a4 4 0 0 1-.1-1v-1l.4-1.7.8-1.9c-16.6-18.5-22.9-13.8-26.7-11l-.5.5a45.9 45.9 0 0 1 20.3 15 35.2 35.2 0 0 1 6.7 27.1c-.4-4.6-1-9.2-2.5-13.6a39.4 39.4 0 0 0-22-25.3c2.8 2.6 5 5.7 6.7 9a48.2 48.2 0 0 1 4.3 24.2c-.3 2.7-.7 5.5-1.5 8 .2-5.4 0-10.7-.6-16a42.1 42.1 0 0 0-4-15.3 29.6 29.6 0 0 0-10.2-11.7c-4.5-2.9-9.3-5.4-14.2-7.6-5-2.2-10-4.2-15-6l-15.2-6c-10-4.3-19.8-9.1-29.3-14.4a1 1 0 0 1-.5-.9v-.1c.2-2 0-4.2-1-6a15 15 0 0 0-4.3-4.7c-3.5-2.6-7.7-4.4-11.6-6.9l-1.5-1-.7-.6-.3-.3h-.1c-.2-.2-.6-.2-1 0h-.3a125 125 0 0 0-23.1 25.4 43 43 0 0 0-3.7 7.4V428.2c.1 1 .5 2 .9 3a43.9 43.9 0 0 0 12.2 15.5c1.6 1.2 3.4 2.3 5.2 2.5a69.7 69.7 0 0 0 14.6-14.2 174 174 0 0 0 6-8.5c2-2.8 3.8-5.8 5.7-8.8-1 3.3-2.3 6.7-4 9.8-.9 1.6-2 3-2.9 4.5a92.5 92.5 0 0 1-17.7 18.3c10.4 12.8 22.5 24 35 34.5 13 10.7 26.6 20.6 40.4 30.3 3.4 2.4 6.8 5 10.1 7.5 3.4 2.4 6.8 5 10.5 6.5 1.9.8 3.8 1.3 5.8 1.4h3c1-.1 2-.1 3-.4 4-.9 7.7-2.6 11.2-4.8 6.9-4.5 12.8-10.6 18-17 5.2-6.3 9.8-13 13.8-20-6-6-11.7-12.1-16.7-19" fill="#71A3C3" fill-rule="nonzero"></path><path d="M478 18.2a23.9 23.9 0 0 1 3.3 22.5c-1.5 4-4.4 7.4-8 9.7a84.1 84.1 0 0 1 11.7 5.3c2.3 1.2 4.5 2.5 6.4 4.3a15 15 0 0 1 4.3 6.3 54.8 54.8 0 0 0-11.7-8.9 56.2 56.2 0 0 0-13.2-5.8l-.3.2c-2.4 1-5 1.5-7.5 2l-2.2.4-5.2 1-9 1.7-16.2 3.6a30 30 0 0 1 12.7 8.6l1.4 1.3c3.9 3.7 6.1 9.8 8 15.2 1.5 4 2.9 7.6 4.6 9.4 2.2 2.2 6.4 4.6 10 6.7 3.2 1.8 6 3.3 7.1 4.6 1 1 1.3 3.6 1.8 8 .5 5.2 1.3 12.4 4 14.4a3 3 0 0 0 2.6.4c1.8-.4 2.5-4.8 3.1-9 1.1-7.4 2.6-17.5 12-17.5h.1c10 0 15 11.5 15.4 22.8.5 13.1-3.8 28.8-11.6 31.2-2.3.7-4 1-5.4 1l-1.9-.2a316.1 316.1 0 0 1 2.2 23.5l3.4 18.1c3.7-.7 7.2-3.9 10.5-9.5 12.8-21.4 19.4-76.4 8.6-101.5l-2-2-3.5-2.9a1 1 0 0 1 1-1.7 28.9 28.9 0 0 0 20.8.8 102 102 0 0 1-15.9-9.6 51.9 51.9 0 0 1-7.8-7.2l-1-1.3a27.5 27.5 0 0 1-4.6-7.9 1 1 0 0 1 2-.6c.7 2 1.8 4 3 5.8a47 47 0 0 0 3.9-25.2c-.7-4.6-2-9-4.2-13-1-2.2-2.3-4-3.6-6l-.6-.9a85.2 85.2 0 0 1 2.9 11.9c.3 3 .5 6-.2 9.2-.3 1.5-.8 3-1.7 4.4-.9 1.4-2 2.6-3.5 3.4a1 1 0 0 1-1.5-.9c0-4.5-.8-9-2.3-13.2a32.2 32.2 0 0 0-7-11.3 21.4 21.4 0 0 0-21.4-6.5c2.4 1 4.5 2.8 6.2 4.9" fill="#83603C" fill-rule="nonzero"></path><path d="M492.4 127.4l.1-.7.5-1.3a26.2 26.2 0 0 1 5.8-7.9c-1.3 3-2.9 5.8-4.1 8.7l-.4 1-.1.5v.2c0 .5.2.7 1 .8l1 .3c.5 0 1 .1 1.6.5l.6.8c.1.4.2.8.1 1 0 .7-.2 1-.4 1.5-.8 1.5-1.7 2.9-2.3 4.3-.3.7-.6 1.4-.6 2v.3l.1.3c.1.3.2.7.4.9.5 1 1.8 1.4 3.3 1.2 1.5-.2 3-.8 4.5-1.5a11.1 11.1 0 0 1-4.2 2.7c-.8.3-1.7.5-2.7.3a4 4 0 0 1-2.5-1.6c-.4-.4-.5-.8-.8-1.2l-.2-.9v-.8c.2-1 .6-1.8 1-2.6.8-1.5 1.8-2.8 2.4-4.1l.3-.9v-.1-.2c-.3-.2-1.2-.2-2-.4-.5-.1-1-.2-1.6-.6a2.6 2.6 0 0 1-.9-2.1v-.4m-50.6 116.1l3.9-3c10.5-8 20.8-16.2 30.7-25 9.2-9 21.4-17.7 18.3-31.9-.2-6.5-.9-13.1-1.6-19.7l-.6-4.9a46.4 46.4 0 0 1-.3-3.2v-1.7c-.3-3.3-.5-6.6-.6-10 1 3.7 1.8 7.4 2.5 11.1.7.3 3 .7 7-.5 6-1.9 10.7-15.3 10.2-29.3-.4-10.3-4.7-20.8-13.4-20.8-7.7 0-9 8.4-10.1 15.8-.8 5.3-1.5 9.9-4.6 10.6a5 5 0 0 1-4.2-.7c-3.5-2.5-4.3-9.9-5-15.8-.2-2.8-.6-6.2-1.1-6.8-1-1-3.7-2.6-6.6-4.3a51.4 51.4 0 0 1-10.6-7c-2-2-3.3-5.8-4.9-10.1a38.2 38.2 0 0 0-9-15.8 26 26 0 0 0-18.7-9.2 45 45 0 0 0-20 5.4 46.1 46.1 0 0 0 14.3 18.8l3 2.5 3.2 2.3 3.2 2.2 3.4 2.2-3.8-1.4-3.6-1.7-3.5-2-3.3-2.4a55.9 55.9 0 0 1-12.3-14.9 123.1 123.1 0 0 1 .6 19.5c-.4 4.3-1 8.7-2.5 12.8-1.5 4-4.2 8-8 10 3-3 4.8-6.8 6-10.7a72.1 72.1 0 0 0 2.5-12.2 90.3 90.3 0 0 0-.4-17c-.5 7-2.6 15.8-8.3 23.8-8 11.3-21.3 18.4-39.5 21.1h-.2l-1.7.3c0 1.5 0 3 .2 4.6a63 63 0 0 0 3.4 19 54 54 0 0 0 4.5 8.8c.8 1.4 1.6 3 2.1 4.7.5 1.6 1 3.2 1.3 4.8.7 3.3 1.2 6.6 2 9.7a43 43 0 0 0 3.5 9l2.5 4.1 2.7 4.2 5.4 8.4A819 819 0 0 1 390 214l10 17a292 292 0 0 0 8.1 12.5l3 3.7.8.7 1 .6c.6.5 1.4.8 2 1.2l2.2.7 2.3.5c3.2.3 6.4 0 9.5-.8l.4-.1h.2c2.9-.9 5.7-2 8.2-3.7l3.9-2.9" fill="#CAA575" fill-rule="nonzero"></path><path d="M406.9 74c1.3 2 2.7 3.9 4.3 5.7 2.4-6.3 1.9-14.4 11.8-18.4-5.2-2.8-15.4 3.2-19.9 5.4 1 2.6 2.3 5 3.8 7.3M403.9 95a64 64 0 0 0 6.5-13.2 51.3 51.3 0 0 1-6.8-9.5 123.1 123.1 0 0 1 .6 19.5l-.3 3.1M401.2 98.6l.1-.7c.5-2 .7-4.1.9-6.2a90.1 90.1 0 0 0-.4-17c-.5 7-2.6 15.8-8.3 23.8-5.7 8-31.5 16.8-42.4 20.5 4.2 6.1 39.1-5.1 50-20.4" fill="#B78554" fill-rule="nonzero"></path><path d="M496.3 193.6c-.1.9-.2 1.8-.6 2.6l-.5 1.2-.7 1.2c-.8 1.5-1.9 2.8-2.9 4.2-4.2 5.2-9.1 9.7-14 14.2-9.9 8.8-20.3 17-30.8 25.1l-4 3-4 3a32 32 0 0 1-7.4 3.5 44 44 0 0 1 1.6 2.4l.2.2a62.6 62.6 0 0 1 7.1 16.7l1.1 4 .6 2.7.4 2.7c.4 3.5.4 7.1 0 10.7l-.5-2.6-.4-2.6-1-5.2c-.5-2.6-1-5.2-1.7-7.7a90.7 90.7 0 0 0-11.3 12.3c-1.7 2.5-3.3 5.1-4.6 7.9-1.2 2.7-2 5.6-1.8 8.5l.8 7.2a41.6 41.6 0 0 1-.3 8.3c-.1 1-.4 1.8-.7 2.7l-.1.4c.4 1 2.2 4 6.5 5.6 6 2 14.5-.1 24.7-6.2l1-5.3c.7-5.1 1-10.4 1.8-15.6a73 73 0 0 1 4-15.4c2.2-5 5.5-9.2 8.7-13.4a211 211 0 0 1 6.5-7.6l1-1.3h.2a382.8 382.8 0 0 1 24.8-25.3l2.9-2.7 1.2-1.2-7.6-40-.2 1.8" fill="#CAA575" fill-rule="nonzero"></path><path d="M305.2 53c-24.8-30.8-62-47.8-107.5-49C159 3 122 12.6 93.6 31.3c-31 20.3-51.1 50.4-58.1 86.8-14.8 77.3 33.8 151.7 108.4 166 7.7 1.5 15.6 2.3 23.4 2.4.4 0 .7.1 1 .4.2.4 5.8 8.6 2.9 17.6-2 6-7.2 11-15.7 14.4 8.7 5 21.3 4.8 32.7-.4 15.2-7.1 25-21.5 26.9-39.5 0-.5.4-.9.9-1 65.4-16.1 105.5-53.7 116-108.6 8.2-42.6-1.6-85-26.8-116.3" fill="#FFF" fill-rule="nonzero"></path><path d="M305.2 53c-24.8-30.8-62-47.8-107.5-49C159 3 122 12.6 93.6 31.3c-31 20.3-51.1 50.4-58.1 86.8-14.8 77.3 33.8 151.7 108.4 166 7.7 1.5 15.6 2.3 23.4 2.4.4 0 .7.1 1 .4.2.4 5.8 8.6 2.9 17.6-2 6-7.2 11-15.7 14.4 8.7 5 21.3 4.8 32.7-.4 15.2-7.1 25-21.5 26.9-39.5 0-.5.4-.9.9-1 65.4-16.1 105.5-53.7 116-108.6 8.2-42.6-1.6-85-26.8-116.3z" stroke="#FFF" stroke-width="1.3"></path><path d="M216 279c-4 39.5-43.8 52.7-62.8 39.7 28.5-10.4 14.2-31.2 14.2-31.2a135 135 0 0 1-23.7-2.4C68.5 270.7 19.6 196 34.5 118 49.5 40 121.2.9 197.8 3c105 2.9 150.1 88.7 135.2 166.6-10 52-46.7 92.1-117 109.5" stroke="#3E4147" stroke-linecap="round" stroke-linejoin="round" stroke-width="2"></path><g><g transform="matrix(1 0 0 -1 32.7 323.7)"><mask id="b" fill="#fff"><use xlink:href="#a"></use></mask><g mask="url(#b)"><path d="M103.1 234.2a115.5 115.5 0 0 1-20.2-21c-.3-.7-11.7-27-6.6-56.6l1.4 1.3c4.2 4 9.6 7.6 14.8 11.2 4.3 3 8.5 5.9 11.7 8.7 1.2 1 2.2 2 3 3 5.9 7 3.1 29.4 3 30.9-2 3.4-3.4 7-4.3 10.8l-7.6-11.8a82.1 82.1 0 0 1-13.6-36.1 40.1 40.1 0 0 0 3.6 19.2c2.4 6.2 5.6 12 9 17.5l10.5 16.5a91.5 91.5 0 0 1 8.3 16.3c-4.4-3-8.8-6.3-13-9.7v-.2" fill="#555556" fill-rule="nonzero"></path><path d="M232.6 96.9a18 18 0 0 0-6-.2c-1.6.4-2.9 1.1-4.2 1.7-1.4.6-2.7 1.2-4 1.4-.8.2-1.5.3-2.1.2h-.4a92.7 92.7 0 0 0-4-21.4 74.6 74.6 0 0 1-3.5-22.2c0-10.3 4.4-17.8 8.6-18.4 1.9-.2 6 1.3 10.2 4.8 5 4 8 9.3 8.3 14.3.6 10.5-.5 17.6-1.5 23.8-.9 5.1-1.6 10-1.4 16" fill="#F9E2D2" fill-rule="nonzero"></path><path d="M236.8 122.5a40.8 40.8 0 0 1-5.6 5.1c-.2.2-.5.3-.9.4-1.3.3-2.8.3-4.3.4-1.4 0-3 0-4.5.2-3 .4-5.8 1-8.8 1.6l-2.1.3c-.7 0-1.5.2-2.1.1-.3 0-.6-.6-.8-1.2l.1-1.9c.2-.6.5-1.2 1-1.7.4-.5 1-.8 1.5-1 1.3-.6 2.8-.8 4.2-1l4.4-.6 1.5-.2 3-.5 1.2-.5 1-.8 1.6-1.6 1.5-1.6c.5-.5 1-1 1.5-1.2h.1a.6.6 0 0 0-.4-1.2 125.4 125.4 0 0 1-9.8 1.3c-.5 0-1-.2-1.6-.4-.5 0-1-.3-1.5-.4-1-.4-2-.8-3-1.4a5.4 5.4 0 0 1-2-2.1l-.2-.7v-.7a10.2 10.2 0 0 1 .6-4c.5.5 1 .8 1.7 1.1a4.4 4.4 0 0 0 1.9.4h.5l2.3-.2 4.4-.3H229.8l2.2-.1c-.6-.5-1.3-.9-2-1l-2.4-.3-4.5.2-4.4.4h-3.2c-.3 0-.6 0-1-.2a7.4 7.4 0 0 1-2-1.4 11 11 0 0 1-1-1.2c-.5-.6-.9-1.2-1.1-1.8-.3-.6-.4-1.3-.1-1.5 0-.2.4-.4.7-.5l.9-.2a7 7 0 0 1 2 .2 9.4 9.4 0 0 0 4.6.2c1.6-.3 3-.9 4.4-1.5 1.3-.6 2.7-1.3 4-1.7h1a27 27 0 0 1 5.3.4c.7.2 1.3.5 1.7.8l.2.3.2.5.2 1c.2.6.1 1.3.1 2 0 .8 0 1.7.5 2.6.3.4.6.7 1 .9l.7.6c.4.4.5 1 .5 1.7 0 .6-.3 1.4-.1 2.3 0 .5.2.9.4 1.2l.4 1a12.5 12.5 0 0 1 1 4.1c0 .6-.3 1.2-.6 1.9-.7 1.2-1.6 2.3-2.6 3.4" fill="#F9E2D2" fill-rule="nonzero"></path><path d="M94.6 24.3c1-.7 2.1-1.3 3.2-1.5 13.4-2.3 28.6 10 38.3 22.3 4.7 5.9 9.5 14.1 13.7 21.4 6.3 10.8 11.3 19.3 15 20l3.6.6c2.1.3 2.1.3 4.2 1 1.7.7 5.8 3.4 9.1 5.6a44 44 0 0 0 4.9 3l.7.2c1.4.5 3.6 1.3 6 2.4 4 1.8 8.2 4.6 9 8.5l-3.1-.4-3.5-.3-3.4-1c-2.1-1-4.3-1.8-6.7-2.5 1 .9 2 1.5 3 2.1a28 28 0 0 0 6.8 2.5l3.7.4c1.1 0 2.3.2 3.4.5 1 .3 2 .8 2 1.8.6 2-.8 4-2.4 5.2l-4.8-1.3c-2.6-.7-5.3-1.2-8-1.5a63 63 0 0 0 12.8 4.1l2.7.7 7.8 2c2 .6 3.9 1.2 5.7 2l-4 .5c-1.4.2-3 .5-4.4 1a6 6 0 0 0-2 1.4 198 198 0 0 0-12.3-3l-3.2-.2-1.7.1c-.3 0-.6.2-1 .4-.3.2-.6.7-.6 1 0 .5 0 .8.2 1.1 0 .3.2.6.3.8l1 1.4a42.5 42.5 0 0 0 7.1 6.5c1.7 1.2 3.5 2.3 5.2 3.6 1.6 1.2 3.3 2.5 4.5 4 .7.9 1.2 1.7 1.4 2.6V144.6l-.2.5h-.2l-1.3-.3-1.3-.7-2.7-1.6-5.3-3.5-2.7-1.6-2.7-1.6-2.8-1.6-.1-.2a.6.6 0 0 0-.4-.1l-2.2-1.3-3-1.6a.6.6 0 0 0-.4-.4l-2.2-1.2a.6.6 0 0 0-.6-.3l-4.8-2.8-5.4-3.1c-.9-.5-1.6-1.2-2.4-1.9l-2.4-2.1a148.9 148.9 0 0 1-24-29c-.5-.9-1.2-1.7-1.8-2.6l-2.1-2.5-2.3-2.2-2.4-2c-6.5-5.5-13.4-10.4-20-15.6a202.4 202.4 0 0 1-18.7-16.8 55 55 0 0 0 8.3 9.6c3 2.9 6.4 5.5 9.7 8.1l2.4 1.9c-4.9 6-6.9 20-9 34.5v.6c-3 1.2-27.8 10.3-35.5-4.6 1.3-6.3 3-12.3 4.4-17.5a210.9 210.9 0 0 0 3-12.2c2.5-11.8 8.1-37.9 17-44.6M117.6 244.8c-2.1-6.2-5.3-12-8.7-17.6l-2.1-3.3v-.2c2.4-11.9 10.6-22.3 24.9-31.7 8-5.3 13.8-7.6 19.2-7.9 7.8-.3 13.6 7 19.7 14.6l2.1 2.7c4.9 6 9.5 11.7 10.7 18.8.3 2 .2 4 0 6.2 0 2.5-.2 4.9.5 6.9l.6 1.6a59 59 0 0 1 3 33.1c-.6-1.3-1.4-2.5-2.3-3.6a14 14 0 0 0-11.1-5.3 24 24 0 0 0-12.5 4.1l-3.4-.2c-3 0-6.2.5-9.5 1.6l-7.8-4.8c-7.6-4.5-15.5-9.3-23.3-14.6v-.4z" fill="#F9E2D2" fill-rule="nonzero"></path><path d="M140.9 259.8c-7.6-4.5-15.5-9.3-23.3-14.6v-.4a89.4 89.4 0 0 0-10.8-21l1-4a73.5 73.5 0 0 0 12.9 22.1c8.2 2.2 13.7 3.7 20.6 8.9-12.2 2.5 8.1 11 8.1 11 5.7-.6 8.8 1.2 8.8 1.2-3 0-6.2.5-9.5 1.6l-7.8-4.8" fill="#ECC8B5" fill-rule="nonzero"></path><path d="M185.2 264.4a14 14 0 0 0-11.1-5.3 24 24 0 0 0-12.5 4.1l-3.4-.2c14.4-10 23.4-5.7 27.6 2.2l-.6-.8" fill="#ECC8B5" fill-rule="nonzero"></path><path d="M158.3 256.4c1.4-1.2.5-6.6-1.7-6-2.3.5-12.3 7.3-16.7 8.6-9 2.7-18-.4-18-.4s8.2 7 16.6 5.3c3.9-.8 18.4-6.4 19.8-7.5" fill="#555556" fill-rule="nonzero"></path><path d="M158.3 256.4c1.4-1.2.5-6.6-1.7-6-2.3.5-12.3 7.3-16.7 8.6-9 2.7-18-.4-18-.4s8.2 7 16.6 5.3c3.9-.8 18.4-6.4 19.8-7.5z" stroke="#3E4147" stroke-width="1.2" stroke-linecap="round" stroke-linejoin="round"></path><path d="M131 191a66.2 66.2 0 0 0-19.4 18.3c.7-6.5 1.7-23-3.4-29.2-.8-1-1.8-2-2.9-2.9 12.3-30.2 36.5-31.8 41.2-31.8 8 0 8.7 7.7 8.8 9-6 7-10.3 15.8-9.2 29.3A51.1 51.1 0 0 0 131 191" fill="#F9E2D2" fill-rule="nonzero"></path><path d="M115.7 68.8c5.6 4.3 11.3 8.4 16.6 13 3.2 2.6 6.3 5.5 8.4 9A132.7 132.7 0 0 0 156 111a150 150 0 0 0 11.2 11.2c.8.7 1.5 1.4 2.6 2l5.4 3.2 4.5 2.6a68.1 68.1 0 0 1-13.6 14l-5.5 4.9a11 11 0 0 0-2.5-6.9c-2.3-2.6-6-4-11-4-8 0-17.3 3.2-25.4 8.7a56.3 56.3 0 0 0-21.2 26.7l-7.4-5.3a139 139 0 0 1-13.6-10c19.8-1.3 23.9-30 27.5-55.3 2-14.5 4-28.2 8.6-34M193.2 97.9c-2.2-1-4.2-1.6-5.5-2.1l-.7-.3c-.5-.1-2.6-1.5-4.6-2.8-3.4-2.3-7.6-5-9.4-5.7-2.1-.7-2.2-.8-4.4-1.1l-3.6-.6c-3.1-.6-8.5-9.8-14.2-19.5-4.2-7.2-9-15.5-13.7-21.4-9.1-11.5-23-23-35.9-23-1.2 0-2.4 0-3.6.3-1 .1-2.1.6-3.1 1.3-20.3-33.4-32-64.7-34-90.5l125.7-.8c2.5 12.6-3.8 55.5-7.6 81.2-1.3 9-2.3 15.7-2.4 17.8a74.8 74.8 0 0 0 4.4 24.8 120 120 0 0 0 7.3 15.7c5 9.4 8.8 16.8 5.3 26.7" fill="#F3783C" fill-rule="nonzero"></path><path d="M159 217c1.3-1 2-1.8 3.8-1.6l.7.2c1.3.1 2.5.6 3.5 1.5v-.3l.7-.4c-.3-1.7-2-3.5-4-4.7-1.4-.5-3-.8-4.2-.6-.8 0-1.5.3-2 1-.5 0-1 .4-1.3.7-.2 0-.3.2-.4.3-.5.9-1.3 1.5-2.1 2-1.4 1-2.1 2-2.3 3.4 2.1-1.1 5.9-.3 7.6-1.6" fill="#ECC8B5" fill-rule="nonzero"></path><path d="M152.9 235.9c0 7.2-5.4 15.1-13.8 15.1-8.3 0-11.1-7.5-11.1-7.5l24.9-7.6z" fill="#E39D74" fill-rule="nonzero"></path><path d="M153.5 235.2c-4 0-6.8-8.2-16.8-3.4-10 4.8-7.3 11.3-7.3 11.3 14.8 3.8 24.1-8 24.1-8" fill="#FFF" fill-rule="nonzero"></path><path d="M166.4 233s1 10 10 10.5c9 .4 7.2-6.7 7.2-6.7l-17.2-3.9z" fill="#E39D74" fill-rule="nonzero"></path><path d="M183.5 236.1s1-8.1-7-9.8c-8-1.7-8.5 4.3-10.5 5.8 0 0 5.5 9.2 17.5 4" fill="#FFF" fill-rule="nonzero"></path><path d="M134.9 237.9a6.5 6.5 0 1 1 12.8-1.7A6.5 6.5 0 0 1 135 238" fill="#916042" fill-rule="nonzero"></path><path d="M134.9 237.9s2.9 2.2 6.4 1.7c3.6-.4 6.4-3.4 6.4-3.4A6.5 6.5 0 0 1 135 238" fill="#715342" fill-rule="nonzero"></path><path d="M137.4 237.5a4 4 0 1 1 7.8-1 4 4 0 0 1-7.8 1" fill="#3E4147" fill-rule="nonzero"></path><path d="M138.3 239.4a1.5 1.5 0 1 1 3 0 1.5 1.5 0 0 1-3 0" fill="#FFF" fill-rule="nonzero"></path><path d="M135.4 237.8a5.9 5.9 0 0 0 6.7 5.1 5.9 5.9 0 0 0 5-6.6 6 6 0 0 0-11.7 1.5m.3-5a7 7 0 0 1 1.6-1.6 16.3 16.3 0 0 1 6.7-.7 7 7 0 1 1-8.3 2.2" fill="#3E4147" fill-rule="nonzero"></path><path d="M169.8 233.2a5.8 5.8 0 1 1 11.4-1.5 5.8 5.8 0 0 1-11.4 1.5" fill="#916042" fill-rule="nonzero"></path><path d="M169.8 233.2s2.5 2 5.7 1.5c3.2-.4 5.7-3 5.7-3a5.8 5.8 0 0 1-11.4 1.5" fill="#715342" fill-rule="nonzero"></path><path d="M172 232.9a3.5 3.5 0 1 1 7-1 3.5 3.5 0 0 1-7 1" fill="#3E4147" fill-rule="nonzero"></path><path d="M173 234a1.2 1.2 0 1 1 2.5 0 1.2 1.2 0 0 1-2.4 0" fill="#FFF" fill-rule="nonzero"></path><path d="M169.8 233.2a5.8 5.8 0 1 1 11.4-1.5 5.8 5.8 0 0 1-11.4 1.5z" stroke="#3E4147"></path><path d="M184 236.3c.7-2 0-3.9-.8-5.5a10 10 0 0 0-3.7-4 8.4 8.4 0 0 0-5.3-1c-1.8.1-3.5 1-5 1.9 1.7-.5 3.4-1.1 5-1 1.7-.1 3.3.3 4.6 1.2 1.4.9 2.4 2.1 3.2 3.5.8 1.4 1.3 3.2 1 4.5l1 .4zM149.4 233.1c-1.6-1.7-4-2.9-6.4-3-1.3-.2-2.5-.1-3.7 0a15.2 15.2 0 0 0-9.2 6c-.7 1-1.3 2.1-1.6 3.4-.3 1.3-.2 2.7.4 3.9l1-.5c-.8-2 0-4.3 1.3-6 1.3-1.9 3.1-3.4 5.1-4.5 2-1 4.3-1.6 6.6-1.5 2.3 0 4.6.8 6.5 2.3z" fill="#3E4147" fill-rule="nonzero"></path><path d="M153.5 235.2a36.3 36.3 0 0 1-7.3 4.2c-2.5 1-5.2 1.8-7.7 2h-4c-1.4 0-3 0-4.5.2-1.6.2-3.3.8-4.5 2a8.7 8.7 0 0 0-2.5 3.8c1.3-.8 2.4-1.7 3.6-2.2 1.2-.5 2.3-.6 3.6-.6 2.5 0 5.5.7 8.6.4 3.2-.4 6.1-1.7 8.6-3.4a20 20 0 0 0 6.2-6.4h-.1zM166 232a8.7 8.7 0 0 0 4.8 5.6c1.1.6 2.4 1 3.7 1 1.3.2 2.6.2 3.8 0 2.3-.3 4.7-1 6.8-1.6 1-.3 2-.6 3-.6 1.1 0 2.2.2 3.3.6a6.5 6.5 0 0 0-3-2c-1.3-.5-2.6-.4-3.7-.3l-6.8.6c-2.1.1-4 0-6-.6-2-.5-3.9-1.3-5.9-2.7z" fill="#3E4147" fill-rule="nonzero"></path><path d="M190.1 252.3c-1.6 3.4-12.6 2-14.8.7-2.3-1.2-4.6-4.9-3.2-5.8 1.5-.9 11.2 3.5 14.7 3.1 2-.2 2.5-2.7 2.5-2.7s2.1 2 .8 4.7" fill="#555556" fill-rule="nonzero"></path><path d="M190.1 252.3c-1.6 3.4-12.6 2-14.8.7-2.3-1.2-4.6-4.9-3.2-5.8 1.5-.9 11.2 3.5 14.7 3.1 2-.2 2.5-2.7 2.5-2.7s2.1 2 .8 4.7z" stroke="#3E4147" stroke-width="1.2" stroke-linecap="round" stroke-linejoin="round"></path><path d="M163.2 227.8a42 42 0 0 1 2-4.7l2.2-4.5.5-1.3-.1-1.6c-.2-.5-.6-1-1-1.2l-1-.9c-.7-.5-1.5-1-2.4-1.1-.9-.3-1.7-.2-2.6-.1 1.6.8 3 1.3 4.3 2.3l.9.8c.3.2.5.4.6.7.3.5.1 1.2-.2 2l-2 4.7a24 24 0 0 0-1.2 4.9M156.3 213.5c-.4 0-.4.6-.2 1l.6.7.2.4s0 .2 0 0c.2-.2-.1 0-.3 0-1 .2-2.1-.3-3.6-.1-.4 0-.8.2-1.1.5l-.8.8c-.4.6-.5 1.4-.4 2 .3 1.4 1.2 2.3 2 3.2-.5-1-1.1-2.2-1.2-3.2 0-.6.2-1 .5-1.4l.6-.4.6-.2c1-.2 2.2.3 3.7 0l.5-.3c.1-.1.5-.3.5-.8 0-.4-.2-.6-.3-.7l-.4-.3-.7-.5c-.2-.2-.4-.4-.2-.7" fill="#3E4147" fill-rule="nonzero"></path><path d="M210.4 102.8c.2.6.6 1.2 1 1.8a11 11 0 0 0 1.3 1.3c.6.6 1.2 1 1.9 1.3l.9.3h1c.7 0 1.4 0 2.2-.2h1.2c-1.4-2.1-3.4-3.2-5.1-6.3l-.9-.2a7 7 0 0 0-2-.2 2.8 2.8 0 0 0-1.6.7c-.3.2-.2.9 0 1.5M218.8 108.5l-2.3.2h-1.2c-.4 0-.8-.2-1.2-.4l-1.7-1a10.4 10.4 0 0 0-.7 3.9v.7l.3.7c.4.8 1.2 1.6 2 2.1a14.1 14.1 0 0 0 4.5 1.8h.1c-.9-2.1-1.4-5.2 1-8h-.8z" fill="#ECC8B5" fill-rule="nonzero"></path><path d="M150.8 65.8c2.4 4.2 2.3 4.1 4.4 7.4 25.6-4.4 32.2 11 39.2 14.8a49.5 49.5 0 0 0-6.5-16.8l-3.3-6.5c-9 0-13.3 3.3-36.4-3.3l2.6 4.4M115.7 68.8c-2 2.5-3.5 6.5-4.7 11.4 5.6-1.2 11-2 16.2-2.7a596.7 596.7 0 0 0-11.5-8.7" fill="#DF642F" fill-rule="nonzero"></path><path d="M122 29.6c5 3.5 10 8.4 15 14.8 4.8 6 9.6 14.2 13.8 21.4l1 1.6s33.7-.2 17.8-2c-16-1.7-25.9-24.7-47.5-35.8" fill="#DF642F" fill-rule="nonzero"></path><path d="M105.6 104.6l-.4 2.7c-3 1.2-28.7 11.2-35.9-4.2l.6-2.7c8.4 13.4 30.8 6 35.7 4.2" fill="#D85927" fill-rule="nonzero"></path><path d="M68.9 135.6c-1.4-9.4-1.5-20.5-.3-28.4l.4-2.1c8 13.6 31 5.5 36 3.6-3.4 23.7-8.3 48.1-26.6 48.2-2-1.9-3.8-3.8-5-5.9-2.1-3.2-3.6-8.9-4.5-15.4" fill="#F3783C" fill-rule="nonzero"></path><path d="M182.6 131.6l-2 3.9c-20.5 18.4-18 46-16.9 53.5-3.6-3.6-7.5-6-12.2-6h-.6c-1.2 0-2.4.1-3.6.4-1.5-20.2 9.2-29.4 19.7-38.4 5-4.3 10.2-8.8 13.9-14.5l1.7 1z" fill="#494849" fill-rule="nonzero"></path><path d="M188.4 270.2c.8-5.3 1.2-9.9 1.2-13.9 4.9 3.5 5.9 12 2.5 22.1-.8 2.5-1.9 5-3.2 7.3a25.2 25.2 0 0 0-.5-15.5M185.6 234.4l-.6-1.5c-.6-1.8-.4-4-.3-6.5a30 30 0 0 0-.1-6.3c1.4-7.8-1.5-15.2-4.8-23.7-4.7-12.3-10-26-4.2-45-2.5 16.6 4.6 28.9 11 40 4 6.8 7.7 13.2 8.4 19.7 1.4 12.2-1 18-3.6 24.1-1 2.5-2.2 5-3 8-.9-4.2-2-7-2.8-8.8" fill="#555556" fill-rule="nonzero"></path><path d="M178.7 196.8a53 53 0 0 1 5 19.8 52.3 52.3 0 0 0-10-16l-2.2-2.6c-2.1-2.7-4.2-5.3-6.3-7.5-.5-2.4-6-32 14.2-52.1-.5 1.1-1 2.2-1.3 3.3-11.3 24.4-4.7 41.4.6 55.1" fill="#555556" fill-rule="nonzero"></path><path d="M210 144v-1a7.7 7.7 0 0 0-1.6-3l-1.7-1.8-5.4-13.7 5.8 1.6a5.4 5.4 0 0 0-.5 3.6 3.9 3.9 0 0 0 .7 1.5l.2.3.8.3 2.4-.1 2.2-.4c3-.4 6-1.1 8.8-1.5 1.4-.2 2.9-.2 4.4-.3 1.5 0 3 0 4.5-.4l1-.3 3.9 12.3-.3 2.6c0 3 1.9 6 3.9 6.6l-.1 1c-.2.3-.6.5-1.2.5l-24.8 1a1 1 0 0 1-1-.7l-2.4-6.3c.3-.4.3-.6.4-1v-.8M237.9 153h.5c-.3.4-.6.7-1 .7-2.2.2-19.8 1-23 1a2 2 0 0 1-1.5-.7h.2l24.8-1z" fill="#E6E7E8" fill-rule="nonzero"></path><path d="M163.3 263.6c8.5-4.9 16-4.3 21 1.6a18.2 18.2 0 0 1 3 5.4 24.4 24.4 0 0 1-4.6 23.7c.4-5.5-2-17.3-9.2-24.8-2.9-3-6.3-5-10.2-6" fill="#555556" fill-rule="nonzero"></path><path d="M104.4 176.4l-2.8-2.3c5.2-13.6 22-34.9 45.7-34.9 4.6 0 8 1.2 10 3.6 2.4 2.8 2.3 6.4 2.2 7.2l-3.2 3.3c-.4-2.9-2.2-9-9.8-9-4.8 0-29.5 1.5-42.1 32" fill="#D85927" fill-rule="nonzero"></path><path d="M181.7 136.1l2-4 2.6 1.6 1.8 1c-2 2-8 9-11.1 16 .8-4.6 2.2-9.4 4.7-14.6M150 265.5c4.2-1.3 8-1.6 11.6-1 4.2.6 8 2.6 11 5.9a35 35 0 0 1 9 23.5c-4.6-10.6-16.7-19.3-31.5-28.4" fill="#555556" fill-rule="nonzero"></path><path d="M201.4 103.5a21.9 21.9 0 0 0-7.1-5c3.8-10.5-.3-18.2-5.4-27.9-2.4-4.5-5-9.6-7.2-15.6 0-3.2.2-10.6 1.7-14.5-1 9.8 1.8 19.8 2 20.2 0 .3.2.5.5.5s.5-.3.6-.5c0-.2 2.7-16.8 7.2-25-.6 19 2.9 31.7 5.7 42 2.7 9.9 4.7 17.1 2 25.8" fill="#494849" fill-rule="nonzero"></path><path d="M210.8 79c.8 2.8 1.6 5.6 2.3 8.9l-9.6 12c1.2-7.5-.7-14.3-3-22.5l-3-12.5L208 48.5c-.6 2.3-1 5-.9 7.9 0 9.7 1.8 15.9 3.6 22.5" fill="#ECC8B5" fill-rule="nonzero"></path><path d="M242.5 137.4a11.5 11.5 0 0 0-1.4 5.6c-.2 1.9-.6 6.2-1.5 6.2-1.4-.1-3.1-2.8-3.2-5.5 0-1 .3-2.5.6-4 .3-1.6.6-3.2.5-4.3 0-2.4-.9-4-1.6-5.6a8.6 8.6 0 0 1-1.2-3.4 42 42 0 0 0 5.5-6.4 79.9 79.9 0 0 1 0 5.9c.2 1.4 1 2.6 2 3.7.9 1.2 1.7 2.4 1.5 3.8-.3 2-.7 3-1.2 4" fill="#F9E2D2" fill-rule="nonzero"></path><path d="M72.3 151.7l3 3.8c-4.2 23 1.6 44.3 4.7 53.5a86.6 86.6 0 0 1-4-6.9c-12-23.3-9.2-52.8-7.7-62.8a37 37 0 0 0 4 12.4" fill="#555556" fill-rule="nonzero"></path><path d="M75.8 71.9l-2.3 8.9c-1.4 5.2-3 11.3-4.4 17.7-.5 2.3-1 4.5-1.3 6.8v-4.9c0-3.3.2-6.5.5-9.8.5-6.6 1.1-13.1 1.3-19.7.2-6.6 0-13.3-1.5-19.8a37 37 0 0 0-3.4-9.4c-1.2-2-2.5-3.9-4.1-5.6l.5.3c1 .5 2 1 3 1.8 1 .6 1.9 1.4 2.8 2.2l1.2 1.3.6.7.5.7 1.9 3 .7 1.7.6 1.6c.8 2.3 1.5 4.6 2 7 .3-2.5 0-5-.8-7.4l-.6-1.7v-.1c-.1-1-.4-4.9-2.4-8.3a23 23 0 0 1 10.2 11.6c-1.8 6.7-3.2 13.3-4.3 18.1l-.7 3.3" fill="#494849" fill-rule="nonzero"></path><path d="M210.9 113c.6 1.3 1.5 2 2.5 2.7a15.3 15.3 0 0 0 4.8 2l1.8.4c1.2 0 2.3-.2 3.4-.3l4.4-.6-1.5 1.6-1.5 1.5-.8.7-.9.3-2.7.5a20 20 0 0 0-3.6-1.6L213 119l-7.8-2-1.6-.5c.6-.6 1.2-1.2 1.6-2 .3-.6.6-1.2.7-1.9a5 5 0 0 0 0-2 3 3 0 0 0-1.2-1.8l-1-.6a8 8 0 0 0-1-3l7.4-.6.5.7 1 1.1a11.2 11.2 0 0 0-1 4.8l.1 1 .3.9" fill="#E6E7E8" fill-rule="nonzero"></path><path d="M166.7 206c-2.9-1.7-5.2-12-13.7-10.6-10.4 1.6-12.4 15-17.9 17.4a10 10 0 0 0 2.8-1.1c10.2-7.4 15.9-9.6 15.9-9.6l13 4z" fill="#DE8779" fill-rule="nonzero"></path><path d="M166.7 206c-6.3 2.1-11.7 2.7-27.4 5l15-7.5 12.4 2.5z" fill="#D2756A" fill-rule="nonzero"></path><path d="M163.4 205.1s-4.8-1.2-10.1-.1c-5.4 1.1-15.4 6.7-15.4 6.7s8.4-10.8 15.8-11.2c7.3-.5 9.7 4.6 9.7 4.6" fill="#FFF" fill-rule="nonzero"></path><path d="M167.5 206.3c-1.4-.5-2.6-1.2-4-1.6-1.4-.4-2.9-.7-4.4-.8-2.9 0-5.8.3-8.6 1.2-2.8 1-5.3 2.3-7.8 3.7-2.5 1.3-5 2.9-7.6 4 2.9-.5 5.5-2 8-3.2 2.5-1.3 5.1-2.5 7.8-3.4a27 27 0 0 1 12.3-.6c1.4.2 2.8.7 4.3.7" fill="#3E4147" fill-rule="nonzero"></path><path d="M163.8 205.2a10 10 0 0 0-6.3-5.2 9 9 0 0 0-4.3 0 21 21 0 0 0-7.4 3.4 28.6 28.6 0 0 0-5.9 5.7c-.8 1-1.7 2-2.8 2.8v.2h.2c1.1-.7 2-1.7 3-2.6 1-1 1.9-2 2.9-2.8 2-1.8 4.1-3.4 6.6-4.4l1.8-.7 1.9-.5c1.2-.2 2.5-.2 3.7.1 1.2.3 2.4.9 3.4 1.6 1 .7 2 1.6 3 2.5h.2v-.1" fill="#3E4147" fill-rule="nonzero"></path><path d="M187.8 270.2c3.7-24.2-2.4-34-3.4-37.1-1-3.5.3-8.6-.4-13-1.4-8.3-7.3-14.6-13-21.8-6.6-8.3-12.2-15.2-20-14.8a40 40 0 0 0-19.7 8c-11 7.3-22 17.4-25 32.1" stroke="#3E4147" stroke-width="1.2" stroke-linecap="round" stroke-linejoin="round"></path><path d="M203 108.6c-.5-7.6-13-11.3-16.2-12.5-1.3-.5-11-7.4-14-8.5-3-1-1.9-.7-7.9-1.7-6-1.1-17.3-27.2-28.3-41.2-10.7-13.4-26-24.7-38.9-22.5-12 2.2-18.9 39-21.3 49.8-1.6 7.3-6.2 21.3-8.4 35.2-2 13.8-.2 36.2 4.8 44.1 7.2 11.4 27.5 20.3 35 29.2 6.1 7.5 3 31.3 3 31.3" stroke="#3E4147" stroke-width="1.2" stroke-linecap="round" stroke-linejoin="round"></path><path d="M94.4 48.5c2.3 3.5 5.2 6.7 8.3 9.6 3 2.9 6.4 5.5 9.7 8.1 6.6 5.2 13.5 10.1 20 15.5 3.1 2.7 6.2 5.6 8.3 9.2 2.2 3.6 4.7 7 7.2 10.4a157 157 0 0 0 19.4 21c.8.6 1.5 1.3 2.6 2l5.4 3 11 6.4 5.5 3.1 5.4 3.2 5.3 3.5a58.4 58.4 0 0 0 4.1 2.4c.6.2 1 .4 1.8.5.3 0 .9-.2 1.2-.5l.4-1V143a7.7 7.7 0 0 0-1.6-3c-1.4-1.7-3.1-3-4.8-4.3-1.7-1.3-3.5-2.4-5.2-3.6a41.1 41.1 0 0 1-6.9-6.2l-.8-1.3c-.3-.4-.4-.9-.4-1 0-.2.2-.4.7-.5l1.4-.1 3 .3c4.1.6 8.2 1.8 12.2 3 .3 0 .7-.2.8-.5 0-.3-.1-.6-.4-.7-4.1-1.2-8.2-2.3-12.4-3-1-.2-2.1-.3-3.2-.3a7 7 0 0 0-1.7.1c-.3 0-.6.2-1 .4-.3.2-.6.7-.6 1 0 1 .3 1.4.5 2l1 1.3a42.3 42.3 0 0 0 7.1 6.5c1.7 1.2 3.5 2.3 5.2 3.6 1.6 1.2 3.3 2.5 4.5 4 .7.9 1.2 1.7 1.4 2.6v1.3l-.2.5h-.2c-.7 0-1.8-.5-2.6-1l-2.7-1.6-5.3-3.5-5.4-3.2-5.5-3.2-11-6.3-5.4-3.1c-.9-.5-1.6-1.2-2.4-1.9l-2.4-2.1a155.8 155.8 0 0 1-24-29 39 39 0 0 0-8.6-9.4c-6.5-5.4-13.4-10.3-20-15.5a215.7 215.7 0 0 1-18.7-16.8" fill="#3E4147" fill-rule="nonzero"></path><path d="M78.1 157.5c32.8.3 23.9-74.2 37.6-89.5M146.7 184.1c-2.7-31.3 23.2-36.9 34-54.4" stroke="#3E4147" stroke-width="1.2" stroke-linecap="round" stroke-linejoin="round"></path><path d="M232 108c-1.2-1-2.9-1.1-4.4-1.2l-4.5.2-4.4.3-2.2.2c-.8 0-1.3 0-2-.3a9 9 0 0 1-4.1-4.4c-.3-.6-.4-1.3-.1-1.5 0-.2.4-.4.7-.5l.9-.2a7 7 0 0 1 2 .2 9.4 9.4 0 0 0 4.6.2c3.1-.6 5.7-2.4 8.4-3.2h2a23.4 23.4 0 0 1 4.3.4c.7.2 1.3.5 1.7.8.3.3.5 1.1.6 1.7.2.7.1 1.4.1 2.2 0 .7 0 1.6.5 2.5.6.8 1.4 1 1.7 1.5.3.4.5 1 .5 1.7 0 .6-.3 1.4-.1 2.3.2 1 .6 1.5.8 2.2a12.5 12.5 0 0 1 1 4.1c0 .6-.3 1.2-.6 1.8a41 41 0 0 1-8.2 8.6l-.8.4c-1.4.3-2.9.3-4.4.3-1.4.1-3 0-4.5.3-3 .4-5.8 1-8.8 1.6-1.4.2-3 .5-4.2.4-.3 0-.6-.5-.8-1.2l.1-1.9a4 4 0 0 1 2.5-2.8 21 21 0 0 1 4.2-1c3-.4 5.9-.5 9-1.2l1.1-.5 1-.8 1.6-1.6 1.5-1.6c.5-.5 1-1 1.5-1.2.4-.2.5-.6.3-.9a.6.6 0 0 0-.6-.3 126.8 126.8 0 0 1-9.8 1.3c-.5 0-1-.2-1.6-.4-.5 0-1-.3-1.5-.4-2-.7-4.2-1.8-5-3.5-.2-.5-.3-.9-.3-1.4a10 10 0 0 1 1-4.6.6.6 0 1 0-1-.6 10.8 10.8 0 0 0-1.2 5.2c0 .6.1 1.3.4 1.9.6 1.2 1.5 2 2.5 2.6a15.3 15.3 0 0 0 4.8 2l1.8.4c1.2 0 2.3-.2 3.4-.3l6.7-1-.3-1.1c-.9.4-1.4 1-2 1.5l-1.5 1.6-1.5 1.6-.8.6-1 .3c-2.7.7-5.7.8-8.7 1.3-1.4.2-3 .5-4.4 1a6 6 0 0 0-2 1.4 5.5 5.5 0 0 0-1.3 4.7c0 .4.2.8.4 1.2.3.4.8.9 1.3.9 1.7 0 3.1-.2 4.6-.5 3-.4 6-1.1 8.8-1.5 2.9-.4 5.8 0 9-.7a4 4 0 0 0 1.1-.4l1-.7a32 32 0 0 0 7.6-8.4 5 5 0 0 0 .7-2.4 11.2 11.2 0 0 0-1-4.5l-.7-2v-2c.1-.9 0-1.8-.7-2.6-.6-.7-1.4-1-1.6-1.4-.3-.4-.3-1-.3-1.8v-2.3l-.3-1.2c-.1-.3-.4-.9-.7-1.2-.7-.7-1.5-1-2.3-1.1a25.6 25.6 0 0 0-4.6-.6h-1c-.5 0-1 0-1.3.2-1.6.4-2.9 1.1-4.2 1.7-1.4.6-2.7 1.2-4 1.4-.8.2-1.5.3-2.1.2-.7 0-1.4-.2-2.1-.4-1.5-.3-3.4-.5-4.8 1-.2.1-.3.4-.4.6v.8l.3 1.2c.3.8.7 1.5 1.2 2 1 1.3 2 2.4 3.6 3.1l1.2.3h3.5l4.4-.4h4.4l4.4-.1" fill="#3E4147" fill-rule="nonzero"></path><path d="M220.6 121.9c-2.4-1.4-5.1-2.2-7.7-2.9l-7.8-2-7.8-2.2c-2.6-.6-5.3-1.2-8-1.5 2.5 1 5 2 7.6 2.7l7.9 2.1 7.8 2c2.6.8 5.2 1.5 7.4 2.8a.6.6 0 0 0 .6-1z" fill="#3E4147" fill-rule="nonzero"></path><path d="M202.5 117.3a9 9 0 0 0 2.6-2.8c.7-1.1 1-2.5.7-3.9a3 3 0 0 0-1.2-1.8c-.6-.4-1.2-.7-1.8-.8-1.2-.4-2.4-.5-3.6-.6l-3.5-.3a20 20 0 0 1-3.4-1c-2.1-.9-4.3-1.8-6.7-2.5 1.9 1.7 4 2.8 6.3 3.6 1.2.4 2.3.8 3.5 1l3.7.4c1.1 0 2.3.2 3.4.5 1 .3 2 .8 2 1.8.6 2-.9 4.2-2.6 5.4a.6.6 0 0 0 .6 1z" fill="#3E4147" fill-rule="nonzero"></path><path d="M210.3 104l-8.7.7M234 126.1c0 3.1 2.9 5.1 3 9.3 0 2-1.2 6.3-1.2 8.3 0 3 2 6 3.7 6 2.1.3 2-7 2.5-9.3.6-2.8 1.8-3.2 2.3-6.9.5-3-3.1-4.8-3.5-7.7-.1-.8.3-6.5-.3-8.4M236.1 141l-4.2-13M206.1 138.5l-5.8-14.8" stroke="#3E4147" stroke-width="1.2" stroke-linecap="round" stroke-linejoin="round"></path><path d="M239.5 149.8s1 2.5-1.6 2.6l-24.8 1c-.7 0-1.3-.4-1.6-1l-2.6-6.7" stroke="#3E4147" stroke-width="1.2" stroke-linecap="round" stroke-linejoin="round"></path><path d="M239.6 151.4s-.5 2.8-2.3 3c-1.7 0-19.7.9-22.9.9-2.4 0-2.9-3-2.9-3M215.3 100.5c-1-19.6-7.5-25.6-7.5-44.1 0-10.7 4.6-18.4 9-19 4.8-.6 18.6 8.1 19.3 19.7 1.1 19.5-3.7 26.7-2.9 40.5M193.5 98.7c8-20.8-16.2-30.7-16.7-68 .4-8 13.7-83.3 9.8-99.6L60-68.1c1.8 25.5 13 57 34.4 92M210 44.3l-13.2 20.5M181.7 296.1c-9.7-29.8-80.2-43.8-106.2-93.7-15-29-7.2-66.7-7.2-66.7" stroke="#3E4147" stroke-width="1.2" stroke-linecap="round" stroke-linejoin="round"></path><path d="M117.6 244.8c-2.1-6.2-5.3-12-8.7-17.6l-10.6-16.5c-3.4-5.6-6.6-11.3-9-17.3-2.2-6-3.7-12.3-4.6-18.8v4.9l.7 4.9 1.2 4.8 1.7 4.6c2.4 6.2 5.6 12 9 17.5l10.5 16.5a89 89 0 0 1 8.7 17.4.6.6 0 0 0 1.1-.4z" fill="#3E4147" fill-rule="nonzero"></path><path d="M82.4 213.5s-12.2-27.4-6.5-58.2M188.5 245c3-11.7 9.2-15.9 7.1-34-2.4-20.8-34.1-39.7-12.1-79.8M184 220c3.7-20.5-23.2-39.4-5.4-78M164.7 190.8s-7.6-33.6 16.4-55M175.7 157.5c.5-9.7 13.4-23 13.4-23M201.6 104.7c6.7-18.9-9-31.3-7.2-71.3-5.3 7.4-8.5 27.2-8.5 27.2s-3.5-12.1-1.6-22.6c-3.6 2.8-3.2 17.2-3.2 17.2M202.4 102.1l11.3-14M106.3 103.6s-28.2 11.9-36.7-4.9M105.8 107.7s-29.3 12.8-37-4.5M100.9 174.3a53.4 53.4 0 0 1 46.4-35.7c14.4 0 12.8 11.7 12.8 11.7" stroke="#3E4147" stroke-width="1.2" stroke-linecap="round" stroke-linejoin="round"></path><path d="M104.6 177.4c11-27.6 32.6-32.6 42-32.6 9.3 0 9.3 9.9 9.3 9.9M181.7 296.1c2.3-6.1-4.4-40.5-33-30.8M161.7 263.9c24.2-15.4 35.4 15.6 21.6 30.6" stroke="#3E4147" stroke-width="1.2" stroke-linecap="round" stroke-linejoin="round"></path><path d="M68.2 110.1c-1-6.4-.4-13 0-19.5.6-6.6 1.2-13.1 1.4-19.7.2-6.6 0-13.3-1.5-19.8a37 37 0 0 0-3.4-9.4 27 27 0 0 0-6.4-7.7l-.5 1c1 .5 2.2.8 3.3 1.4 1 .5 2 1 3 1.8a23.1 23.1 0 0 1 8.3 11.3 45 45 0 0 1 2 6.9c.3-2.5 0-5-.8-7.4a24.8 24.8 0 0 0-8.8-11.8c-1-.8-2.1-1.3-3.2-2L58 34a.6.6 0 0 0-.6 1c5 4.1 8 10.2 9.5 16.5 1.4 6.3 1.6 13 1.4 19.4-.2 6.6-.8 13.1-1.3 19.7-.5 6.5-1 13.2 0 19.8a.6.6 0 1 0 1.1-.2z" fill="#3E4147" fill-rule="nonzero"></path><path d="M72.3 47.4s0-6-3.6-10a23.2 23.2 0 0 1 12.8 13.1" stroke="#3E4147" stroke-width="1.2" stroke-linecap="round" stroke-linejoin="round"></path><path d="M194.3 128.8l-.7-.7a23.7 23.7 0 0 1-3-3.5l-.3-1 .1-.3.6-.2 1.4-.1 3 .3 1.4.2c-.5 2.3-1.8 4.4-2.5 5.3" fill="#555556" fill-rule="nonzero"></path><path d="M194.3 129.7s2.8-3.1 3.1-6.7" stroke="#3E4147" stroke-width="1.2" stroke-linecap="round" stroke-linejoin="round"></path><path d="M146.2 174.5c-.3 2.8-.4 5.8-.1 9.2A51.1 51.1 0 0 0 131 191a66.3 66.3 0 0 0-19.4 18.3l.5-5.6c7.3-10.5 21.2-27.7 34.1-29.2M96.9 31.8c-9.7 4.2-20 48.6-24.4 70-.8-.9-1.6-2-2.2-3.2 1.3-6.3 3-12.3 4.4-17.5 1-3.5 1.8-6.6 2.3-9l.7-3.2c2.5-11.8 8.1-37.9 17-44.6 1-.7 2-1.3 3.1-1.5 13.4-2.3 28.6 10 38.3 22.3 4.7 5.9 9.5 14.1 13.7 21.4 4.5 7.7 8.4 14.3 11.6 17.7-15.8-10.5-44-61.3-64.5-52.4M217 38c1.9-.2 6 1.3 10.2 4.8a21.1 21.1 0 0 1 8.5 17.9c-12.8-16.3-22.3-6.5-27 1.3-.2-1.7-.3-3.6-.3-5.6 0-10.3 4.4-17.8 8.6-18.4" fill="#ECC8B5" fill-rule="nonzero"></path><path d="M105.9 222.5l-7.6-11.8a68.5 68.5 0 0 1-11.2-45.3l5.4 3.7a124.5 124.5 0 0 1 11.7 8.7c1.2 1 2.2 2 3 3 5.9 7 3.1 29.5 3 30.9-2 3.4-3.4 7-4.3 10.8" fill="#494849" fill-rule="nonzero"></path><path d="M79.4 210.2l12 23.7c11.9 23.6 20.4 40.7 30.6 51.8 1.6 1.7 3.3 3.3 5 4.8-12.6-7.2-39.8-25.8-51.3-58.3.3-7.2 1.1-15.1 2.5-23.9l1.2 1.9" fill="#555556" fill-rule="nonzero"></path><path d="M133.2 295a57 57 0 0 0 21.2 7.6 113.7 113.7 0 0 1-26-1.3 59.3 59.3 0 0 1-21.4-8.5c-2.1-1.5-4.2-3-6.1-4.8a28.7 28.7 0 0 0 12.2 9.8c4.8 2.2 10 3.8 15 4.7a95.2 95.2 0 0 0 31.5.9l1.3.1c-7.9 2.8-34 10.6-56-.8-10-5.2-30.2-21.4-29.3-67.3 15.8 40.5 55.6 58.8 57.6 59.6" fill="#555556" fill-rule="nonzero"></path><path d="M133.7 294h-.1c-15.6-9.9-25-28.6-41-60.6L84 216.8c5.3 6.8 11.4 12.8 18 18.2.8 3.2 1.7 6.4 3 9.5l.5 1.2.5 1.2 1.1 2.3a64 64 0 0 0 16 20.5 91.2 91.2 0 0 0 26.4 16.5c3.2 1.2 6.5 2.3 10 3-6.6-2.4-12.8-5.4-18.8-8.6a88.2 88.2 0 0 1-24-19.1 63 63 0 0 1-6-8.3c-1-1.5-1.7-3-2.5-4.5l-1.1-2.3-.5-1.2-.5-1.2a56 56 0 0 1-2.5-7.7 320 320 0 0 0 36.6 24.6c19.4 11.7 36.1 21.9 40.7 35a23.1 23.1 0 0 1-17.4 6.6 64.1 64.1 0 0 1-29.9-8.5" fill="#555556" fill-rule="nonzero"></path><path d="M159.5 289.2a167 167 0 0 1-18.7-8.6 88.2 88.2 0 0 1-24-19.1 63 63 0 0 1-13.7-27.3.6.6 0 1 0-1.1.3 64 64 0 0 0 21.1 35.2c5.2 4.7 11 8.6 17 12 6.1 3.4 12.6 6 19.4 7.5" fill="#3E4147" fill-rule="nonzero"></path><path d="M189.6 255.6c13.4 8.6-1.5 49.4-26 47.5-44-3.4-49.8-27.5-83.7-93.3" stroke="#3E4147" stroke-width="1.2" stroke-linecap="round" stroke-linejoin="round"></path><path d="M163.5 303.1s-32.2 14-58.9.1C86 293.5 67.8 265.9 78 206.7M133.5 294.5S90.5 276 75 232.4" stroke="#3E4147" stroke-width="1.2" stroke-linecap="round" stroke-linejoin="round"></path><path d="M159.4 302.2a106.3 106.3 0 0 1-31-.9 58.8 58.8 0 0 1-21.4-8.5c-2.2-1.5-4.2-3-6.1-4.8a28.4 28.4 0 0 0 12.2 9.8c4.8 2.2 10 3.8 15 4.7a107.5 107.5 0 0 0 31.4.8c.4 0 .7-.3.6-.6 0-.4-.3-.6-.6-.5z" fill="#3E4147" fill-rule="nonzero"></path><path d="M102 235c-3 0-5.8.3-8.2 1l-1.3-2.6-8.4-16.6c5.3 6.7 11.4 12.7 17.9 18.1M80.9 246.6c-2 3.5-3.1 7.5-3.8 11.5-1-6.6-1.6-14.1-1.5-22.7a95 95 0 0 0 5.3 11.2M78.2 208.3l1.2 1.9 12 23.7 1.3 2.5c-5.1 1.8-8.7 5-11.1 9a93.2 93.2 0 0 1-5.9-13.2c.3-7.2 1.1-15.1 2.5-23.9" fill="#494849" fill-rule="nonzero"></path></g></g></g><g><path d="M326.8 168.4c-10.1 52.6-48.8 88.8-112 104.4a6.4 6.4 0 0 0-5 5.6c-1.7 16.1-10.4 29-23.9 35.2-5 2.4-10.4 3.6-15.5 3.6h-1.6c3.7-3.2 6.2-6.9 7.5-11 3.6-11.3-3-21.2-3.7-22.3a6.3 6.3 0 0 0-5.2-2.7h-.3a129 129 0 0 1-22.2-2.3C73.2 265.2 26.5 193.5 40.7 119.2a126 126 0 0 1 55.8-83.4A175.7 175.7 0 0 1 197.6 9.3c43.9 1.2 79.7 17.5 103.5 47.1 24.2 30.1 33.5 71 25.7 112M305.2 53.1C280.4 22.2 243.2 5.2 197.7 4 159 3 122 12.6 93.6 31.3c-31 20.3-51.1 50.4-58.1 86.8-14.8 77.3 33.8 151.8 108.4 166 7.7 1.5 15.6 2.3 23.4 2.4.4 0 .7.1 1 .4.2.4 5.8 8.6 2.9 17.6-2 6-7.2 11-15.7 14.4 8.7 5 21.3 4.8 32.7-.4 15.2-7.1 25-21.5 26.9-39.5 0-.5.4-.9.9-1 65.4-16.1 105.5-53.7 116-108.6 8.2-42.6-1.6-85-26.8-116.3" fill="#FFF" fill-rule="nonzero"></path><path d="M400 213.9c3-.2 5-1.9 8.2-3a98.6 98.6 0 0 1 18.4-5c6.2-1.2 13.1-1.8 17-4.6.4-.3 1.4-.5 1.7-.8.4-.3 1.6-2 2-2.4-6.4 2.4-18.4 2.3-28.8 4.9-10.8 2.7-16.7 8.4-20.8 10.3.6 0 1.8.6 2.4.6" fill="#B35848" fill-rule="nonzero"></path><path d="M396 189.4c2.3.2 10.5 1.9 12.7.8 1-.4 1.4-2 2.3-2.6 1-.8 3-1 4.3-1.3 1.2-.2 9.9-.5 7.4-4.7-1-1.9-1-1.7.7-.5a7.2 7.2 0 0 1 3.3 7.8c-.7 3.4-5.3 4.4-9 6.5-3.3 1.8-5.5 3.6-9.4 3.5-4-.1-7.5-1.9-10.2-4.8l-.2-.3c-2.3-.5-4.6-4.6-2-4.4" fill="#B78554" fill-rule="nonzero"></path><path d="M445.3 200.5l-5.8 5.7c-4 3.6-8.3 7-13.3 9.6a20 20 0 0 1-4 1.5c-.8.1-.7 1-1.4 1h-2c-2.9 0-5.6-.5-8.3-1.2-2.6-.6-5.2-1.4-7.8-1.9l-1.5-.2c9.6 4.8 9.2 14.8 22.3 11.9 11.1-2.6 14.7-10.6 19.4-18.1 3.3-5.2 4.7-7.5 6-10.7-.8 1-2.6 1.4-3.6 2.4" fill="#CF7257" fill-rule="nonzero"></path><path d="M408.9 212.7c-1.2.5-5.8 1.5-6.8 1.9l5.4 1.3c2.6.6 5.2 1 7.8 1.1h2c.6 0 4.6-1 5.2-1a18 18 0 0 0 3.6-1.4c4.6-2.4 8.7-6 12.7-9.5l4.1-2c-3.6 1.2-11.8 4-15.9 4.7-3 .6-6 1.1-8.4 1.8-4.4 1.2-7.4 2.3-9.7 3.1" fill="#FFF" fill-rule="nonzero"></path><path d="M450.3 194.9c-.7 2.7-2.6 4.9-4.4 6.8a77.7 77.7 0 0 1-19.4 14.7 25.9 25.9 0 0 1-8 2.3c-2.8.3-5.6.1-8.3-.5-2.7-.6-5.3-1.7-7.8-2.4-2.4-.8-5-1-7.4-.7a1 1 0 0 1-1.1-1.2c.3-.7.9-1.2 1.4-1.7a8 8 0 0 1 1.7-1l-1 1.7c-.2.5-.3 1-.2 1.5l-1.2-1.2c2.8-.7 5.9-.2 8.4.7 2.7.8 5 1.8 7.6 2.4a22.6 22.6 0 0 0 15-1.7c4.7-2.4 8.9-5.6 13-9 2-1.7 4-3.5 5.8-5.3 1.9-2 3.7-3.7 6-5.4" fill="#3E4147" fill-rule="nonzero"></path><path d="M445.3 200.5c-6 4.5-19.3 6-27 8.1-10.6 3-14 5.1-19.3 5.4" stroke="#3E4147" stroke-width="2" stroke-linecap="round" stroke-linejoin="round"></path><path d="M402 120.2c-3.1 2.2-2.3 12.7.3 14.2 2.6 1.6 35.3-13.6 40.2-15 4.9-1.4 16.5 1 16.5 1 .2-5.6-13.7-12.2-22.2-11.1-4.9.6-16 5-23.9 7.7-6 2-9.6 2.2-10.9 3.2" fill="#624A32" fill-rule="nonzero"></path><path d="M402 120.2c-3.1 2.2-2.3 12.7.3 14.2 2.6 1.6 35.3-13.6 40.2-15 4.9-1.4 16.5 1 16.5 1 .2-5.6-13.7-12.2-22.2-11.1-4.9.6-16 5-23.9 7.7-6 2-9.6 2.2-10.9 3.2z" stroke="#3E4147" stroke-width="2" stroke-linecap="round" stroke-linejoin="round"></path><path d="M398.3 168.9a70 70 0 0 1-1.4 13.8l-.6 2.2-.5 1.1-.2 1a5 5 0 0 0 .4 3.7c.5 1 1.6 2 2.8 2.7 2.4 1.4 5.3 2.2 8.2 3.4-3.1.5-6.4 0-9.3-1.6a8.8 8.8 0 0 1-3.7-3.5c-1-1.6-1-3.6-.4-5.2l.5-1.2.4-1 .7-2.1c.4-1.4.8-2.9 1-4.4l2-9M412 192.3a4 4 0 0 1 2.5-1.8c1-.3 2.2-.3 3.2-.3 2 0 3.7-.1 4.8-1.4 1.3-1.1 1.5-2.8 1-4.6-.5-1.8-1.4-3.6-2.3-5.4 1.5 1.4 3 3 3.8 5 .4.9.7 2 .5 3.3a5.6 5.6 0 0 1-4.8 4.8c-1 0-2.1 0-3.1-.2-2-.3-3.9-.7-5.6.6" fill="#3E4147" fill-rule="nonzero"></path><path d="M455.8 140.8s-2.1-16-23.7-11c-21.6 5-21.4 24.4-14.2 26.1 0 0 3.4-11.8 38-15.1" fill="#B78554" fill-rule="nonzero"></path><path d="M455.8 140.8c-1.5 4.5-7.1 8.4-16.9 11.5-8.2 2.5-17.3 1.4-21 3.6 0 0-2.6-15.2 14.2-20.1 13.6-3.2 23.7 5 23.7 5" fill="#FFF" fill-rule="nonzero"></path><path d="M391.9 158.1c-2.7-11.7-19-14-26-10.2-7.4 4-.8 15.4-.8 15.4s29.4 6.5 26.8-5.2" fill="#B78554" fill-rule="nonzero"></path><path d="M393.7 161.1c-3.3 0-2.4 4.6-14.1 7.6-11.8 3-14.7-4.2-14.7-6.7 0 0-2.8-4.4 9.2-9.5 12-5 19.6 8.6 19.6 8.6" fill="#FFF" fill-rule="nonzero"></path><path d="M370.8 155.4a17.1 17.1 0 0 1 7-2.5c3.3-.3 6.5.1 9.5 1.4l.3.1a9.3 9.3 0 0 1-7 12.9 9 9 0 0 1-10-7.9c-.3-1.4-.1-2.7.2-4M426.8 141a20 20 0 0 1 18-4l1.2.1a10.2 10.2 0 0 1-8.4 15.2 10.2 10.2 0 0 1-10.8-11.4" fill="#CAA575" fill-rule="nonzero"></path><path d="M432.4 136.8c3.7-1.7 8.2-.8 12.4 0l1.2.3c.5 1 .8 1.9 1 3 0 0-5.7-3-11.3-2-5.5 1.2-8.8 6-8.8 6-.2-1.1-.5-3.5-.4-4.6 1.7-1.4 3.7-1.9 5.9-2.7M372.4 153.2c1.5-.5 4-.1 5.5-.3 3.2-.3 6.4.1 9.4 1.4l.3.1c.3.7.6 1.5.7 2.3 0 0-5-3-9.8-2.2-5 .8-8 5-8 5-.2-1.5 0-2.8.3-4.1.8-.6.8-1.8 1.6-2.2" fill="#AB8553" fill-rule="nonzero"></path><path d="M369.8 154.7c.8-.8 1.7-.4 2.6-.9-.6 1.5-1.1 3.9-1 5.5a8.3 8.3 0 0 0 3.2 5.5 7.7 7.7 0 0 0 6 1.5 8.3 8.3 0 0 0 6.7-9.4c-.1-1-.5-2-1-3l1 .4 1.6.7c.1.5.3 1 .3 1.6a10.3 10.3 0 0 1-8.3 11.7c-2.7.4-5.3-.3-7.4-2-2.1-1.6-3.5-4-3.9-6.7-.1-1 0-3.9.2-5M428.2 139c-.3 1.2-.5 3.6-.3 4.8a9.2 9.2 0 0 0 10.9 7.3 9.3 9.3 0 0 0 7.3-10.9 9.2 9.2 0 0 0-1.5-3.4h.2l2.4.6c.4.8.6 1.6.8 2.4a11.2 11.2 0 0 1-8.8 13.3 11.2 11.2 0 0 1-13.2-8.9 31 31 0 0 1-.3-4c.7-.6 1.7-.7 2.5-1.3" fill="#3E4147" fill-rule="nonzero"></path><path d="M374 159c.5 3 3.3 5 6.2 4.6 3-.4 5-3.3 4.6-6.3-.5-3-3.2-5.2-6.2-4.7-3 .4-5 3.2-4.5 6.3" fill="#3E4147" fill-rule="nonzero"></path><path d="M379 155.9a2 2 0 0 0 2.7 1.4 2.2 2.2 0 0 0 1.4-2.7 2 2 0 0 0-2.7-1.5 2.2 2.2 0 0 0-1.3 2.8" fill="#FFF" fill-rule="nonzero"></path><path d="M430.8 142.4a6.2 6.2 0 1 0 12.3-.8 6.2 6.2 0 0 0-12.3.8" fill="#3E4147" fill-rule="nonzero"></path><path d="M436.7 139.5a2.4 2.4 0 1 0 4.7-1 2.4 2.4 0 0 0-4.7 1" fill="#FFF" fill-rule="nonzero"></path><path d="M418.1 157c-2-4.1-1.4-9.4 1.1-13.4 1.2-2.1 2.9-3.9 4.8-5.3 1.9-1.5 4-2.6 6.1-3.4.6-.2 1.1-.5 1.7-.6l1.7-.5 1.8-.3a11 11 0 0 1 1.8 0c1.2-.2 2.3 0 3.5 0l3.4.7a26.2 26.2 0 0 1 11.9 6.6h-.1c-4.3-1.3-8.3-2.8-12.4-3.6a20 20 0 0 0-12.1.6c-3.9 1.5-7.3 4-9.6 7.3a20.1 20.1 0 0 0-3.6 12M393.7 161.1a17.7 17.7 0 0 0-15.4-7.9c-1.4 0-2.9.2-4.3.6-1.4.4-2.8.9-4 1.6a11 11 0 0 0-2.9 2.7c-.8 1.1-1.5 2.3-2.1 4h-.1a5.9 5.9 0 0 1-.1-5.3c.7-1.7 2.1-3 3.6-4 1.6-1 3.2-1.5 4.8-2 1.7-.4 3.4-.6 5.1-.6 3.5 0 6.9 1.1 9.6 3 2.8 2 5 4.8 5.8 7.9" fill="#3E4147" fill-rule="nonzero"></path><path d="M453 145a11 11 0 0 1-2.4 3.2c-1 .9-2 1.7-3.1 2.4a28 28 0 0 1-7.2 3l-2 .5-1.8.4-4 .4h-3.8l-3.8-.5a76 76 0 0 1 3.8-.6l3.7-.6a61.5 61.5 0 0 0 14.1-4.4c2.2-1 4.4-2.3 6.5-3.7M386.7 166.8a21.3 21.3 0 0 1-11 4c-2 0-4.1-.3-6-1.2-2-.9-3.4-2.7-3.9-4.6a8.8 8.8 0 0 0 4.5 3c1.7.5 3.5.6 5.3.4 3.6-.1 7.3-1 11.1-1.6" fill="#72523A" fill-rule="nonzero"></path><path d="M411.8 336l3.2-7c1.5-3.2 3-6.4 4-9.8.2-.8.6-1.6.7-2.5l.4-2.5c0-1.7 0-3.4-.2-5.2l-1.2-10.6a127.8 127.8 0 0 1-.7-11c.2-1.8.7-3.7 1.5-5.4a8.5 8.5 0 0 1 3.9-4c-2.4 2.8-3 6.2-3.2 9.6a46 46 0 0 0 0 6.8 45.6 45.6 0 0 1 5.6-10.3 78.2 78.2 0 0 1 12.4-13.4v-.4a71.4 71.4 0 0 0-6.4-14.5c-5.3 2.2-36.8 15.4-39.2 27-1.2 5.9 3.4 14.6 8.3 23.9 5 9.3 10.4 19.8 10.9 29.3" fill="#71A3C3" fill-rule="nonzero"></path><path d="M364.2 428.7c2.2.5 4.3 1.5 6.2 2.7 3.2 2.1 6 4.8 8.3 7.7a5548 5548 0 0 0 9.6-39.8l4.9-21c.8-3.5 2-7 3.3-10.3 1.4-3.4 3-6.6 4.4-9.9l8.7-17.7c1.5-10-4.9-22.1-10.5-32.8-3.7-7.1-7.3-14-8.4-19.6-3.8 2.2-15.2 9.2-21 15.2-1 3-.9 11.5-.8 23.2.2 23.3.6 62.2-7.8 101.8 1 0 2 .2 3.1.5" fill="#71A3C3" fill-rule="nonzero"></path><g fill="#83603C" fill-rule="nonzero"><path d="M354.7 103.7l-2 1.3c-.3 4.3-.5 8.6-.5 12.8.4 0 .9 0 1.4-.2 4-2 8-4.2 11.5-7.1 1.8-1.3 3.5-3 5.2-4.5l2.3-2.5 1.2-1.2 1-1.4c3-3.5 5.6-7.3 7.7-11.4 2.3-4 4.4-8.1 6-12.5a50 50 0 0 1-12 25.2l-1.2 1.4-1.2 1.3-2.4 2.5c-1.8 1.6-3.5 3.3-5.4 4.7-2 1.6-4.2 3-6.5 4.4a51 51 0 0 0 32-19.1 50 50 0 0 0 7.5-35.9 44 44 0 0 1-1.1-17.5c.4-2.6 1-5.3 2.2-7.8 1.1-2.5 2.5-5 4.8-6.8l.4-.4-2.6.6c-3.2.9-72 34.6-73.5 35.4-6.5 3.5-2.5 2.1-7.6 6.7-2.5 2.3-4.4 5.1-6 8.2a58 58 0 0 0-6 30v.1l.2-1.2c.9-3.6 2.8-6.8 5.2-9.5a40 40 0 0 1 8-7.2c6-3.9 12.6-6.5 19-9.2 3.3-1.3 6.5-2.6 9.6-4.1 3-1.5 6.2-3.2 8.1-5.7a1 1 0 0 1 1.8.8c-1.5 5.1-4.8 9.4-8.5 12.9s-7.7 6.5-11.6 9.7a38.1 38.1 0 0 0-9.7 10.8 17.3 17.3 0 0 0-2 9.6c.3-.3.4-.7.6-1 1-1.7 2.4-3.1 3.9-4.3 3-2.2 6.4-3.6 9.7-5 1.6-.7 3.3-1.3 4.8-2.1l4.6-2.6c2.9-1.8 5.4-4.1 7.2-7.2"></path><path d="M425 59.5h.8c6.8-1.6 59.5 18 61.7 17 2.8-1.1 9.2-33.3 3.5-51-3.2-10-18.5-9.7-20-10.4-2.2-1-4.6-1.3-7-1.2-2.3.2-4.7 1-7.1 1.6-4.7 1.5-9.4 3.6-14.5 4.7-2.5.6-5 1-7.5 1.2-2.6.2-5.2.4-7.8 0a29 29 0 0 1-7.6-1.9 65 65 0 0 1-6.8-3.4c-2.2-1.2-4.4-2.5-6.6-3.2-1.2-.4-2.3-.6-3.5-.7l-1.7.1-1.5.5c-1.9 1-3.4 3-4.8 5l-3.8 6.5a50.3 50.3 0 0 1-4.3 6.4c-1.6 2-3.6 4-6.1 5-1.3.6-2.6 1-4 1.2h-4A32 32 0 0 1 365 35c-4.9-1.8-9.2-4.3-14-5.5-3.1-.9-6.3-1.2-9.5-1.2l1.2.5c2 .8 3.8 2 5.6 3.2a19.3 19.3 0 0 1 8 10 44 44 0 0 0-4.4-4.5l-.6-.4c-2.8 1-16 3.8-20.8 22.9l-3.9 14.6L392 56c22.2 2 33.2 3.1 33 3.5z"></path></g><path d="M512.2 225.8a85 85 0 0 1-10.8 11.4 575.4 575.4 0 0 0-26 26.4c-7.4 9-5.5 21-3.7 32.6.4 2.3.8 4.6 1 7a327.9 327.9 0 0 1 41.7-44.2c7-6.4 13-12.1 15.7-15.7l.1-.1c.8-1.1 1.3-2 1.3-2.7 0-4.7-3.2-6.1-6.7-7.7l-2.9-1.4c-2.1-1.3-3.2-4-4.4-7-1.1-2.8-2.3-5.6-4.3-7.2-3-2.4-8-2-10.2-1.8l2.9 14.9a63 63 0 0 1 6.3-4.5" fill="#71A3C3" fill-rule="nonzero"></path><path d="M426.6 387.5a328.7 328.7 0 0 1 3.8-18.8c1-4 2-8 3.4-11.9 3.7-10 9.6-18.8 14.5-28 1.2-2.1 2.2-4.2 2.9-6.4-7.2 4-13.6 6.1-18.9 6.1-2 0-4-.3-5.7-.9a13.4 13.4 0 0 1-6.7-5l-3 7.3-4.7 9.8-.7 1.5c-3 6-6 11.8-8.8 17.8-1.5 3.2-3 6.4-4.3 9.7a59.8 59.8 0 0 0-3.3 10c-1.5 7.1-3.2 14-4.8 21a5678 5678 0 0 1-9.9 40.9 214.1 214.1 0 0 1 19.7 5.8c6.5 2.3 13 4.8 19.4 7.4l2.3-2.5.2-.2.5-.5-.1-.3c-1-10.5-.7-21 0-31.6a336 336 0 0 1 4.2-31.2" fill="#FFF" fill-rule="nonzero"></path><path d="M457.2 334.3c7.3-6 13.1-10.9 14-18.5.7-6-.4-12.4-1.4-19.3a58.6 58.6 0 0 1-.4-25.7l-.3.4c-3.2 4-6.4 8.3-8.5 12.9-1.8 4.7-3 9.8-3.8 15-.8 5-1.1 10.2-1.9 15.5a37 37 0 0 1-4.8 15.2c-5 9.2-10.8 18-14.4 27.7l-.3.9a88.4 88.4 0 0 1 21.8-24" fill="#71A3C3" fill-rule="nonzero"></path><path d="M298.5 446.3c.4 0 1.3-.6 2-1.2 4-3 11.5-8.5 28.8 10.7 2.1-3.7 4.8-7 7.6-10a110 110 0 0 1 16.9-14.8c-2.2-3.3-10.9-15.2-21-15.2-9.2 0-28 14.1-33.7 23.7-1.5 2.6-2 4.6-1.4 5.8.5.9.7 1 .8 1" fill="#CAA575" fill-rule="nonzero"></path><path d="M426 45.8a23 23 0 0 0-6.5-13.4c-1.8-1.8-4-3-6.4-3.3a8.1 8.1 0 0 0-6.7 1.8 15.8 15.8 0 0 0-4.2 6c-1 2.4-1.6 4.9-2 7.4-1 7-.2 14 2.2 20.6 8-4 14.6-5.5 20-5.5a13.3 13.3 0 0 0 3.3-6.1c.6-2.4.7-5 .3-7.5" fill="#624A32" fill-rule="nonzero"></path><path d="M151.6 381.1l-60.1-68.5-.9 1.3 59.6 68.2z" fill="#E6E7E8" fill-rule="nonzero"></path><path d="M156.5 375l-57-65.6-6.3 2 59.8 68.3z" fill="#A7A9AC" fill-rule="nonzero"></path><path d="M186.7 407.5c2.8-3.6 5.8-7 9.2-10.2 1.6-1.5 3.2-3 5.2-4.2a26.1 26.1 0 0 1-4.8-7.2l-4-9c-2.5-6-5-12-8.5-17.4a66.4 66.4 0 0 0-12.7-14.4c-2.5-2-5.1-4-8-5.3-1.2-.6-2.8-1-4.4-1.2l-4.8-.8c-3.2-.5-6.4-.9-9.7-1.6-.8-.2-1.7-.4-2.6-.8l-2.1-1.5-4-3-3.8-3c-.6-.4-1.3-.9-2-1.2l-.9-.5-.4-.2h-.2l-.2.4c-.2.2-.3.5-.4.9a10 10 0 0 0-.5 2.1 16.4 16.4 0 0 0 4.6 12.6c2.2 2.2 5 3.8 8 4.9a181.3 181.3 0 0 1 13.7 5.3c1.5.7 3 1.4 4.5 2.3.3.2.5.5.4.9l-.1 5.2.3 5.1c.3 1.7.5 3.4 1 5l.6 2.5 1 2.4a34.9 34.9 0 0 0 13 15.2c-3.4-.8-6.6-2.8-9.1-5.3a27.1 27.1 0 0 1-5.8-9.1l-.5-1.3c0 .2 0 .4-.2.5l-4.6 6.3h-.1v.1h-.1l-3 2.3h-.2l-.2.1h-.1l-1.9.2 2.1.3c4.8.5 10.2 1.1 10.8 7 .5 5-5.6 6.2-12 7.7l-2 .4a119 119 0 0 1-7.8 1.6c8.4 8.9 19.9 11.2 28.4 12.9 5.2 1 9 1.8 11.1 3.6 2.4-3.7 5-7.2 7.8-10.6M131.3 363.5l-11.2-12.8c-1.8-.2-9.2-.9-15.6-2.6-.6.8-1.7 2.6-1.5 4.8.1 2 1.2 3.8 3.3 5.5 4.5 3.6 12 4.1 18.6 4.6 2.3.1 4.5.2 6.4.5" fill="#CAA575" fill-rule="nonzero"></path><path d="M152.6 354a100.8 100.8 0 0 0-13.6-5.2c-1.6-.6-3.1-1.3-4.6-2.2l24 27.6-.2-.4-.7-2.6c-.5-1.7-.7-3.5-1-5.3-.2-1.7-.2-3.5-.3-5.3l.1-4.7c-1.1-.7-2.4-1.3-3.7-1.9" fill="#B78554" fill-rule="nonzero"></path><path d="M103.9 332c-1.8.5-7.2 2.3-8 8.2-.2.6 0 1.2.5 1.8 3 3.7 15 5.8 21.8 6.5L104 332.1zM148.8 397.6c6.5-1.4 10.7-2.6 10.4-5.5-.4-4-3.7-4.7-9-5.2-2.9-.4-5.8-.7-8.2-2h-.2c-5 0-11.6-.5-17.4-2.5-1 1.3-1.6 4.6-.8 8 .5 2.4 2.5 8.2 9.3 9.5 3.2.6 8.6-.6 13.8-1.8l2.1-.5zM148 382.6L133.5 366c-2.2-.6-5.4-.8-8.7-1-4-.3-8.2-.6-12-1.5-.9 1.8-2.4 7.5 5.8 13.7 8.4 6.4 24 5.9 29.4 5.4" fill="#CAA575" fill-rule="nonzero"></path><path d="M498.8 117.5c-1.3 3-2.9 5.8-4.1 8.7l-.4 1-.1.5v.2c0 .5.2.7 1 .8l1 .3c.5 0 1 .1 1.6.5l.6.8c.1.4.2.8.1 1 0 .7-.2 1-.4 1.5-.8 1.5-1.7 2.9-2.3 4.3-.3.7-.6 1.4-.6 2v.3l.1.3c.1.3.2.7.4.9.5 1 1.8 1.4 3.3 1.2 1.5-.2 3-.8 4.5-1.5a11 11 0 0 1-4.2 2.7c-.8.3-1.7.5-2.7.3a4 4 0 0 1-2.5-1.6c-.4-.4-.5-.8-.8-1.2l-.2-.9v-.8c.2-1 .6-1.8 1-2.6.8-1.5 1.8-2.8 2.4-4.1l.3-.9v-.1-.2c-.3-.2-1.2-.2-2-.4-.5-.1-1-.2-1.6-.6a2.6 2.6 0 0 1-.9-2.1v-.4l.2-.7.5-1.3a26.2 26.2 0 0 1 5.8-7.9" fill="#3E4147" fill-rule="nonzero"></path><path d="M401.7 66.3c27.4-14 37.4.5 42.1 4.9 6.6 6.1 8.4 20.2 12.5 24.5 4.2 4.3 14.8 8.7 17.2 11.3 2.4 2.6.3 25.2 9.3 23 6.3-1.4.8-26.4 15-26.4 9.6 0 14 11.5 14.4 21.8.5 13.3-3.9 28.1-10.9 30.3-5.7 1.7-8.2.3-8.2.3" stroke="#3E4147" stroke-linecap="round" stroke-linejoin="round" stroke-width="2"></path><path d="M491.5 144.1c1.7 6.5 3 13 3.5 19.6.7 6.6 1.4 13.2 1.6 19.8.1 3.3.2 6.7-.3 10a11.9 11.9 0 0 1-1.7 5c-.9 1.6-2 3-3 4.2-4.2 5.2-9 9.8-14 14.2-9.8 8.9-20.2 17.1-30.7 25.1l-4 3c-1.3 1-2.5 2.1-4 3a33 33 0 0 1-9.3 4.1c-3.3.9-6.7 1.3-10.2.9a17 17 0 0 1-9.5-4.2 106.5 106.5 0 0 1-6-8 291 291 0 0 1-5.4-8.5l-10-17a652 652 0 0 0-10.4-16.9c-3.5-5.5-7.4-11-10.1-17.2-1.4-3-2.4-6.3-3.1-9.6-.7-3.2-1.4-6.4-2.4-9.5-1-2.9-3-5.7-4.4-8.6-1.6-3-3-6-4-9.2-2.2-6.4-3.2-13-3.7-19.7-.4-6.7-.2-13.3.3-20a1 1 0 0 1 2 .2 143 143 0 0 0-.3 19.6c.4 6.6 1.5 13 3.5 19.2 1 3 2.4 6 4 9l2.3 4.2c.8 1.5 1.7 3 2.2 4.7 1 3.2 1.7 6.5 2.4 9.7.7 3.2 1.7 6.3 3 9.2 2.6 6 6.4 11.4 10 17l10.4 16.8 10 17a292.6 292.6 0 0 0 8 12.5c1 1.3 2 2.6 3.1 3.7 1 1 2.5 1.8 3.9 2.4 1.4.6 3 1 4.5 1.2 3 .4 6.3 0 9.4-.8 3-.8 6-2.1 8.7-3.8 1.3-.8 2.6-2 4-3l3.9-3c10.4-8 20.8-16.2 30.6-25 9.2-8.9 21.5-17.6 18.3-31.8-.2-6.6-.9-13.1-1.6-19.7-1-6.5-1.2-13.1-1.5-19.8" fill="#3E4147" fill-rule="nonzero"></path><path d="M400.2 61.3s10.8 50.4-49 57.7" stroke="#3E4147" stroke-linecap="round" stroke-linejoin="round" stroke-width="2"></path><path d="M388.5 77a50 50 0 0 1-12 25.2l-1.2 1.4-1.2 1.3-2.4 2.5c-1.8 1.6-3.5 3.3-5.4 4.7-3.7 3-7.8 5.3-12 7.4a1 1 0 0 1-1-1.7h.1c4-2.2 8.1-4.4 11.7-7.3 1.8-1.3 3.5-3 5.2-4.5l2.3-2.5 1.2-1.2 1-1.4c3-3.5 5.6-7.3 7.7-11.4 2.3-4 4.4-8.1 6-12.5M354.7 103.7a27 27 0 0 1-4.8 2.6l-5 2.2c-3.2 1.3-6.5 2.7-9.2 4.7a13 13 0 0 0-3.3 3.7 12 12 0 0 0-1.6 4.6 1 1 0 0 1-2 .2c-.6-2.5-1-5.2-.7-7.8.2-2.6 1-5.2 2.1-7.6A40 40 0 0 1 340.5 95c3.8-3.2 7.9-6.2 11.4-9.6 3.6-3.4 6.7-7.3 8-12l1.8 1c-.7.7-1.3 1.5-2 2l-1 1-1.2.7a41 41 0 0 1-4.7 2.6c-3.2 1.5-6.4 2.9-9.7 4.2-6.4 2.6-13 5.3-18.7 9a38.1 38.1 0 0 0-7.6 6.8 22 22 0 0 0-4.8 8.7c-.7 3.2-.4 6.6 1 9.6 1.3 3 3.6 5.6 6.2 7.8a1 1 0 0 1-1 1.7 14.6 14.6 0 0 1-7.8-7.8c-1.5-3.4-2.2-7-2.5-10.5a60 60 0 0 1 6.2-31.2c1.7-3.1 3.7-6.2 6.5-8.6A47.9 47.9 0 0 1 339 59.8c6.8-2.2 14-2.8 20.9-3.5l5-.7 1.3-.4.5-.1.5-.3a12 12 0 0 0 2-1.3c2.6-2.2 5-4.8 7.4-7.3a89 89 0 0 1 16-14c3-2 6.3-3.6 9.8-4.5 3.5-1 7.2-1.2 10.8-.7a1 1 0 1 1-.3 2c-3.3-.5-6.7-.3-10 .6-3.2.9-6.3 2.4-9.2 4.3a87.3 87.3 0 0 0-15.6 13.6c-2.5 2.6-4.8 5.2-7.6 7.5l-2.3 1.6-.7.3-.7.2-1.4.4c-1.8.4-3.5.6-5.3.8-7 .7-14 1.3-20.5 3.4-6.6 2-12.7 5.4-17.8 10-2.5 2.3-4.4 5.1-6 8.2a58 58 0 0 0-6 30c.2 3.4 1 6.8 2.3 9.8 1.4 3 3.7 5.6 6.7 6.8l-1 1.7a24.1 24.1 0 0 1-6.8-8.5 17.1 17.1 0 0 1-1-10.9c.9-3.6 2.8-6.8 5.2-9.5a40 40 0 0 1 8-7.2c6-3.9 12.6-6.5 19-9.2 3.3-1.3 6.5-2.6 9.6-4.1 3-1.5 6.2-3.2 8.1-5.7a1 1 0 0 1 1.8.8c-1.5 5.1-4.8 9.4-8.5 12.9s-7.7 6.5-11.6 9.7a38.1 38.1 0 0 0-9.7 10.8 17.3 17.3 0 0 0-2 6.8c-.1 2.3.2 4.7.8 7l-2 .2a14 14 0 0 1 5.7-9.7c3-2.2 6.4-3.6 9.7-5 1.6-.7 3.3-1.3 4.8-2.1l4.6-2.6c2.9-1.8 5.4-4.1 7.2-7.2-.6 3.6-3 6.8-6 9z" fill="#3E4147" fill-rule="nonzero"></path><path d="M455.2 53.2l7.5-1.4c2.5-.5 4.8-1 7-1.9 4.5-1.8 8-5.5 9.7-10 1.7-4.5 1.8-9.6.4-14.2a17 17 0 0 0-8.9-10.6c-2.1-1-4.5-1.3-6.9-1.2-2.3.2-4.7 1-7.1 1.6-4.7 1.5-9.4 3.6-14.5 4.7-2.5.6-5 1-7.5 1.2-2.6.2-5.2.4-7.8 0a29 29 0 0 1-7.6-1.9c-2.4-1-4.6-2.2-6.8-3.4-2.2-1.2-4.4-2.5-6.6-3.2-1.2-.4-2.3-.6-3.5-.7l-1.7.1-1.5.5c-1.9 1-3.4 3-4.8 5l-3.8 6.5a50.3 50.3 0 0 1-4.3 6.4c-1.6 2-3.6 4-6.1 5-1.3.6-2.6 1-4 1.2h-4A32 32 0 0 1 365 35c-4.9-1.8-9.2-4.3-14-5.5a36.7 36.7 0 0 0-14.6-.8l.1-2 3.1 1a34.3 34.3 0 0 1 8.7 4.3 19.3 19.3 0 0 1 8 10 44 44 0 0 0-4.4-4.5c-1.6-1.3-3-2.7-4.7-3.9a30 30 0 0 0-5.3-3l-3-1-2.9-1a1 1 0 0 1 .1-1.9c5.1-.7 10.4-.5 15.4.8 5 1.4 9.6 4 14.2 5.6a30 30 0 0 0 7 1.7c1.3 0 2.5.2 3.6 0 1.2 0 2.3-.4 3.3-.8 2.1-1 4-2.7 5.5-4.5 1.5-2 2.8-4 4-6.2l4-6.5a16 16 0 0 1 5.5-5.8l2.1-.6 2-.2c1.5.1 2.8.4 4 .8 2.6.8 4.8 2.1 7 3.3 2.3 1.2 4.4 2.4 6.7 3.4a27 27 0 0 0 7 1.8c2.4.3 4.9.1 7.4 0 2.4-.3 4.9-.7 7.3-1.2 4.8-1 9.4-3.1 14.3-4.7 2.4-.7 4.9-1.4 7.6-1.7a16.2 16.2 0 0 1 14 6.3c1.8 2 3 4.4 3.8 7 1.5 5 1.5 10.5-.4 15.4-1.9 5-5.9 9.2-10.8 11.2-2.4 1-5 1.5-7.5 2l-7.4 1.3c-9.9 2-19.8 4-29.5 6.4a1 1 0 1 1-.5-1.9 558 558 0 0 1 29.6-6.4z" fill="#3E4147" fill-rule="nonzero"></path><path d="M351.5 35.9s-17.5 5.3-22.6 29.4" stroke="#3E4147" stroke-width="2" stroke-linecap="round" stroke-linejoin="round"></path><path d="M459.8 52.6c1-1.5 1.8-3.3 2.4-5.1a20.7 20.7 0 0 0 .9-11 15 15 0 0 0-2.5-5.2 11.8 11.8 0 0 1 4.9 10.9c-.2 2-.8 4-1.4 6-.7 1.9-1.6 3.7-2.7 5.5a1 1 0 0 1-1.7-1zM446 55c1-.5 2-1.4 2.7-2.3.7-1 1.3-2 1.6-3 .2-1.2.3-2.4.2-3.6v-1.8l-.1-2c.5.5 1 1 1.3 1.6.3.6.6 1.3.7 2 .5 1.4.3 2.9-.2 4.3-.4 1.4-1 2.7-2 3.8-.9 1-2 2-3.2 2.8a1 1 0 0 1-1-1.7zM471 49.6a76 76 0 0 1 14 6c2.3 1.3 4.5 2.6 6.4 4.4a15 15 0 0 1 4.3 6.3 54.8 54.8 0 0 0-11.7-8.9 56 56 0 0 0-13.5-5.9 1 1 0 1 1 .6-1.9M468.2 12.3c4.4-1.7 9.4-2.3 14.2-1.1 4.7 1 9 3.7 12.2 7.2 3.4 3.4 5.8 7.6 7.4 12 1.7 4.5 2.5 9.2 2.5 14l-1.5-1a9.3 9.3 0 0 0 4.3-6.5 26 26 0 0 0 0-8.5 57.5 57.5 0 0 0-4.7-16.8 1 1 0 0 1 1.6-1l2.3 2.7c.8 1 1.7 1.7 2.3 2.8 1.3 2 2.7 4 3.7 6.1a44.9 44.9 0 0 1 4.1 28l-.7 3.5-1 3.5c-.8 2.3-1.6 4.5-2.8 6.7l-.9-1.5a62.6 62.6 0 0 1 21 4c3.4 1.4 6.6 3.3 9.1 6a15.5 15.5 0 0 1 4.2 9.9 23.6 23.6 0 0 0-5.6-8.5 30.6 30.6 0 0 0-8.5-5.5 60.8 60.8 0 0 0-20.2-4 1 1 0 0 1-.9-1.4 46.3 46.3 0 0 0 4.6-26.7c-.7-4.6-2-9-4.2-13-1-2.2-2.3-4-3.6-6-.5-1-1.4-1.7-2.1-2.6l-2.2-2.7 1.6-1a77.6 77.6 0 0 1 5 17.3c.3 3 .5 6-.2 9.2-.3 1.5-.8 3-1.7 4.4-.9 1.4-2 2.6-3.5 3.4a1 1 0 0 1-1.5-.9c0-4.5-.8-9-2.3-13.2a32.3 32.3 0 0 0-7-11.3c-3-3.2-7-5.7-11.3-6.7-4.3-1-8.9-.5-13 1a1 1 0 1 1-.7-1.8" fill="#3E4147" fill-rule="nonzero"></path><path d="M508 55.6c1 3.1 3 6 5.1 8.5 2.2 2.6 4.8 4.8 7.5 6.9a79.4 79.4 0 0 0 17.6 10.4 1 1 0 0 1 0 1.8 29.7 29.7 0 0 1-12.2 2.5 29 29 0 0 1-12.2-2.4l1-1.7 3.5 3 3.4 3.2 3.2 3.3 3 3.6c1.9 2.4 3.5 5.2 4.7 8l.8 2.3.5 2.2c.4 1.6.5 3.2.3 4.7-.5-3-1.7-5.8-3.2-8.4-1.4-2.6-3-5.1-4.9-7.5-.8-1.2-1.8-2.3-2.8-3.5l-3-3.3L517 86l-3.5-3a1 1 0 0 1 1-1.7 29 29 0 0 0 23 0v1.9a95.5 95.5 0 0 1-18.1-10.7 52 52 0 0 1-7.8-7.2 29.4 29.4 0 0 1-5.5-9.2 1 1 0 1 1 1.9-.6z" fill="#3E4147" fill-rule="nonzero"></path><path d="M519.8 87.4c13.7 31.2.8 111-20.7 112.8M495.5 181l9.7 51.2" stroke="#3E4147" stroke-linecap="round" stroke-linejoin="round" stroke-width="2"></path><path d="M430.6 250.4c2.3 3 4 6 5.6 9.3 1.5 3.3 2.8 6.6 3.8 10l1.4 5.3c.2.8.5 1.7.6 2.6l.4 2.7c.4 3.5.4 7.1 0 10.7l-.5-2.6-.4-2.7-1-5.1c-.7-3.5-1.3-7-2.4-10.3a71.3 71.3 0 0 0-9-18.6h-.1a1 1 0 0 1 1.6-1.3M512.2 225.8a85 85 0 0 1-10.8 11.4L490.2 248c-7.4 7.4-14.6 15-21.1 23-3.2 4.2-6.4 8.4-8.5 13-1.8 4.7-3 9.8-3.8 15-.8 5-1.1 10.2-1.9 15.5a37.1 37.1 0 0 1-4.8 15.2c-5 9.2-10.8 18-14.4 27.7-1.8 4.8-3 10-4.1 15a325.1 325.1 0 0 0-7.1 46.4c-.8 10.4-1.2 20.9-.1 31.2a1 1 0 0 1-2 .2c-1-10.5-.7-21 0-31.6a335.5 335.5 0 0 1 7.2-46.6c1.2-5.1 2.4-10.3 4.2-15.3 3.7-10 9.6-18.8 14.5-28a35 35 0 0 0 4.6-14.5c.8-5.1 1.1-10.4 2-15.6.8-5.2 2-10.4 3.9-15.4 2.2-5 5.5-9.2 8.7-13.4 6.6-8.2 13.8-15.8 21.2-23.2l11.3-11 2.9-2.7a63.6 63.6 0 0 1 9.4-7.2" fill="#3E4147" fill-rule="nonzero"></path><path d="M501.9 214.5s7.6-1.5 12 2c4.3 3.4 4.8 11.8 8.5 14 3.8 2.3 10.1 3.2 10.1 10 0 6.9-37.3 32.9-60.3 65.2" stroke="#3E4147" stroke-linecap="round" stroke-linejoin="round" stroke-width="2"></path><path d="M475.8 261.7c-14 14.6-1.6 36.8-3.6 54.2-2 17.4-28 20.6-40.8 53.2" stroke="#3E4147" stroke-linecap="round" stroke-linejoin="round" stroke-width="2"></path><path d="M545.7 278a75.7 75.7 0 0 0-21.2 17.1c-6 6.9-11.1 14.6-15.8 22.4A487.5 487.5 0 0 0 484 367l-11.3 25.3c-1.9 4.2-3.8 8.5-5.9 12.6-2 4.2-4.1 8.3-6.6 12.3-1.3 2-2.7 3.9-4.3 5.7-1.8 1.8-3.7 3-5.5 4.4a274.3 274.3 0 0 0-30 28.5h.1a1 1 0 0 1-1.1.2 399.5 399.5 0 0 0-30.1-11 90.1 90.1 0 0 0-10.9-3 37.6 37.6 0 0 0-9-8.8 19.1 19.1 0 0 0-8.7-3h-.8l-.5.1-1.4.6a91 91 0 0 0-19.7 16.4 52 52 0 0 0-7.5 10.1c-.5 1-1 1.9-1.2 2.9l-.4 1.4v1.2l1.3 2.7a172.4 172.4 0 0 0 19 22 295.2 295.2 0 0 0 61.7 47.2c7.5 4.3 15.2 8.3 23.4 10.9 2 .6 4 1 6.1 1.2 1 0 2 0 3-.2l.6-.2c.3 0 .5-.2.8-.3l1.4-.6c3.8-1.9 7.4-4.3 10.8-7 6.8-5.2 13-11.3 18.8-17.7a303 303 0 0 0 31.5-41.2 869 869 0 0 0 26.8-44.7l12.8-22.7c2.2-3.7 4.6-7.4 7.1-11 2.5-3.5 5-7.2 8.5-10-3 3.3-5 7.1-7.3 10.8l-3.2 5.7-3.2 5.6-13 22.6a869.3 869.3 0 0 1-26.8 44.8 304.8 304.8 0 0 1-31.7 41.5c-6 6.4-12.2 12.5-19.1 18-3.5 2.6-7.1 5.1-11.1 7l-1.6.8-.8.3-.9.3c-1.2.2-2.3.3-3.5.2a30 30 0 0 1-6.6-1.3c-8.5-2.6-16.2-6.8-23.8-11a297 297 0 0 1-62.1-47.6 173.8 173.8 0 0 1-19.3-22.4c-.5-1-1.1-2-1.5-3.2a4 4 0 0 1-.1-1v-1l.4-1.7c.4-1.2.9-2.2 1.4-3.2 2.1-4 5-7.4 8-10.6a109.6 109.6 0 0 1 14.5-13.3 39.3 39.3 0 0 1 7.4-4.2l1-.2h.9a19 19 0 0 1 9.6 3.3c3.8 2.5 6.9 5.8 9.6 9.3l-.7-.4a212.6 212.6 0 0 1 20.7 6c6.8 2.4 13.5 5 20.1 7.8l-1.1.2a275.5 275.5 0 0 1 30.2-28.7c1.8-1.4 3.8-2.8 5.3-4.2 1.4-1.7 2.8-3.5 4-5.4 2.4-3.8 4.5-8 6.5-12l5.9-12.6 11.2-25.3a488.7 488.7 0 0 1 24.9-49.6c4.7-8 9.9-15.7 16-22.7l2.3-2.6 2.5-2.6c1.6-1.7 3.4-3.1 5.2-4.6 3.8-2.8 8.1-5 12.7-6" fill="#3E4147" fill-rule="nonzero"></path><path d="M429.8 499.7a113 113 0 0 1-7.1-21.9 243.8 243.8 0 0 1-4-22.7l1.3.9a17 17 0 0 0-7 5.8 34.8 34.8 0 0 0-4.6 8.5c-.6 1.5-1 3.1-1.5 4.7-.3 1.6-.9 3.1-1.3 4.7l-1.2 4.8a87 87 0 0 1-1.2 4.8v-5l.6-5 .5-2.5.6-2.4c.5-1.6 1-3.2 1.7-4.8 1.2-3.2 2.7-6.2 4.7-9a23.5 23.5 0 0 1 5.7-5.4c.8-.5 1.5-.9 2.5-1.2a1 1 0 0 1 1.2.9 212.3 212.3 0 0 0 4 22.4l1.4 5.6 1.3 5.5 1.2 5.6 1.2 5.7M431.4 467a18 18 0 0 1-3.2-3.1 34.4 34.4 0 0 1-4.7-7.6c-.6-1.3-1.3-2.6-1.8-4a1 1 0 0 1 1.8-.8l1.8 4 2 3.8a94.8 94.8 0 0 0 4 7.7" fill="#3E4147" fill-rule="nonzero"></path><path d="M379.2 441.3s-41.3 12-32.2 45.2M355.1 431.3s-10-16.5-22.3-16.5-40 23.5-36 31 7.1-17.2 32.7 11.7" stroke="#3E4147" stroke-linecap="round" stroke-linejoin="round" stroke-width="2"></path><path d="M423.4 278c-2.4 2.8-3 6.2-3.2 9.6-.2 3.4 0 7 .5 10.5.4 3.6 1 7.1 1.2 10.7a41.8 41.8 0 0 1-.3 8.3c-.1 1-.4 1.8-.7 2.7a93.8 93.8 0 0 1-4 10.1l-4.7 9.8-9.5 19.3c-1.5 3.2-3 6.4-4.3 9.7a59.8 59.8 0 0 0-3.3 10c-1.5 7.1-3.2 14-4.8 21-3.3 14-6.7 28-10.2 41.9a1 1 0 1 1-1.9-.5l10.1-41.8 4.9-21c.8-3.5 2-7 3.3-10.3 1.4-3.4 3-6.6 4.4-9.9l9.5-19.3c1.6-3.2 3.2-6.5 4.6-9.7 1.5-3.3 3-6.5 4-9.9.2-.8.6-1.6.7-2.5l.4-2.5c0-1.7 0-3.4-.2-5.2l-1.2-10.6a127.8 127.8 0 0 1-.7-11c.2-1.8.7-3.7 1.5-5.4a8.5 8.5 0 0 1 3.9-4" fill="#3E4147" fill-rule="nonzero"></path><path d="M432.2 254.6s-37.8 14.7-40.6 28c-2.8 13.4 22 38.8 19 58.1" stroke="#3E4147" stroke-linecap="round" stroke-linejoin="round" stroke-width="2"></path><path d="M440 271.8a87.4 87.4 0 0 0-12.5 13.4c-1.7 2.5-3.3 5.1-4.6 7.9-1.2 2.7-2 5.6-1.8 8.5a1 1 0 1 1-2 .1 21 21 0 0 1 2-9.4c1.3-3 3-5.7 4.8-8.2a78.3 78.3 0 0 1 12.8-13.9 1 1 0 0 1 1.3 1.6z" fill="#3E4147" fill-rule="nonzero"></path><path d="M419.7 320.3s6.2 16.3 33.2 0M531 243.8s28 18.3 42.2 42.5c20.6 35.5 16.3 131.5-47 230.7-30 46.8-11 126.8-14 130-2.3 2.6-12.8 4.4-25.4 11.7-22 12.5-50.7 31.6-57 29.3-4.9-1.8-5.8-27.4-8.6-57.3-3-32.7-7.6-70.6-7.6-93.5" stroke="#3E4147" stroke-linecap="round" stroke-linejoin="round" stroke-width="2"></path><path d="M508.1 585a48 48 0 0 0-2-13.6 88.7 88.7 0 0 0-5.3-12.8c-2-4.2-4-8.5-5.3-13.1a37 37 0 0 1-1-14.2 80.2 80.2 0 0 0 8.2 26.4c2 4.3 4 8.6 5.3 13.2a50 50 0 0 1 2.1 14 1 1 0 0 1-2 .1zM349.5 488.6c-4.2 7.4-9 14.4-14.3 21a83.7 83.7 0 0 1-18.6 17.4 35.5 35.5 0 0 1-11.8 5c-1 .3-2.2.4-3.3.5h-3.3c-2.1 0-4.4-.6-6.4-1.5-4-1.8-7.4-4.3-10.9-6.8l-10-7.5a595.5 595.5 0 0 1-40.5-30.4 255.6 255.6 0 0 1-36-35.5l.8.4c-1.4 0-2.6-.5-3.7-1s-2.1-1.2-3-2a45.8 45.8 0 0 1-12.8-16.3c-.5-1-1-2.2-1.1-3.4v-1-1l.7-1.8a45 45 0 0 1 3.3-6.1 127.2 127.2 0 0 1 17.3-21.3 31 31 0 0 1 5.5-4.4c.5-.3 1.1-.6 1.8-.7.6-.2 1.4-.4 2.3 0l.6.4.4.3.5.5 1.3 1c3.8 2.3 8 4.1 11.8 7a17 17 0 0 1 4.8 5.3 12 12 0 0 1 1.3 7.2l-.5-1a310.3 310.3 0 0 0 44.2 20.1c5 2 10.1 3.9 15.1 6.1 5 2.3 9.8 4.8 14.5 7.8 4.7 3 8.4 7.5 10.9 12.5a48.2 48.2 0 0 1 4.3 24.2c-.3 2.7-.7 5.5-1.5 8 .2-5.4 0-10.7-.6-16a42.1 42.1 0 0 0-4-15.3 29.6 29.6 0 0 0-10.2-11.7 109 109 0 0 0-14.2-7.6c-5-2.2-10-4.2-15-6l-15.2-6c-10-4.3-19.8-9.1-29.3-14.4a1 1 0 0 1-.5-.9v-.1c.2-2 0-4.2-1-6a15 15 0 0 0-4.3-4.7c-3.5-2.6-7.7-4.4-11.6-6.9l-1.5-1-.7-.6-.3-.3h-.1c-.2-.2-.6-.2-1 0a29.3 29.3 0 0 0-6.5 4.7 125.2 125.2 0 0 0-17 20.9 43 43 0 0 0-3.6 7.2V428.2c.1 1 .5 2 .9 3a43.9 43.9 0 0 0 12.2 15.5c1.7 1.3 3.6 2.5 5.5 2.5.3 0 .6.1.8.4 10.4 13 22.8 24.4 35.7 35.2 12.9 10.7 26.5 20.6 40.3 30.3 3.4 2.4 6.8 5 10.1 7.5 3.4 2.4 6.8 5 10.5 6.5 1.9.8 3.8 1.3 5.8 1.4h3c1-.1 2-.1 3-.4 4-.9 7.7-2.6 11.2-4.8 6.9-4.5 12.8-10.6 18-17 5.3-6.5 10-13.4 14.2-20.7a1 1 0 1 1 1.7 1" fill="#3E4147" fill-rule="nonzero"></path><path d="M194.6 449.4a69.2 69.2 0 0 0 14.9-14.4 174 174 0 0 0 6-8.5c2-2.8 3.8-5.8 5.7-8.8-1 3.3-2.3 6.7-4 9.8-.9 1.6-2 3-2.9 4.5a92.5 92.5 0 0 1-18.6 19 1 1 0 0 1-1.1-1.6zM298.4 446.2a44.5 44.5 0 0 1 23.1 16 35.2 35.2 0 0 1 6.7 27.1c-.4-4.6-1-9.2-2.5-13.6a39.4 39.4 0 0 0-15.6-21.7c-3.7-2.5-8-4.6-12.2-5.8a1 1 0 1 1 .5-2" fill="#3E4147" fill-rule="nonzero"></path><path d="M391.5 286.3s-20.1 11.6-25 19.4c-11.4 18.2-30.1 97.8-47.2 114.1M368.9 302.7c-3.4 9 4 66.4-9 126.4M341.4 499.7c-4.2 45-47.6 102.3-47.6 120.3s11.4 45 19.4 45c3.8 0 1-25.4 15-57.7 17.5-40.3 35.3-85 38.4-102.7M321.1 627.5s33 40.5 100 3.2" stroke="#3E4147" stroke-linecap="round" stroke-linejoin="round" stroke-width="2"></path><path d="M509.5 726.3c.7-15.2 1.8-49.3-.4-77.4M296.5 637.5s-7 13.9-6.2 88.8" stroke="#3E4147" stroke-linejoin="round" stroke-width="2"></path><path d="M174.2 390.8c-3.5-.8-6.7-2.8-9.2-5.3a27.1 27.1 0 0 1-5.8-9.1l-1-2.6-.7-2.6c-.5-1.7-.7-3.5-1-5.3-.2-1.7-.2-3.5-.3-5.3l.1-5.3.5.9c-1.3-.8-2.8-1.5-4.2-2.2a100.8 100.8 0 0 0-13.6-5.2 22.2 22.2 0 0 1-8.7-5.4 18.4 18.4 0 0 1-5.1-14.1c0-1 .2-1.8.5-2.7l.6-1.3c.3-.4.6-1 1.4-1.2.6-.2.8 0 1 0l.8.2 1.3.6 2.1 1.4 4 3 3.7 3c.7.5 1.3 1 2 1.3.5.3 1.2.5 2 .7 3.1.6 6.4 1 9.6 1.5l4.9.8c1.6.3 3.3.6 5 1.4 3 1.4 5.7 3.4 8.2 5.6 5.1 4.2 9.5 9.2 13.2 14.8 3.6 5.6 6.2 11.7 8.7 17.7 1.3 3 2.5 6 4 8.9 1.3 2.8 3 5.7 5.2 7.5h.1a1 1 0 0 1-1.2 1.6 23 23 0 0 1-6-8.2l-4-9c-2.5-6-5-12-8.5-17.4a66.4 66.4 0 0 0-12.7-14.4c-2.5-2-5.1-4-8-5.3-1.2-.6-2.8-1-4.4-1.2l-4.8-.8c-3.2-.5-6.4-.9-9.7-1.6-.8-.2-1.7-.4-2.6-.8l-2.1-1.5-4-3-3.8-3c-.6-.4-1.3-.9-2-1.2l-.9-.5-.4-.2h-.2l-.2.4c-.2.2-.3.5-.4.9-.3.6-.4 1.4-.5 2.1a16.4 16.4 0 0 0 4.6 12.6c2.2 2.2 5 3.8 8 4.9a180 180 0 0 1 13.7 5.3c1.5.7 3 1.4 4.5 2.3.3.2.5.5.4.9l-.1 5.2.3 5.1c.3 1.7.5 3.4 1 5l.6 2.5 1 2.4a34.9 34.9 0 0 0 13 15.2" fill="#3E4147" fill-rule="nonzero"></path><path d="M157.7 375l-58-66.7-8.3 2.6-2 3 60.7 69.5 3-2.1zM91.4 311l61.7 70.3M104.2 331s-8.2 1.3-9.4 9c-1.1 7.7 25.8 9.7 25.8 9.7" stroke="#3E4147" stroke-linecap="round" stroke-linejoin="round" stroke-width="2"></path><path d="M104 347s-5.7 6.2 1.7 12.2c7.3 5.9 21.7 3.9 28.3 5.9" stroke="#3E4147" stroke-linecap="round" stroke-linejoin="round" stroke-width="2"></path><path d="M112.2 362.3s-4.9 7.5 5.8 15.7 32 5.4 32 5.4" stroke="#3E4147" stroke-linecap="round" stroke-linejoin="round" stroke-width="2"></path><path d="M124.2 381.3c-3.6 2.6-3.1 17.3 8.5 19.5 3.8.8 10-.8 16-2.1 6.1-1.4 11.9-2.6 11.5-6.7-.9-8.1-12-4.6-18-8.1M137.4 400.9c14.1 16.8 38.3 12.7 41.6 19" stroke="#3E4147" stroke-linecap="round" stroke-linejoin="round" stroke-width="2"></path><path d="M377.8 128c2.8 1 6.6 6.7 5.6 10.5-1.1 3.9-22.6.5-25.6 1.5s-3.6 4-3.6 4-4.4-5.8-2.6-9.7c1-2.3 1.4-3.3 4-5.1 1.7-1.1 8.4-.4 14-.4 3.3 0 7-1.4 8.2-.9" fill="#624A32" fill-rule="nonzero"></path><path d="M377.8 128c2.8 1 6.6 6.7 5.6 10.5-1.1 3.9-22.6.5-25.6 1.5s-3.6 4-3.6 4-4.4-5.8-2.6-9.7c1-2.3 1.4-3.3 4-5.1 1.7-1.1 8.4-.4 14-.4 3.3 0 7-1.4 8.2-.9z" stroke="#3E4147" stroke-linecap="round" stroke-linejoin="round" stroke-width="2"></path><path d="M477.6 217c-9.9 8.8-20.3 17-30.8 25.1l-4 3-4 3a32 32 0 0 1-7.4 3.5 43 43 0 0 1 1.6 2.4l.2.2a62.1 62.1 0 0 1 4.9 10c15.7-12.2 30.8-32.5 41.9-49.4l-2.4 2.2M406.6 81.5c.3.7.8 1.6 1.4 2.3a19.8 19.8 0 0 0 7 5.2c1.7 1 3.7 1.4 5.7 2a96.9 96.9 0 0 1 6 1.5 38.2 38.2 0 0 1-6.4.2c-2-.3-4.2-.8-6.2-1.6s-4-2-5.7-3.4c-.8-.8-1.6-1.6-2.2-2.6-.7-1-1.2-1.8-1.6-3.1a1 1 0 0 1 1.9-.7v.2z" fill="#B78554" fill-rule="nonzero"></path><path d="M408 79.6a54.7 54.7 0 0 1-1.1 15.6l-1 3.8c-.5 1.3-1 2.5-1.7 3.7-1.2 2.3-3 4.5-5.3 5.7a20 20 0 0 0 3.8-6.4c1-2.3 1.6-4.7 2-7.2a69 69 0 0 0 1.3-15v-.1a1 1 0 0 1 2 0" fill="#B78554" fill-rule="nonzero"></path><path d="M422.1 59.7a13.6 13.6 0 0 0 3.6-6.4 23 23 0 0 0-6.2-21c-1.8-1.7-4-3-6.4-3.2a8.1 8.1 0 0 0-6.7 1.8 15.8 15.8 0 0 0-4.2 6c-1 2.4-1.6 4.9-2 7.4a44.1 44.1 0 0 0 6.7 29.7c2.8 4.4 6.3 8.3 10.4 11.5l3 2.5 3.2 2.3 3.2 2.2 3.4 2.2-3.8-1.4-3.6-1.7-3.5-2-3.3-2.4A55.9 55.9 0 0 1 405.2 75a46.1 46.1 0 0 1-7-31c.4-2.7 1-5.4 2.2-8 1.1-2.4 2.5-5 4.8-6.7a10.1 10.1 0 0 1 8.2-2.3c2.9.4 5.5 1.9 7.5 3.8 2 2 3.6 4.3 4.8 6.7 1.2 2.5 2 5.2 2.3 8 .4 2.7.3 5.5-.4 8.2-.3 1.4-.9 2.7-1.5 4-.7 1.2-1.6 2.3-2.6 3.3a1 1 0 1 1-1.4-1.4z" fill="#3E4147" fill-rule="nonzero"></path><path d="M402.7 66.1a112.1 112.1 0 0 1 1.5 25.7c-.4 4.3-1 8.7-2.5 12.8-1.5 4-4.2 8-8 10 3-3 4.8-6.8 6-10.7a73.2 73.2 0 0 0 2.5-12.2 90.3 90.3 0 0 0-1.5-25.2 1 1 0 0 1 2-.4" fill="#3E4147" fill-rule="nonzero"></path><path d="M496.5 180.9l3.4 18.1c3.7-.7 7.2-3.9 10.5-9.5 8.5-14.2 14.2-43.2 14-68.4-2.4 17.4-9.4 39.4-29 46 .4 4.6.8 9.2 1 13.7" fill="#624A32" fill-rule="nonzero"></path><path d="M176.5 427.5v.7c.2 1 .6 2 1 3a43.9 43.9 0 0 0 12.2 15.5c1.6 1.2 3.4 2.3 5.2 2.5 2.2-1.6 4.3-3.4 6.3-5.3-5-.7-15.8-4-24-18.5a10.1 10.1 0 0 0-.7 2.1M282.1 522.6c3.4 2.4 6.8 5 10.5 6.5 1.9.8 3.8 1.3 5.8 1.4h3c1-.1 2-.1 3-.4 4-.9 7.7-2.6 11.2-4.8 6.9-4.5 12.8-10.6 18-17 5.2-6.3 9.8-13 13.8-20a169.8 169.8 0 0 1-18.6-21.8c-.5-1-1.1-2-1.5-3.2a4 4 0 0 1-.1-1v-1l.5-1.7c.1-.7.4-1.3.7-1.9-16.6-18.5-22.9-13.8-26.7-11l4 2.4a41.4 41.4 0 0 1 15.9 13.2 35.2 35.2 0 0 1 6.6 27l-.1-.7c-1.6 9.3-8.5 19-23.9 27.5-20 12-100.3-72-100.3-72a73.3 73.3 0 0 1-7.3 6.2c10.4 12.8 22.5 24 35 34.5 13 10.7 26.6 20.6 40.4 30.3 3.4 2.4 6.8 5 10.1 7.5" fill="#5D91AB" fill-rule="nonzero"></path><path d="M330.5 465.5l1.8 2.6c3.9 5.4 8.4 10.3 13 15.1-1-5.6-.6-10.6.8-15-5.4-.7-11-5.5-15.6-10.4a14 14 0 0 0-1 2.4l-.3 1.4v1.2l1.3 2.7M536.1 436a868.7 868.7 0 0 1-26.8 44.7 305 305 0 0 1-31.7 41.5 162 162 0 0 1-19.1 18c-3.5 2.6-7.1 5.1-11.1 7l-1.6.8-.8.3-.9.3c-1.2.2-2.3.3-3.5.2-2.3-.2-4.5-.7-6.6-1.3a108 108 0 0 1-19.4-8.6c0 7 .5 15.3 1.2 24.3 12 4.8 23 8.2 31.4 9.1 34.3 4 79.9-114.5 100.7-157L536.1 436" fill="#5D91AB" fill-rule="nonzero"></path><path d="M347.9 469.2a30.3 30.3 0 0 0 0 16.8l1.5 1.4v.1a295.2 295.2 0 0 0 61.8 47.2c7.5 4.3 15.2 8.3 23.4 10.9 2 .6 4 1 6.1 1.2 1 0 2 0 3-.2l.6-.2c.3 0 .5-.2.8-.3l1.4-.6c3.8-1.9 7.4-4.3 10.8-7 6.8-5.2 13-11.3 18.8-17.7a303 303 0 0 0 31.5-41.2 869 869 0 0 0 26.8-44.7l6.3-11.1c-39 54.7-85 99.2-102.5 101.2-19.5 2.2-78.7-33.3-90.3-55.8" fill="#5D91AB" fill-rule="nonzero"></path><path d="M412.6 537.8l-2.4-1.3a293 293 0 0 1-43-30c-1 4.9-3 11.8-5.9 20.3a392.4 392.4 0 0 0 52.3 34.6 351 351 0 0 1-1-23.6" fill="#ECEDEE" fill-rule="nonzero"></path><path d="M359.7 525.5c3-8.8 5-15.8 5.8-20.5-5.7-4.9-11.3-10-16.7-15.3-2 3.5-4.2 7-6.5 10.3-.7 7.7-2.6 15.7-5.1 23.9l9.5-11.3a97 97 0 0 0 13 12.9" fill="#5D91AB" fill-rule="nonzero"></path><g><g transform="matrix(1 0 0 -1 294 695.7)"><mask id="d" fill="#fff"><use xlink:href="#c"></use></mask><g opacity=".8" mask="url(#d)"><path d="M214.2 45.3l-3.2-1.2c-4.6-1.7-10.8-4-17.7-8l-16-9.4C156.8 14.3 143.2 6.5 137 6.5c-.6 0-1.2 0-1.6.2-4.3 1.6-5.6 15.2-7.7 41l-1.4 15.7c-14-7.7-32.9-15.2-52.6-15.2-7.3 0-14.7 1-22 3.4a59.9 59.9 0 0 0-24.1 14.5 197.2 197.2 0 0 1-4.7-25.4c-1-7.6-1.4-11-3.7-11-6 0-11.5 11.4-13.6 16.3a89 89 0 0 0-3.2 8.8C2 53 1.4 50.2.7 46.2 6.2 34.8 13.4 26 19.2 25.7c5.3-.4 5.8 34 10.2 33 4.4-1 36.4-33.4 93.1-.5 0 0 0-57.5 14.9-57.5 13.4 0 47.3 30.2 77 40.7l-.2 4" fill="#624A32" fill-rule="nonzero"></path></g></g></g><g fill="#5D91AB" fill-rule="nonzero"><path d="M359 428.2c4.7-22 6.7-43.7 7.5-62.8-4.4 17.7-10.5 41-15.8 58.3 2.3 2.6 4 5 4.8 6.2a26.3 26.3 0 0 1 3.4-1.6h.1"></path></g></g><g fill="#CA481D" fill-rule="nonzero"><path d="M234 148l6.6.4-.1 3.1-6.7-.3zM249.2 159.9h-1.8l.2-3.3a16.8 16.8 0 0 1-5-1.2l.2-2.8a12.8 12.8 0 0 0 5 1.6l.1-3.3h-.3c-1.7-.5-2.9-1-3.6-1.7-.6-.6-1-1.6-.9-2.8 0-1.2.6-2.2 1.5-2.9.9-.6 2.1-1 3.8-1v-2.4l1.8.1-.1 2.4a24.2 24.2 0 0 1 4.2 1l-.1 2.7a13 13 0 0 0-4.2-1.3l-.2 3 .3.2c1.8.4 3 .9 3.7 1.6.7.7 1 1.7 1 3-.1 1.3-.6 2.3-1.5 3-.9.6-2.2.9-4 .9l-.1 3.2zm-1.1-12.1l.1-2.8a2 2 0 0 0-1.2.3c-.3.3-.5.6-.5 1s.1.7.4 1c.2.2.6.4 1.2.5zm1.5 3.5l-.1 3c.6 0 1-.1 1.4-.3.3-.3.5-.6.5-1 0-.5-.1-.9-.4-1.2-.3-.2-.7-.4-1.4-.5z"></path><path d="M258.8 154.2l7 .4-.1 3-11.6-.6.2-3 6-4.8 1.3-1.3c.3-.5.4-1 .4-1.4 0-.7-.2-1.4-.6-1.8-.5-.5-1.2-.8-2-.8-.6 0-1.3 0-2 .3-.9.2-1.7.6-2.6 1l.2-3.4a19 19 0 0 1 5.4-.7 7 7 0 0 1 4.4 1.5 4.7 4.7 0 0 1 .6 6c-.5.7-1.5 1.7-3 2.8l-3.6 2.8z"></path><path d="M271.8 148.4c-.8 0-1.5.3-2 .9-.4.5-.7 1.4-.8 2.5 0 1.2.1 2 .6 2.7.4.6 1 1 1.8 1 .9 0 1.5-.2 2-.8.5-.6.7-1.5.8-2.6 0-1.1-.1-2-.5-2.6-.4-.7-1-1-1.9-1zm.2-2.7c2 .1 3.6.8 4.7 2a6 6 0 0 1 1.4 4.6 6 6 0 0 1-2 4.5 6.6 6.6 0 0 1-4.8 1.4c-2-.1-3.6-.7-4.7-2a6 6 0 0 1-1.5-4.6 6 6 0 0 1 2-4.5c1.2-1 2.8-1.5 4.9-1.4z"></path></g></g></svg> 