<?xml version="1.0" encoding="UTF-8"?> <svg xmlns="http://www.w3.org/2000/svg" xmlns:xlink="http://www.w3.org/1999/xlink" width="1116" height="762"><defs><path id="a" d="M0 760.3h1118V.3H0z"></path></defs><g transform="matrix(1 0 0 -1 -1 761.3)" fill="none" fill-rule="evenodd"><mask id="b" fill="#fff"><use xlink:href="#a"></use></mask><g mask="url(#b)"><path d="M871.7 86.7C871.7 69.2 699 55 486 55 272.8 55 100 69.2 100 86.7s172.8 31.7 385.9 31.7c213 0 385.8-14.2 385.8-31.7" fill="#66A9D4" fill-rule="nonzero"></path><path d="M1.2 131.3c46.5 1.5 93 .7 139.5.8h836.8l69.8.1c23.2 0 46.5-.3 69.7-.9a2606 2606 0 0 0-69.7-.9H140.7c-46.5.3-93-.6-139.5 1" fill="#0083D1" fill-rule="nonzero"></path><path d="M213 271.6L96.1 309.7M282 412.1L151 505.2M368.5 499.2l-43.5 67M466 552l-33 100.8M593.5 575.1l-1 160.4M715 555.7l18 60.4M821.7 500L952.4 698M913.1 407.1l91 70.7M970.7 296l84.1 30.1M946.2 353l41 23.5M873.5 454.6l119.1 123.5M740.5 547.7l14 34.2M632.8 573.2l15.2 109M517.2 567.2l-17.4 131M409 525.6l-15.6 36.1M317.3 453.8L191.8 603.2M240.6 347.6l-64.8 38.2M202 224.1l-50.5 9.6" stroke="#D8E9F7" stroke-width="1.7" stroke-linecap="round" stroke-linejoin="round"></path><path d="M833.7 89.5c5.8 2.3 9.2 3.2 9.9 14.9l8.6 127.4s-8.6 18.7-18.7 19.2l-368.2 15.7L316 251.2s-8.6-7-12.2-11.7a36 36 0 0 1-5.1-13.2l18.8-121.1s2.9-10.1 10.8-11.7l352.2-37.3a63 63 0 0 1 19.5-.6l133.8 34z" fill="#DF642F" fill-rule="nonzero"></path><path d="M833.7 89.5c5.8 2.3 9.2 3.2 9.9 14.9l8.6 127.4s-8.6 18.7-18.7 19.2l-368.2 15.7L316 251.2s-8.6-7-12.2-11.7a36 36 0 0 1-5.1-13.2l18.8-121.1s2.9-10.1 10.8-11.7l352.2-37.3a63 63 0 0 1 19.5-.6l133.8 34z" stroke="#3E4147" stroke-width="1.7" stroke-linecap="round" stroke-linejoin="round"></path><path d="M833.5 251l-368.2 15.7L316 251.2s-8.6-7-12.2-11.7a24.1 24.1 0 0 1-3.4-6.8l386-33.6 166 32.2v.5s-8.7 18.7-18.8 19.2" fill="#F3783C" fill-rule="nonzero"></path><path d="M618.4 200c0 3.4-2.5 6.3-5.3 6.6l-25.4 2c-1.5.2-2.9-.5-3.8-1.7-1 0-1.9-.3-2.6-1l-.7-.6v-.2l-.5-.6-.2-.4-.2-.6-.2-.6v-.5l-.2-1.2.1-4.9a7.3 7.3 0 0 1 3.2-5.8l.2-.1.8-.4h.2l1-.2c-.4-.8-.5-1.7-.5-2.6l.2-11c0-3.4 2.5-6.3 5.3-6.5l15.6-1.3h1.1c.3 0 .5.2.8.3h.2a4.1 4.1 0 0 1 1 .7 5 5 0 0 1 .7.7c2.6 0 4.6 2.5 4.6 5.7l-.3 11c0 .6-.1 1.3-.3 1.9l.1.1.6.6c2.6 0 4.7 2.5 4.6 5.7l-.1 5z" fill="#CA481D" fill-rule="nonzero"></path><path d="M618.4 200c0 3.4-2.5 6.3-5.3 6.6l-25.4 2c-1.5.2-2.9-.5-3.8-1.7-1 0-1.9-.3-2.6-1l-.7-.6v-.2l-.5-.6-.2-.4-.2-.6-.2-.6v-.5l-.2-1.2.1-4.9a7.3 7.3 0 0 1 3.2-5.8l.2-.1.8-.4h.2l1-.2c-.4-.8-.5-1.7-.5-2.6l.2-11c0-3.4 2.5-6.3 5.3-6.5l15.6-1.3h1.1c.3 0 .5.2.8.3h.2a4.1 4.1 0 0 1 1 .7 5 5 0 0 1 .7.7c2.6 0 4.6 2.5 4.6 5.7l-.3 11c0 .6-.1 1.3-.3 1.9l.1.1.6.6c2.6 0 4.7 2.5 4.6 5.7l-.1 5z" stroke="#C35927" stroke-width="1.3" stroke-linecap="round" stroke-linejoin="round"></path><path d="M687.7 63.2l-368.4 37.6c1.7-3 4.5-6.4 8.9-7.3l352.2-37.3a63 63 0 0 1 19.5-.6l133.8 34c5.8 2.2 9.2 3.1 9.9 14.8l8.6 127.4s2.6-4 0 0l-166-32.7 1.5-135.9z" fill="#D85927" fill-rule="nonzero"></path><path d="M833.7 89.5c5.8 2.3 9.2 3.2 9.9 14.9l8.6 127.4s-8.6 18.7-18.7 19.2l-368.2 15.7L316 251.2s-8.6-7-12.2-11.7a36 36 0 0 1-5.1-13.2l18.8-121.1s2.9-10.1 10.8-11.7l352.2-37.3a63 63 0 0 1 19.5-.6l133.8 34z" stroke="#3E4147" stroke-width="1.7" stroke-linecap="round" stroke-linejoin="round"></path><path d="M851.5 256.4c6.5 6.2 29.6 34.4 29.6 34.4s2.9 4.6 3.6 12.4a917 917 0 0 1 3 56.7c-.8 2.3-18.1 34.2-21.7 39.6-3.7 5.5-46.2 10.9-52.7 13.2-6.5 2.4-18 3.1-18 3.1l-346.6 12.5-33.2-.8c-8.6-1.6-10-9.3-10-9.3l-25.3-35s-2.2-4.7 1.4-10.9l85.2-100.2s5-5.7 15.1-6.1l351.6-15s11.5-.8 18 5.4" fill="#8F4727" fill-rule="nonzero"></path><path d="M881.1 290.8s3 4.6 3.6 12.4a917 917 0 0 1 3 56.7c-.8 2.3-18.1 34.2-21.7 39.6-3.6 5.5-70.8 16.3-70.8 16.3l-346.5 12.5-33.2-.8c-8.6-1.6-10-9.3-10-9.3l-25.3-35s-.5-1-.6-2.7l397.6-16L849.8 255l1.7 1.4c6.5 6.2 29.6 34.4 29.6 34.4" fill="#DF642F" fill-rule="nonzero"></path><path d="M804.6 403.7l66-12a165 165 0 0 1-4.6 7.8c-3.7 5.5-70.8 16.3-70.8 16.3l-346.5 12.5-33.2-.8c-8.6-1.6-10-9.3-10-9.3l-.2-.2 399.3-14.3z" fill="#F3783C" fill-rule="nonzero"></path><path d="M884.7 303.2a917 917 0 0 1 3 56.7c-.8 2.3-13.7 26.8-17.5 32.5l-65.6 11.3-29.2-39 1.8-.1L849.8 255l1.7 1.4c6.5 6.2 29.6 34.4 29.6 34.4s3 4.6 3.6 12.4" fill="#D85927" fill-rule="nonzero"></path><path d="M865.1 393.3c7.3-13 16.5-29.5 22.5-40.6.2 4 .2 6.7 0 7.2-.7 2.3-13.6 26.8-17.4 32.5l-5.1 1z" fill="#E97E49" fill-rule="nonzero"></path><path d="M851.5 256.4c6.5 6.2 29.6 34.4 29.6 34.4s2.9 4.6 3.6 12.4a917 917 0 0 1 3 56.7c-.8 2.3-18.1 34.2-21.7 39.6-3.7 5.5-70.8 16.3-70.8 16.3l-346.5 12.5-33.2-.8c-8.6-1.6-10-9.3-10-9.3l-25.3-35s-2.2-4.7 1.4-10.9l85.2-100.2s5-5.7 15.1-6.1l351.6-15s11.5-.8 18 5.4z" stroke="#3E4147" stroke-width="1.7" stroke-linecap="round" stroke-linejoin="round"></path><path fill="#CA481D" fill-rule="nonzero" d="M682.6 218.6l138.6 25.6L474 259.7l-139.3-13.2z"></path><path d="M707.3 184.4c0-4.7-2.4-8.6-5.5-8.6-3 0-5.5 3.9-5.5 8.6 0 4.7 2.5 8.5 5.5 8.5s5.5-3.8 5.5-8.5M706.6 71c0-4.7-2.5-8.6-5.5-8.6s-5.5 3.9-5.5 8.6c0 4.7 2.5 8.5 5.5 8.5s5.5-3.8 5.5-8.5M846 213.1c0-4.7-2.5-8.5-5.6-8.5-3 0-5.5 3.8-5.5 8.5s2.5 8.6 5.5 8.6 5.5-3.9 5.5-8.6M835 105.2c0-4.8-2.4-8.6-5.4-8.6-3 0-5.5 3.8-5.5 8.6 0 4.7 2.5 8.5 5.5 8.5s5.5-3.8 5.5-8.5M857.3 273.7c-1.8-3.5-5.1-5.3-7.4-4-2.3 1.4-2.7 5.3-.9 8.9 1.8 3.5 5.1 5.3 7.4 4 2.3-1.4 2.7-5.4.9-9M795.9 365.3c-1.8-3.5-5.1-5.3-7.4-4-2.2 1.4-2.6 5.4-.8 9 1.8 3.4 5 5.2 7.4 3.9 2.2-1.4 2.6-5.3.8-8.9" fill="#8F4727" fill-rule="nonzero"></path><path d="M584.1 446.3c1.4-19 15-35.3 32.7-38.2 3.3-.6 6.4 3.3 4.3 6.6-5.7 8.8-13 16-21.9 21-8.2 4.6-19.9 8.8-27 0-6.7-8.3 0-17.8 5.6-24.2 7-8 16-13.6 25.8-16.8 3.2-1 6.6 3.7 4.3 6.7a81.7 81.7 0 0 1-23.8 21.8c-7.7 4.2-18.5 5.1-23.9-3.6-5.2-8.6 0-18.9 6-25.2 7.8-8.3 18-14 28.4-17.6 3.4-1.1 6.3 3.7 4.3 6.7a51.3 51.3 0 0 1-23.3 19.4c-8 3.2-19.6 4.8-24.1-5.2-4.3-9.4 2-19 8.8-24.5a56.3 56.3 0 0 1 30.4-12.6c4-.4 6.7 4.1 3.6 7.5a45.5 45.5 0 0 1-27.1 14.8c-8.5 1.2-19 .4-25-7-6.1-7.8-2.4-17.6 4.3-23.2a69 69 0 0 1 31.5-14c4.3-.8 7.1 6 2.8 8.2-8.4 4.3-18 6.5-27.3 4.9-6-1.1-12.6-5-12.9-12.2-.3-8.2 8-13.8 13.8-17a47.6 47.6 0 0 1 25.3-6.1c3.3.1 5.4 5.2 2.5 7.6-8.5 7-20 7.7-29 1-4.2-3.3.2-10.7 4.4-7.4a15 15 0 0 0 19.2 0l2.5 7.5c-9.5-.3-23 2.7-29.2 11.3-4.3 5.8 5.3 7 8.9 7 6.3.2 12.3-1.5 18-4.3l2.8 8c-7.8 1.6-15.2 4.2-22.2 8.2-5.1 3-15.7 10.5-7.2 16.5 11.9 8.4 29.8-.7 38.4-10.3l3.7 7.5a50 50 0 0 0-20.1 6.1c-5.2 3-14.5 8.7-14.1 16.2.4 9.4 13.2 4.2 17.6 2 6.5-3.4 12-8.4 16.2-14.7l4.3 6.6c-6.9 2.4-13.5 6-19.3 10.6-4.4 3.5-13.6 11.4-10.3 18.3 3.7 7.6 13.7 1.4 18.1-1.8a80 80 0 0 0 16.2-15.8l4.3 6.7c-6.3 2-12.2 5.2-17.3 9.7-3.5 3.2-14.8 13.4-8.5 18 5.6 4.1 15.3-2.3 20.2-5.7a55 55 0 0 0 14.4-15.3l4.4 6.6a32.6 32.6 0 0 0-26.4 30c-.4 5.7-8.5 5.3-8.1-.3" fill="#3E4147" fill-rule="nonzero"></path><path d="M584.1 446.3c1.4-19 15-35.3 32.7-38.2 3.3-.6 6.4 3.3 4.3 6.6-5.7 8.8-13 16-21.9 21-8.2 4.6-19.9 8.8-27 0-6.7-8.3 0-17.8 5.6-24.2 7-8 16-13.6 25.8-16.8 3.2-1 6.6 3.7 4.3 6.7a81.7 81.7 0 0 1-23.8 21.8c-7.7 4.2-18.5 5.1-23.9-3.6-5.2-8.6 0-18.9 6-25.2 7.8-8.3 18-14 28.4-17.6 3.4-1.1 6.3 3.7 4.3 6.7a51.3 51.3 0 0 1-23.3 19.4c-8 3.2-19.6 4.8-24.1-5.2-4.3-9.4 2-19 8.8-24.5a56.3 56.3 0 0 1 30.4-12.6c4-.4 6.7 4.1 3.6 7.5a45.5 45.5 0 0 1-27.1 14.8c-8.5 1.2-19 .4-25-7-6.1-7.8-2.4-17.6 4.3-23.2a69 69 0 0 1 31.5-14c4.3-.8 7.1 6 2.8 8.2-8.4 4.3-18 6.5-27.3 4.9-6-1.1-12.6-5-12.9-12.2-.3-8.2 8-13.8 13.8-17a47.6 47.6 0 0 1 25.3-6.1c3.3.1 5.4 5.2 2.5 7.6-8.5 7-20 7.7-29 1-4.2-3.3.2-10.7 4.4-7.4a15 15 0 0 0 19.2 0l2.5 7.5c-9.5-.3-23 2.7-29.2 11.3-4.3 5.8 5.3 7 8.9 7 6.3.2 12.3-1.5 18-4.3l2.8 8c-7.8 1.6-15.2 4.2-22.2 8.2-5.1 3-15.7 10.5-7.2 16.5 11.9 8.4 29.8-.7 38.4-10.3l3.7 7.5a50 50 0 0 0-20.1 6.1c-5.2 3-14.5 8.7-14.1 16.2.4 9.4 13.2 4.2 17.6 2 6.5-3.4 12-8.4 16.2-14.7l4.3 6.6c-6.9 2.4-13.5 6-19.3 10.6-4.4 3.5-13.6 11.4-10.3 18.3 3.7 7.6 13.7 1.4 18.1-1.8a80 80 0 0 0 16.2-15.8l4.3 6.7c-6.3 2-12.2 5.2-17.3 9.7-3.5 3.2-14.8 13.4-8.5 18 5.6 4.1 15.3-2.3 20.2-5.7a55 55 0 0 0 14.4-15.3l4.4 6.6a32.6 32.6 0 0 0-26.4 30c-.4 5.7-8.5 5.3-8.1-.3z" stroke="#3E4147" stroke-width="1.3"></path><path d="M609.5 197.6c2.7 0 4.7 2.5 4.6 5.7v4.9c-.2 3.3-2.5 6.3-5.4 6.5l-25.4 2c-1.5.2-2.8-.5-3.7-1.6-2.7 0-4.7-2.5-4.6-5.7v-5c.2-3.3 2.5-6.3 5.4-6.5-.3-.8-.5-1.6-.5-2.6l.3-11c0-3.3 2.4-6.3 5.2-6.5l15.7-1.3c1.5 0 2.8.6 3.7 1.8 2.6 0 4.7 2.5 4.6 5.6l-.2 11c0 .7-.2 1.3-.4 2 .3.1.5.4.7.7" fill="#7C7E82" fill-rule="nonzero"></path><path d="M609.5 197.6c2.7 0 4.7 2.5 4.6 5.7v4.9c-.2 3.3-2.5 6.3-5.4 6.5l-25.4 2c-1.5.2-2.8-.5-3.7-1.6-2.7 0-4.7-2.5-4.6-5.7v-5c.2-3.3 2.5-6.3 5.4-6.5-.3-.8-.5-1.6-.5-2.6l.3-11c0-3.3 2.4-6.3 5.2-6.5l15.7-1.3c1.5 0 2.8.6 3.7 1.8 2.6 0 4.7 2.5 4.6 5.6l-.2 11c0 .7-.2 1.3-.4 2 .3.1.5.4.7.7z" stroke="#3E4147" stroke-width="1.3" stroke-linecap="round" stroke-linejoin="round"></path><path d="M610.8 201.5l-.1 5c0 3.3-2.5 6.3-5.3 6.5l-25.4 2c-2.8.3-5-2.3-5-5.6v-5c.2-3.3 2.5-6.3 5.4-6.5-.3-.8-.5-1.6-.5-2.6l.3-11c0-3.3 2.4-6.3 5.2-6.5l15.7-1.3c2.8-.2 5 2.4 5 5.7l-.3 11c0 1-.2 1.8-.5 2.7h.5c2.8-.3 5 2.3 5 5.6" fill="#BABBBD" fill-rule="nonzero"></path><path d="M609.7 197.7l-33.5 3c1-1.5 2.5-2.7 4.2-2.8-.3-.8-.5-1.6-.5-2.6v-.8l26-2.3v1c0 1-.3 1.8-.6 2.7h.5c1.6-.2 3 .6 3.9 1.8" fill="#7C7E82" fill-rule="nonzero"></path><path d="M609.5 197.6c2.7 0 4.7 2.5 4.6 5.7v4.9c-.2 3.3-2.5 6.3-5.4 6.5l-25.4 2c-1.5.2-2.8-.5-3.7-1.6-2.7 0-4.7-2.5-4.6-5.7v-5c.2-3.3 2.5-6.3 5.4-6.5-.3-.8-.5-1.6-.5-2.6l.3-11c0-3.3 2.4-6.3 5.2-6.5l15.7-1.3c1.5 0 2.8.6 3.7 1.8 2.6 0 4.7 2.5 4.6 5.6l-.2 11c0 .7-.2 1.3-.4 2 .3.1.5.4.7.7z" stroke="#3E4147" stroke-width="1.3" stroke-linecap="round" stroke-linejoin="round"></path><path d="M399.7 218.7c-.1 3.3-2.5 6.3-5.3 6.5l-25.4 2c-1.5.2-2.9-.5-3.8-1.6-1 0-1.9-.4-2.6-1l-.7-.7v-.1l-.5-.7-.2-.4-.2-.6-.2-.6-.1-.4v-6.2a7.3 7.3 0 0 1 2.6-5.4c.2 0 .4-.2.5-.3l.3-.2a5 5 0 0 1 2-.6c-.4-.8-.6-1.6-.5-2.6l.2-11c0-3.3 2.5-6.3 5.3-6.5l15.6-1.3h1l.9.3.2.1a4.2 4.2 0 0 1 1.3 1l.4.4c2.6 0 4.6 2.5 4.6 5.6l-.3 11c0 .7-.1 1.3-.3 2h.1l.6.7c2.6 0 4.6 2.5 4.6 5.7l-.1 4.9z" fill="#CA481D" fill-rule="nonzero"></path><path d="M399.7 218.7c-.1 3.3-2.5 6.3-5.3 6.5l-25.4 2c-1.5.2-2.9-.5-3.8-1.6-1 0-1.9-.4-2.6-1l-.7-.7v-.1l-.5-.7-.2-.4-.2-.6-.2-.6-.1-.4v-6.2a7.3 7.3 0 0 1 2.6-5.4c.2 0 .4-.2.5-.3l.3-.2a5 5 0 0 1 2-.6c-.4-.8-.6-1.6-.5-2.6l.2-11c0-3.3 2.5-6.3 5.3-6.5l15.6-1.3h1l.9.3.2.1a4.2 4.2 0 0 1 1.3 1l.4.4c2.6 0 4.6 2.5 4.6 5.6l-.3 11c0 .7-.1 1.3-.3 2h.1l.6.7c2.6 0 4.6 2.5 4.6 5.7l-.1 4.9z" stroke="#C35927" stroke-width="1.3" stroke-linecap="round" stroke-linejoin="round"></path><path d="M390.8 216.2c2.7 0 4.7 2.5 4.6 5.7v4.9c-.2 3.4-2.5 6.3-5.4 6.6l-25.4 2c-1.5.2-2.8-.5-3.8-1.7-2.6 0-4.6-2.5-4.5-5.7v-4.9c.1-3.4 2.5-6.3 5.4-6.5-.3-.8-.5-1.7-.5-2.7l.2-10.9c.1-3.4 2.5-6.3 5.3-6.6l15.7-1.2c1.5-.2 2.8.5 3.7 1.7 2.6 0 4.7 2.5 4.6 5.7l-.2 11c0 .6-.2 1.3-.4 1.9l.7.7" fill="#7C7E82" fill-rule="nonzero"></path><path d="M390.8 216.2c2.7 0 4.7 2.5 4.6 5.7v4.9c-.2 3.4-2.5 6.3-5.4 6.6l-25.4 2c-1.5.2-2.8-.5-3.8-1.7-2.6 0-4.6-2.5-4.5-5.7v-4.9c.1-3.4 2.5-6.3 5.4-6.5-.3-.8-.5-1.7-.5-2.7l.2-10.9c.1-3.4 2.5-6.3 5.3-6.6l15.7-1.2c1.5-.2 2.8.5 3.7 1.7 2.6 0 4.7 2.5 4.6 5.7l-.2 11c0 .6-.2 1.3-.4 1.9l.7.7z" stroke="#3E4147" stroke-width="1.3" stroke-linecap="round" stroke-linejoin="round"></path><path d="M392 220.2v4.9c0 3.4-2.5 6.3-5.3 6.5l-25.4 2.1c-2.9.3-5.1-2.3-5-5.7v-4.9c.1-3.4 2.5-6.3 5.4-6.5-.3-.8-.5-1.7-.5-2.7l.2-10.9c.1-3.4 2.5-6.3 5.3-6.6l15.7-1.2c2.8-.3 5 2.3 5 5.7l-.3 11c0 .9-.2 1.8-.6 2.6h.6c2.8-.3 5 2.3 5 5.7" fill="#BABBBD" fill-rule="nonzero"></path><path d="M391 216.4l-33.5 3c1-1.6 2.5-2.7 4.2-2.8-.3-.8-.5-1.7-.5-2.7v-.8l26-2.2v1c0 .9-.3 1.8-.7 2.6h.6c1.6-.2 3 .6 3.9 1.9" fill="#7C7E82" fill-rule="nonzero"></path><path d="M390.8 216.2c2.7 0 4.7 2.5 4.6 5.7v4.9c-.2 3.4-2.5 6.3-5.4 6.6l-25.4 2c-1.5.2-2.8-.5-3.8-1.7-2.6 0-4.6-2.5-4.5-5.7v-4.9c.1-3.4 2.5-6.3 5.4-6.5-.3-.8-.5-1.7-.5-2.7l.2-10.9c.1-3.4 2.5-6.3 5.3-6.6l15.7-1.2c1.5-.2 2.8.5 3.7 1.7 2.6 0 4.7 2.5 4.6 5.7l-.2 11c0 .6-.2 1.3-.4 1.9l.7.7z" stroke="#3E4147" stroke-width="1.3" stroke-linecap="round" stroke-linejoin="round"></path><path d="M800.8 161l-16.6-3.7c-.4 0-.8-.5-1-.9L773 135c-.2-.4-.5-.4-.7-.1l-9.5 17.2a1 1 0 0 1-1 .5l-16.6-3.6c-.3-.1-.4-.4-.3-.7l19-30.4c.2-.3.3-.9.3-1.3l-.4-20.8c0-.4.3-.7.6-.6l14.9 3.2c.4 0 .6.5.7.9l.4 20.8c0 .4.2 1 .4 1.5l20.3 38.8c.2.4 0 .7-.3.6M772.6 184.6c.5-.2.9-.3 1.1-.2.2 0 .7.3 1 .7 9.6 9.1 2 16.2-.6 18.9-2.7-3.9-10.7-14.3-1.5-19.4M783 161.3h1.1c12.1 2.4 9.8 15.2 9.2 19.9-4.1-2-15.6-6.8-11-18.8.2-.6.4-1 .6-1M798.5 169.7l.1-1.5c.1-.2.5-.4 1-.7 10.4-4.6 13.7 9.3 15 14.3-4 .4-14.9 2.3-16-12.1M797.5 146c-.4-.6-.6-1.1-.6-1.4 0-.3 0-.8.3-1.4 4.7-11.9 14-1.3 17.4 2.3-2.5 3.3-9 13-17 .5M773.6 181.3c-2-3.2-8.3-11.9-1.1-16.3.3-.2.6-.3.8-.2.2 0 .5.3.9.6 7.4 7.5 1.5 13.6-.6 15.9" fill="#F9C1A5" fill-rule="nonzero"></path><path d="M793.6 136.6c-.4-.1-.6-.2-.7-.4-.2 0-.3-.4-.5-.8-2.7-8.7 4.3-8.7 6.8-9 .4 3.2 1.8 11.8-5.6 10.2M772 146l1-.3.8.7c7.4 7.5 1.5 13.5-.5 15.8-2.2-3.2-8.4-11.8-1.2-16.2M804.7 159.5l-.3-1.1.5-.9c5.5-6.8 11.3 2.2 13.5 5.4-2.5 1.6-9.1 6.7-13.7-3.4M796.9 181.2h.9c9 1.9 7.6 11.7 7.3 15.3-3-1.6-11.6-5.3-8.7-14.5l.5-.8M784.8 181.5c.2 0 .6 0 1 .2 9.8 5 6 14.6 4.9 18.2-3.1-2.5-12.1-9.3-6.6-17.7.2-.5.5-.7.7-.7M762.2 156.6c.5.1 1 .3 1.2.5l.8 1.4c5 14.1-6.4 14-10.4 14.1-.8-5-3.7-19 8.4-16M746.9 156l1 1.2c0 .3.2.8.1 1.5-.6 14-11.7 7.4-15.8 5.2 1.2-4.4 4-17 14.7-7.8M748.6 134.1c0 .3-.2.7-.6 1.2-7.6 9-14.6-3.6-17.2-8 3.3-2.1 12.2-8.7 17.5 5.3.2.7.4 1.3.3 1.5M752.4 127.5h-.8c-7.3-1.6-6.3-9.7-6-12.6 2.5 1.2 9.6 4.3 7.2 11.9l-.4.7M741.1 143.7l.5 1c0 .3 0 .6-.3 1-4.2 8.3-11 .3-13.6-2.5 2.1-2.2 7.6-8.8 13.4.5M749.2 170.7c.4 0 .8.2 1 .4 0 .1.3.4.4 1 3.4 10.5-5.1 10.6-8.2 10.8-.4-3.8-2-14.2 6.8-12.2M761.3 176.4c.5 0 .9 0 1 .2.3.1.5.5.8 1 5.9 11-2.9 13.8-6 15-1.3-4-5.4-15.5 4.2-16.2" fill="#F9C1A5" fill-rule="nonzero"></path><path d="M448.3 253.6a57.9 57.9 0 0 1 25.5 10.2c2.6-.4 4.5-1.6 4-4.1-.8-4.3-9.2-7.8-12.4-9.4a60.9 60.9 0 0 0-7.8-3.2c-3.3-.5-6.3-1.4-8.6-2.3-3.7-1.4-3.6-6-1.2-7.7l5-.3c1.8.4 4 1 6.5 1.8 6.6 1.3 14.6 1.6 15.9-3.7l8.2-1c-.3 6.3-3.4 10-7.8 12 8.1 5 13.8 11.6 9.6 20-1 1.9-2.4 3.3-4.1 4.3 1.7 1.9 3.4 4 4.8 6.2 3.8 5.7 3 12-3.3 15-3.2 1.6-6.6 2-10 1.7 5 7 9 14.6 12 22.9 1.8 5.2-6 7.5-7.9 2.3a83.3 83.3 0 0 0-18.5-29.6c-2.8-3 0-8.8 4-7.3 4.4 1.6 10.3 4.3 15 2.8 3.8-1.1 2.2-2.9.2-5.3a48.3 48.3 0 0 0-6.2-6.3c-1.6 0-3 0-4.4-.2-8.2-.9-15.7-5-21.4-11.3-2.1-2.5-.8-8 3-7.5" fill="#3E4147" fill-rule="nonzero"></path><path d="M448.3 253.6a57.9 57.9 0 0 1 25.5 10.2c2.6-.4 4.5-1.6 4-4.1-.8-4.3-9.2-7.8-12.4-9.4a60.9 60.9 0 0 0-7.8-3.2c-3.3-.5-6.3-1.4-8.6-2.3-3.7-1.4-3.6-6-1.2-7.7l5-.3c1.8.4 4 1 6.5 1.8 6.6 1.3 14.6 1.6 15.9-3.7l8.2-1c-.3 6.3-3.4 10-7.8 12 8.1 5 13.8 11.6 9.6 20-1 1.9-2.4 3.3-4.1 4.3 1.7 1.9 3.4 4 4.8 6.2 3.8 5.7 3 12-3.3 15-3.2 1.6-6.6 2-10 1.7 5 7 9 14.6 12 22.9 1.8 5.2-6 7.5-7.9 2.3a83.3 83.3 0 0 0-18.5-29.6c-2.8-3 0-8.8 4-7.3 4.4 1.6 10.3 4.3 15 2.8 3.8-1.1 2.2-2.9.2-5.3a48.3 48.3 0 0 0-6.2-6.3c-1.6 0-3 0-4.4-.2-8.2-.9-15.7-5-21.4-11.3-2.1-2.5-.8-8 3-7.5z" stroke="#3E4147" stroke-width="1.3"></path><path d="M510.8 330.4c5.4-17.2-12.9-36.2-40.7-42.4-27.8-6.3-54.7 2.5-60 19.7-5.3 17.1 12.9 36.1 40.7 42.4 27.8 6.3 54.7-2.5 60-19.7" fill="#AF96C1" fill-rule="nonzero"></path><path d="M510.8 330.4c5.4-17.2-12.9-36.2-40.7-42.4-27.8-6.3-54.7 2.5-60 19.7-5.3 17.1 12.9 36.1 40.7 42.4 27.8 6.3 54.7-2.5 60-19.7z" stroke="#3E4147" stroke-width="1.3" stroke-linecap="round" stroke-linejoin="round"></path><path d="M450.8 350.1c-17.2-3.9-30.8-12.7-37.3-22.9-.4-2.7-.2-5.5.6-8.2 4.8-15.6 29.2-23.5 54.3-17.9 25.2 5.7 41.7 22.9 37 38.4-10.5 11-32.2 15.6-54.6 10.6" fill="#C5A7D4" fill-rule="nonzero"></path><path d="M510.8 330.4c5.4-17.2-12.9-36.2-40.7-42.4-27.8-6.3-54.7 2.5-60 19.7-5.3 17.1 12.9 36.1 40.7 42.4 27.8 6.3 54.7-2.5 60-19.7z" stroke="#3E4147" stroke-width="1.3" stroke-linecap="round" stroke-linejoin="round"></path><path d="M666 417.3c-9.2-18.5-38.6-17-65.7 3.4-27 20.4-41.5 51.9-32.2 70.3 9.3 18.5 38.7 17 65.8-3.3 27-20.4 41.5-52 32.2-70.4" fill="#E8A91B" fill-rule="nonzero"></path><path d="M666 417.3c-9.2-18.5-38.6-17-65.7 3.4-27 20.4-41.5 51.9-32.2 70.3 9.3 18.5 38.7 17 65.8-3.3 27-20.4 41.5-52 32.2-70.4z" stroke="#3E4147" stroke-width="1.3" stroke-linecap="round" stroke-linejoin="round"></path><path d="M633.9 487.7c-16.8 12.6-34.4 18-47.7 15.8a19.7 19.7 0 0 1-6-7.1c-8.4-16.8 4.7-45.3 29.2-63.7 24.4-18.4 51-19.8 59.5-3.1.3 18.2-13.3 41.7-35 58" fill="#FDBE2A" fill-rule="nonzero"></path><path d="M666 417.3c-9.2-18.5-38.6-17-65.7 3.4-27 20.4-41.5 51.9-32.2 70.3 9.3 18.5 38.7 17 65.8-3.3 27-20.4 41.5-52 32.2-70.4z" stroke="#3E4147" stroke-width="1.3" stroke-linecap="round" stroke-linejoin="round"></path><path d="M639.7 233.5l2.6.8c3.9-1.4 7-3.8 6.5-7.8-.2-1.7-1-3.4-2.3-5l9-1.1c1.2 2.4 1.8 5 1.6 8-.3 4.2-2.3 7.4-5.1 9.9 5 2.7 9.1 6.6 10.4 12.5 1.4 6.7-1.8 12.4-6.3 16.8 4 1.2 7.9 2.5 11.7 4 4.7 1.9 9.6 4 12.8 8.2 2.7 3.5 3.7 8.2 2.5 12.5 4.3 2 8.2 4.8 11.5 8.3a19.1 19.1 0 0 1 2.3 24C691.3 333 682 335 673 335.9l-1.2.8-.4.2c-1.3.5-3.2 0-4-1.2l-.4-.5c-1-1.4-1.7-3.6-.6-5.3 1.9-3 4.4-2.5 7.5-2.8 4.2-.5 8.6-1.2 12.2-3.5 8.5-5.3 6.8-14.6-.6-19.7a39.2 39.2 0 0 0-8.7-4.6 52.2 52.2 0 0 1-40.7.7c-3.7-1.5-3.9-7 0-8.4a68 68 0 0 1 39.4-2c1-3.5-3.2-6.4-5.5-7.6a90.7 90.7 0 0 0-23.5-7.8c-9.8 4.7-21 5-31.1.8-2.6-1-4.4-5-1.8-7.3 8.5-7.7 21.6-4.8 31.9-2.7 5.8-3.3 12-9 7.5-15.2a21.6 21.6 0 0 0-10.6-6.6 67.6 67.6 0 0 1-38.4-1.7c-3.6-1.2-4-7.5 0-8.4 11.8-2.8 24-2.8 35.7.4" fill="#3E4147" fill-rule="nonzero"></path><path d="M639.7 233.5l2.6.8c3.9-1.4 7-3.8 6.5-7.8-.2-1.7-1-3.4-2.3-5l9-1.1c1.2 2.4 1.8 5 1.6 8-.3 4.2-2.3 7.4-5.1 9.9 5 2.7 9.1 6.6 10.4 12.5 1.4 6.7-1.8 12.4-6.3 16.8 4 1.2 7.9 2.5 11.7 4 4.7 1.9 9.6 4 12.8 8.2 2.7 3.5 3.7 8.2 2.5 12.5 4.3 2 8.2 4.8 11.5 8.3a19.1 19.1 0 0 1 2.3 24C691.3 333 682 335 673 335.9l-1.2.8-.4.2c-1.3.5-3.2 0-4-1.2l-.4-.5c-1-1.4-1.7-3.6-.6-5.3 1.9-3 4.4-2.5 7.5-2.8 4.2-.5 8.6-1.2 12.2-3.5 8.5-5.3 6.8-14.6-.6-19.7a39.2 39.2 0 0 0-8.7-4.6 52.2 52.2 0 0 1-40.7.7c-3.7-1.5-3.9-7 0-8.4a68 68 0 0 1 39.4-2c1-3.5-3.2-6.4-5.5-7.6a90.7 90.7 0 0 0-23.5-7.8c-9.8 4.7-21 5-31.1.8-2.6-1-4.4-5-1.8-7.3 8.5-7.7 21.6-4.8 31.9-2.7 5.8-3.3 12-9 7.5-15.2a21.6 21.6 0 0 0-10.6-6.6 67.6 67.6 0 0 1-38.4-1.7c-3.6-1.2-4-7.5 0-8.4 11.8-2.8 24-2.8 35.7.4z" stroke="#3E4147" stroke-width="1.3"></path><path d="M746.1 382.8c9.4-18.4-7.8-44.2-38.4-57.5-30.6-13.4-63-9.3-72.4 9.2-9.4 18.4 7.9 44.2 38.5 57.5 30.6 13.4 63 9.2 72.3-9.2" fill="#B5C933" fill-rule="nonzero"></path><path d="M746.1 382.8c9.4-18.4-7.8-44.2-38.4-57.5-30.6-13.4-63-9.3-72.4 9.2-9.4 18.4 7.9 44.2 38.5 57.5 30.6 13.4 63 9.2 72.3-9.2z" stroke="#3E4147" stroke-width="1.3" stroke-linecap="round" stroke-linejoin="round"></path><path d="M673.8 392c-19-8.2-32.8-21.3-38.4-34.4.1-3.2.9-6.4 2.3-9.3 8.5-16.7 37.9-20.4 65.6-8.3 27.6 12 43.2 35.3 34.8 52-14 10.2-39.8 10.7-64.3 0" fill="#CEDD3E" fill-rule="nonzero"></path><path d="M746.1 382.8c9.4-18.4-7.8-44.2-38.4-57.5-30.6-13.4-63-9.3-72.4 9.2-9.4 18.4 7.9 44.2 38.5 57.5 30.6 13.4 63 9.2 72.3-9.2z" stroke="#3E4147" stroke-width="1.3" stroke-linecap="round" stroke-linejoin="round"></path><path d="M733.6 251.2c-1.2-1.7-8.7-9.4-5-2.7 2.2 4.2 5.7 8 9.2 10.8-.8-3-2.5-5.8-4.2-8m37.7 10.9c-3.2 14-17.2 14.8-27.7 10.6-1.4 2.1-3.4 4-6.1 5.3-10 5-22.2-1.3-29-9.6-1.7-2.1-3.1-4.4-4.4-6.8a11.9 11.9 0 0 1-9 .1c-12.6-4.3-17.2-21.7-16.4-34.4.2-2.8.5-5.5 1.1-8.2l.6-.1 7.4 1.4a38 38 0 0 0 1.8 24.3c1.7 3.7 4.9 8.4 9 9 1 .2 1.7 0 2.4-.2a38.3 38.3 0 0 1-.7-16.9c.8-4.4 3-9.8 7.8-10 6-.4 7 7.4 7.1 12.3a32 32 0 0 1-4.8 17c3 6.6 8.5 12.5 15.3 14.4 3.7 1 8 .9 10.4-1.8a47.7 47.7 0 0 1-8.8-7.8c-3.8-4.2-8.8-10.4-8-16.7.7-4.8 4.5-7.7 9-7.2 5.5.8 9.7 6 12.8 10.5a28.9 28.9 0 0 1 5 17c7 3.1 15.4 4.3 17.3-4.5 1.2-5.5 9-3.2 7.9 2.3" fill="#3E4147" fill-rule="nonzero"></path><path d="M733.6 251.2c-1.2-1.7-8.7-9.4-5-2.7 2.2 4.2 5.7 8 9.2 10.8-.8-3-2.5-5.8-4.2-8zm37.7 11c-3.2 14-17.2 14.8-27.7 10.6-1.4 2.1-3.4 4-6.1 5.3-10 5-22.2-1.3-29-9.6-1.7-2.1-3.1-4.4-4.4-6.8a11.9 11.9 0 0 1-9 .1c-12.6-4.3-17.2-21.7-16.4-34.4.2-2.8.5-5.5 1.1-8.2l.6-.1 7.4 1.4a38 38 0 0 0 1.8 24.3c1.7 3.7 4.9 8.4 9 9 1 .2 1.7 0 2.4-.2a38.3 38.3 0 0 1-.7-16.9c.8-4.4 3-9.8 7.8-10 6-.4 7 7.4 7.1 12.3a32 32 0 0 1-4.8 17c3 6.6 8.5 12.5 15.3 14.4 3.7 1 8 .9 10.4-1.8a47.7 47.7 0 0 1-8.8-7.8c-3.8-4.2-8.8-10.4-8-16.7.7-4.8 4.5-7.7 9-7.2 5.5.8 9.7 6 12.8 10.5a28.9 28.9 0 0 1 5 17c7 3.1 15.4 4.3 17.3-4.5 1.2-5.5 9-3.2 7.9 2.3z" stroke="#3E4147" stroke-width="1.3"></path><path d="M341.7 306.8c3 3 23.2 18.7 25.2 9.5.9-4.1-3.5-9.7-5.6-12.7a74.5 74.5 0 0 0-10.8-13c-3.4-4.2 1.8-10 5.7-6.1 2 1.9 4.6 4.5 7.2 7.6 1.7 1.5 3.5 3 5.5 4.2 3.2 2 11.6 7.5 15.5 5.6 4.6-2.3-1.5-13-3.2-15.6l-.8-1.2c-5.5-2.6-10.2-6.9-13.9-12.2-2.6-3.8 2.3-7.7 5.6-6 5 2.7 9.6 6.4 13.2 11l1.2.4c3.8 1.2 13.7 2.8 13.4-4.2-.1-4.7-4.5-9.2-8.2-12.2a39 39 0 0 1-19-10c-3.1-3 .3-8.3 4-7.3a50.3 50.3 0 0 1 18.2 9h.4c2.6.3 6 .5 8.5-.6 5.3-2.2-.2-7.5-2.7-9.6l-2.8-2.2 11.4-1.3 1.8 2.3c6 9.1 1.1 18-8.2 19.8 4 5.5 6.7 12.6 3.2 19-3 5.7-9.3 7.3-15.1 7 2.6 6 4.6 13.8.3 19-4.5 5.6-12 3.8-17.9 1.4 2 5.3 2.2 10.6-1 15-9 12.2-29.6-3-36.8-10.5-3.8-3.9 2-10 5.7-6.1" fill="#3E4147" fill-rule="nonzero"></path><path d="M341.7 306.8c3 3 23.2 18.7 25.2 9.5.9-4.1-3.5-9.7-5.6-12.7a74.5 74.5 0 0 0-10.8-13c-3.4-4.2 1.8-10 5.7-6.1 2 1.9 4.6 4.5 7.2 7.6 1.7 1.5 3.5 3 5.5 4.2 3.2 2 11.6 7.5 15.5 5.6 4.6-2.3-1.5-13-3.2-15.6l-.8-1.2c-5.5-2.6-10.2-6.9-13.9-12.2-2.6-3.8 2.3-7.7 5.6-6 5 2.7 9.6 6.4 13.2 11l1.2.4c3.8 1.2 13.7 2.8 13.4-4.2-.1-4.7-4.5-9.2-8.2-12.2a39 39 0 0 1-19-10c-3.1-3 .3-8.3 4-7.3a50.3 50.3 0 0 1 18.2 9h.4c2.6.3 6 .5 8.5-.6 5.3-2.2-.2-7.5-2.7-9.6l-2.8-2.2 11.4-1.3 1.8 2.3c6 9.1 1.1 18-8.2 19.8 4 5.5 6.7 12.6 3.2 19-3 5.7-9.3 7.3-15.1 7 2.6 6 4.6 13.8.3 19-4.5 5.6-12 3.8-17.9 1.4 2 5.3 2.2 10.6-1 15-9 12.2-29.6-3-36.8-10.5-3.8-3.9 2-10 5.7-6.1z" stroke="#3E4147" stroke-width="1.3"></path><path d="M748 184.9c-15.5 8.2-15.3 36.3.5 62.7 15.8 26.5 41.2 41.3 56.7 33.2 15.6-8.2 15.4-36.3-.4-62.8S763.6 176.7 748 185" fill="#0077B9" fill-rule="nonzero"></path><path d="M748 184.9c-15.5 8.2-15.3 36.3.5 62.7 15.8 26.5 41.2 41.3 56.7 33.2 15.6-8.2 15.4-36.3-.4-62.8S763.6 176.7 748 185z" stroke="#3E4147" stroke-width="1.3" stroke-linecap="round" stroke-linejoin="round"></path><path d="M804.8 218c9.7 16.4 13.5 33.4 11.3 46a17 17 0 0 1-6 5.4c-14.1 7.4-37.1-6-51.4-30-14.3-24-14.5-49.3-.5-56.7 15 .3 33.9 14 46.6 35.3" fill="#0083D1" fill-rule="nonzero"></path><path d="M748 184.9c-15.5 8.2-15.3 36.3.5 62.7 15.8 26.5 41.2 41.3 56.7 33.2 15.6-8.2 15.4-36.3-.4-62.8S763.6 176.7 748 185z" stroke="#3E4147" stroke-width="1.3" stroke-linecap="round" stroke-linejoin="round"></path><path d="M518.8 249.4a15 15 0 0 1-3.3-8.6c-.2-8.3 7.6-9.9 14-9.8l-.3-.3 10.6-.9a37 37 0 0 0 3.5 3.2 80 80 0 0 1 19.8 7.9c3.4 1.9 2 8.5-2 8.1a43.2 43.2 0 0 1-21.1-8c-3-.6-6-1-9.1-1.2-2.7-.2-8-1.2-5.8 3.7.5 1.1 1.3 2.2 2.2 3.1l3.1-.6c9.3-1.7 18.6-.7 25.8 6.4 2.4 2.4.9 6.2-1.8 7.3a29.6 29.6 0 0 1-28.7-3.8c-3.4 1-6.6 2.6-8.8 4.9-6.8 7 3.6 14.1 9.6 14.8 7.2.9 14.4-2.4 21-5.2 4.2-1.7 7.2 6 3 8-4.8 2.4-9.7 4.9-14.4 7.6-2.3 1.4-11.5 5-10 8.5 1.4 2.7 9.4 2.6 11.8 2.4 4.9-.5 9.2-2.5 13-5.6 4.3-3.3 8.4 4.3 4.2 7.6-9 7-28.8 11.6-36.5-.3-3.4-5.3-.9-10.8 3.5-14l1-.7c-1.6-.4-3.3-1-5-1.7-8-3.7-14.4-13.7-10.1-23 2.1-4.7 6.2-7.7 10.8-9.8" fill="#3E4147" fill-rule="nonzero"></path><path d="M518.8 249.4a15 15 0 0 1-3.3-8.6c-.2-8.3 7.6-9.9 14-9.8l-.3-.3 10.6-.9a37 37 0 0 0 3.5 3.2 80 80 0 0 1 19.8 7.9c3.4 1.9 2 8.5-2 8.1a43.2 43.2 0 0 1-21.1-8c-3-.6-6-1-9.1-1.2-2.7-.2-8-1.2-5.8 3.7.5 1.1 1.3 2.2 2.2 3.1l3.1-.6c9.3-1.7 18.6-.7 25.8 6.4 2.4 2.4.9 6.2-1.8 7.3a29.6 29.6 0 0 1-28.7-3.8c-3.4 1-6.6 2.6-8.8 4.9-6.8 7 3.6 14.1 9.6 14.8 7.2.9 14.4-2.4 21-5.2 4.2-1.7 7.2 6 3 8-4.8 2.4-9.7 4.9-14.4 7.6-2.3 1.4-11.5 5-10 8.5 1.4 2.7 9.4 2.6 11.8 2.4 4.9-.5 9.2-2.5 13-5.6 4.3-3.3 8.4 4.3 4.2 7.6-9 7-28.8 11.6-36.5-.3-3.4-5.3-.9-10.8 3.5-14l1-.7c-1.6-.4-3.3-1-5-1.7-8-3.7-14.4-13.7-10.1-23 2.1-4.7 6.2-7.7 10.8-9.8z" stroke="#3E4147" stroke-width="1.3"></path><path d="M591.8 298.3c-9-18.5-37.4-21.7-63.3-7.1-26 14.6-39.8 41.5-30.8 60 9 18.5 37.4 21.7 63.3 7.1 26-14.6 39.8-41.4 30.8-60" fill="#E97E49" fill-rule="nonzero"></path><path d="M591.8 298.3c-9-18.5-37.4-21.7-63.3-7.1-26 14.6-39.8 41.5-30.8 60 9 18.5 37.4 21.7 63.3 7.1 26-14.6 39.8-41.4 30.8-60z" stroke="#3E4147" stroke-width="1.3" stroke-linecap="round" stroke-linejoin="round"></path><path d="M561 358.3c-16 9-33 11.3-45.8 7.2-2.4-2-4.4-4.5-5.8-7.5-8.2-16.8 4.3-41 27.8-54.3 23.5-13.2 49.1-10.3 57.3 6.4.4 16.9-12.6 36.5-33.5 48.2" fill="#F7915E" fill-rule="nonzero"></path><path d="M591.8 298.3c-9-18.5-37.4-21.7-63.3-7.1-26 14.6-39.8 41.5-30.8 60 9 18.5 37.4 21.7 63.3 7.1 26-14.6 39.8-41.4 30.8-60z" stroke="#3E4147" stroke-width="1.3" stroke-linecap="round" stroke-linejoin="round"></path><path d="M360 368.8c12.7-14 6.2-41.3-14.5-60.9s-47.8-24.2-60.6-10.1c-12.7 14-6.3 41.3 14.4 61 20.8 19.5 47.9 24 60.6 10" fill="#865DA5" fill-rule="nonzero"></path><path d="M360 368.8c12.7-14 6.2-41.3-14.5-60.9s-47.8-24.2-60.6-10.1c-12.7 14-6.3 41.3 14.4 61 20.8 19.5 47.9 24 60.6 10z" stroke="#3E4147" stroke-width="1.3" stroke-linecap="round" stroke-linejoin="round"></path><path d="M299.3 358.7a63.3 63.3 0 0 1-20.8-40.3c1-2.9 2.4-5.5 4.4-7.7 11.6-12.7 36.1-8.6 54.9 9.2 18.7 17.7 24.6 42.4 13 55-14 5.6-34.8-.4-51.5-16.2" fill="#9569B8" fill-rule="nonzero"></path><path d="M360 368.8c12.7-14 6.2-41.3-14.5-60.9s-47.8-24.2-60.6-10.1c-12.7 14-6.3 41.3 14.4 61 20.8 19.5 47.9 24 60.6 10z" stroke="#3E4147" stroke-width="1.3" stroke-linecap="round" stroke-linejoin="round"></path><path d="M521 411c.8 19.2-14 33.3-14 33.3l14.8 9.6s9.7-21 9-42l-9.9-3.6" stroke="#3E4147" stroke-width="1.3" fill="#DDE778" fill-rule="nonzero" stroke-linecap="round" stroke-linejoin="round"></path><path d="M534.8 517l9.8-28 6.5 4.4-2.4 23.7h-13.9z" fill="#865DA5" fill-rule="nonzero"></path><path d="M534.8 517l9.8-28 6.5 4.4-2.4 23.7h-13.9z" stroke="#3E4147" stroke-width="1.3" stroke-linecap="round" stroke-linejoin="round"></path><path fill="#FDBE2A" fill-rule="nonzero" d="M684.8 470.6l-6.5-.9 11.4 22.8 9.8-5.2z"></path><path stroke="#3E4147" stroke-width="1.3" d="M684.8 470.6l-6.5-.9 11.4 22.8 9.8-5.2z" stroke-linecap="round" stroke-linejoin="round"></path><path fill="#865DA5" fill-rule="nonzero" d="M364.4 490.8l9-16.7h5.7l-5 17.6z"></path><path stroke="#3E4147" stroke-width="1.3" d="M364.4 490.8l9-16.7h5.7l-5 17.6z" stroke-linecap="round" stroke-linejoin="round"></path><path d="M366 404.8c12.3 4.4 33.5-13.2 33.5-13.2l4.9 4.4-15.5 17.6s-17.2-1.8-22.9-8.8" fill="#71A3C3" fill-rule="nonzero"></path><path d="M366 404.8c12.3 4.4 33.5-13.2 33.5-13.2l4.9 4.4-15.5 17.6s-17.2-1.8-22.9-8.8z" stroke="#3E4147" stroke-width="1.3" stroke-linecap="round" stroke-linejoin="round"></path><path d="M265.3 528.9c12.3 4.4 33.5-13.2 33.5-13.2l4.9 4.4-15.5 17.5S271 536 265.3 529" fill="#F0F6FC" fill-rule="nonzero"></path><path d="M265.3 528.9c12.3 4.4 33.5-13.2 33.5-13.2l4.9 4.4-15.5 17.5S271 536 265.3 529z" stroke="#3E4147" stroke-width="1.3" stroke-linecap="round" stroke-linejoin="round"></path><path d="M436.3 561.3c-7.3 15-4.9 36.9-4.9 36.9l11.4 3.5s-6.5-13.2-.8-29.9l-5.7-10.5z" fill="#F3783C" fill-rule="nonzero"></path><path d="M436.3 561.3c-7.3 15-4.9 36.9-4.9 36.9l11.4 3.5s-6.5-13.2-.8-29.9l-5.7-10.5z" stroke="#3E4147" stroke-width="1.3" stroke-linecap="round" stroke-linejoin="round"></path><path fill="#CEDD3E" fill-rule="nonzero" d="M59.9 387.6l5.1-4.4L42 376l-3.3 11.2z"></path><path stroke="#3E4147" stroke-width="1.3" d="M59.9 387.6l5.1-4.4L42 376l-3.3 11.2z" stroke-linecap="round" stroke-linejoin="round"></path><path fill="#F3783C" fill-rule="nonzero" d="M277.3 395.4l15.5-8.7 5.7 2.6-11.4 11.4z"></path><path stroke="#3E4147" stroke-width="1.3" d="M277.3 395.4l15.5-8.7 5.7 2.6-11.4 11.4z" stroke-linecap="round" stroke-linejoin="round"></path><path d="M133.3 444.3c12.3 4.4 33.5-13.1 33.5-13.1l4.9 4.4-15.5 17.5s-17.2-1.8-22.9-8.8" fill="#F0F6FC" fill-rule="nonzero"></path><path d="M133.3 444.3c12.3 4.4 33.5-13.1 33.5-13.1l4.9 4.4-15.5 17.5s-17.2-1.8-22.9-8.8z" stroke="#3E4147" stroke-width="1.3" stroke-linecap="round" stroke-linejoin="round"></path><path d="M232.3 364.4c-6.5 10.6-26 8-26 8l6.5 7s13.8 4.3 25.2-8.8l-5.7-6.2z" fill="#FDBE2A" fill-rule="nonzero"></path><path d="M232.3 364.4c-6.5 10.6-26 8-26 8l6.5 7s13.8 4.3 25.2-8.8l-5.7-6.2z" stroke="#3E4147" stroke-width="1.3" stroke-linecap="round" stroke-linejoin="round"></path><path d="M250.2 460.9c1.7-10.6 12.3-20.2 12.3-20.2l4.8 1.7s-6.5 4.4-9.7 19.3l-7.4-.8z" fill="#71A3C3" fill-rule="nonzero"></path><path d="M250.2 460.9c1.7-10.6 12.3-20.2 12.3-20.2l4.8 1.7s-6.5 4.4-9.7 19.3l-7.4-.8z" stroke="#3E4147" stroke-width="1.3" stroke-linecap="round" stroke-linejoin="round"></path><path fill="#CEDD3E" fill-rule="nonzero" d="M1023.2 393.9l-5.7-3.5 21.8-11 5 10.6z"></path><path stroke="#3E4147" stroke-width="1.3" d="M1023.2 393.9l-5.7-3.5 21.8-11 5 10.6z" stroke-linecap="round" stroke-linejoin="round"></path><path fill="#F3783C" fill-rule="nonzero" d="M864.7 445.2l-16.5-6-5.3 3.5 13 9.4z"></path><path stroke="#3E4147" stroke-width="1.3" d="M864.7 445.2l-16.5-6-5.3 3.5 13 9.4z" stroke-linecap="round" stroke-linejoin="round"></path><path d="M967.8 483.5c-11.4 6.3-34.9-7.5-34.9-7.5l-4.2 5.1 17.8 14.8s16.7-4.6 21.3-12.4" fill="#F0F6FC" fill-rule="nonzero"></path><path d="M967.8 483.5c-11.4 6.3-34.9-7.5-34.9-7.5l-4.2 5.1 17.8 14.8s16.7-4.6 21.3-12.4z" stroke="#3E4147" stroke-width="1.3" stroke-linecap="round" stroke-linejoin="round"></path><path d="M904.8 407.2c8 9.3 26.9 3.5 26.9 3.5l-5.5 8s-13 6.6-26.2-4.5l4.8-7z" fill="#FDBE2A" fill-rule="nonzero"></path><path d="M904.8 407.2c8 9.3 26.9 3.5 26.9 3.5l-5.5 8s-13 6.6-26.2-4.5l4.8-7z" stroke="#3E4147" stroke-width="1.3" stroke-linecap="round" stroke-linejoin="round"></path><path d="M900.8 505.4c-3-10.1-15-18-15-18l-4.5 2.6s7 3.3 12.4 17.5l7.1-2.1z" fill="#71A3C3" fill-rule="nonzero"></path><path d="M900.8 505.4c-3-10.1-15-18-15-18l-4.5 2.6s7 3.3 12.4 17.5l7.1-2.1z" stroke="#3E4147" stroke-width="1.3" stroke-linecap="round" stroke-linejoin="round"></path><path fill="#CEDD3E" fill-rule="nonzero" d="M984.9 550.4l-6-6.6 30.8-5.2 2.6 15z"></path><path stroke="#3E4147" stroke-width="1.3" d="M984.9 550.4l-6-6.6 30.8-5.2 2.6 15z" stroke-linecap="round" stroke-linejoin="round"></path><path fill="#F3783C" fill-rule="nonzero" d="M833.5 540.4L815 526.5l-7.7 2.4 13 16.6z"></path><path stroke="#3E4147" stroke-width="1.3" d="M833.5 540.4L815 526.5l-7.7 2.4 13 16.6z" stroke-linecap="round" stroke-linejoin="round"></path><path d="M1009.7 658.9c-16.4 3.5-41-22.7-41-22.7l-7 4.8 17.4 25.2s22.2.7 30.6-7.3" fill="#F0F6FC" fill-rule="nonzero"></path><path d="M1009.7 658.9c-16.4 3.5-41-22.7-41-22.7l-7 4.8 17.4 25.2s22.2.7 30.6-7.3z" stroke="#3E4147" stroke-width="1.3" stroke-linecap="round" stroke-linejoin="round"></path><path d="M896 508.3c6.8 14.7 32.3 14.6 32.3 14.6l-9.4 8s-18.4 3.2-31.2-15.7l8.3-6.9z" fill="#FDBE2A" fill-rule="nonzero"></path><path d="M896 508.3c6.8 14.7 32.3 14.6 32.3 14.6l-9.4 8s-18.4 3.2-31.2-15.7l8.3-6.9z" stroke="#3E4147" stroke-width="1.3" stroke-linecap="round" stroke-linejoin="round"></path><path d="M776.3 395.4c-7 14.6 8.2 36.7 8.2 36.7l-11.5-3.5s-13.4-14-6.8-36.2l10 3z" fill="#FDBE2A" fill-rule="nonzero"></path><path d="M776.3 395.4c-7 14.6 8.2 36.7 8.2 36.7l-11.5-3.5s-13.4-14-6.8-36.2l10 3z" stroke="#3E4147" stroke-width="1.3" stroke-linecap="round" stroke-linejoin="round"></path><path d="M858.7 629.1c-.5-13.8-12.7-28-12.7-28l-6.6 1.4s7.8 6.8 9.7 26.5l9.6.1z" fill="#71A3C3" fill-rule="nonzero"></path><path d="M858.7 629.1c-.5-13.8-12.7-28-12.7-28l-6.6 1.4s7.8 6.8 9.7 26.5l9.6.1z" stroke="#3E4147" stroke-width="1.3" stroke-linecap="round" stroke-linejoin="round"></path><path fill="#CEDD3E" fill-rule="nonzero" d="M928.3 232.8l-6 1 9.8-21.3 9.2 4.5z"></path><path stroke="#3E4147" stroke-width="1.3" d="M928.3 232.8l-6 1 9.8-21.3 9.2 4.5z" stroke-linecap="round" stroke-linejoin="round"></path><path fill="#F3783C" fill-rule="nonzero" d="M860.6 323.2l-15.2 6-1.9 5.7 14.3-1.2z"></path><path stroke="#3E4147" stroke-width="1.3" d="M860.6 323.2l-15.2 6-1.9 5.7 14.3-1.2z" stroke-linecap="round" stroke-linejoin="round"></path><path d="M955.2 286.8C950.3 298.4 926 303 926 303l-.3 6.3 20.7-.4s9.6-13.6 8.7-22.1" fill="#F0F6FC" fill-rule="nonzero"></path><path d="M955.2 286.8C950.3 298.4 926 303 926 303l-.3 6.3 20.7-.4s9.6-13.6 8.7-22.1z" stroke="#3E4147" stroke-width="1.3" stroke-linecap="round" stroke-linejoin="round"></path><path d="M465.9 216.1c10.3-6.2 32.3 5.7 32.3 5.7l3.8-4.9-16.9-13s-15.2 4.8-19.2 12.2" fill="#F0F6FC" fill-rule="nonzero"></path><path d="M465.9 216.1c10.3-6.2 32.3 5.7 32.3 5.7l3.8-4.9-16.9-13s-15.2 4.8-19.2 12.2z" stroke="#3E4147" stroke-width="1.3" stroke-linecap="round" stroke-linejoin="round"></path><path d="M869 271c10.7 1.8 21.2-14.1 21.2-14.1l.4 9s-5.9 13-21.3 13.1l-.3-8z" fill="#FDBE2A" fill-rule="nonzero"></path><path d="M869 271c10.7 1.8 21.2-14.1 21.2-14.1l.4 9s-5.9 13-21.3 13.1l-.3-8z" stroke="#3E4147" stroke-width="1.3" stroke-linecap="round" stroke-linejoin="round"></path><path d="M918.8 344.1c-7.7-5.4-20.4-3.6-20.4-3.6l-2 4.7s6.9-2 18.4 4.8l4-5.9z" fill="#71A3C3" fill-rule="nonzero"></path><path d="M918.8 344.1c-7.7-5.4-20.4-3.6-20.4-3.6l-2 4.7s6.9-2 18.4 4.8l4-5.9z" stroke="#3E4147" stroke-width="1.3" stroke-linecap="round" stroke-linejoin="round"></path><path fill="#CEDD3E" fill-rule="nonzero" d="M766.8 623.7l-2.1-7.6 15.4 6.3-.4 13.6z"></path><path stroke="#3E4147" stroke-width="1.3" d="M766.8 623.7l-2.1-7.6 15.4 6.3-.4 13.6z" stroke-linecap="round" stroke-linejoin="round"></path><path fill="#F3783C" fill-rule="nonzero" d="M695 562.4l-7.4-18.3-4-.7 4.3 18.7z"></path><path stroke="#3E4147" stroke-width="1.3" d="M695 562.4l-7.4-18.3-4-.7 4.3 18.7z" stroke-linecap="round" stroke-linejoin="round"></path><path d="M751.2 713.9c-8.3-2.8-17.2-33.6-17.2-33.6l-3.9 1.7 5.4 27.4s10.7 8.3 15.7 4.5" fill="#F0F6FC" fill-rule="nonzero"></path><path d="M751.2 713.9c-8.3-2.8-17.2-33.6-17.2-33.6l-3.9 1.7 5.4 27.4s10.7 8.3 15.7 4.5z" stroke="#3E4147" stroke-width="1.3" stroke-linecap="round" stroke-linejoin="round"></path><path d="M728.8 557a37 37 0 0 0 14 23.7l-5.6 3.4S728 580.4 724 560l4.8-3z" fill="#FDBE2A" fill-rule="nonzero"></path><path d="M728.8 557a37 37 0 0 0 14 23.7l-5.6 3.4S728 580.4 724 560l4.8-3z" stroke="#3E4147" stroke-width="1.3" stroke-linecap="round" stroke-linejoin="round"></path><path d="M696.7 646.4c1.4-11.9-2.8-28.2-2.8-28.2l-3.4-1s3 8.4 1.6 25.8l4.6 3.4z" fill="#71A3C3" fill-rule="nonzero"></path><path d="M696.7 646.4c1.4-11.9-2.8-28.2-2.8-28.2l-3.4-1s3 8.4 1.6 25.8l4.6 3.4z" stroke="#3E4147" stroke-width="1.3" stroke-linecap="round" stroke-linejoin="round"></path><path fill="#CEDD3E" fill-rule="nonzero" d="M524.4 627.6l1.6-8-19 8.6 2.4 13.7z"></path><path stroke="#3E4147" stroke-width="1.3" d="M524.4 627.6l1.6-8-19 8.6 2.4 13.7z" stroke-linecap="round" stroke-linejoin="round"></path><path fill="#F3783C" fill-rule="nonzero" d="M608.6 555.5l7-19.5 5-1.3-3 19.4z"></path><path stroke="#3E4147" stroke-width="1.3" d="M608.6 555.5l7-19.5 5-1.3-3 19.4z" stroke-linecap="round" stroke-linejoin="round"></path><path d="M565.4 677.1c10.3-4 17.4-36.2 17.4-36.2l5.3 1-3.2 28.5s-12.6 10-19.5 6.7" fill="#F0F6FC" fill-rule="nonzero"></path><path d="M565.4 677.1c10.3-4 17.4-36.2 17.4-36.2l5.3 1-3.2 28.5s-12.6 10-19.5 6.7z" stroke="#3E4147" stroke-width="1.3" stroke-linecap="round" stroke-linejoin="round"></path><path d="M564.1 555c0 15-14.6 25.8-14.6 25.8l7.5 2.7s11.5-5.1 13.7-26.3l-6.6-2.3z" fill="#FDBE2A" fill-rule="nonzero"></path><path d="M564.1 555c0 15-14.6 25.8-14.6 25.8l7.5 2.7s11.5-5.1 13.7-26.3l-6.6-2.3z" stroke="#3E4147" stroke-width="1.3" stroke-linecap="round" stroke-linejoin="round"></path><path d="M677.2 159.4c-13.7 3.4-26.7-9.6-26.7-9.6l-.7 8.5s7 10.9 26.8 8.5l.6-7.4z" fill="#FDBE2A" fill-rule="nonzero"></path><path d="M677.2 159.4c-13.7 3.4-26.7-9.6-26.7-9.6l-.7 8.5s7 10.9 26.8 8.5l.6-7.4z" stroke="#3E4147" stroke-width="1.3" stroke-linecap="round" stroke-linejoin="round"></path><path d="M617.9 640.4c-3.4-11.8-.2-28.9-.2-28.9l4.1-1.5s-2.6 8.9 1.5 26.2l-5.4 4.2z" fill="#71A3C3" fill-rule="nonzero"></path><path d="M617.9 640.4c-3.4-11.8-.2-28.9-.2-28.9l4.1-1.5s-2.6 8.9 1.5 26.2l-5.4 4.2z" stroke="#3E4147" stroke-width="1.3" stroke-linecap="round" stroke-linejoin="round"></path><path fill="#CEDD3E" fill-rule="nonzero" d="M302 626.6l3-6.1-17.5 2.5-.7 11.8z"></path><path stroke="#3E4147" stroke-width="1.3" d="M302 626.6l3-6.1-17.5 2.5-.7 11.8z" stroke-linecap="round" stroke-linejoin="round"></path><path fill="#F3783C" fill-rule="nonzero" d="M386 587.5l9.7-14.3 4.4.2-6.5 15.2z"></path><path stroke="#3E4147" stroke-width="1.3" d="M386 587.5l9.7-14.3 4.4.2-6.5 15.2z" stroke-linecap="round" stroke-linejoin="round"></path><path d="M325.4 677c9.3-.7 21.8-25.5 21.8-25.5l4.1 2.1-8.4 22.6s-12.4 5.1-17.5.8" fill="#F0F6FC" fill-rule="nonzero"></path><path d="M325.4 677c9.3-.7 21.8-25.5 21.8-25.5l4.1 2.1-8.4 22.6s-12.4 5.1-17.5.8z" stroke="#3E4147" stroke-width="1.3" stroke-linecap="round" stroke-linejoin="round"></path><path d="M349.6 576.5c-3.1 12.4-17.4 17.7-17.4 17.7l5.6 4s10.5-1.4 16.7-18.3l-5-3.4z" fill="#FDBE2A" fill-rule="nonzero"></path><path d="M349.6 576.5c-3.1 12.4-17.4 17.7-17.4 17.7l5.6 4s10.5-1.4 16.7-18.3l-5-3.4z" stroke="#3E4147" stroke-width="1.3" stroke-linecap="round" stroke-linejoin="round"></path><path d="M376 659.4c-.3-10.5 5.9-23.7 5.9-23.7l3.7-.3s-4 6.7-4.2 22l-5.3 2z" fill="#71A3C3" fill-rule="nonzero"></path><path d="M376 659.4c-.3-10.5 5.9-23.7 5.9-23.7l3.7-.3s-4 6.7-4.2 22l-5.3 2z" stroke="#3E4147" stroke-width="1.3" stroke-linecap="round" stroke-linejoin="round"></path><path fill="#CEDD3E" fill-rule="nonzero" d="M115.2 566.2l7.2-3.5-18.6-10-8.9 10.2z"></path><path stroke="#3E4147" stroke-width="1.3" d="M115.2 566.2l7.2-3.5-18.6-10-8.9 10.2z" stroke-linecap="round" stroke-linejoin="round"></path><path fill="#F3783C" fill-rule="nonzero" d="M223.4 589.8l19.3-6.3 4.1 3.3-16.7 9.4z"></path><path stroke="#3E4147" stroke-width="1.3" d="M223.4 589.8l19.3-6.3 4.1 3.3-16.7 9.4z" stroke-linecap="round" stroke-linejoin="round"></path><path d="M103 629.3c9.6 6 38.8-8 38.8-8l2.5 4.9-23.7 14.7s-15.6-4-17.5-11.6" fill="#F0F6FC" fill-rule="nonzero"></path><path d="M103 629.3c9.6 6 38.8-8 38.8-8l2.5 4.9-23.7 14.7s-15.6-4-17.5-11.6z" stroke="#3E4147" stroke-width="1.3" stroke-linecap="round" stroke-linejoin="round"></path><path d="M195.9 553.8c-11.6 9.2-29 4-29 4l2.6 7.7s11.1 6.1 28.7-5l-2.3-6.7z" fill="#FDBE2A" fill-rule="nonzero"></path><path d="M195.9 553.8c-11.6 9.2-29 4-29 4l2.6 7.7s11.1 6.1 28.7-5l-2.3-6.7z" stroke="#3E4147" stroke-width="1.3" stroke-linecap="round" stroke-linejoin="round"></path><path d="M164.3 649a72 72 0 0 1 22-17.7l3.7 2.4s-8.5 3.3-19.1 17.2l-6.6-1.8z" fill="#71A3C3" fill-rule="nonzero"></path><path d="M164.3 649a72 72 0 0 1 22-17.7l3.7 2.4s-8.5 3.3-19.1 17.2l-6.6-1.8z" stroke="#3E4147" stroke-width="1.3" stroke-linecap="round" stroke-linejoin="round"></path><path d="M199.7 199.5c-16.3-.9-18-10.5-18-10.5l-11.3.9s9 13.1 26 14.9l3.3-5.3z" fill="#F3783C" fill-rule="nonzero"></path><path d="M199.7 199.5c-16.3-.9-18-10.5-18-10.5l-11.3.9s9 13.1 26 14.9l3.3-5.3z" stroke="#3E4147" stroke-width="1.3" stroke-linecap="round" stroke-linejoin="round"></path><path fill="#F3783C" fill-rule="nonzero" d="M786.7 454l-11.4.8 19.6 11.4 8.1-4.4z"></path><path stroke="#3E4147" stroke-width="1.3" d="M786.7 454l-11.4.8 19.6 11.4 8.1-4.4z" stroke-linecap="round" stroke-linejoin="round"></path><path fill="#865DA5" fill-rule="nonzero" d="M739.5 531.1l-7.3-2.6 8.1 19.3 7.4-1z"></path><path stroke="#3E4147" stroke-width="1.3" d="M739.5 531.1l-7.3-2.6 8.1 19.3 7.4-1z" stroke-linecap="round" stroke-linejoin="round"></path><path d="M457.4 476.2c-1-3.4-3.4-6.3-4.5-9.7a20.1 20.1 0 0 1-.4-11.6c2-7.4 8-9.4 12.2-14.7 3.8-5-3.7-14-5.7-19-4-9.7-4.9-20.6-3-31l15.9 4.2c-1.3 8.8.8 17.7 5.2 26.4 3.6 7.2 6.7 15 4.1 23.3-2 6.7-7 9.7-11.5 14.1-.5.4-1.3 1.1-1.7 1.8.2 0 .3 1 .3 1.2 1 3 3.1 5.9 4.2 9a24 24 0 0 1-3 21.2c-3.7 5.7-7.6 10.1-5.4 17.4 1.9 6 6.4 10.7 11 14.9-3.5 4.4-7 8.8-10.3 13.2-11.9-11.3-22.8-27-15.2-44.6 1.9-4.4 9-11.1 7.8-16" fill="#94A727" fill-rule="nonzero"></path><path d="M457.4 476.2c-1-3.4-3.4-6.3-4.5-9.7a20.1 20.1 0 0 1-.4-11.6c2-7.4 8-9.4 12.2-14.7 3.8-5-3.7-14-5.7-19-4-9.7-4.9-20.6-3-31l15.9 4.2c-1.3 8.8.8 17.7 5.2 26.4 3.6 7.2 6.7 15 4.1 23.3-2 6.7-7 9.7-11.5 14.1-.5.4-1.3 1.1-1.7 1.8.2 0 .3 1 .3 1.2 1 3 3.1 5.9 4.2 9a24 24 0 0 1-3 21.2c-3.7 5.7-7.6 10.1-5.4 17.4 1.9 6 6.4 10.7 11 14.9-3.5 4.4-7 8.8-10.3 13.2-11.9-11.3-22.8-27-15.2-44.6 1.9-4.4 9-11.1 7.8-16z" stroke="#3E4147" stroke-width="1.3" stroke-linecap="round" stroke-linejoin="round"></path><path d="M329.9 191.2c-8 4.3-17.5 4.4-26.1 1.3-11.8-4.2-24-14.4-22.6-29.2.2-1.7.2-3.7.6-5.3l.1-.3c-2.7-.4-5.5 1-8.3 1.5-7.5 1.6-15.1.5-21.2-5-4.8-4.4-6-11.1-10.3-15.7-3.4-3.6-9-4.3-13.7-4.6l.5-.8c3.5-5 7.2-9.8 10.8-14.7 7 2 13.3 5.7 17.6 12.9 2.8 4.6 4.2 11.4 10.4 11.3 6.8-.1 12.3-3.8 19.3-1.6a16 16 0 0 1 11 14.2c.5 5.8-2.6 10.9 1.9 15.4 5.6 5.6 15.8 9 22.9 4.9a99.9 99.9 0 0 0 7 15.7" fill="#71A3C3" fill-rule="nonzero"></path><path d="M329.9 191.2c-8 4.3-17.5 4.4-26.1 1.3-11.8-4.2-24-14.4-22.6-29.2.2-1.7.2-3.7.6-5.3l.1-.3c-2.7-.4-5.5 1-8.3 1.5-7.5 1.6-15.1.5-21.2-5-4.8-4.4-6-11.1-10.3-15.7-3.4-3.6-9-4.3-13.7-4.6l.5-.8c3.5-5 7.2-9.8 10.8-14.7 7 2 13.3 5.7 17.6 12.9 2.8 4.6 4.2 11.4 10.4 11.3 6.8-.1 12.3-3.8 19.3-1.6a16 16 0 0 1 11 14.2c.5 5.8-2.6 10.9 1.9 15.4 5.6 5.6 15.8 9 22.9 4.9a99.9 99.9 0 0 0 7 15.7z" stroke="#3E4147" stroke-width="1.3" stroke-linecap="round" stroke-linejoin="round"></path><path d="M241 317.4a21.2 21.2 0 0 1-15.7-9.1c-2.3-3.4-3-7.2-4.5-10.9-2.7-6.2-11.4-1.3-15.6.8-7.7 4-16.4 8-25.1 5.5-7.7-2.2-12-8.8-15.6-15.8-.8-1.6-2-5.4-3.8-5.8-2.6-.7-7.8 4.1-10 5.2-13.8 6.9-27 2.3-38.7-5.5 2.4-5.2 4.5-10.5 6.3-16a39 39 0 0 0 12.4 6.5c4 1.2 8.1 1.4 12-.2 3.6-1.5 6.8-4.2 10.4-5.7 7.2-3 14.8-1.8 20.3 4.3 2.1 2.4 3.7 5.4 5.2 8.3 1 2.2 2.2 5.7 4.2 7.1 5 3.6 13.7-2.9 18.3-5 6.5-3.1 14.2-5.3 21.3-3.4 8.1 2.3 12 8.7 14.5 16.7.8 2.5 1.3 4.4 3.8 5.3 1.9.7 4.1.6 5.6-.9h.2l-5.5 18.6" fill="#DDE778" fill-rule="nonzero"></path><path d="M241 317.4a21.2 21.2 0 0 1-15.7-9.1c-2.3-3.4-3-7.2-4.5-10.9-2.7-6.2-11.4-1.3-15.6.8-7.7 4-16.4 8-25.1 5.5-7.7-2.2-12-8.8-15.6-15.8-.8-1.6-2-5.4-3.8-5.8-2.6-.7-7.8 4.1-10 5.2-13.8 6.9-27 2.3-38.7-5.5 2.4-5.2 4.5-10.5 6.3-16a39 39 0 0 0 12.4 6.5c4 1.2 8.1 1.4 12-.2 3.6-1.5 6.8-4.2 10.4-5.7 7.2-3 14.8-1.8 20.3 4.3 2.1 2.4 3.7 5.4 5.2 8.3 1 2.2 2.2 5.7 4.2 7.1 5 3.6 13.7-2.9 18.3-5 6.5-3.1 14.2-5.3 21.3-3.4 8.1 2.3 12 8.7 14.5 16.7.8 2.5 1.3 4.4 3.8 5.3 1.9.7 4.1.6 5.6-.9h.2l-5.5 18.6z" stroke="#3E4147" stroke-width="1.3" stroke-linecap="round" stroke-linejoin="round"></path><path d="M798 608a31.5 31.5 0 0 1-3.1-5c-2-4-3-8.1-2.8-12 .1-3.6 1.7-6.1 2.5-9.2 1.5-5.3-7-9.7-11-11.9-7.3-4-15.3-8.8-20-17a28 28 0 0 1-2.4-20.4c.3-1.4 1.4-4.3.4-6-1.4-2.4-7.4-4-9.6-5.2-12.8-7.2-19.5-20-23.4-33.2 4.3-.8 8.4-2 12.5-3.4a52 52 0 0 0 5 13.2c2.2 3.6 5 7 8.4 9.3 3.2 2 6.8 3.2 10 5.2a24 24 0 0 1 11.6 18.2c.2 3-.3 5.7-.8 8.4-.3 2-1.3 4.7-.7 7 1.6 5.8 10.8 9.3 15 11.8 6 3.5 12.5 8.4 16.3 15a21.5 21.5 0 0 1 1.3 20.1c-.7 2-1.4 3.3-.2 5.7 1 1.9 2.5 3.6 4.3 4h.2l-13.4 5.5" fill="#D85927" fill-rule="nonzero"></path><path d="M798 608a31.5 31.5 0 0 1-3.1-5c-2-4-3-8.1-2.8-12 .1-3.6 1.7-6.1 2.5-9.2 1.5-5.3-7-9.7-11-11.9-7.3-4-15.3-8.8-20-17a28 28 0 0 1-2.4-20.4c.3-1.4 1.4-4.3.4-6-1.4-2.4-7.4-4-9.6-5.2-12.8-7.2-19.5-20-23.4-33.2 4.3-.8 8.4-2 12.5-3.4a52 52 0 0 0 5 13.2c2.2 3.6 5 7 8.4 9.3 3.2 2 6.8 3.2 10 5.2a24 24 0 0 1 11.6 18.2c.2 3-.3 5.7-.8 8.4-.3 2-1.3 4.7-.7 7 1.6 5.8 10.8 9.3 15 11.8 6 3.5 12.5 8.4 16.3 15a21.5 21.5 0 0 1 1.3 20.1c-.7 2-1.4 3.3-.2 5.7 1 1.9 2.5 3.6 4.3 4h.2l-13.4 5.5z" stroke="#3E4147" stroke-width="1.3" stroke-linecap="round" stroke-linejoin="round"></path><path d="M352.4 486.4c-1.2 1.6-2.5 3-4 4.4-3.2 2.9-6.8 4.8-10.4 5.4-3.2.6-5.8-.6-8.8-.8-5.2-.4-7.4 9.4-8.6 14-2.2 8.5-4.9 18-11.3 24.5-5.7 5.8-12 6.7-18.1 6.7-1.3 0-4.2-.5-5.5.9-2 2-2.2 8.6-2.8 11.1-4 15-14.2 24.6-25.5 31.5a99.6 99.6 0 0 0-5.6-12.5c3.8-2.1 7.6-4.7 11-8 2.8-3 5.4-6.6 6.7-10.7 1.2-3.8 1.5-7.8 2.7-11.7 2.4-7.6 7.6-13.8 14.2-15.8 2.6-.9 5.3-1 7.8-1 1.9 0 4.6.5 6.6-.6 4.9-2.9 6.2-13.3 7.6-18.3 2-7 5.1-14.8 10.4-20.2 6-6.1 11.8-6.7 18-5.4 1.8.4 3.2.7 5.2-1a7.8 7.8 0 0 0 2.7-5.4v-.1l7.7 13" fill="#ED9B42" fill-rule="nonzero"></path><path d="M352.4 486.4c-1.2 1.6-2.5 3-4 4.4-3.2 2.9-6.8 4.8-10.4 5.4-3.2.6-5.8-.6-8.8-.8-5.2-.4-7.4 9.4-8.6 14-2.2 8.5-4.9 18-11.3 24.5-5.7 5.8-12 6.7-18.1 6.7-1.3 0-4.2-.5-5.5.9-2 2-2.2 8.6-2.8 11.1-4 15-14.2 24.6-25.5 31.5a99.6 99.6 0 0 0-5.6-12.5c3.8-2.1 7.6-4.7 11-8 2.8-3 5.4-6.6 6.7-10.7 1.2-3.8 1.5-7.8 2.7-11.7 2.4-7.6 7.6-13.8 14.2-15.8 2.6-.9 5.3-1 7.8-1 1.9 0 4.6.5 6.6-.6 4.9-2.9 6.2-13.3 7.6-18.3 2-7 5.1-14.8 10.4-20.2 6-6.1 11.8-6.7 18-5.4 1.8.4 3.2.7 5.2-1a7.8 7.8 0 0 0 2.7-5.4v-.1l7.7 13z" stroke="#3E4147" stroke-width="1.3" stroke-linecap="round" stroke-linejoin="round"></path><path d="M782 222.5c-2 0-2.5 2.4-1.3 5.5 1.2 3 3.8 5.6 5.8 5.7 2 0 2.7-2.5 1.4-5.6-1.2-3-3.8-5.6-5.8-5.6m6.6 16.8c-4-.1-9.2-5.2-11.7-11.4-2.4-6.1-1.1-11.1 2.9-11 4 0 9.2 5.1 11.7 11.3 2.4 6.2 1.1 11.1-2.9 11m-12.1-30.7c-7-.1-9.3 8.5-5 19.3 4.3 10.9 13.4 19.7 20.5 19.8 7 .2 9.2-8.5 5-19.3-4.4-10.8-13.5-19.7-20.5-19.8m17.7 44.7c-9-.1-20.8-11.5-26.3-25.4-5.5-14-2.7-25 6.3-25 9 .2 20.8 11.6 26.4 25.5 5.5 14 2.6 25.1-6.4 25M771 194.4c-12-.2-15.8 14.6-8.5 33.2 7.4 18.5 23 33.7 35.1 34 12 .1 15.8-14.7 8.5-33.3-7.3-18.5-23-33.7-35-34M522.2 356c2.7.2 6.5-2.2 8.5-5.4s1.3-5.8-1.4-6c-2.7-.1-6.5 2.3-8.5 5.5s-1.3 5.8 1.4 6m25.6 1.3c2.7.1 6.5-2.3 8.4-5.5 2-3.1 1.4-5.8-1.4-6-2.7 0-6.5 2.4-8.4 5.5-2 3.2-1.3 5.8 1.4 6m26.1-16.6l-7.7-2.4c-.3 0-.4-.4-.2-.8 1.3-4 4-8.4 7.6-12.4l13-14.5c1.2-1.2 1.5-2.6.7-3l-.6-.2c-.7 0-1.7.5-2.5 1.2l-15 14.2h-.2L572 308c.2-.8-.2-1.3-1-1.4-1 0-2.6 1-3.4 2.3l-.3.7-5.1 14.9c-1.3 4-4 8.4-7.7 12.4-.4.4-.8.7-1.2.7l-7 1-5.5-1.6c-.3 0-.4-.4-.3-.8 1.3-4 4-8.5 7.7-12.4l13-14.5c1.1-1.2 1.4-2.6.6-3l-.5-.2c-.8 0-1.8.4-2.6 1.2l-15 14.1-.1.1 2.8-14.8c.2-.8-.2-1.4-1-1.4-1 0-2.6 1-3.3 2.3l-.4.7-5 14.9c-1.4 4-4.1 8.4-7.8 12.4-.3.4-.8.7-1.2.7l-10 1.5a4 4 0 0 0-2.7 2c-.4 1 0 1.6.7 1.7l55.8 2.8c.8 0 2-.7 2.7-1.7.6-1 .5-1.7-.2-2M619 476.3a15 15 0 0 1-5.7 5.1c-2.2 1-4.1 1.4-6.8 1l-2-.3c-2.7-.4-3.8-1.2-4.1-2.6-.4-1.4.2-3 2.1-5.6l5.3-7.1 16.5 2.4-5.3 7.1zm9.4-6.5l1 .2c2.5.3 5.8-1.4 7.4-3.8l13.1-17.6c1.8-2.3 1.5-4.6-.8-5l-26.8-4c-2.4-.3-5.8 1.4-7.4 3.7l-13 17.7c-1.9 2.3-1.5 4.5.8 5l1 .1-5.3 7.2c-3 4-4 6.6-3.4 8.8.5 2.2 2.3 3.4 6.4 4l2.1.3c4.2.7 7.2.2 10.6-1.5 3.4-1.6 6-3.8 9-8l5.3-7zM687.2 388l-7.2-13.4c-.3-.6-1.3-1.2-2.1-1.3h-.8l-4.5 2.3c-13.3-10-17-21.9-8-26.5 3.6-2 9.1-2.3 15.5-1.2 1.7.3 2.7-.3 2.2-1.5s-2.3-2.4-4-2.8c-18.7-3.4-29.3 4.4-23.5 17.5a44.6 44.6 0 0 0 14.3 16.4l-4.5 2.3c-.5.3-.3 1 .5 1.6l1 .5 19.6 6.8c.9.3 1.6.1 1.6-.4l-.1-.4zm4.6-42c-1-.4-1.6-.2-1.6.3l.1.4 7.2 13.3c.3.6 1.3 1.2 2.1 1.3h.8l4.4-2.4c13.4 10 17 22 8.2 26.6-3.7 1.9-9.2 2.3-15.6 1.2-1.7-.4-2.7.3-2.2 1.5s2.2 2.4 4 2.8c18.7 3.4 29.3-4.5 23.5-17.5a44.6 44.6 0 0 0-14.3-16.4l4.5-2.4c.5-.2.3-1-.5-1.5l-1-.5-19.6-6.8zM456.4 336.4c.8-.4.6-1.4-.4-2.1l-13.4-9.6c-1-.8-2.5-1-3.4-.6l-6 3c-.9.4-.7 1.3.3 2l13.4 9.6c1 .8 2.6 1 3.4.7l6-3zm27.4 5c.8-.4.6-1.4-.4-2.1l-28.6-20.6c-1-.7-2.6-1-3.4-.6l-6.1 3c-.9.4-.7 1.3.4 2.1l28.6 20.6c1 .7 2.6 1 3.4.6l6-3zm-20.3-29.3l-6 3c-1 .4-.7 1.4.3 2.1l21 15.1c1 .8 2.6 1 3.4.6l6-3c1-.4.7-1.3-.3-2l-21-15.1c-1-.8-2.6-1-3.4-.7zm-4.2-4.8l-33.4 16.4c-.8.4-.6 1.3.4 2 1 .8 2.6 1.1 3.4.7l33.4-16.4c.8-.4.7-1.3-.4-2-1-.8-2.6-1.1-3.4-.7zM299.8 332.3c-.3-.5-.2-1 .4-1l3.7-.3c.5 0 1.2.4 1.5.9l10.2 16c.3.5.1 1-.4 1l-3.8.3c-.5 0-1.1-.3-1.5-.8l-10.1-16.1zm26.6 20.4c1.6 0 3.6 1 4.5 2.5 1 1.5.5 2.8-1 3-1.6 0-3.6-1-4.6-2.6-1-1.4-.4-2.7 1.1-2.9zm-16.3-21.2c-.3-.5-.2-1 .3-1l3.8-.2c.5 0 1.2.3 1.5.8l10.1 16c.4.6.2 1-.3 1l-3.8.3c-.5 0-1.2-.3-1.5-.8l-10.1-16.1zm10.3-.8c-.4-.5-.2-.9.3-1l3.8-.2c.5 0 1.2.3 1.5.8l10.1 16c.3.6.2 1-.3 1l-3.8.3c-.5 0-1.2-.3-1.5-.8l-10.1-16zm12.2 33.5c.9.3 1.6.2 2-.2l13.1-13.7c.3-.2.3-.7 0-1.2l-1-1.6c-.4-.5-1-.9-1.6-.9l-2.8.3c-.5 0-1.2-.4-1.5-.9l-10.3-16.2c-.2-.3-.2-.6 0-.8l2.2-2.4c.3-.2.3-.7 0-1.2l-1.9-3c-.3-.4-1-.8-1.5-.8l-43 3.3c-.5 0-.7.4-.4 1l2 3c.2.4.7.8 1.3 1l4.9 1.8c.4.2.7.4.9.8l10.3 16.2c.3.5.1 1-.4 1l-2.8.2c-.5 0-.7.5-.4 1l1 1.6c.4.5.9.9 1.5 1.1l28.4 10.6z" fill="#FFF" fill-rule="nonzero"></path><path d="M421.6 166.8l.2-12.6-7.8 1-.2 12.5-9.5 23.1 9-1 4.3-11 3.8 10 8.6-1-8.4-21zM440.7 178c-2.5.2-3.9-3.2-3.8-8 .1-5 1.6-8.7 4.2-9 2.5-.2 3.9 3 3.8 8-.1 5-1.6 8.6-4.2 9m.5-26.6c-7.5.9-12.5 8.6-12.8 19.5-.1 9 3.5 17.3 12.2 16.3 7.4-.8 12.5-8 12.7-19.1.2-10.9-4.2-17.6-12.1-16.7M466.6 148.6c-6.8.7-10.7 5.9-10.8 14.2l-.5 22.1 7.8-.9.5-21.3c0-2.6 1.1-4.5 2.9-4.7 1.7-.2 2.7 1.5 2.6 4l-.4 21.4 7.8-1 .5-22c.1-8.3-3.6-12.6-10.4-11.8M503.9 144.8l-7.6 17 .3-16.2-7.4.9-.7 34.6 6.7-.8 7.6-16.7-.3 15.9 7.3-.8.7-34.7zM513.3 143.7l-.7 34.6 16.1-1.8.2-8.7-8.3 1 .1-4.3 7.2-.8.2-8.7-7.2.8v-4.2l8.9-1 .1-8.8zM532.4 141.5l-.7 34.6 16.1-1.8.2-8.7-8.3 1 .1-4.3 7.2-.8.2-8.7-7.2.8v-4.2l8.9-1 .1-8.8zM559.9 164.1l-1.1.1.3-17 1.3-.1c3.6-.5 4.7 3.2 4.6 8.3-.2 5.1-2 8.3-5.1 8.7m.5-25.8l-8.8 1-.7 34.6 8.2-1c10-1 13.7-9.1 13.9-18.5.2-10.9-3.6-17.2-12.6-16.1M418.3 134.3l-1.8-7.7 3.9-.5-2.1 8.2zm4-16.3l-7.5.8-1.4-6-8.3 1 8.7 33.6 9-1 9.8-35.7-8.7 1-1.6 6.3zM451.9 122.2l-1.7.2v-5.8l1.7-.1c1.6-.2 2.5.7 2.4 2.5 0 1.8-.7 3-2.4 3.2m-.1 12.7l-1.9.3.1-5.7 2-.2c1-.1 1.9.9 1.8 2.8 0 1.4-.8 2.7-2 2.8m1.6-26.6l-10.4 1.2-.7 34.6 9.9-1.1c5.9-.7 9.4-4.5 9.5-10.6 0-3-1-5.5-3-7.1 2-1.8 3.4-5 3.4-8.1.2-6.4-3-9.6-8.7-9M475 105.3c-6.7.7-10.6 5.9-10.8 14.2l-.4 22.1 7.8-.9.4-21.3c0-2.6 1.2-4.5 2.9-4.7 1.7-.2 2.7 1.5 2.7 4l-.5 21.4 7.9-1 .4-22c.2-8.3-3.5-12.6-10.3-11.8M496.7 129l-1.1.2.3-17 1.3-.2c3.6-.4 4.7 3.2 4.6 8.3-.1 5.2-1.9 8.4-5 8.8m.5-25.9l-8.8 1-.7 34.7 8.2-1c9.8-1.1 13.6-9.2 13.8-18.5.2-11-3.6-17.2-12.5-16.2M525.5 99.5c-8 .9-13.5 7.4-13.7 19.4-.3 12.4 5.6 17.2 13.2 16.3 2-.2 4.3-1 6.5-2l-1-9.2c-1.2.7-2.8 1.5-4.4 1.7-3 .3-6-1.3-5.9-8.4.1-4.6 1.7-7.5 4.5-8.2l-.1 8.2 7.7-.9.3-16c-1.2-.8-4-1.3-7.1-1M535.3 98.8l-.7 34.7 16-1.9.3-8.7-8.3 1v-4.3l7.3-.8.2-8.7-7.2.8v-4.2l8.8-1 .2-8.8zM567 120.5l.6-25.4-7.8 1-.5 25.3-6.3.7-.2 9.3 20-2.3.1-9.3z" fill="#25384F" fill-rule="nonzero"></path><path d="M571 99.9c0 3.2 1.9 5.5 4.2 5.2 2.4-.3 4.3-3 4.4-6.2 0-3.2-1.8-5.5-4.2-5.2-2.3.2-4.3 3-4.3 6.2" fill="#85C3E9" fill-rule="nonzero"></path><path d="M375.5 215c0-5.5-1-10-2.4-10s-2.5 4.5-2.5 10c0 5.7 1.1 10.2 2.5 10.2 1.3 0 2.4-4.5 2.4-10.1" fill="#25384F" fill-rule="nonzero"></path><path d="M375.5 215c0-5.5-1-10-2.4-10s-2.5 4.5-2.5 10c0 5.7 1.1 10.2 2.5 10.2 1.3 0 2.4-4.5 2.4-10.1z" stroke="#3E4147" stroke-width="1.3" stroke-linecap="round" stroke-linejoin="round"></path><path d="M594.8 196.4c0-5.6-1-10.1-2.4-10.1s-2.5 4.5-2.5 10.1 1.1 10.1 2.5 10.1c1.3 0 2.4-4.5 2.4-10" fill="#25384F" fill-rule="nonzero"></path><path d="M594.8 196.4c0-5.6-1-10.1-2.4-10.1s-2.5 4.5-2.5 10.1 1.1 10.1 2.5 10.1c1.3 0 2.4-4.5 2.4-10z" stroke="#3E4147" stroke-width="1.3" stroke-linecap="round" stroke-linejoin="round"></path></g></g></svg> 