<?xml version="1.0" encoding="UTF-8"?> <svg xmlns="http://www.w3.org/2000/svg" xmlns:xlink="http://www.w3.org/1999/xlink" id="Layer_1" viewBox="0 0 463.6 569"><style>.st1{clip-path:url(#SVGID_2_)}.st2{fill:#3e4147}.st3{fill:#fff}.st4,.st5,.st6,.st7,.st8{clip-path:url(#SVGID_2_);fill:#fff}.st5,.st6,.st7,.st8{fill:#c5a7d4}.st6,.st7,.st8{fill:#a57f53}.st7,.st8{fill:#a7a9ac}.st8{fill:#555556}.st9{stroke-linejoin:round}.st10,.st9{clip-path:url(#SVGID_2_);fill:none;stroke:#3e4147;stroke-width:1.5;stroke-linecap:round;stroke-miterlimit:10}.st11,.st12,.st14,.st15{clip-path:url(#SVGID_2_);fill:#8f6547}.st12,.st14,.st15{fill:#af96c1}.st14,.st15{fill:#50483c}.st15{fill:#916042}.st16,.st17,.st18,.st21,.st22{clip-path:url(#SVGID_2_);fill:#715342}.st17,.st18,.st21,.st22{fill:#3f4147}.st18,.st21,.st22{fill:none;stroke:#3e4147;stroke-width:1.4718;stroke-miterlimit:10}.st21,.st22{fill:#50483c;stroke:#3f4147;stroke-linecap:round;stroke-linejoin:round}.st22{fill:none;stroke:#3e4147}</style><defs><path id="SVGID_1_" d="M0 0h463.6v569H0z"></path></defs><clipPath id="SVGID_2_"><use xlink:href="#SVGID_1_" overflow="visible"></use></clipPath><circle cx="231.8" cy="290.3" r="231.8" opacity=".15" clip-path="url(#SVGID_2_)" fill="#0083d1"></circle><g class="st1"><path class="st2" d="M426.8 185.1c-.1-.3-.3-.6-.9-.8-6-2.3-11 4.6-12 6-5.5 1.2-7.2 6.3-8.6 10.4-1.5 4.4-2.6 7-6.1 6.3 3.5-6.9 6.8-15.2 6.6-17.6-.1-1.2-.9-1.4-1.1-1.4-5.1-.4-8 2-10.1 5.2-1.5-.1-6.5.2-12 4.2v-1.1c0-.2 0-.4-.1-.7 0-.2-.1-.5-.3-.8 0-.1-.2-.3-.3-.4-.1-.1-.2-.2-.4-.3-.3-.2-.7-.2-1-.3-.9 0-1.7.2-2.6.5-.8.4-1.6.9-2.1 1.6-.6.6-1 1.4-1.4 2.1-.1.1-.1.3-.2.4-14.1-1.5-21.6-1-28.2 8-.7.3-1.3.6-1.9 1-1.2.8-2.3 1.9-3 3.1s-1.2 2.6-1.6 3.9c-.4 1.3-.6 2.7-.9 4-.3 1.3-.7 2.6-1 3.9-1.6 5.1-3.9 9.9-6.6 14.6-2.6 4.7-5.6 9.2-8.7 13.6-3.1 4.4-6.5 8.6-10 12.6-1.8 2-3.6 4-5.5 5.9l-2.8 2.9c-.9 1-1.8 2-2.7 3.1-1.3 1.6-2.6 3.2-3.7 4.9l-3.7-4.8c.7-3.2 1-6.4.6-9.6-.1-1.1-.3-2.1-.6-3.1-.1-.5-.3-1-.5-1.5s-.3-1-.6-1.5c-.5-.9-.9-1.9-1.4-2.8l-1.5-2.7c-4.2-7.2-9-13.9-13.6-20.7-.5-.8-1.1-1.6-1.6-2.4-1.3-33.6-11.1-38.3-22.3-43.8-4.9-2.3-9.8-4.8-14.6-9.6-2.1-2.1-4.2-4.7-6.2-8 12.1-5.7 27.2-23.9 29.6-37.2 0-.2.8-4.4 1.6-10.8 1.2 2.4 3.2 4.1 5 5.6 2.4 2.1 4.5 3.9 4.6 6.9.1 2.2-.6 5.3-1.4 8.6-1.5 6.3-3.2 13.5.1 18.1 1.8 2.5 4.8 3.8 9.2 4.1h.1c.4 0 .7-.3.7-.6.1-.4-.2-.7-.6-.8-2.5-.6-4.1-1.6-4.9-3.2-1.7-3.5.9-9.5 3.5-15.3 2.6-5.7 5.3-11.7 4-16-1.1-4-4.2-6.5-7.5-9.2-5-4.1-10.6-8.7-10.9-19.7.3-.1.6-.2.9-.4.7-.4 1.2-.9 1.4-1.6-.9.3-1.6.3-2.3.2 0-.6 0-1.2.1-1.9 0-.1 0-.2-.1-.3.1-1.8.1-3.6.1-5.3 6.7-5.4 10.3-11.3 10.6-17.7.5-8.8-5.4-15.5-6.6-16.8.8-24-14.2-27.9-17.2-28.4-5.1-16.6-27.5-17-30.5-16.9a20.6 20.6 0 0 0-11-4.7c-10.2-.9-17.8 7-18.1 7.3-.1.1-.1.2-.2.3-4.2-.6-8.9 0-13 3.2-2.1 1.7-3.8 3.5-5.2 5.2-1.8-.4-8.1-1.2-12.5 3.1-.7.7-1.3 1.5-1.8 2.4-1.6.3-8 1.6-11.2 4.2-3.9 3.2-6.8 9.3-4.2 15.4-2.2 1.1-7 4.2-8.8 9.6-.3.8-.4 1.5-.5 2.3-.6.8-3.3 4.8-5.7 10.6-2.4 5.9-4.6 14.6-2 23.1 2.1 6.7 6.9 12.3 14.3 16.5-5.4 1.7-13 8.2-14.9 16.2-1.3 5.5-.3 13.6 12.1 20.6h.1c1.5 4 3.7 7.4 6.3 10.2 5.6 6 14.4 10.2 23.9 10.2 5.7 0 11.7-1.5 17.4-5v1.1c-.1 3.8-.9 7.6-3 10.7-1.1 1.5-2.4 2.8-4 3.7-1.6 1-3.4 1.5-5.3 2.1-3.7 1.2-7.4 2.5-11 4a101 101 0 0 0-20.6 11.4c-6.4 4.6-11.9 10.3-17.4 15.8a937.95 937.95 0 0 0-31.9 34.3c-10.3 11.7-20.4 23.7-29.7 36.3-4.7 6.3-9.1 12.7-13.2 19.4-2 3.4-3.9 6.8-5.6 10.4-1.6 3.6-3.1 7.3-3.8 11.3-.3 2-.4 4 0 6.1s1.5 3.9 2.8 5.5c2.7 3.1 6.5 5 10.2 6.2 3.8 1.3 7.7 2 11.5 2.6 3.9.5 7.8.9 11.7 1.1 15.7.8 31.3.1 46.9 0 7.8-.1 15.6 0 23.4.4 7.2.4 14.3 1 21.4 2.4l-.9.6-1.2.8c-.4.3-.7.6-1.1.9l-2.2 1.9c-.7.7-1.4 1.4-2 2.1l-1 1-.9 1.1c-.6.8-1.3 1.5-1.8 2.3l-1.7 2.4c-.6.8-1 1.7-1.5 2.5-1.9 3.4-3.6 6.9-4.8 10.6-1.2 3.5-2 7-2.5 10.6h-3.5c.5-1.8.9-3.6 1.2-5.5.3-2.2.5-4.4.4-6.6s-.5-4.5-1.6-6.6c-.6-1-1.4-2-2.4-2.7s-2.1-1.1-3.3-1.3h-.3c-.4.1-.8.3-1.2.6-.4.3-.6.7-.8 1.1-.3.8-.3 1.5-.3 2.2 0 1.4.2 2.6.4 3.9.1 1.2.2 2.5 0 3.6-.1.6-.3 1-.6 1.6l-.9 1.8c-.5 1.2-1 2.4-1.3 3.8-.3 1.3-.4 2.7-.2 4.1s.5 2.7 1.3 3.9c.7 1.2 1.6 2.2 2.5 3.2 1.9 1.8 4 3.5 6.2 4.8 2.1 1.2 4.2 2.4 6.7 2.9-15 26.6-14.3 72.7-11 107 3.6 37.5 11 69.2 11.1 69.5s.3.5.7.6l122.3 12h.1c.3 0 .6-.2.7-.6 12-46.3 25.1-114 19.3-172.9-3.2-32.7-10.7-48.1-12.1-50.8 1.7-3.1 2-13.5.6-16.5-.5-1-1.1-1.2-1.5-1.2-.6 0-1.2.3-1.9.8-.1 0-.1.1-.2.1.6-3.6 1-7.1 1.4-10.7.5-4.1.9-8.2 1.1-12.3.2-2.8.3-5.6.3-8.5 3 3 10.4 9.8 16.2 11.8.7.2 1.5.3 2.4.3 9.8 0 32-13.2 42-33.7 4.6-9.4 6.2-20.4 7.7-31 1.2-8.3 2.4-16.4 4.8-23.7v-.1c2.1-6.1 5.1-11.7 9.7-16.4 2.1-.3 4.3-.6 6.4-1.1.8-.2 1.5-.3 2.3-.6.8-.3 1.6-.5 2.3-1.2 2.2 0 14.3-.1 17.6-.7.6 0 4.6-.1 8.9-.8 3.1-.5 5.5-1.2 7.3-2.1 8.3-1.5 11.1-10 13.4-16.8.3-.9.6-1.9.9-2.8.9-2.5 2.1-4.5 3-6.1 1.5-2.3 2.1-3.4 1.8-4.3zm-151.7-64.6c3.2 2.6 6 4.9 7 8.4 1.1 3.8-1.5 9.5-3.9 15 2.5-5.5 5-11.2 3.9-15-1-3.5-3.7-5.8-7-8.4-.3-.2-.6-.5-.9-.7.3.2.6.5.9.7zm-1.8 19.6c-.2.8-.4 1.6-.6 2.5-.6 2.3-1.1 4.8-1.5 7.2.3-2.4.9-4.8 1.5-7.2l.6-2.5zM136.9 57c.7-2.2 2.1-4.1 3.7-5.6-1.6 1.5-2.9 3.4-3.7 5.6zm2.5 54.5zm6.3-65.2c-2-4.6-.3-8.9 1.8-11.5-2.1 2.6-3.8 6.8-1.8 11.5zm1.2 508c-3-16.4-6.9-41.6-8.4-67.8 1.5 26.2 5.4 51.3 8.4 67.8zm-5.4-130.6c-2.6 12.4-3.6 26.4-3.7 40.7 0 4.4.1 8.8.2 13.2-.2-4.4-.2-8.8-.2-13.2.1-14.3 1.1-28.3 3.7-40.7zm-3.4 54.4l.3 7.2c-.1-2.4-.3-4.8-.3-7.2zM269 125.7c.6.5 1.1 1 1.7 1.5-.5-.5-1.1-1-1.7-1.5-2.3-2-4.8-4.1-5.5-7.6.8 3.5 3.2 5.6 5.5 7.6zm-5.4-25.7c-.6 11.5-2 21.7-2.8 27.4.9-5.6 2.2-15.8 2.8-27.4zm-5.6 38.5c-5.1 11.8-17 25-26.8 29.5 9.7-4.5 21.7-17.6 26.8-29.5zm-97.1 204.6c-.8-6.7 2.1-11 5-13.6-2.9 2.6-5.8 6.9-5 13.6zm10.2-18.2c-.8-.5-1.7-.9-2.5-1.4-4.6-2.4-9.4-4.4-14.2-6.1-4.8-1.8-9.7-3.4-14.7-4.9-4.9-1.5-9.8-3.1-14.8-4.5-7.5-2.1-15.1-4.2-22.8-5.6 3.9-5 8.2-9.7 12.8-14.1 4.9-4.7 10.2-8.9 15.8-12.7 2.8-1.9 5.7-3.6 8.8-5.1.6-.3 1.2-.6 1.7-.8.8.1 1.5.3 2.2.4 9 1.5 9.1 1.5 34.1 59.2-2.1-1.7-4.2-3.1-6.4-4.4zm175-88.7z"></path><circle class="st2" cx="374.4" cy="141" r="14.7"></circle><path class="st2" d="M403.5 166.2c4.5 0 8.2-3.7 8.2-8.2s-3.7-8.2-8.2-8.2-8.2 3.7-8.2 8.2 3.7 8.2 8.2 8.2zM350.2 179.7c5.9 0 10.8-4.8 10.8-10.8s-4.8-10.8-10.8-10.8-10.8 4.8-10.8 10.8 4.9 10.8 10.8 10.8z"></path></g><g class="st1"><path class="st3" d="M374.4 110.8c-.3-1.8-.4-3.5-.4-5.3-.1-1.8-.1-3.5 0-5.2s.1-3.5.3-5.2c.1-1.7.4-3.5.7-5.2.3 1.8.4 3.5.5 5.3s.1 3.5 0 5.2-.1 3.5-.3 5.2c-.3 1.7-.5 3.5-.8 5.2z"></path></g><g class="st1"><path class="st3" d="M355.7 117.2a27.5 27.5 0 0 1-3.4-5.7c-.5-1-.9-2-1.2-3.1-.4-1-.7-2.1-.9-3.2a27.5 27.5 0 0 1 3.4 5.7c.5 1 .9 2 1.2 3.1.4 1 .7 2.1.9 3.2z"></path></g><g class="st1"><path class="st3" d="M346.6 134.1c-1.8-.4-3.5-1-5.2-1.6s-3.3-1.3-5-2c-1.6-.7-3.3-1.5-4.9-2.3-1.6-.8-3.2-1.7-4.7-2.7 1.8.4 3.5 1 5.2 1.6s3.3 1.3 5 2c1.6.7 3.3 1.5 4.9 2.3 1.6.9 3.1 1.7 4.7 2.7z"></path></g><g class="st1"><path class="st3" d="M331.2 152.8c-.9 0-1.8-.1-2.7-.2-.9-.1-1.7-.3-2.5-.6-.8-.2-1.6-.6-2.4-.9-.8-.4-1.6-.8-2.3-1.3.9 0 1.8.1 2.7.2.9.1 1.7.3 2.5.6.8.2 1.6.6 2.4.9.8.3 1.6.7 2.3 1.3z"></path></g><g class="st1"><path class="st3" d="M326.9 177.8c-.8.9-1.7 1.6-2.6 2.4-.9.7-1.8 1.4-2.8 2l-3 1.8c-1 .5-2.1 1-3.2 1.4.8-.9 1.7-1.7 2.6-2.4.9-.7 1.8-1.4 2.8-2l3-1.8c1-.5 2-1 3.2-1.4z"></path></g><g class="st1"><path class="st3" d="M340.9 188.7c-.1.6-.3 1.2-.6 1.7s-.6 1-.9 1.4c-.3.4-.7.8-1.2 1.2-.4.4-.9.7-1.5 1 .1-.6.3-1.2.6-1.7s.6-1 .9-1.4c.3-.4.7-.8 1.2-1.2s.9-.7 1.5-1z"></path></g><g class="st1"><path class="st3" d="M403.5 123.4c.4-.8.9-1.5 1.5-2.2.5-.7 1.1-1.3 1.8-1.9.6-.6 1.3-1.2 2-1.7s1.4-1 2.3-1.4c-.4.8-.9 1.5-1.5 2.2-.5.7-1.1 1.3-1.8 1.9-.6.6-1.3 1.2-2 1.7-.7.6-1.4 1.1-2.3 1.4z"></path></g><g class="st1"><path class="st3" d="M418.3 141c2.6-.6 5.2-1.1 7.8-1.5s5.2-.8 7.8-1.1 5.2-.6 7.9-.8c2.6-.2 5.3-.3 7.9-.3-2.6.6-5.2 1.1-7.8 1.5s-5.2.8-7.8 1.1-5.2.6-7.9.7c-2.6.2-5.2.4-7.9.4z"></path></g><g class="st1"><path class="st3" d="M422.7 155.7c.7-.4 1.5-.6 2.2-.8s1.5-.3 2.2-.4c.7-.1 1.5-.1 2.3 0 .8 0 1.5.1 2.3.4-.7.4-1.5.6-2.2.8s-1.5.3-2.2.4c-.7.1-1.5.1-2.3 0-.8-.1-1.5-.1-2.3-.4z"></path></g><g class="st1"><path class="st3" d="M418.3 169.6c1.4.4 2.8 1 4.2 1.5 1.4.6 2.7 1.2 4 1.9s2.6 1.4 3.8 2.2c1.3.8 2.5 1.6 3.7 2.6-1.4-.4-2.8-1-4.2-1.5-1.4-.6-2.7-1.2-4-1.9s-2.6-1.4-3.8-2.2c-1.3-.8-2.5-1.7-3.7-2.6z"></path></g><g class="st1"><path class="st3" d="M375.4 170.3c.3.9.5 1.9.6 2.8.1.9.2 1.9.2 2.8 0 .9-.1 1.9-.2 2.8-.1.9-.3 1.9-.6 2.8-.3-.9-.5-1.9-.6-2.8-.1-.9-.2-1.9-.2-2.8 0-.9.1-1.9.2-2.8.1-.9.3-1.8.6-2.8z"></path></g><g class="st1"><path class="st3" d="M395.1 170.3c.6.5 1.1 1.1 1.5 1.7.4.6.8 1.2 1.2 1.9.3.7.6 1.3.9 2 .2.7.5 1.4.5 2.2-.6-.5-1.1-1.1-1.5-1.7-.4-.6-.8-1.2-1.2-1.9-.3-.7-.6-1.3-.9-2s-.5-1.4-.5-2.2z"></path></g><path class="st4" d="M261 370.6c-.1 0-.2.1-.2.1-.1 0-.3.1-.8.1-5.3 1.1-11.6 1.8-18.8 1.8-15.8 0-36-3.6-60-14.9-.8 1-1.7 2.1-2.6 3.1-1.7 1.9-3.4 3.9-5 5.8-1.6 2-3 4.1-4.5 6.2-2.9 4.2-5.7 8.5-8.6 12.8a244 244 0 0 1-4.4 6.4c-.8 1-1.6 2.1-2.4 3.1-.4.5-.9 1-1.4 1.5-.3.2-.6.5-.9.7-.1.1-.3.1-.4.1-28.2 48.4-2.3 166.7-.3 175.6l76.4 7.5 14.6-143.1-4.8.9c-3 .5-6.1 1-9.2 1.1 2.9-1.1 5.9-1.9 8.9-2.6s6-1.4 9-2 6.1-1.1 9.1-1.7c3-.5 6.1-.9 9.2-1.1-2.9 1.1-5.9 1.8-8.9 2.6-3 .7-6 1.4-9 2-.9.2-1.8.4-2.7.5l-14.7 143.5 43.3 4.2c11.9-46.2 24.8-113.2 19.1-171.6-3-30.6-9.9-46.3-11.7-49.9-2.4 1.9-8.6 5.2-18.3 7.3z"></path><path class="st5" d="M334.9 233.1c-.8 1.6-1.6 3.1-2.4 4.6-2.7 4.7-5.6 9.3-8.8 13.7-3.2 4.4-6.5 8.7-10.1 12.8-1.8 2.1-3.6 4-5.5 6l-2.8 2.9c-.9 1-1.8 2-2.6 3-3.3 4.1-6.3 8.6-7.7 13.7a41 41 0 0 0-1.3 7.8c-.2 2.7-.1 5.4 0 8.1-.5-2.7-.8-5.4-.9-8.1-.1-2.7.1-5.5.8-8.2.6-2.7 1.7-5.3 3.1-7.7.1-.1.2-.3.3-.4l-3.4-4.3-.3 1c-1.2 4-3.1 7.8-5.5 11.3-2.3 3.3-5.1 6.3-8.4 8.7.6 4 .8 8 .9 11.9v1.8c1.7 1.8 10.3 10.3 16.6 12.5 6.4 2.2 31.6-10.1 42.6-32.6 4.5-9.2 6.1-20.1 7.6-30.6 1.1-7.8 2.3-15.7 4.6-23h-.6c-8.5.1-14.2-3.4-16.2-4.9z"></path><path class="st5" d="M277.8 297.7c0-.2.1-.5.3-.6 3.3-2.3 6.1-5.3 8.4-8.6 2.3-3.3 4.1-7 5.3-10.9s1.8-7.9 1.3-11.9c-.1-1-.3-2-.5-2.9-.1-.5-.3-.9-.5-1.4s-.3-.9-.5-1.4c-.4-.9-.8-1.8-1.3-2.7l-1.5-2.7c-4.1-7.1-8.9-13.8-13.5-20.6-2.3-3.4-4.7-6.8-6.7-10.4l-1.5-2.7c-.5-.9-.9-1.9-1.3-2.8-.4-.9-.8-2-1.1-2.9-.2-.5-.3-1-.4-1.5l-.3-1.5c1.7 3.8 3.9 7.2 6 10.7 1.2 1.8 2.3 3.6 3.5 5.4-1.7-30.4-10.8-34.8-21.3-39.9-4-1.9-8.3-4-12.5-7.6 1.9 4.9 5.4 15 7.7 26.4 4.2 21.3 2 37.7-6.5 47.2-.1.2-.4.3-.6.3h-.2c-26.8-7.8-37.3-29-46.6-47.7-5.1-10.4-10-20.2-17.1-27.1l-1.8.6c-3.7 1.2-7.4 2.5-10.9 4-7.2 2.9-14 6.7-20.3 11.3-6.3 4.5-11.7 10.1-17.2 15.7a944.15 944.15 0 0 0-31.9 34.3 448.46 448.46 0 0 0-29.6 35.7c-4.6 6.3-9.1 12.6-13.1 19.3-2 3.3-3.9 6.7-5.5 10.2s-3 7.1-3.7 10.9c-.3 1.9-.4 3.8 0 5.5.4 1.8 1.3 3.4 2.5 4.8 2.4 2.8 6 4.6 9.5 5.8 3.6 1.2 7.4 2 11.3 2.5 3.8.5 7.7.8 11.6 1.1 15.5.8 31.2.1 46.8 0 7.8-.1 15.6 0 23.4.4 3.9.2 7.9.5 11.8.9-1-10.5 6.6-15.7 9.7-17.4-.4-.2-.9-.5-1.3-.7-4.5-2.3-9.3-4.3-14.1-6.1-4.8-1.8-9.7-3.3-14.6-4.9-4.9-1.5-9.8-3.1-14.7-4.5-9.9-2.8-19.8-5.4-30-6.7-5.1-.6-10.2-.7-15.2-.4-5 .4-10.1 1.8-14.1 5.1 1.8-1.9 4-3.3 6.4-4.4s5-1.7 7.5-2.1c5.2-.8 10.4-.4 15.5.2 1.9.2 3.8.5 5.7.9 4.1-5.4 8.6-10.3 13.5-14.9 5-4.7 10.3-9 16-12.8 5.7-3.7 11.8-7 18.3-9.3l2.5-.8c.8-.2 1.7-.4 2.5-.7l2.5-.6c.8-.2 1.7-.3 2.5-.5l2.6-.3c.9-.1 1.7-.1 2.6-.1 1.7-.1 3.4.1 5.1.2-3.4.4-6.7.9-10 1.6s-6.5 1.6-9.7 2.7c-1.7.6-3.4 1.3-5.1 2 9.9 1.6 9.9 1.7 36.4 63 .4.4.7.7 1 1.1 1.8 2 3.2 4.2 4.2 6.8.2.5.3 1 .5 1.5 37.9 19.4 76.6 9.7 77.9 9.4 1.6-.5 3.1-1 4.7-1.4l3-.9c2-.6 3.4-1.2 4.4-1.7.6-3.9 1.2-7.8 1.6-11.8.5-4.1.9-8.2 1.1-12.2.2-3.3.3-6.6.3-9.9-.1-.2-.1-.5 0-.7V310c-.1-4.1-.3-8.2-1-12.2v-.1h.3z"></path><path class="st6" d="M239.9 252.9c18.8-22.1-2-72.3-3-74.7a48.8 48.8 0 0 1-7.1-9.6c-1.3.4-2.6.7-3.8.8h-.9c-9.7 0-26.6-7.3-38.1-16.6.7 3.1 1 6.3 1 9.5-.1 4-.9 8.1-3.3 11.5-1.2 1.7-2.7 3.1-4.5 4.1-.7.4-1.5.8-2.3 1.1 7 7.1 11.8 16.8 16.9 27 9.5 19.3 19.3 39.2 45.1 46.9zM379.9 207.3c7.2 1.8 9.4-3 12-8.7.6-1.3 1.2-2.7 1.9-4-2.1.1-6.7.9-11.4 4.9-.1.5-.2 1.1-.4 1.6-.4 1.5-.9 3-1.4 4.4-.3.7-.5 1.3-.7 1.8z"></path><circle class="st7" cx="374.4" cy="141" r="13.2"></circle><path class="st7" d="M403.5 164.7a6.7 6.7 0 1 0-6.7-6.7c0 3.6 3 6.7 6.7 6.7zM350.2 178.2c5.1 0 9.3-4.2 9.3-9.3s-4.2-9.3-9.3-9.3-9.3 4.2-9.3 9.3 4.2 9.3 9.3 9.3z"></path><path class="st8" d="M276.6 347.6c-1.1.6-2.6 1.2-4.8 1.9-.9.3-1.8.6-2.8.8v16.6c5.6-2 8.9-4.2 9.8-5.2 1.2-1.3 1.8-8.5 1.2-13.1-.3-2.2-.7-2.5-.8-2.6-.1 0-.5.2-1 .6-.4.2-.8.5-1.4.8 0 .1-.1.1-.2.2z"></path><path class="st7" d="M264.7 351.7v16.6c1-.3 2-.6 2.9-.9v-16.6c-1 .3-2 .6-2.9.9z"></path><path class="st6" d="M414.5 191.8c-4.8.9-6.3 5.3-7.7 9.4-1.4 4.2-2.9 8.6-8.2 7.2-1.7 3.2-3.4 5.9-4.8 7.6 5.5-.3 15.1-1.5 16.4-5.4 3.1-9.2 4.9-17.5 4.3-18.8zM379 205.1c.5-1.4 1-2.9 1.4-4.3s.7-3 .6-4.3c0-.3-.1-.6-.2-.8-.1-.1 0-.1-.2-.1-.7 0-1.3.1-1.9.4-1.2.5-2 1.6-2.7 2.9-1.4 2.6-2.4 5.7-4.5 8.2-1 1.3-2.4 2.3-3.9 2.9s-3.1.8-4.7.6c3-.8 5.7-2.1 7.4-4.4 1.4-1.8 2.3-4 3.3-6.2-12.5-1.3-19.2-1-25 5.8a25.16 25.16 0 0 1 11.8.3c-2.7.4-5.4.4-8 .7-2.6.3-5.2.7-7.4 2-1 .7-2 1.5-2.6 2.6s-1.1 2.3-1.4 3.6c-.4 1.3-.6 2.6-.9 3.9-.3 1.3-.7 2.7-1 4a69 69 0 0 1-3.6 8.9c1.6 1.2 7.7 5.2 16.7 4.9 1.9-5.5 4.6-10.7 8.6-15.2h-.3c-1.5.2-3 .5-4.4.8-1.4.4-2.9.8-3.9 2 .2-.8.8-1.4 1.4-2 .6-.5 1.4-.9 2.1-1.2 1.5-.7 3-1 4.5-1.3 3.1-.6 6.2-.7 9.1-1.2.7-.1 1.5-.3 2.2-.5s1.4-.5 1.7-.9c.4-.4.8-1.1 1.2-1.7s.7-1.3 1.1-2c1.3-2.8 2.5-5.6 3.5-8.4z"></path><path class="st8" d="M245.8 362.9c.3 2 1.2 3.6 2.7 4.7 4.3 3.1 11.9 1.6 12 1.6h.3l2.4-.6v-16.5c-8.9 2.9-18 6.5-17.4 10.8z"></path><path class="st6" d="M415.6 190.7c1.9 2.3-2.5 16.1-3.9 20.3-.1.3-.2.6-.4.9 4.8-2.8 6.9-9 8.8-14.6.3-1 .6-1.9 1-2.8.9-2.6 2.2-4.7 3.1-6.3.5-.9 1.2-2.1 1.3-2.5-4.5-1.6-8.6 3.2-9.9 5zM404.4 189.5c-4.4-.3-6.8 1.8-8.7 4.8-.9 1.5-1.7 3.2-2.5 5-2.6 5.8-5.3 11.7-13.9 9.4-.8 1.8-1.6 3.6-2.5 5.4-.4.7-.7 1.4-1.1 2.1-.1.2-.2.4-.3.5 3.7 0 13.6-.1 16.2-.7.7-.2 3-3 6.6-10.2 3.9-7.8 6.4-14.8 6.2-16.3z"></path><path class="st8" d="M185.4 351.3c-.6 1.2-1.2 2.4-1.9 3.5-.4.6-.9 1.2-1.3 1.8 29.7 13.9 53.4 15.9 69.9 14.1-1.6-.3-3.1-.9-4.4-1.8-1.9-1.4-3-3.3-3.3-5.7-.5-4 4.1-7 10.5-9.6-13.9 1.8-41.4 2.9-68.6-10.6.2 1.5.3 3 .2 4.5-.2 1.2-.6 2.6-1.1 3.8z"></path><path class="st6" d="M150.3 396c.1 0 .2 0 0 0 .1 0 .2 0 .3-.1.2-.1.4-.3.6-.5.4-.4.9-.8 1.3-1.3.8-.9 1.6-2 2.3-3 1.5-2.1 2.9-4.2 4.4-6.3 2.9-4.3 5.7-8.6 8.6-12.8 1.5-2.1 2.9-4.3 4.6-6.3 1.6-2 3.3-4 5-5.9s3.3-3.9 4.7-6c.7-1 1.3-2.1 1.8-3.2.4-1.1.8-2.3.9-3.5.2-2.4-.1-4.9-1-7.2s-2.2-4.4-3.9-6.3a39 39 0 0 0-9.3-7.3c-1.9.8-11.1 5.4-9.8 16.7 3.3.4 6.7.9 10 1.7.4.1.7.5.6.9 0 .2-.2.4-.3.5l-2.3 1.6-1.2.8c-.4.3-.7.6-1.1.9l-2.2 1.8-2 2-1 1-.9 1.1c-.6.7-1.2 1.4-1.8 2.2l-1.6 2.3c-.6.8-1 1.6-1.5 2.4-1.9 3.3-3.5 6.7-4.7 10.3a60.6 60.6 0 0 0-2.6 11c0 .4-.4.7-.7.7h-5.2c-.4 0-.8-.3-.8-.8v-.2c.6-2 1.1-4.1 1.4-6.2.3-2.1.5-4.2.4-6.3-.1-2.1-.5-4.2-1.4-5.9-.5-.9-1.1-1.6-1.9-2.2-.7-.5-1.6-.9-2.5-1.1-.4.1-.6.3-.7.7-.2.4-.2 1-.2 1.6 0 1.2.2 2.5.4 3.8.1 1.3.2 2.6 0 4.1-.1.7-.5 1.5-.8 2-.3.6-.6 1.1-.8 1.7-1.1 2.3-1.8 4.7-1.5 7 .1 1.2.5 2.4 1.1 3.4s1.4 2 2.3 2.8c1.8 1.7 3.8 3.3 5.9 4.6 1.1.7 2.2 1.2 3.3 1.8 1.1.5 2.3.9 3.4 1h.4z"></path><g class="st1"><path class="st2" d="M186.4 150.5c1.1 3.9 1.6 7.8 1.5 11.8s-.9 8.1-3.3 11.5c-1.2 1.7-2.7 3.1-4.5 4.1-1.8 1.1-3.8 1.6-5.6 2.2-3.7 1.2-7.4 2.5-10.9 4-7.2 2.9-14 6.7-20.3 11.3-6.3 4.5-11.7 10.1-17.2 15.7a944.15 944.15 0 0 0-31.9 34.3 572.32 572.32 0 0 0-29.5 36.1c-4.6 6.3-9.1 12.6-13.1 19.3-2 3.3-3.9 6.7-5.5 10.2s-3 7.1-3.7 10.9c-.3 1.9-.4 3.8 0 5.5.4 1.8 1.3 3.4 2.5 4.8 2.4 2.8 6 4.6 9.5 5.8 3.6 1.2 7.4 2 11.3 2.5 3.8.5 7.7.8 11.6 1.1 15.5.8 31.2.1 46.8 0 7.8-.1 15.6 0 23.4.4 7.8.4 15.6 1.1 23.3 2.8.4.1.7.5.6.9 0 .2-.2.4-.3.5l-2.3 1.6-1.2.8c-.4.3-.7.6-1.1.9l-2.2 1.8-2 2-1 1-.9 1.1c-.6.7-1.2 1.4-1.8 2.2l-1.6 2.3c-.6.8-1 1.6-1.5 2.4-1.9 3.3-3.5 6.7-4.7 10.3a60.6 60.6 0 0 0-2.6 11c0 .4-.4.7-.7.7h-5.2c-.4 0-.8-.3-.8-.8v-.2c.6-2 1.1-4.1 1.4-6.2.3-2.1.5-4.2.4-6.3-.1-2.1-.5-4.2-1.4-5.9-.5-.9-1.1-1.6-1.9-2.2-.8-.6-1.7-.9-2.7-1.1h.3c-.5.1-.7.3-.9.7-.2.4-.2 1-.2 1.6 0 1.2.2 2.5.4 3.8.1 1.3.2 2.6 0 4.1-.1.7-.5 1.5-.8 2-.3.6-.6 1.1-.8 1.7-1.1 2.3-1.8 4.7-1.5 7 .1 1.2.5 2.4 1.1 3.4s1.4 2 2.3 2.8c1.8 1.7 3.8 3.3 5.9 4.6 1.1.7 2.2 1.2 3.3 1.8 1.1.5 2.3.9 3.4 1H150.1s.1 0 .2-.1c.2-.1.4-.3.6-.5.4-.4.9-.8 1.3-1.3.8-.9 1.6-2 2.3-3 1.5-2.1 2.9-4.2 4.4-6.3 2.9-4.3 5.7-8.6 8.6-12.8 1.5-2.1 2.9-4.3 4.6-6.3 1.6-2 3.3-4 5-5.9s3.3-3.9 4.7-6c.7-1 1.3-2.1 1.8-3.2.4-1.1.8-2.3.9-3.5.2-2.4-.1-4.9-1-7.2s-2.2-4.4-3.9-6.3c-3.4-3.7-7.7-6.5-12.2-8.9-4.5-2.3-9.3-4.3-14.1-6.1-4.8-1.8-9.7-3.3-14.6-4.9-4.9-1.5-9.8-3.1-14.7-4.5-9.9-2.8-19.8-5.4-30-6.7-5.1-.6-10.2-.7-15.2-.4-5 .4-10.1 1.8-14.1 5.1 1.8-1.9 4-3.3 6.4-4.4s5-1.7 7.5-2.1c5.2-.8 10.4-.4 15.5.2 10.3 1.3 20.3 3.9 30.2 6.7 4.9 1.4 9.9 3 14.8 4.5s9.8 3.1 14.7 4.9c4.8 1.8 9.6 3.7 14.2 6.1 4.6 2.4 9 5.3 12.6 9.2 1.8 2 3.2 4.2 4.2 6.8.9 2.5 1.3 5.2 1.1 7.9-.1 1.4-.5 2.7-1 3.9-.6 1.2-1.2 2.4-1.9 3.5-1.5 2.2-3.2 4.2-4.8 6.1-1.7 1.9-3.4 3.9-5 5.8-1.6 2-3 4.1-4.5 6.2-2.9 4.2-5.7 8.5-8.6 12.8a244 244 0 0 1-4.4 6.4c-.8 1-1.6 2.1-2.4 3.1-.4.5-.9 1-1.4 1.5-.3.2-.6.5-.9.7-.2.1-.4.2-.7.2h-.6c-2.9-.4-5.2-1.7-7.4-3-2.2-1.4-4.3-3-6.2-4.8-.9-1-1.8-2-2.5-3.2a11.23 11.23 0 0 1-1.1-8c.3-1.3.8-2.6 1.3-3.8l.9-1.8c.3-.6.5-1 .6-1.6.2-1.1.1-2.4 0-3.6-.1-1.3-.3-2.5-.4-3.9 0-.7 0-1.4.3-2.2.2-.4.4-.8.8-1.1.4-.3.8-.5 1.2-.6h.3a7.8 7.8 0 0 1 5.7 4c1.1 2.1 1.5 4.4 1.6 6.6s-.1 4.5-.4 6.6c-.3 2.2-.8 4.3-1.4 6.5l-.7-1h5.2l-.7.7c.5-3.9 1.4-7.6 2.7-11.3 1.2-3.7 2.9-7.2 4.8-10.6.5-.8 1-1.7 1.5-2.5l1.7-2.4c.6-.8 1.2-1.5 1.8-2.3l.9-1.1 1-1c.7-.7 1.4-1.4 2-2.1l2.2-1.9c.4-.3.7-.6 1.1-.9l1.2-.8 2.4-1.7.2 1.4c-7.6-1.6-15.3-2.4-23.1-2.7-7.8-.4-15.6-.4-23.4-.4-15.6.1-31.2.8-46.9 0-3.9-.2-7.8-.5-11.7-1.1-3.9-.6-7.8-1.3-11.5-2.6s-7.5-3.1-10.2-6.2c-1.3-1.6-2.4-3.4-2.8-5.5s-.3-4.1 0-6.1c.7-4 2.1-7.7 3.8-11.3 1.6-3.6 3.6-7 5.6-10.4 4-6.7 8.5-13.2 13.2-19.4 9.3-12.6 19.4-24.5 29.7-36.3 10.3-11.7 21-23.1 31.9-34.3 5.5-5.5 11-11.2 17.4-15.8 6.3-4.7 13.3-8.5 20.6-11.4 3.6-1.5 7.3-2.8 11-4 1.9-.6 3.7-1.1 5.3-2.1 1.6-.9 3-2.2 4-3.7 2.1-3.1 2.9-6.9 3-10.7s-.5-7.7-1.5-11.3c-.1-.4.1-.8.5-.9s1.1.4 1.2.8z"></path></g><g class="st1"><path class="st2" d="M100.1 302.5a124.67 124.67 0 0 1 29.7-28.1c5.7-3.7 11.8-7 18.3-9.3l2.5-.8c.8-.2 1.7-.4 2.5-.7l2.5-.6c.8-.2 1.7-.3 2.5-.5l2.6-.3c.9-.1 1.7-.1 2.6-.1 1.7-.1 3.4.1 5.1.2-3.4.4-6.7.9-10 1.6s-6.5 1.6-9.7 2.7-6.3 2.4-9.3 3.9-5.9 3.2-8.8 5.1c-5.6 3.7-10.9 8-15.8 12.7-4.9 4.7-9.5 9.7-13.6 15.1-.2.3-.7.4-1 .2a.9.9 0 0 1-.1-1.1z"></path></g><path class="st9" d="M141 268.9c12.2 2.4 9.9-2.9 38.4 63.1M230.2 167.7c17.5 31.5 42 8.1 44.1 63.1"></path><g class="st1"><path class="st2" d="M362.9 210.5c3-.8 5.7-2.1 7.4-4.4 1.8-2.3 2.7-5.2 4.2-8 .4-.7.8-1.4 1.4-2.1.6-.6 1.3-1.2 2.1-1.6.8-.4 1.7-.5 2.6-.5.3 0 .7 0 1 .3.2.1.3.2.4.3.1.1.2.3.3.4.1.3.2.5.3.8s.1.5.1.7c.1 1.8-.3 3.3-.7 4.8s-.9 3-1.4 4.4c-1.1 2.9-2.3 5.8-3.7 8.5-.4.7-.7 1.4-1.1 2.1-.4.7-.8 1.3-1.5 2s-1.6.9-2.3 1.2l-2.3.6c-3.1.6-6.1 1-9.1 1.5-1.5.2-3 .5-4.4.8-1.4.4-2.9.8-3.9 2 .2-.8.8-1.4 1.4-2 .6-.5 1.4-.9 2.1-1.2 1.5-.7 3-1 4.5-1.3 3.1-.6 6.2-.7 9.1-1.2.7-.1 1.5-.3 2.2-.5s1.4-.5 1.7-.9c.4-.4.8-1.1 1.2-1.7s.7-1.3 1.1-2a78.6 78.6 0 0 0 5-12.7c.4-1.4.7-3 .6-4.3 0-.3-.1-.6-.2-.8-.1-.1 0-.1-.2-.1-.7 0-1.3.1-1.9.4-1.2.5-2 1.6-2.7 2.9-1.4 2.6-2.4 5.7-4.5 8.2-1 1.3-2.4 2.3-3.9 2.9-1.7.5-3.3.7-4.9.5z"></path></g><path class="st9" d="M378.8 207.9c16.3 5 10.7-20.4 25.9-19.1 3 .2-9.6 27.2-12.9 28s-17.8.8-17.8.8"></path><path class="st9" d="M398.2 207.5c10 3.3 5.4-14.5 16.3-16.5 2.7-.5-1.5 13.8-3.5 19.8s-19.2 6-19.2 6"></path><path class="st9" d="M414.5 191s5.2-8.3 11.2-6c1.7.7-1.9 4-4 9.8-2.6 7.4-4.9 17.5-13.9 19.1M395.1 194s-6.6-.7-13.5 5.3"></path><g class="st1"><path class="st2" d="M360.5 206c-2.7.4-5.4.4-8 .7-2.6.3-5.2.7-7.4 2-1 .7-2 1.5-2.6 2.6s-1.1 2.3-1.4 3.6c-.4 1.3-.6 2.6-.9 3.9-.3 1.3-.7 2.7-1 4-1.6 5.2-4 10.2-6.7 14.9-2.7 4.7-5.6 9.3-8.8 13.7-3.2 4.4-6.5 8.7-10.1 12.8-1.8 2.1-3.6 4-5.5 6l-2.8 2.9c-.9 1-1.8 2-2.6 3-3.3 4.1-6.3 8.6-7.7 13.7a41 41 0 0 0-1.3 7.8c-.2 2.7-.1 5.4 0 8.1-.5-2.7-.8-5.4-.9-8.1-.1-2.7.1-5.5.8-8.2.6-2.7 1.7-5.3 3.1-7.7 1.4-2.4 3-4.6 4.8-6.7.9-1.1 1.8-2.1 2.7-3.1l2.8-2.9c1.9-1.9 3.7-3.9 5.5-5.9 3.5-4.1 6.9-8.3 10-12.6 3.1-4.4 6.1-8.9 8.7-13.6 2.6-4.7 5-9.5 6.6-14.6.3-1.3.7-2.5 1-3.9.3-1.3.6-2.6.9-4 .3-1.3.9-2.7 1.6-3.9a8.9 8.9 0 0 1 3-3.1c2.5-1.6 5.3-2.1 8.1-2.3a28 28 0 0 1 8.1.9z"></path></g><path class="st9" d="M374.9 199.2c-14.2-1.5-21.7-1.3-28.3 7.9M363 220.2c-18.3 18-11.8 49.3-22.8 71.8s-36.2 35.5-43.5 33-17.2-13-17.2-13M334.7 232s6.9 6 18.1 5.4M170.7 325.6s-12.5 4.7-10.5 18.2"></path><g class="st1"><path class="st2" d="M263.9 212c1.7 3.8 3.9 7.2 6 10.7 2.2 3.4 4.4 6.9 6.7 10.4 4.6 6.9 9.4 13.6 13.6 20.7l1.5 2.7c.5.9.9 1.9 1.4 2.8l.6 1.5c.2.5.4 1 .5 1.5.2 1 .5 2.1.6 3.1.5 4.2-.1 8.5-1.3 12.5s-3.1 7.8-5.5 11.3c-2.4 3.4-5.4 6.5-8.8 9l.3-.7c.7 4.1.9 8.3 1 12.4s-.1 8.3-.3 12.4-.6 8.2-1.1 12.3c-.5 4.1-1 8.2-1.7 12.3-.1.4-.5.7-.9.6s-.7-.5-.6-.9c.7-4 1.2-8.1 1.7-12.2s.9-8.2 1.1-12.2c.2-4.1.4-8.2.3-12.3-.1-4.1-.3-8.2-1-12.2v-.1c0-.2.1-.5.3-.6 3.3-2.3 6.1-5.3 8.4-8.6 2.3-3.3 4.1-7 5.3-10.9s1.8-7.9 1.3-11.9c-.1-1-.3-2-.5-2.9-.1-.5-.3-.9-.5-1.4s-.3-.9-.5-1.4c-.4-.9-.8-1.8-1.3-2.7l-1.5-2.7c-4.1-7.1-8.9-13.8-13.5-20.6-2.3-3.4-4.7-6.8-6.7-10.4l-1.5-2.7c-.5-.9-.9-1.9-1.3-2.8-.4-.9-.8-2-1.1-2.9-.2-.5-.3-1-.4-1.5-.4-.6-.5-1.1-.6-1.6z"></path></g><path class="st9" d="M176.5 178.8c20.7 19.8 22.5 63 63.7 75 20.2-23-2.6-75.9-2.6-75.9M180.9 356.9c59.4 28.1 95.3 9 98.5 5.3 2-2.3 2.3-16.9 0-16.9-1.1 0-2.1 1.7-7.9 3.5-11.4 3.5-27.4 7.8-26.5 14.2 1.3 9.8 15.6 7 15.6 7"></path><path class="st9" d="M185.2 341.5c39.1 20.1 78.7 9.6 78.7 9.6v17.6M268.3 349.8v17.7"></path><path class="st9" d="M279.5 362.2s34.9 61.2-7.1 223.5l-122.3-12s-29.6-126.2.4-176.9"></path><g class="st1"><path class="st2" d="M263.9 432c-2.9 1.1-5.9 1.8-8.9 2.6-3 .7-6 1.4-9 2s-6 1.2-9.1 1.7c-3 .5-6.1 1-9.2 1.1 2.9-1.1 5.9-1.9 8.9-2.6s6-1.4 9-2 6.1-1.1 9.1-1.7c3.1-.5 6.1-.9 9.2-1.1z"></path></g><path class="st9" d="M242.6 436.3l-14.9 145"></path><circle class="st10" cx="374.4" cy="141" r="13.9"></circle><circle class="st10" cx="403.5" cy="157.9" r="7.5"></circle><circle class="st10" cx="350.2" cy="168.9" r="10"></circle><path class="st9" d="M293.3 275.4l4.6 6"></path><path class="st11" d="M234.8 175.8c-1.7-2-3.3-4.4-4.9-7.2-1.3.4-2.6.7-3.8.8h-.9c-9.7 0-26.6-7.3-38.1-16.6.5 2.4.9 4.9.9 7.3 7.9 7.1 23.2 18.8 37 18.8 3.1 0 6.4-1.1 9.8-3.1z"></path><path class="st12" d="M292.3 276.3c-2.9 5.3-11.8 13-29.5 15.4-63.6 8.7-60.1-2.1-70-5.2-16.8-5.2 3.6 21 17 20.6 18.8-.5 50.1-6.7 68.9-2.5-.1-2.3-.4-4.5-.7-6.8v-.1c0-.2.1-.5.3-.6 3.3-2.3 6.1-5.3 8.4-8.6 2.3-3.3 4.1-7 5.3-10.9 0-.4.1-.9.3-1.3zM162.2 263.2c-1.2.2-2.5.4-3.7.7-3.3.7-6.5 1.6-9.7 2.7-1.7.6-3.4 1.3-5.1 2 9.9 1.6 9.9 1.7 36.4 63l.6.6c-5.2-30.3-14-56.7-18.5-69z"></path><path class="st12" d="M293.1 301.4l-.3-3.8c-.1-2.7.1-5.5.8-8.2.6-2.7 1.7-5.3 3.1-7.7.1-.1.2-.3.3-.4l-3.4-4.3-.3 1c-1.2 4-3.1 7.8-5.5 11.3-2.3 3.3-5.1 6.3-8.4 8.7.6 4 .8 8 .9 11.9v1.8c1.7 1.8 10.3 10.3 16.6 12.5 3.1 1.1 10.4-1.2 18.4-6.2-18.6 1.5-23-6.9-22.2-16.6z"></path><path d="M246 436.5c-.9.2-1.8.4-2.7.5l-14.7 143.5 1.2.1c7.6-59.9 19.5-124.8 23.4-145.8-2.4.7-4.8 1.3-7.2 1.7z" clip-path="url(#SVGID_2_)" fill="#ecedee"></path><path class="st14" d="M137.8 68.2c-1.4.7-2.3 2.5-2.5 4.8-.2 3 .9 6.9 3.7 9.2 1.6-2.5 4.6-6.7 8.2-10.2-2-1.8-6.5-5.2-9.4-3.8zM163.1 82.2c-1.9-1.5-7.4-4.1-16.2 5.4-.2.3-.6.3-.9.1-3.8-2.3-7.2-2.9-9.2-1.6-1.3.9-2 2.6-1.7 4.7.5 4.6 5.2 10.7 14.3 14.3.1-.9.2-1.7.5-2.5 1.3-3.6 3.1-5.7 5.3-6.1 3.1-.7 6 2 6.5 2.5 3.5 2 5.4 4.2 6 6.7 1 4.3-2.1 8.6-5.4 13.2-1.1 1.6-2.3 3.2-3.2 4.7-2.8 4.7-4.1 9.2.6 13.6-.9-6.9 4-12.2 8.8-17.3 4.3-4.6 8.3-8.9 7.8-14-.4-4.2-4-8.7-10.9-13.6-.3-.2-.4-.7-.2-1 1.7-2.5.7-6.8-2.1-9.1z"></path><path class="st14" d="M168.2 73.8c0-2.5-2.2-4.6-6.2-6.1-4.4-1.6-9.1 1.2-13.2 5-4.3 4-7.7 9.1-9.2 11.4 1.7.1 3.8.6 6.5 2.1 2.8-2.9 10.4-9.8 16.9-5.8 2.7-1.1 5.3-3.8 5.2-6.6z"></path><path class="st11" d="M171.3 129.3c-.8-2.3-1.6-4.9-2.4-7.6-1.7 1.8-3.3 3.6-4.7 5.6 2.7 1.7 5.2 2.4 7.1 2z"></path><path class="st14" d="M166.3 106.1c-.4-1.6-1.5-3.1-3.3-4.5l3.3 7.4c.2-1 .2-2 0-2.9zM163.5 39.2c.1-.1 2.1-2.2 5.4-4.5 0-1.4.5-6.2 4.2-11.6-2.2-.3-7.1-.5-10.5 2.8-3.7 3.6-4.8 12-5.2 15.3 1.9-.9 3.9-1.6 6.1-2zM179.9 29.9c.6-.9 4.5-5.5 13.2-4.9.5-.5 4.6-4.3 10.7-5.8-1.9-1.2-14.5-8.8-23.6-1.6-7.7 6.2-9.4 13.1-9.8 16 2.7-1.5 6-3.1 9.5-3.7z"></path><path class="st14" d="M223.4 42.3c2.3-1.1 3.8-2.5 4.6-4.2 1.9-4-.5-9-6.5-13.3-12.8-9.4-23.3-2.2-26.4.5 2.9.4 6.4 1.5 10.3 3.3 4.9 2.3 7.3 4.9 7.4 7.8 0 2.4-1.8 4.8-4.9 6.7 6.6 1.5 11.9.9 15.5-.8zM178.2 46.1c-.4-2-1.9-3.5-4.7-4.6-9.8-3.9-19.5 3.2-22.4 5.6 3 1.5 5.5 4.4 6.3 5.4a26 26 0 0 1 6.2.1c4.7.6 8 1.8 9.7 3.7 1.5-1.7 5.6-6.3 4.9-10.2z"></path><path class="st14" d="M173.2 59.2c-.5-2.7-3.9-4.5-9.9-5.2-7.4-.9-13.2 1.1-17.4 6a20.3 20.3 0 0 0-3.9 7c2.7 1 5.3 3.2 6.3 4.2 4.3-3.8 9.3-6.6 14.2-4.8 1.9.7 3.4 1.5 4.4 2.3 2.8-1.7 7-6 6.3-9.5z"></path><path class="st6" d="M155.6 98c-1.7.4-3.2 2.1-4.2 5.2-1 2.7-.5 6 .8 9.2 1.4 3.5 3.7 7 6.2 9.8.9-1.4 1.8-2.7 2.8-4.1 1.8-2.5 3.5-4.9 4.4-7.1l-4.9-11c-.5-.4-2.8-2.5-5.1-2z"></path><path class="st14" d="M263.5 118c0 .1 0 .1 0 0 .8 3.5 3.2 5.6 5.5 7.7 2.4 2.1 4.9 4.3 5.1 7.9.1 2.4-.6 5.6-1.4 9-1.4 6-3 12.9-.1 16.8.7 1 1.7 1.8 3 2.4-.4-.4-.7-.9-.9-1.4-2-4.2.7-10.2 3.5-16.5 2.5-5.5 5-11.2 3.9-15-1-3.5-3.8-5.8-7-8.4-3.9-3.2-8.6-7-10.5-14.1-.3 4.2-.7 8.2-1.1 11.6zM196.9 41.7c.6-1.9-.6-4.1-3.3-6.5-11-9.5-23.4-.1-27.5 3.6a18 18 0 0 1 8.1 1.2c3.3 1.3 5.2 3.3 5.6 5.7.2 1.3 0 2.6-.4 3.9 5.3-.7 16.1-3.3 17.5-7.9z"></path><path class="st14" d="M197.2 44.1c2 .6 5.8-.1 9-1.8s5.1-3.9 5-5.9c0-2.2-2.3-4.5-6.6-6.5-13.3-6.3-20.1-2.4-22.6-.2 4-.2 8.3.9 12.4 4.5 3.3 2.8 4.5 5.5 3.8 8-.1.7-.5 1.3-1 1.9zM229 18.7c1.2.4 6.3 2.3 11.4 5.7 7.6 5.1 11.5 11 11 17.3a12 12 0 0 1-.8 3.5c11.5 4.7 14.6 24 14.7 43.2 5.8-4.9 8.8-10.2 9.1-15.9.5-9-6.3-15.9-6.4-15.9-.1-.1-.2-.3-.2-.6 1-25.3-15.7-27.2-16.4-27.3-.3 0-.6-.2-.6-.5-4-14.2-21.6-16.1-27.5-16.3 2 1.8 3.9 4.1 5.7 6.8z"></path><path class="st14" d="M205.2 19c4.8-.8 10.7 0 17.1 4.6 6.6 4.8 9.2 10.5 6.9 15.2-.8 1.6-2.2 3.1-4.3 4.3 3.7 2.8 14.5 7.5 20.6 5.1 2.6-1 4.1-3.2 4.3-6.6 1-13.9-21.4-21.5-21.6-21.6-.2-.1-.3-.2-.4-.3-2.2-3.3-4.5-5.9-6.9-7.9l-.3-.3c-3.2-2.6-6.6-4.1-10.2-4.4-8.2-.7-14.8 4.9-16.5 6.5 6.1 1.3 10.9 4.6 11 4.6.3.2.4.5.3.8zM149.6 46.4c.8-.7 3.1-2.7 6.3-4.4.1-1.8.7-8.1 3-13-2.4.5-7 1.7-9.4 3.7-2.5 2.1-6.4 7.5-3.8 13.7 1.3-.5 2.6-.4 3.9 0zM140.6 66.5c.8-2.6 4.5-11.8 15-13.9-1.2-1.4-3.6-3.8-6.2-4.8-1.3-.5-2.6-.6-3.9 0-3.2 1.5-7.2 4.7-8.6 9.1-1 3-.7 6.3.9 9.7.9-.2 1.9-.2 2.8-.1zM178.5 145.5c-2.2-3.3-4.4-8.3-6.7-14.8-.5.1-1 .2-1.6.2-2 0-4.4-.8-6.8-2.4-2 3.2-3 6.6-1.8 10.5.1.3 0 .6-.3.8-.1.1-.3.1-.4.1-.2 0-.3 0-.4-.1-7.1-5.3-5.9-11-2.9-16.3-2.7-2.9-5.1-6.5-6.6-10.2-1.4-.5-2.7-1-3.9-1.5-8.7 12.2-13.4 29.8-.8 43.2a31.7 31.7 0 0 0 40.2 4.5c.1 0 .1-.1.2-.1-.2-2.1-.6-4.2-1.2-6.3-2.9-2.4-5.2-5-7-7.6zM149.4 106.8c-10.7-4-15.2-10.9-15.7-15.7-.3-2.7.6-4.9 2.4-6.1.4-.3 1-.6 1.8-.8.1-.2.2-.4.4-.7-3.3-2.7-4.6-7.1-4.4-10.6.2-2.6 1.1-4.6 2.7-5.7-.9-1.9-1.4-3.8-1.6-5.7-3.1 5-9.9 18.2-6.2 30.4 2.6 8.5 9.9 15 21.5 19.4-.6-1.4-.9-3-.9-4.5z"></path><path class="st14" d="M145.6 111.1c-.7-.3-1.4-.7-2.1-1-4.8.4-13.6 7.3-15.5 15.4-1.6 6.9 1.9 13.1 10 18.2-2.4-9-1.1-20.3 7.6-32.6z"></path><path class="st6" d="M225.5 169.6c11.8-.6 31.8-22.5 34.6-37.8.3-1.9 2.8-16.2 3.6-32.9 0-.9 0-1.9.1-3 .1-3.2.1-6.5.1-9.8-.3-15.7-2.9-35.2-13.9-39.6-.9 1.4-2.1 2.4-3.8 3.1-1.3.5-2.8.7-4.4.7-6.8 0-15.2-3.9-18.2-6.5-2.3 1-5.2 1.6-8.6 1.6-2.7 0-5.8-.4-9.1-1.3-2.2 1-4.7 1.6-6.9 1.6-1.1 0-2.1-.2-2.8-.6-4.8 4.1-15.2 5.8-17.5 6.1-1.4 2.8-3.6 5.1-4.5 6.1.3.5.4 1 .5 1.5.7 4.1-3.5 8.8-6.6 10.8 1.3 1.4 1.6 2.9 1.7 4.1 0 3.3-2.5 6.2-5.3 7.6 2.9 2.6 3.9 7.1 2.4 10.2 6.9 5.1 10.5 9.7 11 14.3.6 5.5-3.6 10.2-7.7 14.7l.1.1c3.3 11.3 6.6 19.4 9.7 24.1 8.1 12.7 33.8 25.5 45.5 24.9z"></path><g class="st1"><path class="st2" d="M263 99.2c0 1.5-.1 2.8-.3 4.1s-.6 2.6-1.1 3.9a15.13 15.13 0 0 1-4.8 6.3l-.1-.2c.9-.9 1.7-1.9 2.2-3.1.5-1.1 1-2.3 1.2-3.5s.4-2.4.4-3.7c0-1.2-.1-2.5-.3-3.6l2.8-.2z"></path></g><path class="st11" d="M240.6 127.4c-1.5.5-5.8 2.1-7.3 1.8-.7-.2-1.2-.8-1.8-1.1-.8-.4-1.6-.3-2.5-.3-.8 0-5.4 1.6-4.5-1.4.4-1.3-1.4-2.3-2.3-1.3-1.5 1.6-2.2 3.6-1.2 5.7 1.3 3 4.3 2.6 7 3.5 2.2.7 3.9 1.5 6.3.8 2.5-.6 4.4-2.2 5.7-4.4 0-.1 0-.1.1-.2 1.2-.7 2.1-3.6.5-3.1z"></path><g class="st1"><path class="st2" d="M235.8 116.3c.5.9 1.2 1.7 1.8 2.5.7.8 1.4 1.5 2.1 2.2.7.7 1.5 1.5 2.2 2.4.3.4.7.9.8 1.6.2.6.1 1.4-.1 2-.2.6-.5 1.1-.8 1.6s-.7.9-1.2 1.3c-.8.8-1.8 1.3-2.8 1.8-2 .9-4 1.4-6.1 1.7 1.8-1.2 3.7-2 5.4-3 .9-.5 1.7-1.1 2.4-1.7.4-.3.7-.7.9-1 .3-.4.5-.8.7-1.2.1-.4.2-.7.1-1.1-.1-.4-.3-.8-.5-1.2-.5-.9-1.2-1.6-1.8-2.4-1.2-1.7-2.5-3.5-3.1-5.5z"></path></g><g class="st1"><path class="st2" d="M229.7 129.9c-1.1-.3-1.9.2-2.9.6-.5.2-1 .5-1.7.6-.6.1-1.4 0-2-.4-.6-.3-1.1-.9-1.4-1.5-.2-.6-.3-1.3-.2-1.9.2-1.2.7-2.2 1.4-3.1-.1 1.1-.3 2.2-.2 3.1 0 1 .4 1.7 1.1 2.1.4.2.7.3 1.1.3.4 0 .9-.1 1.4-.3.5-.1 1.1-.3 1.7-.3.7.1 1.3.4 1.7.8z"></path></g><path class="st11" d="M263.2 97.9s-5.3-11.1-17.5-5c-5.3 2.6-5.4 10.3-5.4 10.3l22.9-5.3z"></path><path class="st4" d="M261.5 98s.3 7.3-1.5 10.9c-4.4 9-14.5 9.4-18.7 4.9-.9-.8-6.9-21.3 20.2-15.8z"></path><circle class="st15" cx="248.6" cy="106.6" r="7.7"></circle><path class="st16" d="M240.9 106.8s3-3.1 7.2-3.2 8.1 2.8 8.1 2.8c-.1-4.2-3.7-7.6-7.9-7.5s-7.5 3.6-7.4 7.9z"></path><circle class="st17" cx="248.6" cy="106.6" r="4.6"></circle><circle class="st4" cx="247.1" cy="103" r="1.9"></circle><path class="st11" d="M218.6 110.7s5.9-16.7-8.6-19.4c-14.4-2.7-20.6 7.1-20.6 7.1l29.2 12.3z"></path><path class="st4" d="M218.7 112.5s-4.7-16.9-14.4-17.1c-9.7-.2-13 3-13.9 5.7s3.3 13.7 11 15.8c7.7 2 17.3-4.4 17.3-4.4z"></path><circle class="st15" cx="204.4" cy="106.2" r="8.6"></circle><path class="st16" d="M195.8 106.5s3.3-3.5 8.1-3.6c4.7-.1 9.1 3.1 9.1 3.1-.1-4.7-4.1-8.5-8.8-8.3-4.8.1-8.5 4-8.4 8.8z"></path><circle class="st18" cx="248.6" cy="106.6" r="7.7"></circle><circle class="st18" cx="204.4" cy="106.2" r="8.6"></circle><path d="M241.9 141.3s-8.5-3-9.8-2.6-1.7.8-2.5.8-1.5-1.3-3.2-1.4c-1.6-.1-24.5 0-24.5 0s18.8 3.5 25.8 3.6c7.1 0 14.2-.4 14.2-.4z" clip-path="url(#SVGID_2_)" fill="#762b3f"></path><circle class="st17" cx="204.4" cy="106.2" r="5.2"></circle><circle class="st4" cx="202.7" cy="102.4" r="2.1"></circle><path d="M241.4 142.9c1.4-2.4-6.8 6.9-13.9 6.9-7.1 0-29.9-13.3-25.9-10.8 3.9 2.5 6.3 16.8 24.6 16.7 12 0 13.8-10.4 15.2-12.8z" clip-path="url(#SVGID_2_)" fill="#9a3a51"></path><path class="st4" d="M242.9 141.2c-16.6 3.3-43.7-3.8-43.7-3.8s16.9 12.9 27.8 12.4c10.9-.5 15.9-8.6 15.9-8.6z"></path><g class="st1"><path class="st2" d="M199.2 137.3c3.6 2.1 7.1 4.2 10.8 6.1 3.7 1.8 7.4 3.5 11.3 4.6 1.9.5 4 1 5.9 1 2 0 3.9-.3 5.8-1.1 1.8-.7 3.6-1.7 5.2-2.9s3.2-2.5 4.7-3.9h.1v.1c-1 1.9-2.4 3.5-4 4.9s-3.4 2.5-5.5 3.3c-2 .8-4.2 1.2-6.4 1.1-2.2 0-4.2-.5-6.3-1.1-2-.6-4-1.3-5.9-2.2s-3.8-1.8-5.6-2.9c-3.6-2.1-7-4.5-10.3-7 0 .1 0 0 .2 0-.1 0-.1 0 0 0z"></path></g><g class="st1"><path class="st2" d="M242.9 141.3c-.9.2-1.8.4-2.7.5l-2.8.3c-.9.1-1.8.2-2.8.2-.9 0-1.9.1-2.8.1-3.7 0-7.4-.2-11.1-.6-3.7-.4-7.3-1-11-1.6-3.6-.7-7.2-1.5-10.7-2.8-.1 0-.1-.1-.1-.2s.1-.1.2-.1c3.6.8 7.2 1.4 10.8 1.9s7.3.9 10.9 1.3c3.6.3 7.3.6 10.9.7 3.7.1 7.3.2 11 0 .1 0 .2.1.2.1.1.1.1.2 0 .2z"></path></g><g class="st1"><path class="st2" d="M218.9 113.3c-1.2-3.5-2.7-6.8-4.7-9.7-1-1.4-2.1-2.7-3.4-3.6-1.3-.9-2.7-1.5-4.2-1.6-.4-.1-.7 0-1.1 0l-1.3.1-2.6.3c-1.7.2-3.4.6-5.2.9-1.8.3-3.8.7-5.8.5s-3.9-.8-5.6-2v-.1c3.9-1.1 6.9-1.4 10.5-2.4 1.8-.4 3.6-.8 5.6-1.1 1-.1 1.9-.1 2.9-.2h1.5c.5.1 1.1.1 1.6.2 2.2.4 4.2 1.5 5.7 2.8 1.5 1.4 2.7 3.1 3.6 4.8 1.8 3.5 2.6 7.2 2.8 10.9l-.3.2z"></path></g><g class="st1"><path class="st2" d="M240.4 104.2c.3-1.3.8-2.5 1.5-3.7.7-1.1 1.7-2.2 2.9-3 2.4-1.6 5.4-2.1 8.1-2.1 2.7.1 5.3.5 7.7 1.2 1.2.3 2.3.7 3.5 1 1.1.3 2.2.6 3.5.1-.2.7-.8 1.2-1.4 1.6-.7.4-1.4.6-2.1.7a18 18 0 0 1-4 .1c-1.3-.1-2.5-.3-3.7-.5s-2.4-.4-3.5-.5c-2.3-.2-4.6-.1-6.6.7-1 .4-2 1-2.9 1.7-.9.8-1.7 1.7-2.6 2.7h-.4z"></path></g><path class="st21" d="M219.4 79c1.8 2.9 1.5 5-1.4 7.2-3 2.2-12.2-11-35.1 2.2 8.3-19.6 34.7-12.3 36.5-9.4zM243.1 82.1c-1.1 3.1-2.1 5 .5 6 6.4 2.6 11.8-10.6 21.3-.3 4.4-10-18.7-14.7-21.8-5.7z"></path><g class="st1"><path class="st2" d="M190.8 98.4c-.1 1.2.1 2.7.3 4.1.2 1.4.6 2.7 1 4.1.5 1.3 1.1 2.6 1.8 3.9.7 1.3 1.6 2.4 2.5 3.5l-.1.1c-1.1-1-2.2-2-3.1-3.1-1-1.1-1.8-2.4-2.5-3.7s-1.3-2.7-1.8-4.2-.9-2.9-1-4.5l2.9-.2z"></path></g><path class="st22" d="M249.9 45.7c21.9 8.1 13.6 70.8 10.9 86.2s-23.2 37.8-35.3 38.4c-12.1.6-37.8-12.2-46.4-25.2-3.6-5.5-7-15.1-9.7-24.3"></path><path class="st22" d="M264.5 95.9c-1.7 22.3 15.4 22.6 18.3 32.8 3 10.3-18 31.2-2.2 35-18.4-1.3-6.9-21.4-7.3-30.1-.3-6.6-9-7.9-10.6-15.4M138.3 84.9s12.8-21.9 24-17.9 6.1 12.2.7 14.2"></path><path class="st22" d="M148.4 72.2s-6.6-6.8-10.9-4.6c-4.3 2.2-3.8 12 1.8 15.8"></path><path class="st22" d="M141.1 67.4s3.9-16.5 22.3-14.2c18.4 2.3 8.2 13.8 3.4 16.3"></path><path class="st22" d="M157.1 53.2s-6.4-8.5-11.8-5.9c-5.4 2.6-13.3 9.8-7.8 20.4"></path><path class="st22" d="M149.8 47.2s11.9-11.3 24-6.4-.6 16.5-.6 16.5"></path><path class="st22" d="M164 39.7s16-17.1 30-5-15.9 15.9-15.9 15.9"></path><path class="st22" d="M180.4 30.5s6.5-9.8 24.6-1.2-4.2 18.6-9 15.1"></path><path class="st22" d="M193.6 25.6s12.5-13 28.3-1.4 4.5 24.6-16.2 19.2"></path><path class="st22" d="M204.5 18.8s-14.4-10-24.8-1.7-10.1 18-10.1 18"></path><path class="st22" d="M174.4 22.6s-7.5-2-12.3 2.8-5.5 17.1-5.5 17.1"></path><path class="st22" d="M160.2 27.9s-7.8 1.3-11.2 4.1c-3.4 2.8-6.8 8.9-3.7 15.2M143.7 109.4c-8.6.4-30.2 21.3-4.6 35.8M193 13.5s18.6-19.5 35.6 5.8c0 0 23.2 7.7 22.1 22.3-1 14.6-22.8 5.3-27 1.3"></path><path class="st22" d="M221.2 11.1s25.3-1 30.3 16.9c0 0 18.1 1.7 17 28.1 0 0 17.3 17-3.9 33.8M161.3 99.6c19.9 11.2-18.5 26.1-.4 39.6-5.5-18.7 35.2-25.9 5-47.5 4-5.8-4.7-20.6-19.5-4.6-15.6-9.3-17.8 11.4 3.7 19.1"></path><path class="st22" d="M158.4 123.4c-5.7-6-9.9-14.6-7.8-20.5 3.8-10.6 10.6-3.3 10.6-3.3l5.1 11.3M172 129.9c-2.5.8-5.7-.3-8.8-2.4M146.8 110.8c-26.7 36.4 11.5 67.4 40 49.3M135.7 59.1s-27.9 38.1 15.7 53.6"></path></svg> 