<svg height="628" viewBox="0 0 900 628" width="900" xmlns="http://www.w3.org/2000/svg"><g fill="none" fill-rule="evenodd"><path d="m0 0h900v628h-900z" fill="#cedd3e" fill-rule="nonzero"/><path d="m478.8 296.4c-.3-1-.6-2.1-.8-3.2-.2.2-.4.4-.6.6-4.9 5.3-11.3 11.1-14.6 11.6-1 .1-1.9.2-2.7.2-1.8 0-3.4-.3-4.6-.6l.5.5c.5.6 1.1 1.3 1.5 2.1.2.4.4.9.4 1.3s.1.9 0 1.3c-.2 3.3-1.1 6.4-1.9 9.5-.9 3.1-2 6.1-2.8 9.1l-2.5 9.2-4.8 17.2c.4 2.4 3.9 16.9 25.3 14.8 10.6-1 18.1-4.9 22.5-11.6 6.2-9.5 6-24.8-.7-45.3-.7-.1-1.4-.2-2.1-.3s-1.4-.3-2.1-.5l-1-.4c-.4-.1-.7-.4-1-.5-.7-.3-1.2-.9-1.8-1.3-.3-.3-.5-.5-.8-.8s-.5-.5-.7-.8c-.9-1.1-1.6-2.4-2.2-3.7-1.3-2.8-2.1-5.6-2.5-8.4z" fill="#f7c9a1" fill-rule="nonzero"/><path d="m415.2 277.1c.1-.1.2-.3.4-.4.5-.4.9-.4 1.4-.5.9-.1 1.8.1 2.6.5 1.4.7 2.5 1.8 3.4 2.9h.3c.9 0 1.8.2 2.6.4 1.5.4 3 .9 4.4 1.6 0 0 0 0 .1-.1.4-.3.8-.7 1.5-.7 1.1-.1 2.1.4 2.9 1 .6.4 1 .9 1.5 1.5.2-.2.4-.4.6-.5.7-.5 1.5-1.1 2.6-1 1.2.2 1.8.7 2.4 1.3.7.5 1.2 1.2 1.8 1.8 1.1 1.3 2 2.6 2.8 4 .4.7.8 1.4 1.2 2.1.2.4.4.7.6 1.1l.1.3c0 .1.1.2.1.4.1.3.1.6 0 .9-.2 1-.8 1.7-1.3 2.4-.4.5-.8.9-1.2 1.3 2.2 1.6 4.3 3.3 6.4 5 .3.2.5.4.8.7.1.1 4.1 2.2 9.4 1.3 5.1-.8 23.4-20.1 24.4-25.9.9-5.4-1.1-39.8-1.3-42.4-.9-1.4-1.9-2.9-2.8-4.4-2.9-4.6-5.8-9.2-9.6-12.9-.1-.1-.1-.1-.1-.1s-.1-.1-.1-.1c-3.2-3-6.9-5.4-11.8-6.5-2 1.4-4.2 2.4-6.4 3.2-1.7 1.4-4.2 2.2-7.5 1.8-1.1.6-2.4 1-3.8 1.2h-.1c-.3 0-.5-.2-.6-.4 0 0-1-2.5-3.6-3.2-2.6-.8-5.9.3-9.8 3.1-.3 2.7-.6 5.5-.8 8.4-.1 1.2-.2 2.4-.3 3.5 1.9-.7 5.8-1.8 7.3-.6.5.4.8 1 .8 1.9.2 1.6-.3 3.7-1 4.6-.5.6-2.1.8-4 .8-1.3 0-2.7-.1-3.8-.2-.7 5.9-1.8 11.5-3.8 16.4-1.1 2.6-2.2 4.9-3.3 7-.5 4.1-1.8 6.8-2.9 9.2-1.4 2.4-2.4 4.7-2.5 8.3z" fill="#f7c9a1" fill-rule="nonzero"/><g fill="#e39d74" fill-rule="nonzero" transform="translate(416 214)"><path d="m15.4 22.1c-1.3 0-2.7-.1-3.8-.2-.7 5.9-1.8 11.5-3.8 16.4-1.1 2.6-2.2 4.9-3.3 7-1.8 5-5.5 10.1-2.9 9.2 7.3-2.6 14.1-32.4 13.8-32.4z"/><path d="m23.3.4c-2.6-.8-5.9.3-9.8 3.1-.3 2.7-.6 5.5-.8 8.4-.1 1.2-.2 2.4-.3 3.5 1.1-.4 2.7-.9 4.2-1.1-.1-3.6-.3-5.9-.3-5.9 1.4-3.6 7-5.1 10.3-5.7-.7-.6-1.7-1.8-3.3-2.3z"/></g><path d="m494.6 272.7c.1-.1.2-.1.3-.2 2.4-5.7 4.8-11.7 4.5-19.3-.1-1.3-.3-2.6-.8-4-1.6-1.4-4.2-1.7-6.6-.7-2.5 1.1-4 3.2-4 5.8.3 7.3.6 15 .5 19.9.9.4 3.7 1.2 6.1-1.5z" fill="#f7c9a1" fill-rule="nonzero"/><ellipse cx="491.5" cy="532.1" fill="#b5c933" fill-rule="nonzero" rx="141" ry="27.9"/><path d="m454 522.9c-1.9-2.9-3.8-5.8-5.9-8.5-.7-.9-1.5-1.9-2.3-2.7-1.4.5-10.5 3.7-24.7-.4-4.1-1.2-5.7-1.7-10.3-3.5-1-.4-3.1-.7-5.1-.9-2.2-.3-4.4-.6-5.6-1.1-1.8-.8-3.3-2-4.8-3.2-1.4-1.1-2.6-2.2-4.1-2.8-4.7-1.9-9.7-3.8-13.4-4.5-2.3 1.5-5.3 8.4-6.4 17.6-.7 6.2-1.4 21.4 7.6 29.9 8.6.3 14.9-.9 19.4-1.7 3.4-.6 5.9-1.1 7.8-.7 1.6.3 3.2.7 4.7 1.1 3 .7 5.8 1.4 7.3 1.3.6 0 1.2-.1 2-.3 2.1-.3 4.7-.8 8.2.3 2 .6 4.9 2.3 8 4 3.9 2.2 8.3 4.7 10.5 4.7 3.2 0 13.4-9.3 17.3-13.1-3.5-5-6.8-10.3-10.2-15.5zm-15.7 20.2c-.1 0-.1 0-.2 0-.2 0-.4-.1-.5-.3l-7.8-10.8-2.8 5.8c-.1.2-.3.3-.5.4-.2 0-.4-.1-.6-.3l-10.6-14.5-7.1 14.1c-.1.2-.3.3-.6.3-.2 0-.5-.2-.6-.4l-7.2-16.2-7 13.8c-.2.3-.5.4-.8.3-.3-.2-.4-.5-.3-.8l7.5-14.8-5.6-12.6c-.1-.3 0-.7.3-.8s.7 0 .8.3l5.2 11.6 5-9.8c.1-.2.3-.3.5-.3s.4.1.6.3l9.2 12.5 2.9-5.8c.1-.2.3-.3.5-.3s.4.1.6.3l10.4 14.4 6.1-12.9c.1-.3.4-.4.7-.3s.5.3.5.6l1.8 25.4c0 .5-.2.7-.4.8z" fill="#f3783c" fill-rule="nonzero"/><path d="m370.3 512.8c.9-7.9 3.3-14.8 6-17.6-.6 0-1.2 0-1.6 0-7.5 1.2-14.8 10.6-14.3 26.4.3 9.1 3.8 19.9 13 20.8 1.4.1 2.7.2 4 .3-8.5-9-7.9-23.8-7.1-29.9z" fill="#fff8e9" fill-rule="nonzero"/><path d="m562.1 513.9c-12.1 8.8-22.3 16.3-30.8 21.7 3.8.3 12.1.9 14.1 1.5 1.2.3 3.7 1.5 6.3 2.8 2.9 1.4 6.1 3 7.5 3.3s4.5.3 7.6.1c-6.2-5-5.1-24-4.7-29.4z" fill="#f3783c" fill-rule="nonzero"/><path d="m570.7 507.6c-2 1.4-3.9 2.9-5.8 4.3-.5.4-.9.7-1.4 1-.8 8.1-1.2 28.4 5.7 30.2.9-.1 1.8-.2 2.6-.3-.5-3.2-2.3-19.3-1.1-35.2z" fill="#fff8e9" fill-rule="nonzero"/><path d="m572 506.7c-1.4 16.1.5 32.6 1 36 .9-.2 1.5-.4 1.9-.6 1.5-1.3 3.8-24.7.5-37.8-1.2.7-2.3 1.6-3.4 2.4z" fill="#eae4c9" fill-rule="nonzero"/><path d="m586.5 419.7c-.5.7-1 1.3-1.6 1.9-1 1.1-2 2.1-3 3-4.1 3.9-8.4 7.5-12.8 11-8.8 7-17.9 13.6-27.2 19.9-2.3 1.6-4.7 3.1-7.1 4.6-1.2.7-2.4 1.4-3.7 2.1-.3.2-.7.3-1 .4-.1 0-.2.1-.3.1h-.2c-1.1 1.3-2 6.6-2.6 15.9-.2 2.7-.8 5.6-1.5 8.6-.7 3.3-1.5 6.6-1.7 9.9-.2 5.2 0 10 .3 14.2.4 7.3.7 12.1-2.3 13-.8.2-1.4 0-1.7-.2-1.5-1.1-1.8-4.6-2.1-9-.1-1.3-.2-2.6-.3-4-.8-8.7-2.1-12.6-2.7-13.1 0 0-.1.1-.2.2-3.3 6.2-3.3 14.2-3.3 20.7 0 5.6 0 10-2.2 11.5-.5.3-1.1.5-1.8.5-.4 0-.9-.1-1.5-.3-.1.2-.1.3-.2.5-.2.4-.5.7-.8.9-.4.2-.8.3-1.1.4-.7.1-1.5 0-2.2-.4-1.3-.8-1.8-2.1-2.3-3.3h-.1c-4.3 0-7.1-4.4-8.5-13.4-.6-4-.6-12.4 0-20.8-13.4 7.8-29.6 10.8-36.7 11.8l2.6.6c1.4.3 2.9.6 4.3 1 2.8.7 5.7 1.4 8.6 2-3 .1-5.9-.2-8.9-.8-2.9-.6-5.7-1.5-8.6-2.1-1.4-.3-2.8-.6-4.3-.8-1.4-.1-2.8-.2-4.1.3-.6.2-1.2.5-1.8.9.4.1.8.2 1.2.4.9.4 1.6 1 2.3 1.6 1.3 1.2 2.5 2.6 3.6 3.9 2.1 2.8 4.1 5.7 6 8.6 3.8 5.8 7.4 11.7 11.6 17.2 2.1 2.7 4.3 5.4 6.8 7.7s5.4 4.3 8.7 4.5c1.7.2 3.4.1 5-.1 1.6-.3 3.3-.7 4.6-1.7.6-.5 1.1-1.1 1.3-1.7s0-1.3-.3-2c-.7-1.4-2.1-2.4-3.4-3.6 1.7.5 3.4 1.3 4.5 3 .2.3.3.6.4.9 6.5.3 13.1-.7 20.1-3.2 11-3.9 27.3-15.8 49.8-32.3 4.9-3.6 10.2-7.4 15.7-11.5 26.3-19.1 46.1-35.1 41.6-53.4-7.4-30.3-32.1-26.5-34.9-26z" fill="#71a3c3" fill-rule="nonzero"/><path d="m391.7 498.6c1.7.7 3.1 1.8 4.4 3 1.4 1.1 2.8 2.3 4.4 3 1 .4 3.2.7 5.2 1 1.1.1 2.1.3 3 .4-2.2-1.8-4.2-3.7-6.2-5.7-2.9-2.9-5.6-5.8-8.4-8.7s-5.7-5.7-8.7-8.3-6-5.3-9.7-7c2 .5 3.9 1.3 5.6 2.4l1.3.8c.4.3.8.6 1.2.9.8.6 1.6 1.2 2.4 1.9 3.1 2.6 5.9 5.6 8.7 8.5s5.6 5.8 8.4 8.7c2.8 2.8 5.7 5.6 9 7.7 3.5 1.4 5.2 1.9 8.8 2.9 6.6 1.9 12.1 2.2 16.2 1.9.5-1.3 1.2-2.5 2-3.6l.3-.3c0-.1.1-.2.2-.2.9-1 2-1.8 3.3-2.2 1.5-.5 3.1-.5 4.6-.3.9.1 1.8.2 2.6.4 1.4-.1 23.4-2.4 40.3-12.5.1-1.1.2-2.3.3-3.4-16.2-13-30.9-26-43.9-37.5-4.4-3.9-8.6-7.6-12.6-11.1-.1.1-.3.2-.4.2s-.3 0-.4-.1c-.3-.2-.3-.6-.1-.9-15-13-27.5-23.2-37.9-28.3-.1 0-.1 0-.2-.1-5.5-2.7-10.4-3.9-14.8-3.3-16.7 2.1-27.3 11.7-29.8 27-2.2 13.6 35.7 59.3 37.9 61.9 1.2.2 2.1.6 3 .9z" fill="#71a3c3" fill-rule="nonzero"/><path d="m494.7 359c-4.6 7-12.4 11.1-23.4 12.2-1.5.1-2.8.2-4.1.2-15.3 0-20.4-9.3-21.9-13.9l-9.9 35.7c-.9 3.3-2.4 6.5-4.3 9.3.6 1.4 1.4 2.8 2.2 4.1.9 1.4 2 2.6 3.3 3.6s2.7 1.8 4.2 2.3c.4.1.8.2 1.2.4l1.2.2c.2 0 .4.1.6.1h.6c.4 0 .8.1 1.3.1-1.6.5-3.5.7-5.2.3-.8-.2-1.5-.4-2.2-.8.8 2.2 1.9 4.4 2.9 6.2 1.2 2.3 2.1 4 2.1 5.1 0 2.1-5.4 12.2-7.8 15.9 4.1 3.6 8.3 7.3 12.8 11.2 3.7 3.3 7.5 6.7 11.5 10.1 2.4.4 29.7 4.5 50.3-6.2 1-1 1.6-1.6 1.7-1.7 0 0 .1 0 .1-.1 2.2-1.3 4.2-3.3 6-5.2 1.8-2 3.6-4.1 5.3-6.2.9-1.1 1.8-2.3 2.8-3.4-.9-1.8-4.9-6.5-8.3-10.3-4.4-5-6.3-7.3-6.5-8.2s.5-2.5 1.7-5.5c1.2-2.9 2.6-6.4 3.1-9.4-.3.3-.6.6-1 .9-1.9 1.6-4.2 2.9-6.7 3.2 2.1-1.4 4-2.7 5.9-4.2 1.8-1.5 3.4-3.4 4.5-5.4 2.4-4.1 3.1-9 2.8-13.8s-1.8-9.4-3.6-14c-.9-2.3-1.7-4.6-2.3-7s-.8-5-.4-7.4c.4 2.4 1 4.8 1.6 7.1.7 2.3 1.5 4.6 2.3 6.9 1.1 3.1 2.2 6.2 2.9 9.5 1.7 1.2 12.9 9.7 27.8 31.2.3-.2.5-.4.8-.6 2.2-1.7 4.6-3.2 7.2-4-4.3 3.4-8.6 6.6-12.5 10.4s-7.5 7.9-11 12.1-6.9 8.5-10.3 12.8c-1.7 2.1-3.5 4.2-5.4 6.3-1.5 1.5-3 3.1-4.7 4.4 2.2.2 4.4.8 6.5 1.8 2.6 1.3 4.8 3.2 6.9 4.9.5.4 1.1.8 1.6 1 .1 0 .3.1.3.1h.1s.1 0 .2-.1c.3-.1.6-.2.9-.4 1.2-.6 2.4-1.3 3.6-2 2.4-1.4 4.7-3 7-4.5 9.3-6.3 18.3-12.9 27.1-19.8 4.4-3.5 8.7-7 12.7-10.9 1-1 2-1.9 2.9-3 .9-1 1.8-2.1 2.4-3.2.1-.3.3-.6.3-.8s0-.6 0-.9l-.1-1-.2-1c-.1-.7-.2-1.3-.4-2-.1-.7-.4-1.3-.6-2-1.8-5.2-4.8-10-7.8-14.6-3.1-4.7-6.4-9.2-9.6-13.8-6.4-9.2-13-18.2-19.5-27.3l-2.4-3.4c-.8-1.2-1.6-2.3-2.3-3.6-1.4-2.5-2.5-5.1-3.7-7.6-2.3-5.1-4.8-10.1-7.7-14.8-1.5-2.3-3.2-4.6-5.2-6.4-1.9-1.9-4.5-2.8-7.2-3.5-5.4-1.2-11-1.3-16.6-1.4-2.8-.1-5.6-.1-8.4-.2-.3 0-.5 0-.8-.1 7 20.8 7.2 36.2.8 46z" fill="#d8e9f7" fill-rule="nonzero"/><path d="m441.3 250.9s-1.7-9.8-8.8-11c-7.9-1.4-16.2 2.8-12.5 13s21.3-2 21.3-2z" fill="#e39d74" fill-rule="nonzero"/><path d="m458.2 246.4s-1.3-9.8 5-13.1c7.1-3.7 16.6-1.2 16.2 9.6s-21.2 3.5-21.2 3.5z" fill="#e39d74" fill-rule="nonzero"/><path d="m445.2 266.5c-.5-1.7.6-3.7 1.6-4.9.6-.7 1.3-1.4 1.7-1 .2.3.1 1.4.7 2.2.9 1.4 2.6 2.2 3.9 1.9 1.2-.2 2.9-2 3-3.4.1-1.1-.5-2.3.3-2.5 1.3-.3 4.9 4.5 4.1 6 .1 0 .1-.1.2-.1.2.9-.6 2.3-1.5 2.6-.6.2-1.3 0-1.9.2s-1.1.7-1.6 1.1c-1.2 1-2 1.6-3.5 1.2-.8-.2-1.4-.6-2.2-.6s-1.5.3-2.3.3c-2.6.1-2.7-2.2-2.5-3z" fill="#e39d74" fill-rule="nonzero" opacity=".68"/><path d="m455.2 267.8c-.2-.5 0-1 .2-1.4s.5-.7.9-1c.3-.3.7-.5 1.2-.6.4-.1.9-.2 1.4 0-.4.3-.6.6-.9.9s-.6.5-.9.8c-.3.2-.6.5-.9.7-.4.1-.7.3-1 .6z" fill="#3e4147" fill-rule="nonzero"/><path d="m457 266.3c.6-.8 1.6-1 2.3-1.2.7-.3.8-.5.8-1.3 0-.7-.4-1.2-.9-1.9s-1-1.4-1.3-2.2c.7.5 1.4 1 2 1.6.3.3.6.6.9 1s.4.9.5 1.4c0 .5 0 1.1-.3 1.6-.4.5-1 .7-1.4.8-1 .2-1.7 0-2.6.2z" fill="#3e4147" fill-rule="nonzero"/><path d="m451.8 268.5c-.4-.2-.8-.2-1.1-.3-.4-.1-.7-.2-1.1-.3s-.7-.2-1.1-.4c-.4-.1-.7-.3-1.1-.5.3-.4.8-.5 1.3-.5.4 0 .9 0 1.3.1s.8.3 1.2.6c.2.4.6.8.6 1.3z" fill="#3e4147" fill-rule="nonzero"/><path d="m449.6 267.8c-.9.1-1.5.5-2.4.8-.4.1-1.1.1-1.6-.2-.5-.4-.8-.9-.9-1.4s-.2-1-.1-1.5.3-.9.5-1.3c.4-.8.8-1.5 1.3-2.2 0 .9-.2 1.7-.4 2.5s-.3 1.5-.1 2.1c.3.7.4.9 1.2.9.6 0 1.7-.2 2.5.3z" fill="#3e4147" fill-rule="nonzero"/><path d="m457.8 248.1s1.4-15.5 12.5-12.8 9.1 10.5 9.1 10.5-1 5.8-9.5 6.3-12.1-4-12.1-4z" fill="#fff" fill-rule="nonzero"/><path d="m469.9 235.7c-.4-.1-.8-.1-1.2-.1-.3-.1-.7-.1-1.2.1-.9.4-3.3 1.3-4.6 2.5-.4-.2-.8-.1-1.2.1-.7.5-1.2 1-1.7 1.8-.6 1 .2 2 1.1 2.2.7.6 1.9 1.6 2.8 1.6 2.4.2 4.9-1.2 6.5-3.2 1.1-1.3 1.7-4.4-.5-5z" fill="#959e33" fill-rule="nonzero"/><path d="m457.7 248.1c-.1-1.5 0-3 .3-4.5s.9-3 1.7-4.3c.2-.4.4-.7.7-1 .2-.3.5-.7.8-.9.3-.3.6-.6.9-.9l1-.7c1.4-.9 3-1.5 4.6-1.6.4 0 .8-.1 1.2-.1h1.2c.8 0 1.6.2 2.5.3 1.6.4 3.2 1.2 4.5 2.5 1.3 1.2 2 2.8 2.4 4.3.4 1.6.4 3.2 0 4.7 0 0 0 0-.1 0-1.1-2.9-2.4-5.3-4.3-6.9-1-.8-2-1.3-3.2-1.7-.6-.1-1.2-.4-1.9-.4l-1-.1c-.3 0-.7 0-1 0-1.3 0-2.6.3-3.8.9s-2.1 1.6-3 2.6c-.9 1.1-1.5 2.4-2 3.7-.6 1.2-1 2.6-1.5 4.1.1 0 .1 0 0 0z" fill="#3e4147" fill-rule="nonzero"/><path d="m461.2 250.6c1.6.6 3.2.6 4.8.7.8 0 1.6.1 2.4.1s1.6 0 2.4-.1c1.6-.1 3.1-.4 4.5-1.2 1.4-.7 2.6-1.7 3.6-3-.4 1.7-1.6 3.1-3 4.1-1.5 1-3.2 1.5-5 1.6-1.7.1-3.4-.1-5.1-.3-.8-.1-1.7-.3-2.5-.6-.7-.3-1.6-.7-2.1-1.3z" fill="#3e4147" fill-rule="nonzero"/><path d="m442 250.8s-7-13.9-16.3-7.3-4.6 13.1-4.6 13.1 3.1 5 11.2 2.4c8.1-2.5 9.7-8.2 9.7-8.2z" fill="#fff" fill-rule="nonzero"/><path d="m432.7 243c-.4-.1-.8-.1-1.2-.1-.3-.1-.7-.1-1.2.1-.9.4-3.3 1.3-4.6 2.5-.4-.2-.8-.1-1.2.1-.7.5-1.2 1-1.7 1.8-.6 1 .2 2 1.1 2.2.7.6 1.9 1.6 2.8 1.6 2.4.2 4.9-1.2 6.5-3.2 1.1-1.3 1.7-4.4-.5-5z" fill="#959e33" fill-rule="nonzero"/><path d="m422.4 248.5s1 3.3 6.3 2.8c5.2-.5 6.1-6 5.6-8.3" stroke="#3e4147" stroke-linecap="round" stroke-linejoin="round" stroke-width="1.25"/><ellipse cx="427.8777" cy="245.6824" fill="#3e4147" fill-rule="nonzero" rx="2.899936" ry="2.499945" transform="matrix(.86601905 -.500011 .500011 .86601905 -65.516443 246.860319)"/><circle cx="429.5" cy="245.4" fill="#fff" fill-rule="nonzero" r="1.6"/><path d="m441.9 250.9c-.8-1.2-1.7-2.4-2.7-3.4s-2-2-3.2-2.7-2.4-1.2-3.8-1.3c-1.3-.1-2.6 0-3.9.5-.3.1-.6.2-.9.4l-.9.5c-.6.3-1.1.7-1.6 1.1-1 .8-1.8 1.7-2.4 2.8-1.2 2.2-1.5 4.9-1.5 8v.1c-1-1.2-1.6-2.8-1.8-4.4s-.1-3.4.7-4.9c.7-1.6 1.9-2.9 3.2-3.9.7-.4 1.4-.9 2.2-1.2l1.1-.5c.4-.1.8-.2 1.2-.3 1.6-.5 3.3-.5 4.9-.2l1.2.3c.4.1.8.3 1.1.5.4.1.7.4 1.1.6.3.2.7.4 1 .7 1.3 1 2.3 2.1 3.1 3.4.9 1 1.6 2.4 1.9 3.9.1 0 .1 0 0 0z" fill="#3e4147" fill-rule="nonzero"/><path d="m439.8 254.4c-.3.8-.9 1.5-1.6 2-.6.6-1.3 1.1-2.1 1.5-1.5.9-2.9 1.6-4.6 2.2-1.7.5-3.5.7-5.2.3s-3.4-1.3-4.3-2.7c1.4.9 3 1.3 4.5 1.5s3.1-.1 4.6-.6c.7-.2 1.5-.5 2.3-.8s1.5-.6 2.2-1c1.4-.6 2.9-1.3 4.2-2.4z" fill="#3e4147" fill-rule="nonzero"/><path d="m459.6 241.2s1 3.3 6.3 2.8c5.2-.5 6.1-6 5.6-8.3" stroke="#3e4147" stroke-linecap="round" stroke-linejoin="round" stroke-width="1.25"/><g fill-rule="nonzero"><ellipse cx="464.9822" cy="238.4168" fill="#3e4147" rx="2.899936" ry="2.499945" transform="matrix(.86601905 -.500011 .500011 .86601905 -56.912267 264.439526)"/><circle cx="466.7" cy="238.1" fill="#fff" r="1.6"/><path d="m473.5 234.5c3.7 2 5.9 3.9 8.7.8.8 1.8-2.3 5.2-2.3 5.2s1.6.8 3.1-2c.7 4.1-3.7 7.4-3.7 7.4.6-5-5.8-11.4-5.8-11.4z" fill="#3e4147"/><path d="m439.5 279.1c3 .9 7 7.9 16.2 7.6 9.3-.3 13.9-14.3 17.1-16.7l-18.8 7.5z" fill="#df642f"/><path d="m439.5 278.4c4.8.3 9.7-4.6 15.7-5.9 7.1-1.6 13.4-.4 17.6-2.6 0 0-11.4 6.3-18 7.9-9.7 2.4-15.3.6-15.3.6z" fill="#ca481d"/><path d="m435.2 279.9c.1-.4.3-.9.7-1.2.4-.4.9-.6 1.4-.6 1-.1 1.9.1 2.7.2 1.7.2 3.4.5 5.2.5 3.5 0 6.9-.7 10.2-1.8s6.7-2.2 9.9-3.7c3.1-1.6 6.5-2.7 9.3-4.9-.5.8-1.2 1.4-1.8 2-.7.6-1.4 1.1-2.2 1.6-1.5 1-3.1 1.8-4.8 2.5-3.3 1.4-6.6 2.6-10 3.7s-7 1.8-10.6 1.8c-1.8 0-3.7-.1-5.4-.6-.9-.2-1.7-.5-2.5-.6s-1.5.4-2.1 1.1z" fill="#3e4147"/><path d="m471.5 268c.5-.3 1-.4 1.5-.4s1.1.1 1.6.2c.5.2 1 .4 1.4.9.4.4.7 1 .6 1.5-.4-.3-.8-.5-1.2-.7s-.8-.3-1.2-.5c-.8-.2-1.7-.5-2.7-1z" fill="#3e4147"/><path d="m456.5 209.6c.8-5.2-3-11.2-10.6-12.3-1.6-.2-3-.3-4.4-.1 5.2 1.4 9.3 6.6 9.8 11.7.3 2.9-.5 5.2-2.3 6.9 4.8 0 7.1-3.2 7.5-6.2z" fill="#c35927"/><path d="m427.8 234.7c3 .3 6.2.3 6.7-.2.4-.5.9-2.4.7-3.7-.1-.5-.2-.9-.4-1-.8-.7-4.3.2-6.6 1-.2 1.4-.3 2.6-.4 3.9z" fill="#8f4727"/><path d="m438.3 198.1c-.1 0-.1 0-.2 0-.7.3-1.3.7-1.9 1.2-3.9 3.1-5.5 9.3-6.5 16.6 3.9-2.6 7.2-3.5 10-2.6 2.5.7 3.7 2.6 4.2 3.5 6.2-1 6.4-5.7 6.2-7.7-.6-5.6-5.8-11.5-11.8-11z" fill="#8f4727"/><path d="m396.3 236.1c2.6-1.7 5-3.8 7.2-6.1 4.5-4.5 6.4-10.7 8.3-16.8s3.8-12.4 7.4-17.8c1.8-2.7 4.1-5.1 6.8-7s5.7-3.3 8.8-4.3c1.6-.5 3.1-.8 4.7-1.1l2.4-.4 1.2-.1h1.3c3.3.1 6.6 1.3 9.3 3.1 2.8 1.8 5.1 4.2 7.1 6.7 2 2.6 3.6 5.5 4.7 8.6.1.2.1.4.2.5.5-2.4.8-6.2-1.1-9.9-2.1-4.2-6.5-7.2-12.9-9-23.3-6.2-33.4 9.9-40.8 21.6-1.1 1.7-2.1 3.3-3.1 4.8-2.5 3.6-5.5 6.9-8.7 10.4-5.9 6.4-11.9 13.1-14.4 21.4 1.1-.2 2.2-.4 3.2-.7 2.9-.8 5.8-2.2 8.4-3.9z" fill="#c35927"/><path d="m465.4 207.5c2.2-.2 4.3.1 6.3.5 2.5.6 4.9 1.5 7.1 2.7 1.1.7 2.2 1.3 3.1 2.1 1 .7 1.9 1.7 2.8 2.6s1.6 1.9 2.4 2.9c.7 1 1.4 2.1 2 3.1-.9-.9-1.7-1.8-2.5-2.7l-1.3-1.3c-.4-.4-.8-.9-1.3-1.3l-1.4-1.2c-.2-.2-.5-.4-.7-.6l-.7-.5c-1-.7-2-1.4-3-2-2.1-1.2-4.3-2.2-6.7-2.7-2.3-.5-4.7-.7-6.9-.4-.4.5-.8 1-1.3 1.4-.2.2-.5.4-.8.7 4.8 1.3 8.5 3.7 11.7 6.8 2.5 2.1 19.4 16.6 24.8 29.2v.1c.2.6.4 1.1.6 1.6v.1c.5 1.6.9 3.1.9 4.5.4 8.1-2.4 14.6-4.8 20.3-1.5 3.7-3 7.2-3.6 10.7 3.6-3.5 7.4-6.5 10.7-10.1 1.8-1.9 3.4-4 4.6-6.3 1.3-2.3 2.1-4.8 2.5-7.3.8-5.2-.3-10.4-2.1-15.4-1.7-5-4.5-9.5-7.3-14.1-2.8-4.7-4.4-9.9-7.7-13.9-1.6-2-3.6-3.7-5.7-5.3-2.1-1.5-4.4-2.8-6.7-4.3 4.1 1 7.9 3.1 11 6-1.8-3.1-3.5-5.6-5.5-7.7-3.9-4-10.5-7.7-19.4-2.9-.2.7-.4 1.2-.4 1.4v.4.7c0 .2-.1.4-.1.6-.1.6-.3 1.1-.6 1.6z" fill="#c35927"/><path d="m496.4 246.9c-3.8-2-6.7-5.3-9.4-9.1.2 2.7.4 7.4.7 12.8.8-1.4 2.1-2.5 3.7-3.2 1.7-.7 3.4-.8 5-.5z" fill="#8f4727"/><path d="m479.8 224.5c1.4 2 2.8 4.2 4.1 6.3 3.9 6.2 7.6 12.1 13.2 15.1-3.8-7.6-11.6-15.9-17.3-21.4z" fill="#c35927"/><path d="m488.2 303.7c-.9-1.1-1.6-2.3-2-3.7s-.6-2.8-.5-4.2.4-2.8.9-4.1c1-2.4 2.5-4.3 4.2-6.1.3-3.6 1.5-7.1 3-10.7-1.2.7-2.3 1-3.4 1-.8 0-1.5-.1-2.1-.3 0 1.2-.1 2.2-.2 2.9-.5 3-5 8.8-9.2 13.6 1.9 12 9.7 14.9 14.2 15.5-.6-.3-1.3-.7-1.9-1.1-1-.9-2.1-1.8-3-2.8z" fill="#8f4727"/><path d="m503.9 274.9c-3.6 4-7.9 7.3-11.6 11-1.8 1.9-3.5 3.9-4.5 6.3-.9 2.3-1.2 5-.4 7.4.7 2.4 2.5 4.4 4.7 5.8 1.1.7 2.2 1.3 3.4 1.8-1-.8-1.8-1.8-2.6-2.8-.8-1.1-1.4-2.3-1.7-3.6-.2-.6-.2-1.3-.3-2 0-.3 0-.7 0-1s0-.7.1-1c.2-1.3.6-2.6 1.4-3.8.7-1.1 1.6-2.1 2.5-3 1.8-1.8 3.8-3.4 5.5-5.1 3.6-3.4 6.7-7.4 8.3-12.1 1-2.7 1.5-5.6 1.7-8.5-.5 1.4-1 2.7-1.7 3.9-1.3 2.5-3 4.7-4.8 6.7z" fill="#c35927"/><path d="m475.1 463.8c-6.1 0-11-.5-13.6-.8 9.3 8.2 19.4 16.8 30 25.3.7-5.7 1.6-10.8 2.9-13.7 2.3-5 8.7-12.2 13.1-16.8-10.8 4.8-23 6-32.4 6z" fill="#71a3c3"/><path d="m388.7 273.1c-1 1-1.9 2.1-2.8 3.1 2.3 9.1 5.9 17.7 10.9 23.3-.2-.7-.3-1.4-.4-2.2-3-5.8-5.5-12-6.9-18.4-.3-1.9-.6-3.9-.8-5.8z" fill="#c35927"/><path d="m524.3 486.9c.7-3 1.3-5.8 1.5-8.4.6-9.1 1.4-14.2 2.6-16.2-.6-.3-1.1-.7-1.6-1-2.2-1.8-4.3-3.6-6.7-4.8s-5-1.8-7.6-1.8c-1.6 1.6-13.7 13.5-16.8 20.5-3.5 7.6-4.6 32.6-3.5 40.1 1.2 8.1 3.5 12.1 7 12.3-.2-.9-.5-1.8-.6-2.6-.4-2.5-.7-5-1-7.5s-.4-5-.5-7.5 0-5 .3-7.5c.5 2.5.8 5 1 7.5s.3 5 .5 7.5.5 5 .9 7.4c.2 1.2.5 2.4.9 3.6.4 1.1.9 2.2 1.8 2.7.4.2.9.3 1.4.2s.8-.3 1-.7.3-1 .3-1.6 0-1.2 0-1.8c-.2-2.5-.5-4.9-.8-7.4-.6-5-.9-10.1-.1-15.1.7 5 1 9.9 1.4 14.9.2 2.5.6 5 .8 7.5 0 .6.1 1.3 0 1.9v.3c1 .3 1.7.3 2.3-.1 1.6-1.1 1.6-5.5 1.7-10.5 0-6.6.1-14.8 3.5-21.3.5-.9 1.1-1 1.5-.9 1.6.4 2.8 5.2 3.7 14.3.1 1.4.2 2.7.3 4 .3 3.6.5 7.3 1.5 8.1.1.1.3.2.6.1 2-.6 1.7-5.5 1.4-11.7-.2-4-.5-9.1-.3-14.4 0-3.4.8-6.8 1.6-10.1z" fill="#f7c9a1"/><path d="m436.2 312.3c-.5-.3-1.3-.6-2-.9-5.6-2.2-11.3-4.2-16.6-7.3.8 2.4 3 6.9 8.9 9.1h.1c2.6.9 5.9 1.4 10.1 1.1 0-.1 0-.3 0-.4 0-.4 0-.7-.1-1-.2-.3-.3-.6-.4-.6z" fill="#8f4727"/><path d="m405.1 275.4c4.2-3.5 9.3-7.6 14.2-16.5 1.1-2 2.2-4.3 3.3-6.9 3.1-7.5 3.9-16.9 4.7-26.1.3-3 .5-5.9.9-8.8 1-8.2 2.7-15.3 7.1-18.8 2.1-1.7 4.7-2.5 7.9-2.4-2-.2-4.1 0-6.3.5-6.9 1.7-13.1 6.9-15.5 13-2.3 5.9-3.5 13.8-4.6 20.8-1 6.6-1.8 12.4-3.5 15.6-3.5 7.1-10.3 13.5-16.8 19.7-2.3 2.2-4.6 4.3-6.7 6.4.1 2.3.4 4.6.9 6.8 1.1 5.2 3 10.3 5.3 15.2-.4-10.7 3.6-14 9.1-18.5z" fill="#c35927"/><path d="m437.5 318.5-.4 4.3 15.9 1.8c.6-1.8 1.2-3.6 1.7-5.4.9-3 1.7-6.1 1.9-9.2 0-.4 0-.7 0-1.1 0-.3-.1-.6-.3-.9-.3-.6-.8-1.2-1.3-1.8-1-1.1-2.2-2.2-3.4-3.2-2.4-2-5-3.9-7.5-5.9l-1.9-1.5c-.7-.5-1.3-.9-1.9-1.7-.4-.6-.3-1.2-.2-1.7.2-.5.5-.8.8-1.2.6-.6 1.3-1.1 2.1-1.4-.5.6-1.1 1.2-1.4 1.9-.2.3-.3.6-.4.9s.1.5.2.6c.4.4 1.1 1 1.7 1.5s1.2 1 1.9 1.5c.1 0 .1.1.2.1.4-.4.8-.9 1.2-1.3.5-.6.9-1.3 1-1.8 0-.1 0-.2 0-.3 0 0 0-.1-.1-.2l-.1-.3c-.2-.3-.4-.7-.5-1-.4-.7-.8-1.4-1.2-2-.8-1.3-1.7-2.6-2.7-3.8-.5-.6-1-1.2-1.6-1.6-.3-.3-.6-.4-.9-.7-.3-.2-.6-.3-.8-.3-.5 0-1.2.3-1.8.8-.3.3-.7.6-1 .9 0 0-.1.1-.1.1-.2.2-.4.4-.6.6-1.1 1.1-2.1 2.4-3.1 3.6s-2 2.5-3.2 3.7c-1.2 1.1-2.5 2.2-4 2.8 1.1-1.2 2.1-2.4 3.1-3.6s2.1-2.4 3.1-3.6 2.1-2.5 3.2-3.7l.3-.3c-.8-1.2-2.1-2.2-3.3-2.1-.2 0-.5.2-.8.4-.1.1-.2.2-.3.3-.2.2-.3.4-.5.5-.5.6-1 1.3-1.5 2.1-1 1.4-1.8 3-2.8 4.4s-2.2 2.9-3.9 3.6c.9-1.5 1.8-3 2.8-4.4l2.9-4.3c.5-.7 1-1.4 1.6-2.1-1.2-.5-2.5-1-3.8-1.3-.8-.2-1.6-.3-2.3-.3-.1 0-.3 0-.4 0h-.1c-.1.1-.3 0-.4.1-.2.1-.4.4-.6.6-.3.6-.6 1.4-.7 2.2-.2.8-.2 1.6-.4 2.4-.3 1.6-.8 3.3-1.9 4.7.1-1.7.2-3.3.5-5 .1-.8.3-1.6.5-2.5.2-.8.4-1.7.9-2.5.2-.4.6-.8 1-1-.8-.9-1.6-1.7-2.6-2.2-.6-.3-1.3-.5-1.9-.4-.3 0-.6.1-.8.3-.2.1-.4.4-.6.7-.7 1.2-1 2.7-1.3 4.2s-.5 3-.6 4.5c-.3 3-.4 6.1-.1 9 .1.7.1 1.5.3 2.2.1.4.1.7.2 1.1.1.3.2.6.4.9.8 1.1 2 2 3.3 2.8 2.6 1.6 5.3 2.8 8.1 4s5.7 2.2 8.5 3.4c.7.3 1.4.5 2.2 1 .1 0 .3.2.4.3s.2.2.2.4c.1.2.2.5.2.7.1.4.1.9.1 1.3v1 .1c-.2 1-.3 2.2-.4 3.3z" fill="#f7c9a1"/><path d="m465.1 539.5c-.7.7-2.3 2.2-4.3 4 4 .8 7.5 1.9 9.8 2.8-1.8-1.9-3.5-3.9-5.1-6 0-.4-.2-.6-.4-.8z" fill="#5d91ab"/><path d="m430.3 530.9 7 9.5-1.5-20.9z" fill="#f3783c"/><path d="m415.9 522.3 10.4 14.2 2.6-5.5-10.3-14.1z" fill="#f3783c"/><path d="m388.6 271.4c-.1-4.1.4-8.3 1.7-12.2 1.1-3.2 2.6-6.1 4.4-8.9s3.9-5.3 6-7.9c4.1-5.1 8.6-9.8 11.3-15.9-.7 3.2-2.3 6.2-4.2 9-1.9 2.7-4 5.2-6.1 7.7-4.2 5-8.2 10.2-10.2 16.4-1.2 3.4-1.7 7-1.7 10.5 1.9-1.9 3.8-3.7 5.8-5.6 6.5-6.1 13.2-12.4 16.6-19.3 1.5-3.1 2.4-9 3.4-15.3 1.1-7 2.2-15 4.6-21 2.6-6.5 9-11.9 16.4-13.7 5.9-1.5 11.5-.3 15.6 3.2v.1c4.2 2.8 6.1 7.3 5.5 11.4-.2 1.1-.5 2.2-1.1 3.2 2.1-1 4.1-2.2 5.8-3.7 1.1-1 2-2.3 2.4-3.7 0-.2.1-.3.1-.5v-.5c0-.2 0-.4 0-.5l-.1-.6c-.1-.7-.3-1.5-.6-2.2-1-2.9-2.6-5.7-4.5-8.2s-4.2-4.7-6.8-6.5c-2.6-1.7-5.6-2.8-8.7-2.9h-1.2l-1.1.1-2.3.4c-1.5.3-3.1.6-4.6 1.1-3 .9-5.9 2.3-8.4 4.1s-4.7 4.1-6.5 6.7c-3.5 5.2-5.4 11.4-7.3 17.5-1 3.1-1.9 6.1-3.2 9.1s-3.1 5.8-5.3 8.2-4.7 4.5-7.4 6.3-5.7 3.2-8.8 4.1c-1.3.4-2.6.7-4 .9-.1.3-.2.6-.2.9-.5 2.2-.8 4.8-.9 7.6-.3 7 .6 15.7 2.5 24 1-1.2 2.1-2.3 3.1-3.4z" fill="#c35927"/><path d="m424.9 313.9c-7-3.2-8.7-9.5-9-10.8-.8-.6-1.7-1.3-2.3-2.2-.2-.3-.5-.8-.6-1.2s-.2-.8-.3-1.2c-.1-.8-.2-1.6-.3-2.3-.2-3.1-.1-6.2.1-9.3.2-1.5.4-3.1.7-4.6.2-1 .4-2 .8-2.9-.5-5.2.9-8.1 2.3-11.2.8-1.6 1.5-3.3 2.1-5.4-4.4 6.9-8.8 10.5-12.6 13.6-5.6 4.6-9.4 7.6-8.5 18.7.4 5.1 2 8.8 4 11.7l.2.2v.1c2.8 3.7 6.3 5.7 8.8 6.7 5.8 2.1 11.8 1.8 14.6.1z" fill="#c35927"/><path d="m400.5 520 7.1 15.9 6.8-13.5-8.9-12.2z" fill="#f3783c"/><path d="m408 417.8c5.9-2.1 11.5-5.3 16.2-9.4s8.3-9.5 9.9-15.6l10.2-36.8.3-1v-.1c0-.2 0-.4.2-.5l4.7-16.9 2.6-9.2c.2-.8.5-1.7.7-2.5l-15.8-1.8c-.2 1.2-.4 2.5-.7 3.6-1.5 6-4.3 11.6-7.5 16.9-3.2 5.2-6.9 10.2-10.6 15.1s-7.4 9.7-10.6 14.9c-1.6 2.6-2.9 5.3-3.9 8.1s-1.6 5.7-1.8 8.8c-.9-3-.5-6.3.5-9.2 1-3 2.5-5.7 4.1-8.3 3.2-5.3 7-10.1 10.6-15 3.7-4.9 7.3-9.8 10.5-15s5.9-10.7 7.4-16.5c.4-1.5.6-2.9.8-4.4l.4-4.6c.1-.9.2-1.9.2-2.8-.8.1-1.6.1-2.4.1-3.1 0-5.6-.5-7.8-1.2-1.6 1.2-4.4 2.1-7.8 2.1-2 0-4.1-.3-6.2-.9-8.6 9.8-9.9 21.3-10.9 30.5-.3 2.6-.5 5-.9 7.2-.4 2.1-1.2 4.8-2.1 8-3.5 11.9-9.4 31.8-1.7 49.6 3.6 1.7 7.4 4 11.4 6.8z" fill="#d8e9f7"/><path d="m439 511.9c2.8-.3 4.8-.9 5.7-1.2 0 0 0 0-.1-.1-.6-.6-1.3-1.1-2-1.4-.6-.3-1.3-.5-1.9-.3-.1.1-.1.1-.2.2-.5.8-1 1.8-1.5 2.8z" fill="#5d91ab"/><path d="m449.3 226.3c-1.3 1.1-.8 2.6 1.8 3.9 2.4 1.2 6.2-2.4 11.6-3.7 4.6-1.1 10.9 0 17.2 2.3-6.8-6.2-12-6.2-16.4-6.1-5.5-.1-13.6 3-14.2 3.6z" fill="#8f4727" stroke="#3e4147" stroke-linecap="round" stroke-linejoin="round" stroke-width="1.25"/><path d="m511.3 419.2c.2-1 .8-2.4 1.7-4.6 1.2-2.9 2.6-6.4 3.1-9.4-.3.3-.6.6-1 .9-1.9 1.6-4.2 2.9-6.7 3.2 2.1-1.4 4-2.7 5.9-4.2 1.8-1.5 3.4-3.4 4.5-5.4 1-1.7 1.6-3.4 2.1-5.3-3.8 3.7-9.2 7.7-15.2 9.1-11.8 2.7-23.5 0-29.1 0-5.7 0-21.7 4.3-30.8 2.8-5.4-.9-10.2-3.9-13.3-6.2-.4.8-.9 1.6-1.4 2.3.6 1.4 1.4 2.8 2.2 4.1.9 1.4 2 2.6 3.3 3.6s2.7 1.8 4.2 2.3c.4.1.8.2 1.2.4l1.2.2c.2 0 .4.1.6.1h.6c.4 0 .8.1 1.3.1-1.6.5-3.5.7-5.2.3-.8-.2-1.5-.4-2.2-.8.8 2.2 1.9 4.4 2.9 6.2.5.9.9 1.7 1.2 2.4 8.2-3.1 23.4-8.1 35.4-8.4 13.8-.1 24.9 3.6 33.5 6.3z" fill="#c4d7e9"/></g><path d="m438.2 197.5c11.2-.9 18.8 18.2 5.2 20 0 0-3.3-8.5-14.6-.3" stroke="#3e4147" stroke-linecap="round" stroke-linejoin="round" stroke-width="1.25"/><path d="m447.3 216.3c13.4 1.9 13.5-17.4-1.4-19.6-23.6-3.5-13.8 33.9-22.8 55.5-12.1 29.3-28.1 21.2-26.4 42.9s24.3 23.3 29.4 18.7" stroke="#3e4147" stroke-linecap="round" stroke-linejoin="round" stroke-width="1.25"/><path d="m454.4 214c2.9-1.1 5.8-2.5 8-4.6 1.1-1 2-2.3 2.4-3.7 0-.2.1-.3.1-.5v-.5c0-.2 0-.4 0-.5l-.1-.6c-.1-.7-.3-1.5-.6-2.2-1-2.9-2.6-5.7-4.5-8.2s-4.2-4.7-6.8-6.5c-2.6-1.7-5.6-2.8-8.7-2.9h-1.2l-1.1.1-2.3.4c-1.5.3-3.1.6-4.6 1.1-3 .9-5.9 2.3-8.4 4.1s-4.7 4.1-6.5 6.7c-3.5 5.2-5.4 11.4-7.3 17.5-1 3.1-1.9 6.1-3.2 9.1s-3.1 5.8-5.3 8.2-4.7 4.5-7.4 6.3-5.7 3.2-8.8 4.1-6.5 1.4-9.8.9-6.5-2.1-8.4-4.7c5.2 3.9 11.8 4.2 17.8 2.6 3-.8 5.9-2.2 8.5-3.9s5-3.8 7.2-6.1c4.5-4.5 6.4-10.7 8.3-16.8s3.8-12.4 7.4-17.8c1.8-2.7 4.1-5.1 6.8-7s5.7-3.3 8.8-4.3c1.6-.5 3.1-.8 4.7-1.1l2.4-.4 1.2-.1h1.3c3.3.1 6.6 1.3 9.3 3.1 2.8 1.8 5.1 4.2 7.1 6.7 2 2.6 3.6 5.5 4.7 8.6.3.8.5 1.6.6 2.4l.1.6v.7.7c0 .2-.1.4-.1.6-.4 1.7-1.5 3.2-2.7 4.3-2.5 2.3-5.4 3.7-8.5 4.9-.3.1-.7 0-.8-.4s0-.8.4-.9z" fill="#3e4147" fill-rule="nonzero"/><path d="m451.8 198.8c-9.8-8.5-26.5-1.1-31 10.2s-4.7 29.6-8 36.4c-7.4 15-29.6 26.9-33.2 40.6s9.1 27.5 21.5 21.1" stroke="#3e4147" stroke-linecap="round" stroke-linejoin="round" stroke-width="1.25"/><path d="m412.1 226.5c-.7 3.2-2.3 6.2-4.2 9-1.9 2.7-4 5.2-6.1 7.7-4.2 5-8.2 10.2-10.2 16.4-2.1 6.1-2.1 12.8-.8 19.1 1.4 6.3 3.9 12.4 6.8 18.2.2.3 0 .7-.3.8-.3.2-.7 0-.8-.3-3-5.9-5.5-12-6.9-18.5s-1.4-13.4.8-19.7c1.1-3.2 2.6-6.1 4.4-8.9s3.9-5.3 6-7.9c4.1-5.2 8.6-9.9 11.3-15.9z" fill="#3e4147" fill-rule="nonzero"/><path d="m465.6 204.1s6.8-16.7-13.7-22.1c-27.3-7.2-37.1 15.8-44.6 26.6-7.5 10.9-20.8 20-23.9 34.3s1.4 46.3 14.8 58.8" stroke="#3e4147" stroke-linecap="round" stroke-linejoin="round" stroke-width="1.25"/><path d="m382.4 250.6c-1.1 5.6-16.5 21 4.3 30.7" stroke="#3e4147" stroke-linecap="round" stroke-linejoin="round" stroke-width="1.25"/><path d="m443 289.8c-.5.6-1.1 1.2-1.4 1.9-.2.3-.3.6-.4.9s.1.5.2.6c.4.4 1.1 1 1.7 1.5s1.2 1 1.9 1.5c2.5 1.9 5.1 3.8 7.6 5.9 1.2 1 2.4 2.1 3.5 3.4.5.6 1.1 1.3 1.5 2.1.2.4.4.9.4 1.3s.1.9 0 1.3c-.2 3.3-1.1 6.4-1.9 9.5-.9 3.1-2 6.1-2.8 9.1l-2.5 9.2-5.1 18.4-10.2 36.8c-1.7 6.3-5.4 12-10.3 16.2-4.9 4.3-10.5 7.5-16.6 9.7-.3.1-.7-.1-.8-.4s.1-.7.4-.8c5.9-2.1 11.5-5.3 16.2-9.4s8.3-9.5 9.9-15.6l10.2-36.8 5.1-18.4 2.6-9.2c.8-3.1 1.9-6.1 2.8-9.1s1.7-6.1 1.9-9.2c0-.4 0-.7 0-1.1 0-.3-.1-.6-.3-.9-.3-.6-.8-1.2-1.3-1.8-1-1.1-2.2-2.2-3.4-3.2-2.4-2-5-3.9-7.5-5.9l-1.9-1.5c-.7-.5-1.3-.9-1.9-1.7-.4-.6-.3-1.2-.2-1.7.2-.5.5-.8.8-1.2.3-.6 1-1.1 1.8-1.4z" fill="#3e4147" fill-rule="nonzero"/><path d="m425.5 295.2c1.1-1.2 2.1-2.4 3.1-3.6s2.1-2.4 3.1-3.6 2.1-2.5 3.2-3.7c.6-.6 1.2-1.2 1.8-1.7.7-.5 1.5-1.1 2.6-1 1.2.2 1.8.7 2.4 1.3.7.5 1.2 1.2 1.8 1.8 1.1 1.3 2 2.6 2.8 4 .4.7.8 1.4 1.2 2.1.2.4.4.7.6 1.1l.1.3c0 .1.1.2.1.4.1.3.1.6 0 .9-.2 1-.8 1.7-1.3 2.4s-1.1 1.2-1.7 1.8c-.3.2-.6.2-.9 0-.2-.3-.2-.6 0-.9.6-.5 1.1-1.1 1.6-1.7s.9-1.3 1-1.8c0-.1 0-.2 0-.3 0 0 0-.1-.1-.2l-.1-.3c-.2-.3-.4-.7-.5-1-.4-.7-.8-1.4-1.2-2-.8-1.3-1.7-2.6-2.7-3.8-.5-.6-1-1.2-1.6-1.6-.3-.3-.6-.4-.9-.7-.3-.2-.6-.3-.8-.3-.5 0-1.2.3-1.8.8s-1.2 1-1.7 1.6c-1.1 1.1-2.1 2.4-3.1 3.6s-2 2.5-3.2 3.7c-1 .7-2.3 1.8-3.8 2.4z" fill="#3e4147" fill-rule="nonzero"/><path d="m422 293.3c.9-1.5 1.8-3 2.8-4.4l2.9-4.3c.5-.7 1-1.5 1.6-2.2.3-.3.6-.7 1-1s.8-.7 1.5-.7c1.1-.1 2.1.4 2.9 1s1.4 1.3 1.9 2.1c.2.3.1.7-.2.9s-.7.1-.9-.2c-.8-1.3-2.2-2.6-3.5-2.5-.2 0-.5.2-.8.4-.3.3-.6.6-.8.9-.5.6-1 1.3-1.5 2.1-1 1.4-1.8 3-2.8 4.4-1.2 1.3-2.3 2.8-4.1 3.5z" fill="#3e4147" fill-rule="nonzero"/><path d="m418.7 290.9c.1-1.7.2-3.3.5-5 .1-.8.3-1.6.5-2.5.2-.8.4-1.7.9-2.5.3-.4.6-.9 1.1-1.1.2-.2.5-.2.8-.3.3 0 .5 0 .7-.1.9 0 1.8.2 2.6.4 1.7.4 3.2 1 4.8 1.7.3.1.5.5.3.8-.1.3-.5.5-.8.3-1.5-.7-3-1.2-4.6-1.6-.8-.2-1.6-.3-2.3-.3-.2 0-.4 0-.5 0-.1.1-.3 0-.4.1-.2.1-.4.4-.6.6-.3.6-.6 1.4-.7 2.2-.2.8-.2 1.6-.4 2.4-.3 1.9-.8 3.6-1.9 4.9z" fill="#3e4147" fill-rule="nonzero"/><path d="m422.2 280.6c-.8-1.1-1.9-2.2-3.2-2.8-.6-.3-1.3-.5-1.9-.4-.3 0-.6.1-.8.3-.2.1-.4.4-.6.7-.7 1.2-1 2.7-1.3 4.2s-.5 3-.6 4.5c-.3 3-.4 6.1-.1 9 .1.7.1 1.5.3 2.2.1.4.1.7.2 1.1.1.3.2.6.4.9.8 1.1 2 2 3.3 2.8 2.6 1.6 5.3 2.8 8.1 4s5.7 2.2 8.5 3.4c.7.3 1.4.5 2.2 1 .1 0 .3.2.4.3s.2.2.2.4c.1.2.2.5.2.7.1.4.1.9.1 1.3 0 1.6-.2 3.1-.3 4.7l-.4 4.6c-.2 1.5-.4 3.1-.8 4.6-1.5 6-4.3 11.6-7.5 16.9-3.2 5.2-6.9 10.2-10.6 15.1s-7.4 9.7-10.6 14.9c-1.6 2.6-2.9 5.3-3.9 8.1s-1.6 5.7-1.8 8.8c-.9-3-.5-6.3.5-9.2 1-3 2.5-5.7 4.1-8.3 3.2-5.3 7-10.1 10.6-15 3.7-4.9 7.3-9.8 10.5-15s5.9-10.7 7.4-16.5c.4-1.5.6-2.9.8-4.4l.4-4.6c.1-1.5.3-3 .3-4.5 0-.4 0-.7-.1-1s-.2-.6-.3-.6c-.5-.3-1.3-.6-2-.9-5.7-2.2-11.5-4.3-16.9-7.4-1.3-.8-2.7-1.7-3.7-3.1-.2-.3-.5-.8-.6-1.2s-.2-.8-.3-1.2c-.1-.8-.2-1.6-.3-2.3-.2-3.1-.1-6.2.1-9.3.2-1.5.4-3.1.7-4.6s.7-3.1 1.5-4.5c.2-.4.4-.7.9-1.1s.9-.4 1.4-.5c.9-.1 1.8.1 2.6.5 1.5.8 2.6 1.9 3.6 3.2.2.3.2.7-.1.9 0-.3-.4-.4-.6-.7z" fill="#3e4147" fill-rule="nonzero"/><path d="m419.9 259.2c-1.2 9.3-6.1 11-5.2 20.2" stroke="#3e4147" stroke-linecap="round" stroke-linejoin="round" stroke-width="1.25"/><path d="m416.5 302.7s2.1 14 20.7 12.2" stroke="#3e4147" stroke-linecap="round" stroke-linejoin="round" stroke-width="1.25"/><path d="m486.3 235.6s2.3 37 1.3 42.7-19.2 25.5-24.9 26.4-9.8-1.4-9.8-1.4" stroke="#3e4147" stroke-linecap="round" stroke-linejoin="round" stroke-width="1.25"/><path d="m498.4 247.2c-14.9-6.2-17.2-31.6-37.3-36" stroke="#3e4147" stroke-linecap="round" stroke-linejoin="round" stroke-width="1.25"/><path d="m473.5 218s25.8 21.4 26.5 35.2c.6 13.8-7.9 22.7-8.5 32.7" stroke="#3e4147" stroke-linecap="round" stroke-linejoin="round" stroke-width="1.25"/><path d="m487.3 254.4c0-6.4 8.2-9 11.8-5.6" stroke="#3e4147" stroke-linecap="round" stroke-linejoin="round" stroke-width="1.25"/><path d="m487.8 274.7s4 2 7.2-1.6" stroke="#3e4147" stroke-linecap="round" stroke-linejoin="round" stroke-width="1.25"/><path d="m464.1 207.6c2.6-.4 5.1-.2 7.6.4s4.9 1.5 7.1 2.7c1.1.7 2.2 1.3 3.1 2.1 1 .7 1.9 1.7 2.8 2.6s1.6 1.9 2.4 2.9c.7 1 1.4 2.1 2 3.1-.9-.9-1.7-1.8-2.5-2.7l-1.3-1.3c-.4-.4-.8-.9-1.3-1.3l-1.4-1.2c-.2-.2-.5-.4-.7-.6l-.7-.5c-1-.7-2-1.4-3-2-2.1-1.2-4.3-2.2-6.7-2.7-2.3-.5-4.8-.7-7.1-.4h-.1c-.3.1-.7-.2-.7-.5-.1-.2.2-.5.5-.6z" fill="#3e4147" fill-rule="nonzero"/><path d="m495 218.7c-2.7-5.5-5.3-10-8.5-13.3-4.6-4.7-11.6-7.8-20.4-2.9" stroke="#3e4147" stroke-linecap="round" stroke-linejoin="round" stroke-width="1.25"/><path d="m511.6 258.1c.4 5.1.1 10.3-1.7 15.1-1.7 4.9-4.9 9.1-8.6 12.6-1.8 1.8-3.8 3.4-5.5 5.1s-3.3 3.7-3.5 6c-.1.3-.1.6-.1.9v.9c.1.6.1 1.2.3 1.7.3 1.1.8 2.2 1.5 3.2 1.4 2 3.3 3.6 5.4 4.7.3.2.4.5.3.8s-.4.4-.7.3c-2.7-.6-5.3-1.6-7.6-3.1-1.2-.8-2.2-1.7-3.1-2.7-.9-1.1-1.6-2.3-2-3.7s-.6-2.8-.5-4.2.4-2.8.9-4.1c1.1-2.6 2.9-4.7 4.7-6.7 3.8-3.8 8-7.1 11.6-11 1.8-1.9 3.4-4 4.6-6.3 1.3-2.3 2.1-4.8 2.5-7.3.8-5.2-.3-10.4-2.1-15.4-1.7-5-4.5-9.5-7.3-14.1-2.8-4.7-4.4-9.9-7.7-13.9-1.6-2-3.6-3.7-5.7-5.3-2.1-1.5-4.4-2.8-6.7-4.3 5.2 1.3 10.1 4.4 13.5 8.7s5.1 9.6 7.8 14.1c2.7 4.6 5.6 9.2 7.4 14.3 1.8 5 3 10.6 2.1 16-.4 2.7-1.3 5.3-2.6 7.7s-3 4.6-4.8 6.6c-3.6 4-7.9 7.3-11.6 11-1.8 1.9-3.5 3.9-4.5 6.3-.9 2.3-1.2 5-.4 7.4.7 2.4 2.5 4.4 4.7 5.8 2.1 1.4 4.6 2.4 7.1 2.9l-.4 1.2c-1.2-.6-2.2-1.4-3.2-2.2s-1.9-1.8-2.6-2.9c-.8-1.1-1.4-2.3-1.7-3.6-.2-.6-.2-1.3-.3-2 0-.3 0-.7 0-1s0-.7.1-1c.2-1.3.6-2.6 1.4-3.8.7-1.1 1.6-2.1 2.5-3 1.8-1.8 3.8-3.4 5.5-5.1 3.6-3.4 6.7-7.4 8.3-12.1 1.7-4.6 2-9.7 1.6-14.6 0-.3.2-.6.6-.7.1.2.4.5.5.8z" fill="#3e4147" fill-rule="nonzero"/><path d="m496.6 308.2s-15.5 1.5-18.3-16.4" stroke="#3e4147" stroke-linecap="round" stroke-linejoin="round" stroke-width="1.25"/><path d="m427.1 235.3s7 .7 7.8-.3 1.4-4.7.3-5.6c-1.6-1.3-7.6 1.1-7.6 1.1" stroke="#3e4147" stroke-linecap="round" stroke-linejoin="round" stroke-width="1.25"/><path d="m480 296.2c.4 2.7 1.2 5.4 2.3 7.8.6 1.2 1.2 2.4 2.1 3.5.2.3.4.5.6.8.2.2.4.5.7.7.5.4 1 .9 1.6 1.2 2.2 1.4 5.1 1.5 7.8 1.7 2.8.2 5.6.2 8.4.2 5.6.1 11.3.2 16.8 1.5 1.4.3 2.8.8 4.1 1.4s2.6 1.4 3.6 2.4c2.1 2 3.8 4.3 5.4 6.6 3 4.8 5.5 9.9 7.8 15 1.2 2.5 2.3 5.1 3.6 7.5.6 1.2 1.5 2.3 2.3 3.5l2.4 3.4c6.5 9.1 13.1 18.2 19.5 27.4 3.2 4.6 6.5 9.1 9.6 13.8 1.6 2.3 3.1 4.7 4.4 7.2 1.4 2.5 2.6 5 3.5 7.7.2.7.5 1.4.6 2.1.2.7.4 1.4.4 2.1l.2 1.1.1 1.1c0 .4.1.7 0 1.2-.1.4-.3.8-.4 1.1-.7 1.3-1.7 2.4-2.6 3.5-1 1.1-2 2.1-3 3-4.1 3.9-8.4 7.5-12.8 11-8.8 7-17.9 13.6-27.2 19.9-2.3 1.6-4.7 3.1-7.1 4.6-1.2.7-2.4 1.4-3.7 2.1-.3.2-.7.3-1 .4-.1 0-.2.1-.3.1h-.2c-.1 0-.2 0-.3 0-.3-.1-.4-.1-.7-.2-.7-.3-1.4-.8-1.9-1.2-2.2-1.8-4.3-3.6-6.7-4.8s-5.1-1.8-7.8-1.8c-.3 0-.6-.3-.6-.7 0-.2.1-.4.3-.5 2.2-1.3 4.2-3.3 6-5.2 1.8-2 3.6-4.1 5.3-6.2 3.5-4.2 6.8-8.6 10.3-12.8s7.1-8.4 11.1-12.2c2-1.9 4-3.8 6.2-5.5s4.6-3.2 7.2-4c-4.3 3.4-8.6 6.6-12.5 10.4s-7.5 7.9-11 12.1-6.9 8.5-10.3 12.8c-1.7 2.1-3.5 4.2-5.4 6.3-1.9 2-3.8 4-6.4 5.5l-.3-1.2c2.9 0 5.8.6 8.4 1.9s4.8 3.2 6.9 4.9c.5.4 1.1.8 1.6 1 .1 0 .3.1.3.1h.1s.1 0 .2-.1c.3-.1.6-.2.9-.4 1.2-.6 2.4-1.3 3.6-2 2.4-1.4 4.7-3 7-4.5 9.3-6.3 18.3-12.9 27.1-19.8 4.4-3.5 8.7-7 12.7-10.9 1-1 2-1.9 2.9-3 .9-1 1.8-2.1 2.4-3.2.1-.3.3-.6.3-.8s0-.6 0-.9l-.1-1-.2-1c-.1-.7-.2-1.3-.4-2-.1-.7-.4-1.3-.6-2-1.8-5.2-4.8-10-7.8-14.6-3.1-4.7-6.4-9.2-9.6-13.8-6.4-9.2-13-18.2-19.5-27.3l-2.4-3.4c-.8-1.2-1.6-2.3-2.3-3.6-1.4-2.5-2.5-5.1-3.7-7.6-2.3-5.1-4.8-10.1-7.7-14.8-1.5-2.3-3.2-4.6-5.2-6.4-1.9-1.9-4.5-2.8-7.2-3.5-5.4-1.2-11-1.3-16.6-1.4-2.8-.1-5.6-.1-8.4-.2-1.4-.1-2.8-.2-4.2-.4-.7-.1-1.4-.3-2.1-.5l-1-.4c-.4-.1-.7-.4-1-.5-.7-.3-1.2-.9-1.8-1.3-.3-.3-.5-.5-.8-.8s-.5-.5-.7-.8c-.9-1.1-1.6-2.4-2.2-3.7-1.2-2.6-2-5.4-2.4-8.2-.1-.3.2-.7.5-.7s.9-.2 1 .2z" fill="#3e4147" fill-rule="nonzero"/><path d="m515.4 357.5c.4 2.4 1 4.8 1.6 7.1.7 2.3 1.5 4.6 2.3 6.9 1.6 4.6 3.3 9.3 3.6 14.4.1.6.1 1.2.1 1.9v1.9l-.1 1.9-.3 1.9c-.5 2.5-1.3 4.9-2.6 7.1s-3 4.1-4.9 5.7-4.2 2.9-6.7 3.2c2.1-1.4 4-2.7 5.9-4.2 1.8-1.5 3.4-3.4 4.5-5.4 2.4-4.1 3.1-9 2.8-13.8s-1.8-9.4-3.6-14c-.9-2.3-1.7-4.6-2.3-7-.5-2.6-.7-5.1-.3-7.6z" fill="#3e4147" fill-rule="nonzero"/><path d="m516.9 403.5c-.2 5.8-5.3 14.6-5 16.5.3 1.8 13.9 15.6 14.9 18.7" stroke="#3e4147" stroke-linecap="round" stroke-linejoin="round" stroke-width="1.25"/><path d="m431 402.3c.6 1.5 1.4 3 2.3 4.3.9 1.4 2 2.6 3.3 3.6s2.7 1.8 4.2 2.3c.4.1.8.2 1.2.4l1.2.2c.2 0 .4.1.6.1h.6c.4 0 .8.1 1.3.1-1.6.5-3.5.7-5.2.3s-3.4-1.2-4.7-2.4-2.5-2.5-3.5-3.9-1.8-2.9-2.5-4.6c-.1-.3 0-.7.4-.8.3-.1.6 0 .8.4z" fill="#3e4147" fill-rule="nonzero"/><path d="m437.2 411.5c1.4 5.1 5.5 10.7 5.5 12.7s-6.5 14-8.3 16.5" stroke="#3e4147" stroke-linecap="round" stroke-linejoin="round" stroke-width="1.25"/><path d="m445.2 354.9s2.4 18 26 15.6c23.7-2.3 35-19 22.2-58.2" stroke="#3e4147" stroke-linecap="round" stroke-linejoin="round" stroke-width="1.25"/><path d="m436.5 323.4 17 1.9" stroke="#3e4147" stroke-linecap="round" stroke-linejoin="round" stroke-width="1.25"/><path d="m521.7 381.4s11.9 7.9 28.2 31.8" stroke="#3e4147" stroke-linecap="round" stroke-linejoin="round" stroke-width="1.25"/><path d="m512.2 454s-13.7 13.2-17.2 20.8c-3.5 7.7-4.7 32.7-3.5 40.5s3.5 12.8 7.8 12.8" stroke="#3e4147" stroke-linecap="round" stroke-linejoin="round" stroke-width="1.25"/><path d="m497.4 502.4c.5 2.5.8 5 1 7.5s.3 5 .5 7.5.5 5 .9 7.4c.2 1.2.5 2.4.9 3.6.4 1.1.9 2.2 1.8 2.7.4.2.9.3 1.4.2s.8-.3 1-.7.3-1 .3-1.6 0-1.2 0-1.8c-.2-2.5-.5-4.9-.8-7.4-.6-5-.9-10.1-.1-15.1.7 5 1 9.9 1.4 14.9.2 2.5.6 5 .8 7.5 0 .6.1 1.3 0 1.9 0 .7-.1 1.4-.5 2.1-.2.4-.5.7-.8.9-.4.2-.8.3-1.1.4-.7.1-1.5 0-2.2-.4-1.3-.9-1.8-2.2-2.3-3.4-.4-1.2-.7-2.5-.9-3.7-.4-2.5-.7-5-1-7.5s-.4-5-.5-7.5c-.2-2.5-.2-5 .2-7.5z" fill="#3e4147" fill-rule="nonzero"/><path d="m505.7 529.9c9.7 3.7 1.4-18.3 8.7-32 1.7-2.8 3.2 5.3 4 13.2.7 6.8.4 13.5 3.3 12.7 4-1.2.9-12.6 1.5-26.7.3-6.3 2.8-12.8 3.2-18.5.6-8.5 1.4-15.2 3-16.5" stroke="#3e4147" stroke-linecap="round" stroke-linejoin="round" stroke-width="1.25"/><path d="m492 489.5c-52.8-42.3-89-84.3-111.2-81.5-18.5 2.3-28 13.2-30.3 27.5s38.1 62.6 38.1 62.6" stroke="#3e4147" stroke-linecap="round" stroke-linejoin="round" stroke-width="1.25"/><path d="m412.1 314.9c-11.4 12.8-10.4 28.3-12.2 38.3s-13.6 35.5-3.7 58.3" stroke="#3e4147" stroke-linecap="round" stroke-linejoin="round" stroke-width="1.25"/><path d="m459.5 462s29 5.1 51-6.3" stroke="#3e4147" stroke-linecap="round" stroke-linejoin="round" stroke-width="1.25"/><path d="m469.7 510.2c-3 .1-5.9-.2-8.9-.8-2.9-.6-5.7-1.5-8.6-2.1-1.4-.3-2.8-.6-4.3-.8-1.4-.1-2.8-.2-4.1.3-1.3.4-2.4 1.3-3.2 2.3-.9 1.1-1.5 2.4-2 3.7-.1.3-.5.5-.8.3-.3-.1-.5-.5-.3-.8.6-1.4 1.2-2.8 2.2-4s2.3-2.3 3.8-2.7c1.5-.5 3.1-.5 4.6-.3s3 .5 4.4.8l4.3 1.1c1.4.3 2.9.6 4.3 1 2.9.7 5.7 1.3 8.6 2z" fill="#3e4147" fill-rule="nonzero"/><path d="m445.7 511s-9.4 4-24.5-.3c-4.1-1.2-5.7-1.7-10.2-3.5-2.2-.9-8.4-1.1-10.7-2-3.5-1.4-5.7-4.7-8.9-6-7.5-3-13.8-5.2-17-4.7-19 3-20.2 46.7-1.3 48.5 18.8 1.8 28.2-3 33-2s9.8 2.5 12.2 2.4c2.3-.1 5.3-1.4 10 0s14.5 8.7 18.7 8.7 18-13.5 18-13.5" stroke="#3e4147" stroke-linecap="round" stroke-linejoin="round" stroke-width="1.25"/><path d="m375.9 476.4c2 .5 3.9 1.3 5.6 2.4l1.3.8 1.2.9c.8.6 1.6 1.2 2.4 1.9 3.1 2.6 5.9 5.6 8.7 8.5s5.6 5.8 8.4 8.7c2.8 2.8 5.8 5.7 9.1 7.7.3.2.4.6.2.9s-.6.4-.9.2c-3.6-2.2-6.5-5.1-9.3-7.9-2.9-2.9-5.6-5.8-8.4-8.7s-5.7-5.7-8.7-8.3c-2.9-2.8-5.9-5.4-9.6-7.1z" fill="#3e4147" fill-rule="nonzero"/><path d="m377.8 494.7c-6.2 3.4-13.2 35.6 1.1 48.7" stroke="#3e4147" stroke-linecap="round" stroke-linejoin="round" stroke-width="1.25"/><path d="m392.2 535 13.2-26 21 28.7 9.8-20.6 1.8 25.4-19.5-26.8-11 21.7-13.4-30.2" stroke="#3e4147" stroke-linecap="round" stroke-linejoin="round" stroke-width="1.25"/><path d="m440.3 507.7c1-.3 2.1 0 3 .4s1.6 1 2.3 1.6c1.3 1.2 2.5 2.6 3.6 3.9 2.1 2.8 4.1 5.7 6 8.6 3.8 5.8 7.4 11.7 11.6 17.2 2.1 2.7 4.3 5.4 6.8 7.7s5.4 4.3 8.7 4.5c1.7.2 3.4.1 5-.1 1.6-.3 3.3-.7 4.6-1.7.6-.5 1.1-1.1 1.3-1.7s0-1.3-.3-2c-.7-1.4-2.1-2.4-3.4-3.6 1.7.5 3.4 1.3 4.5 3 .5.8.8 2 .5 3s-1.1 1.8-1.8 2.4c-1.6 1.1-3.4 1.6-5.1 1.9-1.8.3-3.6.3-5.3.1-1.8-.1-3.6-.8-5.2-1.6-1.6-.9-3-2-4.3-3.2-2.6-2.4-4.9-5.1-7-7.9-4.2-5.6-7.9-11.5-11.6-17.3-1.9-2.9-3.8-5.8-5.9-8.5-1.1-1.3-2.2-2.7-3.4-3.8-.6-.6-1.3-1.1-2-1.4-.7-.4-1.4-.5-2.1-.3-.3.1-.7-.1-.8-.4s0-.7.3-.8z" fill="#3e4147" fill-rule="nonzero"/><path d="m473.5 548s-6.2-2.9-14-4.2" stroke="#3e4147" stroke-linecap="round" stroke-linejoin="round" stroke-width="1.25"/><path d="m450.7 506.3s23.2-2 40.9-12.8" stroke="#3e4147" stroke-linecap="round" stroke-linejoin="round" stroke-width="1.25"/><path d="m493.7 547c8.5.5 15.6-1.4 20.8-3.2 13.5-4.8 34.7-21.5 65.7-43.9 24.1-17.4 46.6-34.6 41.8-54.1-8-32.7-35.9-26.7-35.9-26.7" stroke="#3e4147" stroke-linecap="round" stroke-linejoin="round" stroke-width="1.25"/><path d="m562.9 512.6s-3 29 6.2 31.2" stroke="#3e4147" stroke-linecap="round" stroke-linejoin="round" stroke-width="1.25"/><g fill="#b5c933" fill-rule="nonzero" stroke="#3e4147" stroke-linecap="round" stroke-linejoin="round" transform="translate(421 77)"><path d="m30.2.8-29.9.1s2.2 49 2.3 73.2c9.6-.4 21.2 2 30.5-1 .2-13.3-.5-26.3-1.2-40-.2-6.4-1.7-32.3-1.7-32.3z" stroke-width="1.0328"/><path d="m27.5 7.9s-4-.5-4.9-4.1l-15.2.5s-.1 2.1-3.4 3.8l2 59.7s4.2-.1 4.6 3.4c0 0 13.5.5 15.7-.3 0 0 .7-4.2 3.8-4.2z" stroke-width="1.0328"/><ellipse cx="17.090599" cy="37.696751" rx="9.299869" ry="9.899861" stroke-width="1.032785" transform="matrix(.99941406 -.03422767 .03422767 .99941406 -1.280258 .607059)"/><g stroke-width="1.0328"><path d="m20.3 39.8c4-.3-1.3-9.1-3-3.5-.4 1.3-.1 3.3-1.6 4.1-1.7.9-3.5-1.3-3.6-2.8-.1-1.6.9-3.4 2.7-3.2"/><path d="m23.1 36.5s-5.3.1-7.8.2c-1.3 0-2.7-.1-3.9.1"/><path d="m23.2 38.1c-3.9.1-8 .3-11.9.2"/></g></g><g fill="#b5c933" fill-rule="nonzero" stroke="#3e4147" stroke-linecap="round" stroke-linejoin="round" transform="translate(330 103)"><path d="m25.9.7-25.8 15s26.4 41.4 38.6 62.2c8.1-5.1 19.3-8.9 25.9-16.2-6.5-11.6-13.6-22.5-21-34.1-3.4-5.3-17.7-26.9-17.7-26.9z" stroke-width="1.0328"/><path d="m27.1 8.2s-3.7 1.6-6.3-1.1l-12.9 8s1 1.9-1.1 5l31.6 50.6s3.6-2.2 5.7.6c0 0 11.9-6.3 13.5-8.1 0 0-1.5-4 1.2-5.5z" stroke-width="1.0328"/><ellipse cx="32.98496" cy="39.23588" rx="9.299726" ry="9.899708" stroke-width="1.03277" transform="matrix(.84842501 -.5293156 .5293156 .84842501 -15.768468 23.406632)"/><g stroke-width="1.0328"><path d="m36.9 39.4c3.3-2.3-5.7-7.3-4.3-1.5.3 1.4 1.6 2.9.7 4.3-1 1.7-3.7.6-4.5-.7-.9-1.4-.9-3.4.8-4.1"/><path d="m37.7 35.1s-4.5 2.7-6.6 4.1c-1.1.7-2.4 1.2-3.4 2"/><path d="m38.5 36.5c-3.3 2.1-6.8 4.3-10.2 6.1"/></g></g><g fill="#b5c933" fill-rule="nonzero" stroke="#3e4147" stroke-linecap="round" stroke-linejoin="round" transform="translate(271 173)"><path d="m15.4.7-14.9 25.9s43.6 22.6 64.5 34.6c4.5-8.5 12.3-17.3 14.4-27-11.4-6.8-23.1-12.7-35.3-19-5.6-2.9-28.7-14.5-28.7-14.5z" stroke-width="1.0328"/><path d="m20.2 6.6s-2.4 3.3-6 2.2l-7.1 13.4s1.8 1.2 1.6 4.8l52.7 28.1s2-3.7 5.2-2.3c0 0 7.2-11.4 7.6-13.7 0 0-3.3-2.7-1.7-5.3z" stroke-width="1.0328"/><ellipse cx="40.76858" cy="30.51927" rx="9.299892" ry="9.899885" stroke-width="1.032788" transform="matrix(.47010545 -.88261025 .88261025 .47010545 -5.333572 52.154762)"/><g stroke-width="1.0328"><path d="m44.2 28.8c1.7-3.6-8.6-3.4-4.5.8 1 1 2.8 1.7 2.8 3.4-.1 2-2.9 2.4-4.2 1.7-1.4-.7-2.5-2.5-1.4-4"/><path d="m42.8 24.7s-2.5 4.6-3.7 6.8c-.6 1.1-1.5 2.3-1.9 3.4"/><path d="m44.2 25.4c-1.8 3.5-3.7 7.1-5.8 10.4"/></g></g><g fill="#b5c933" fill-rule="nonzero" stroke="#3e4147" stroke-linecap="round" stroke-linejoin="round" transform="translate(261 266)"><path d="m.2 3.1.1 29.9s49-2.2 73.2-2.3c-.4-9.6 2-21.2-1-30.5-13.3-.2-26.3.5-40 1.2-6.5.2-32.3 1.7-32.3 1.7z" stroke-width="1.0328"/><path d="m7.3 5.8s-.5 4-4.1 4.9l.5 15.2s2.1.1 3.8 3.4l59.7-2s-.1-4.2 3.4-4.6c0 0 .5-13.5-.3-15.7 0 0-4.2-.7-4.2-3.8z" stroke-width="1.0328"/><ellipse cx="37.095276" cy="16.294698" rx="9.899861" ry="9.299869" stroke-width="1.032785" transform="matrix(.99941406 -.03422767 .03422767 .99941406 -.535994 1.279232)"/><g stroke-width="1.0328"><path d="m39.1 13c-.3-4-9.1 1.3-3.5 3 1.3.4 3.3.1 4.1 1.6.9 1.7-1.3 3.5-2.8 3.6-1.6.1-3.4-.9-3.2-2.7"/><path d="m35.8 10.2s.1 5.3.2 7.8c0 1.3-.1 2.7.1 3.9"/><path d="m37.5 10.1c.1 3.9.3 8 .2 11.9"/></g></g><g fill="#b5c933" fill-rule="nonzero" stroke="#3e4147" stroke-linecap="round" stroke-linejoin="round" transform="translate(287 325)"><path d="m0 39.4 15 25.8s41.4-26.4 62.2-38.6c-5.1-8.1-8.9-19.3-16.2-25.9-11.6 6.5-22.5 13.6-34.1 21-5.3 3.4-26.9 17.7-26.9 17.7z" stroke-width="1.0328"/><path d="m7.5 38.2s1.6 3.7-1.1 6.3l8 12.9s1.9-1 5 1.1l50.6-31.6s-2.2-3.6.6-5.7c0 0-6.3-11.9-8.1-13.5 0 0-4 1.5-5.5-1.2z" stroke-width="1.0328"/><ellipse cx="38.49349" cy="32.34247" rx="9.899708" ry="9.299726" stroke-width="1.03277" transform="matrix(.84842501 -.5293156 .5293156 .84842501 -11.284723 25.277514)"/><g stroke-width="1.0328"><path d="m38.7 28.5c-2.3-3.3-7.3 5.7-1.5 4.3 1.4-.3 2.9-1.6 4.3-.7 1.7 1 .6 3.7-.7 4.5-1.4.9-3.4.9-4.1-.8"/><path d="m34.4 27.6s2.7 4.5 4.1 6.6c.7 1.1 1.2 2.4 2 3.4"/><path d="m35.8 26.8c2.1 3.3 4.3 6.8 6.1 10.2"/></g></g><g fill="#b5c933" fill-rule="nonzero" stroke="#3e4147" stroke-linecap="round" stroke-linejoin="round" transform="translate(553 302)"><path d="m64.2 61.3 14.9-25.9s-43.6-22.6-64.5-34.6c-4.5 8.5-12.3 17.3-14.4 27 11.4 6.8 23.1 12.7 35.3 19 5.6 2.9 28.7 14.5 28.7 14.5z" stroke-width="1.0328"/><path d="m59.4 55.4s2.4-3.3 6-2.2l7.1-13.4s-1.8-1.2-1.6-4.8l-52.7-28.1s-2 3.7-5.2 2.3c0 0-7.2 11.4-7.6 13.7 0 0 3.3 2.7 1.7 5.3z" stroke-width="1.0328"/><ellipse cx="38.85103" cy="31.4191" rx="9.299892" ry="9.899885" stroke-width="1.032788" transform="matrix(.47010545 -.88261025 .88261025 .47010545 -7.143871 50.939127)"/><g stroke-width="1.0328"><path d="m35.4 33.2c-1.7 3.6 8.6 3.4 4.5-.8-1-1-2.8-1.7-2.8-3.4.1-2 2.9-2.4 4.2-1.7 1.4.7 2.5 2.5 1.4 4"/><path d="m36.9 37.3s2.5-4.6 3.7-6.8c.6-1.1 1.5-2.3 1.9-3.4"/><path d="m35.4 36.6c1.8-3.5 3.7-7.1 5.8-10.4"/></g></g><g fill="#b5c933" fill-rule="nonzero" stroke="#3e4147" stroke-linecap="round" stroke-linejoin="round" transform="translate(568 238)"><path d="m74.5 29.9-.1-29.9s-49 2.2-73.2 2.3c.4 9.6-2 21.2 1 30.5 13.3.2 26.3-.5 40-1.2 6.4-.2 32.3-1.7 32.3-1.7z" stroke-width="1.0328"/><path d="m67.4 27.1s.5-4 4.1-4.9l-.5-15.2s-2.1-.1-3.8-3.4l-59.7 2s.1 4.2-3.4 4.6c0 0-.5 13.5.3 15.7 0 0 4.2.7 4.2 3.8z" stroke-width="1.0328"/><ellipse cx="37.588605" cy="16.695497" rx="9.899861" ry="9.299869" stroke-width="1.032785" transform="matrix(.99941406 -.03422767 .03422767 .99941406 -.549423 1.296353)"/><g stroke-width="1.0328"><path d="m35.5 20c.3 4 9.1-1.3 3.5-3-1.3-.4-3.3-.1-4.1-1.6-.9-1.7 1.3-3.5 2.8-3.6 1.6-.1 3.4.9 3.2 2.7"/><path d="m38.8 22.8s-.1-5.3-.2-7.8c0-1.3.1-2.7-.1-3.9"/><path d="m37.2 22.9c-.1-3.9-.3-8-.2-11.9"/></g></g><g fill="#b5c933" fill-rule="nonzero" stroke="#3e4147" stroke-linecap="round" stroke-linejoin="round" transform="translate(539 146)"><path d="m77.6 26.6-15-25.8s-41.4 26.4-62.2 38.6c5.1 8.1 8.9 19.3 16.2 25.9 11.6-6.5 22.5-13.6 34.1-21 5.3-3.4 26.9-17.7 26.9-17.7z" stroke-width="1.0328"/><path d="m70.1 27.8s-1.6-3.7 1.1-6.3l-8-12.9s-1.9 1-5-1.1l-50.6 31.6s2.2 3.6-.6 5.7c0 0 6.3 11.9 8.1 13.5 0 0 4-1.5 5.5 1.2z" stroke-width="1.0328"/><ellipse cx="39.09155" cy="33.72745" rx="9.899708" ry="9.299726" stroke-width="1.03277" transform="matrix(.84842501 -.5293156 .5293156 .84842501 -11.927164 25.804005)"/><g stroke-width="1.0328"><path d="m38.9 37.5c2.3 3.3 7.3-5.7 1.5-4.3-1.4.3-2.9 1.6-4.3.7-1.7-1-.6-3.7.7-4.5 1.4-.9 3.4-.9 4.1.8"/><path d="m43.2 38.4s-2.7-4.5-4.1-6.6c-.7-1.1-1.2-2.4-2-3.4"/><path d="m41.8 39.2c-2.1-3.3-4.3-6.8-6.1-10.2"/></g></g><g fill="#b5c933" fill-rule="nonzero" stroke="#3e4147" stroke-linecap="round" stroke-linejoin="round" transform="translate(486 88)"><path d="m60.6 15.1-25.9-14.9s-22.6 43.6-34.6 64.5c8.5 4.5 17.3 12.3 27 14.4 6.8-11.4 12.7-23.1 19-35.3 2.9-5.6 14.5-28.7 14.5-28.7z" stroke-width="1.0328"/><path d="m54.7 19.9s-3.3-2.4-2.2-6l-13.4-7.1s-1.2 1.8-4.8 1.6l-28.1 52.7s3.7 2 2.3 5.2c0 0 11.4 7.2 13.7 7.6 0 0 2.7-3.3 5.3-1.7z" stroke-width="1.0328"/><ellipse cx="30.84798" cy="40.47507" rx="9.899885" ry="9.299892" stroke-width="1.032788" transform="matrix(.47010545 -.88261025 .88261025 .47010545 -19.377535 48.674262)"/><g stroke-width="1.0328"><path d="m32.5 43.9c3.6 1.7 3.4-8.6-.8-4.5-1 1-1.7 2.8-3.4 2.8-2-.1-2.4-2.9-1.7-4.2.7-1.4 2.5-2.5 4-1.4"/><path d="m36.6 42.4s-4.6-2.5-6.8-3.7c-1.1-.6-2.3-1.5-3.4-1.9"/><path d="m35.9 43.9c-3.5-1.8-7.1-3.7-10.4-5.8"/></g></g><path d="m499.1 258.8c.2-1.8.3-3.6.2-5.6-.1-1.3-.3-2.6-.8-4-1.6-1.4-4.2-1.7-6.6-.7-.5.2-1.3.7-1.3.7 6 2.1 8.5 9.6 8.5 9.6z" fill="#e39d74" fill-rule="nonzero"/><path d="m447.6 290.8c.2.4.4.7.6 1.1l.1.3c0 .1.1.2.1.4.1.3.1.6 0 .9-.2 1-.8 1.7-1.3 2.4-.4.5-.8.9-1.2 1.3.7.6 1.5 1.1 2.2 1.7.4-1 1.3-2 1.3-3.4 0-2.2-1.5-4.5-2.8-6 .5.3.8.8 1 1.3z" fill="#e39d74" fill-rule="nonzero"/><path d="m479.9 301.1c-.5-1.5-.9-3.1-1.1-4.7-.3-1-.6-2.1-.8-3.2-.2.2-.4.4-.6.6-4.9 5.3-11.3 11.1-14.6 11.6-1 .1-1.9.2-2.7.2-1.8 0-3.4-.3-4.6-.6l.5.5c.5.6 1.1 1.3 1.5 2.1.2.4.4.9.4 1.3s.1.9 0 1.3c0 .4-.1.8-.1 1.2 3.3.7 6.8.8 9.8-.5 3.7-1.6 8.4-5.8 12.3-9.8z" fill="#e39d74" fill-rule="nonzero"/><path d="m391.7 498.6c1.7.7 3.1 1.8 4.4 3 1.4 1.1 2.8 2.3 4.4 3 1 .4 3.2.7 5.2 1 1.1.1 2.1.3 3 .4-2.2-1.8-4.2-3.7-6.2-5.7-2.9-2.9-5.6-5.8-8.4-8.7s-5.7-5.7-8.7-8.3-6-5.3-9.7-7c2 .5 3.9 1.3 5.6 2.4l1.3.8c.4.3.8.6 1.2.9.8.6 1.6 1.2 2.4 1.9 3.1 2.6 5.9 5.6 8.7 8.5s5.6 5.8 8.4 8.7c2.8 2.8 5.7 5.6 9 7.7 3.5 1.4 5.2 1.9 8.8 2.9 6.6 1.9 12.1 2.2 16.2 1.9.3-.7.7-1.5 1.1-2.2-45.1-15.9-75.1-67.8-83.9-85-1.7 3.2-2.9 6.8-3.6 10.8-2.2 13.6 35.7 59.3 37.9 61.9 1.1.4 2 .8 2.9 1.1z" fill="#5d91ab" fill-rule="nonzero"/><path d="m564.1 510.9c4.9-3.6 10.2-7.4 15.7-11.5 26.3-19.1 46.1-35.1 41.6-53.4-1-4.1-2.3-7.5-3.8-10.4-6.6 18.4-27.8 47.8-93.4 77.6.3 6.2.3 10.3-2.4 11.1-.8.2-1.4 0-1.7-.2-1.4-1-1.7-4.1-2-8.1-2.1.9-4.3 1.9-6.6 2.8v.1c0 5.6 0 10-2.2 11.5-.5.3-1.1.5-1.8.5-.4 0-.9-.1-1.5-.3-.1.2-.1.3-.2.5-.2.4-.5.7-.8.9-.4.2-.8.3-1.1.4-.7.1-1.5 0-2.2-.4-1.3-.8-1.8-2.1-2.3-3.3h-.1c-2.1 0-3.8-1-5.2-3.1-9.3 3.5-19.2 7-29.9 10.5.8 1.1 1.5 2.2 2.4 3.3 2.1 2.7 4.3 5.4 6.8 7.7s5.4 4.3 8.7 4.5c1.7.2 3.4.1 5-.1 1.6-.3 3.3-.7 4.6-1.7.6-.5 1.1-1.1 1.3-1.7s0-1.3-.3-2c-.7-1.4-2.1-2.4-3.4-3.6 1.7.5 3.4 1.3 4.5 3 .2.3.3.6.4.9 6.5.3 13.1-.7 20.1-3.2 11-3.9 27.3-15.8 49.8-32.3z" fill="#5d91ab" fill-rule="nonzero"/><path d="m562.1 513.9c-12.1 8.8-22.3 16.3-30.8 21.7 3.4.2 10.3.8 13.2 1.3 5.1-5.2 11.3-10.2 17.3-14.6 0-3.6.2-6.7.3-8.4z" fill="#df642f" fill-rule="nonzero"/><path d="m570.7 507.6c-2 1.4-3.9 2.9-5.8 4.3-.5.4-.9.7-1.4 1-.2 2.1-.4 5.1-.4 8.4 2.5-1.8 4.9-3.5 7.3-5-.1-2.8.1-5.7.3-8.7z" fill="#eae4c9" fill-rule="nonzero"/><path d="m575.4 504.2c-1.1.8-2.2 1.6-3.3 2.4-.3 3-.4 5.9-.5 8.9 1.8-1.2 3.5-2.3 5.1-3.2-.3-2.9-.7-5.7-1.3-8.1z" fill="#e1d8bf" fill-rule="nonzero"/><path d="m529.4 536.1s13.3.9 15.8 1.6 11.2 5.6 13.8 6.1c2.7.5 14.2.2 16.2-1.3s4.1-26.9.5-39.4" stroke="#3e4147" stroke-linecap="round" stroke-linejoin="round" stroke-width="1.25"/><path d="m572.4 543.4s-2.6-18.8-1-37.1" stroke="#3e4147" stroke-linecap="round" stroke-linejoin="round" stroke-width="1.25"/><path d="m361.5 529.8c1.7 6.4 5.4 11.9 11.8 12.6 1.4.1 2.7.2 4 .3-1.1-1.2-2.1-2.5-2.9-3.9-.8-.2-1.5-.4-2.2-.7-3.9-1.7-7.6-5-10.7-8.3z" fill="#eae4c9" fill-rule="nonzero"/><path d="m454 522.9c-1.9-2.9-3.8-5.8-5.9-8.5-.7-.9-1.5-1.9-2.3-2.7-.4.2-1.5.6-3.2.9 2.5 1.8 7.5 7.4 15.5 23.9 0 0-7.6 7.4-14.5 5-1.5-.5-3.3-1.1-5.1-1.6l.2 2.6c0 .3-.1.5-.4.6-.1 0-.1 0-.2 0-.2 0-.4-.1-.5-.3l-2.9-4c-2.6-.7-5.2-1.2-7.4-1.7l-.3.7c-.1.2-.3.3-.5.4-.2 0-.4-.1-.6-.3l-.9-1.3c-1.3-.2-2.2-.3-2.6-.3-1.3.1-8.1-.9-13-1.3l-1.3 2.5c-.1.2-.3.3-.6.3-.2 0-.5-.2-.6-.4l-1.2-2.6c-4.2.2-19.7 5.6-29.7 4.1.9 1.3 1.9 2.5 3.1 3.6 8.6.3 14.9-.9 19.4-1.7 3.4-.6 5.9-1.1 7.8-.7 1.6.3 3.2.7 4.7 1.1 3 .7 5.8 1.4 7.3 1.3.6 0 1.2-.1 2-.3 2.1-.3 4.7-.8 8.2.3 2 .6 4.9 2.3 8 4 3.9 2.2 8.3 4.7 10.5 4.7 3.2 0 13.4-9.3 17.3-13.1-3.6-4.7-6.9-10-10.3-15.2z" fill="#df642f" fill-rule="nonzero"/></g></svg>