<?xml version="1.0" encoding="UTF-8"?> <svg xmlns="http://www.w3.org/2000/svg" xmlns:xlink="http://www.w3.org/1999/xlink" width="1026" height="722"><defs><path id="a" d="M0 640h662V0H0z"></path></defs><g fill="none" fill-rule="evenodd"><circle fill="#FDBE2A" cx="514" cy="336" r="336"></circle><g transform="matrix(1 0 0 -1 182 721.3)"><mask id="b" fill="#fff"><use xlink:href="#a"></use></mask><g mask="url(#b)"><path d="M639.3 187.7H18.2c-3.7 0-6.7 3-6.7 6.7v415.5c0 3.6 3 6.6 6.7 6.6h621.1c3.7 0 6.7-3 6.7-6.6V194.4c0-3.7-3-6.7-6.7-6.7" fill="#FFF8E9" fill-rule="nonzero"></path><path d="M639.3 187.7H18.2c-3.7 0-6.7 3-6.7 6.7v415.5c0 3.6 3 6.6 6.7 6.6h621.1c3.7 0 6.7-3 6.7-6.6V194.4c0-3.7-3-6.7-6.7-6.7z" stroke="#3E4147" stroke-width="1.4"></path><path d="M41.3 539.9h573M41.3 485.7h573M41.3 431.5h573M41.3 377.3h573M41.3 323h573M41.3 268.9h573" stroke="#EAE4C9" stroke-width="1.3" fill="#A7A9AC" fill-rule="nonzero"></path><path d="M587.5 481l-1 .1-.8.1a19.6 19.6 0 0 0-2.3.6l-.8.3-.4.2a17 17 0 0 0-3.2 1.8 24 24 0 0 0-8.3 12.2c-4.9 13.9-3.5 33.7-4.2 44.3-1.1 16.6-5.7 38.2-18.8 48.2-8 6.2-16.9 9.5-27 9.6 2 0-6.7 12.7-8.2 13.7-5.6 3.8-13 4.4-19.5 4.4-16.7 0-30.8-2.7-46.5-9a64.7 64.7 0 0 1-28-22.6c-9.1-12.1-11.7-24.7-16-39.2a57.1 57.1 0 0 0-17-26.5l-2-2a13.1 13.1 0 0 1 7 .6l1.7.7c1.6.8 3 2 4.5 3.2-.3-1.6-1.2-3-2.3-4.2-1.2-1.1-2.6-2-4-2.6 3.9 1.7 5.6-3.8 6.3-8.9l.4-4.7v-.6-1.5c-.2-2.2-.7-4.4-1.3-6.5a47.7 47.7 0 0 0-6.3-13.1l-2.5-4.2a19.4 19.4 0 0 1 6.9 4.9 25.3 25.3 0 0 1 4.7 7 33.7 33.7 0 0 1-.7-8 60.9 60.9 0 0 1 2.6-16.2l1.4-3.2v1.5c.1 1.5 0 3 .2 4.5.1 1 .3 2 .6 2.9.3 1 .8 1.8 1.4 2.7a28.6 28.6 0 0 1 1.5-12.3l.6-1.4a26 26 0 0 1-3.9-13.8c0-12.8 8.8-23.2 19.6-23.2 4.6 0 9 2 12.3 5.2 4.9-9.6 8.8-20.4 19.8-23.5a518 518 0 0 0-2.6-21.3l-.2 1.3c.1-.9-8.9-2-10-2.8-2.6-1.7-3.7-5-5.2-7.6-3.1-5.6-5.3-11.3-12.5-10.8 1-2.7 4.9-2.8 7.6-3.4-.7.1-8.3-3.4-18.7-5-12.8-2-29-2.1-33.8-4.5-12.4-6.3-24.7-20-35.8-32v-.3l-5.2-5.4-7-7.4c-9 5.5-16 10.5-20.3 12.5-6.1 2.9-20.4 1.4-28 1.4-7.5 0-17.7-2.9-21.8-5.8-4-2.9 3.4-5 6.8-4.3a56 56 0 0 0 19.1 0c5.5-1.5 19.2-3 19.2-3s-1-2.8-2.8-5.8c-2.9-.5-6.2-.2-8.6-1.5-2.8-1.5-4.2-4.2-7-5.7-3-1.5-5.5 0-5.8-3.8-.3-4 4-5.7 8.8-6.4-1-2.1-1.7-4.1-2.4-5.7-2-5-2-13.8-1.4-16-11.6-10.8-19.8-17.4-28.6-20.3 0 0-21.9 13-40.3 22.5a118.9 118.9 0 0 0-28 18.1h-.2c-5.6 11.4-5.5 28.4-6.1 41.5l13.3-2.2c3.6-.6 7 2 7.7 5.9l.2 1.8c.6 3.9-1.8 7.5-5.4 8.2l-24 4.5a53.5 53.5 0 0 1-4 3.4c-6 4.5-12.2 13-19.1 15.5-4 1.5-22.5-3.4-28.1-9.2L96.3 354c-1.5.2-3-.3-4.2-1.3l-6.8-1.4v-1H74.8v-4.8l9.5-3.3-.1-1.5 5.6-2.9c.9-1.3 2-2.2 3.5-2.4l33.5-5.4-.4-.4a76.2 76.2 0 0 1-2.8-2.5l-.6-1.2v-.6l.6-1 1.3-.9a14.8 14.8 0 0 1 3-1.1h.8c2 0 3.9 1 6 .4.7-.2 1.2-.6 1.7-1l.5-.5c.7-.6 1.3-1.3 2.2-1.7.6-.3 1.3-.5 2.1-.5.5 0 1-.5 1.6-1.4l1.2-2.6a40.8 40.8 0 0 0 2.3-7.3 178.3 178.3 0 0 0 2.8-12.4l.4-2.4c1-4.9 1.8-8.9 2.3-10 3-7.8 9.3-12.1 15.4-16.8a161.3 161.3 0 0 0 10-10.3 583 583 0 0 0 6.4-6.9c4.2-4.7 8.3-9.3 12.5-13.6a526.2 526.2 0 0 1 23-22.4 321.5 321.5 0 0 1 25.5-20.3l.8-.7a94.5 94.5 0 0 1 5.5-3.8l1-.5h13.5a84 84 0 0 1 18.7 10.4 636.5 636.5 0 0 1 21 14.6 998.9 998.9 0 0 0 21.4 14.6l.8.6 2.5 1.7.8.5 3.2 2.1.3.3 2.7 1.8.9.6 2.3 1.6a107.3 107.3 0 0 1 6.3 4.4l.8.6 2.1 1.4a186.6 186.6 0 0 1 3 2.2l.6.4a939.8 939.8 0 0 1 4.8 3.4 2452 2452 0 0 1 4.5 3.3l.3.2 2.2 1.6c-.2-2.6-.1-5.5.5-9.6-.1-1.5 0-3 .1-4.4.7-4.8 2.5-9.5 4.8-14v-.1c3.6-7.6 7.4-8 9.5-11l.4-.6.3-.4a7.1 7.1 0 0 0 .3-1l.7-2.6.2-1 .3-2 .2-1.1.2-2 .2-1.3.2-2.4v-1l.6-6.8.2-3.2.1-1v-.8h156l.7.9 1 1.5a182.7 182.7 0 0 1 3.5 5.9l.6 1 1 1.6a681.9 681.9 0 0 1 1.5 2.8l.7 1.1a396.5 396.5 0 0 1 2 3.6l1 1.8.8 1.3.8 1.6.8 1.4.8 1.6.7 1.3 1.4 2.8.8 1.4.8 1.6.7 1.5a296.1 296.1 0 0 1 3.6 7.5l.7 1.5.8 1.7.6 1.4.8 1.8.5 1.4.8 1.8.5 1.2 1.4 3.6.5 1.1a146.8 146.8 0 0 1 4.5 13.2l.3 1 .6 2c0 .4.2.8.3 1.1 0 .5.2.9.3 1.3 6.4 24.2 6.1 47.4-9 62.6l-1.2 1.9-.5.7a36.2 36.2 0 0 1-1.8 2.3c-4.2 5-9.3 8.7-14.6 11.6-9.7 5.5-20.5 9.3-29.3 16.2 3.8 0 7.5-.2 11 .8-5.4 6.2-9.8 9-13 17.6-2.4 6.8-3.4 8.7-10.3 7.3a82.3 82.3 0 0 0 .9 14.1l.1 1.1.4 2.7.4 2 .4 2.1a187 187 0 0 0 3.4 15.1 45.1 45.1 0 0 1 14 7.4 19 19 0 0 1 16.2-10.3c10.8 0 19.6 10.4 19.6 23.2a27 27 0 0 1-.7 6 16 16 0 0 0 2.6-3.7l.9-1.7a23.1 23.1 0 0 1 1 8.6l-.5 5.4a41.2 41.2 0 0 0 0 8.2 25.6 25.6 0 0 0 3.3 1.1l3.5 1a69.6 69.6 0 0 1 6.6 2.3 14.5 14.5 0 0 1 3.7 2.7c-3.3-.9-7.8-1.3-11 .6-.7.4-1.3 1-1.9 1.7 5.5-.7 17.4 1 20.4 6.2H588l-.6.2" fill="#EAE4C9" fill-rule="nonzero"></path><path d="M193 191h-84.3c-3.7 0-6.7 3-6.7 6.6v28.7c0 3.6 3 6.6 6.7 6.6h84.2c3.7 0 6.7-3 6.7-6.6v-28.7c0-3.7-3-6.7-6.7-6.7" fill="#8D8F92" fill-rule="nonzero"></path><path d="M654.4 178H8.4c-3.7 0-6.7 3-6.7 6.7v12.5c0 3.7 3 6.7 6.7 6.7h646c3.7 0 6.7-3 6.7-6.7v-12.5c0-3.7-3-6.7-6.7-6.7" fill="#CAA575" fill-rule="nonzero"></path><path d="M654.4 178H8.4c-3.7 0-6.7 3-6.7 6.7v12.5c0 3.7 3 6.7 6.7 6.7h646c3.7 0 6.7-3 6.7-6.7v-12.5c0-3.7-3-6.7-6.7-6.7z" stroke="#3E4147" stroke-width="1.4"></path><path d="M189.6 227.8l-7.3-4h-73.9c1.3 4.8 6.7 5.6 11.3 5.6l69.9-1.6z" fill="#B6B7B9" fill-rule="nonzero"></path><path d="M193 233h-84.4c-3.6 0-6.6-3.7-6.6-8.1v-21h97.6v21c0 4.4-3 8-6.7 8z" stroke="#3E4147" stroke-width="1.4" stroke-linecap="round" stroke-linejoin="round"></path><path d="M176.3 425a7.4 7.4 0 0 1 .1 1.3 3.5 3.5 0 0 1 0 .7l-.2.5-.3 1.5-.2.5V430.2l.1.3.1.2v.4l-.1.1V431.8l.1.2-.1.2-.4.3-.5.4h.1l.3.6v1l-.1.2v.2l-.2.3v.3l-.1.3-.1.2-.1.3-.1.2-.2.4 6.2 1.3 45.5 9.2h.1l.2-.4v-.1a3.4 3.4 0 0 0 0-.7 4.2 4.2 0 0 0 0-.4 4.7 4.7 0 0 0 0-.5v-.1l-.1-.5v-.1-.5l-.1-.1v-.6l-.8-5-49-13.4zm-13 32.9l-.2.6-.2.7h.3c.2 0 .3.2.4.4l-.2 1.1-.2.5v.2c.1.1.3.4.2.7.3.3.4.6.3 1 0 .3 0 .6-.2.9l-.1.6v.6l.1-.2.1-.3v-.3a27.8 27.8 0 0 1 .3-1l.2-.5a34.1 34.1 0 0 1 .4-1.3l.1-.5.2-.5.1-.5.2-.5.1-.5.2-.6.2-.5.2-.7.2-.4.2-.8.2-.4.2-.8.2-.4c0-.3.2-.5.3-.8l.1-.4a119 119 0 0 1 1.3-3.7l.5-1.2v-.3l.4-1 .1-.3.3-.8.2-.3c0-.3.2-.6.3-.8v-.3a985.5 985.5 0 0 1 1.2-3l1.7-4.5v-.1l.1-.1h.1v-.1l.3-.3.3-.9a11 11 0 0 0 .5-1.8v-.2a.8.8 0 0 0-.1 0c-.1-.2-.3-.4-.3-.7v-.1l.1-.3c.2-.3.5-.6.8-.7v-.1-.2a.4.4 0 0 1 0-.6v-.2c-.2-.4-.2-.8-.1-1.2v-.4l.2-.4c.2-.4.3-.9.2-1.2v-.1c0-.2 0-.3.2-.4v-.1-.1-.2-.4-.3l-12.3 32zm16 9l2.5.3h.4l2.4.2h.6l2.5.3h.6a966.8 966.8 0 0 1 2.7.3c.9 0 1.7.2 2.6.3h.8a884.7 884.7 0 0 1 6 .7h.7l2.6.3h.6l2.6.4H207.8a152.3 152.3 0 0 1 .6-.6l-3.3-.4-7-.9-3.6-.4-6.9-.7-5-.4-5.3-.4a475 475 0 0 0-10.7-.8v-.3l.8-2.3 8.1-21.7c0-.2.2-.3.3-.3h.1s2 .2 11 1.7l1 .1 2 .4 2.9.4h.3l32.1 5.6.4-.6-25.7-5.2-26-5.3c-3.4 8.7-9.3 24.8-9.7 28.2a1030.6 1030.6 0 0 1 15.2 1.2zm68.8 9.7l20.4-15.8 4-3.1-12.3-2.5-23-4.7-.5.5 7.6 1.5.6.2a12013.4 12013.4 0 0 1 4.2.8l3.2.7 3 .6 1.2.3a4001.4 4001.4 0 0 1 13.7 3.2c0 .1 0 .3-.2.4l-22 17.2-.3.1-2.1-.5c-4-.9-13.8-3-27-5l-.6.5 2.5.4h.9l2 .4 1 .1 2.7.4.6.1 2.2.4h.7l2.6.5h.4a226 226 0 0 1 5.3 1l.2.1 2.1.5h.5l2.2.6 2 .5.4.1 1.8.5zm24-20.2v-.1c0-.2 0-.4.2-.5v-.1l-.2-.2a.4.4 0 0 1-.2-.4c0-.6-.1-.9-.4-1.3l-.2-.3-.1-.2a.4.4 0 0 1 0-.4v-.1-.6-.2c-.2-.5-.4-.8-.7-1v-.2h-.1l-.2-.2h-.1l-16.5-4.5-16.2-4.4.4 2.3v.1l.2 1.1v.2l.2 1v1.1a9.8 9.8 0 0 1 0 1.6l-.2.4-.2.3 34.5 7v-.2l-.1-.2zm-49.9 10h.6l.8-.3.5-.2.7-.2.5-.2.7-.3.5-.2.6-.3.4-.2.6-.3.4-.3a15.5 15.5 0 0 0 3.1-2.5l.3-.3.2-.3.3-.4.2-.3.2-.4.1-.3.1-.4.1-.3.1-.5v-.2-.7a4 4 0 0 0-.3-1l-.2-.5-.2-.3-4.3 4.6-6 6.4zm-.3 3.8l1 .2c.7 0 1.3.2 2 .3l.8.1 1.9.3.8.2 1.8.3.6.1a468.7 468.7 0 0 1 2.2.4l1.9.4h.4l1.7.4h.2l1.7.4h.2l3.2.6 5.4 1.2 21.1-16.5-21.4-4.6-4-.8h-.2l-3.5-.8-2.8-.5-.9-.2-2.9 3.1.6 1.1v.1l.3 1.2v1.6l-.1.3-.2.5-.1.3-.2.5-.2.3-.3.5-.3.3-.3.4-.4.4-.3.3-.4.4-.4.3-.5.4-.4.3-.6.4-.4.3-.7.4-.4.2-.9.4-.3.1-1 .4-.2.2c-.4 0-.7.2-1 .3l-.4.1-1 .4h-.3l-1.2.3h-.3l-2 2.3.9.1 1.8.3zm5.3-23v.1l-.2.2v.1a13 13 0 0 1-.7 1l-.2.2-.3.4-.2.2-1.1 1.5-.3.3-.5.6c0 .2-.2.3-.3.4l-.6.7-.4.5-.7.9-.3.4-.7.8-.3.4-.9 1c0 .2-.2.4-.4.5l-.6.8-.4.5-.7.8-.5.6-.7.9-.5.6a72.3 72.3 0 0 0-2.3 2.8l-.3.3a121.2 121.2 0 0 1-.8 1l-1 1.2-.2.2-2.3 2.8h.3l7.8 1h.1l6-6.4 12.5-13.4.1-.2 1.8-2v-.3-.2-.4-.4-.5-.5l-.1-.5-.1-.7v-.5l-.2-.7v-.6l-.2-.7-.1-.6-.2-.7-.2-1-10.1-2.7c.3 2.4 1.3 8.4 1 9.4zm-15.5 17.9l3.6-4.3.2-.3 1.5-1.7.3-.5 1.3-1.5.5-.6 1-1.3.5-.6 1-1.3.4-.4c.5-.5 1-1 1.3-1.6h-.6l-1-.1h-1l-.9-.1H218l-2 .2c-5 .6-9.4 2.2-12.2 4.3-2.3 1.7-3.5 3.8-3.3 5.8 0 .3.1.7.3 1l.2.4.4.7c0 .2.3.3.4.5l.4.4.7.6c.2 0 .3.2.5.3l.9.5.4.2 1.2.5.4.2 1.3.4h.5l1.4.4h.5l1.6-1.9.2-.2zm-35.3-23.7h-.2l-8.6 23.1 10.2.6 5.1.4 5.3.5 7.6.7 2.8.3 7.5 1 3 .3.2-.3a23.4 23.4 0 0 1-1.8-.4l-.8-.2-1-.4-.8-.2-1-.5-.6-.3-.7-.5-.6-.4-.6-.5-.5-.6-.4-.5-.4-.7-.2-.4a5 5 0 0 1-.3-1.2c-.6-5 6.7-10 16.2-11l2-.2h4.2l1.3.2h.6l.2-.1.4-.5.1-.2c-34.2-6-44.9-7.5-47.8-8h-.4zm49-4.3a.4.4 0 0 1 .4-.1l11 3c.1 0 .3 0 .3.2l.1.6 33.4 9 .3.3c.5.4 1 1.2 1.1 1.9v1c.4.7.7 1 .7 2 .3.2.5.5.5.8 0 0 0 .3-.2.5l.2.7h.4c.2 0 .3.2.4.4 0 .1 0 .3-.2.4l-25.4 19.6-.3.1c-20.8-6.6-83.7-10.9-84.3-11h-.2c-.6-.5-1.1-.9-1-2l.1-.8c.3-.7.3-.9 0-1a.4.4 0 0 1-.3-.3l.1-.4.1-.1v-.1a1 1 0 0 1-.2-.6c0-.3 0-.6.2-.8l.1-.4a.9.9 0 0 1-.5-.3c-.3-.4 0-1 0-1.5l.2-.5 12.9-33.4a.4.4 0 0 1 .5-.3l49.4 13.5c0-.2 0-.3.2-.4z" fill="#555556" fill-rule="nonzero"></path><path d="M183 455.7c-.2.3-.2.6-.2 1 .2 1.4 2.7 2.4 5.5 2 2.2-.2 4-1.2 4.6-2.4l.2-.9c-.1-.7-.7-1.3-1.7-1.7-1-.4-2.3-.6-3.8-.5-1.7.2-3.1.9-4 1.7l-.5.6-.1.2m10.9-.4c.1 1-.4 2-1.4 2.8-1 .8-2.5 1.3-4.2 1.5-2 .3-4-.2-5.1-1a2.8 2.8 0 0 1-1.2-1.9c-.2-1.4 1-2.7 2.7-3.5.8-.4 1.8-.7 2.8-.8 3.4-.4 6.2 1 6.4 3M243.8 462.2l-1.1.2c-2.3.6-3.8 1.9-3.7 3.2 0 .2 0 .3.2.5.4.9 1.8 1.5 3.4 1.7a8.7 8.7 0 0 0 4.6-.8l.5-.3.3-.2.2-.1.8-.9c.2-.4.3-.7.3-1.1-.2-1.5-2.7-2.5-5.5-2.2m.8 6.4c-3.4.4-6.2-1-6.4-3-.3-2 2.2-3.8 5.5-4.2 2.1-.3 4 .1 5.2 1 .7.5 1.1 1.1 1.2 1.9.2 2-2.2 3.9-5.5 4.3M136.7 356.7l-2.9-.6-14-2.7a7.5 7.5 0 0 0-8.7 5.3l.5.1 31.1 6.1a7.5 7.5 0 0 0-6-8.2zM103 400.4l6.2 1.2 25.4 5 8-40.9-18.9-3.7-12.8-2.5-8 40.9zm5.9 9l16.9 3.3a7.5 7.5 0 0 0 8.6-5.3l-13-2.6-18.5-3.6a7.5 7.5 0 0 0 6 8.2zm34.6-44v.2l-8 41.4h-.1v.1a8.3 8.3 0 0 1-6.1 6.3c-1.2.3-2.4.4-3.7.2l-16.9-3.3a8.4 8.4 0 0 1-6.6-9.6v-.1-.1l8-41.4v-.1h.1c.3-1.2.8-2.3 1.4-3.2a8.3 8.3 0 0 1 8.4-3.3l16.9 3.3a8.4 8.4 0 0 1 6.6 9.6z" fill="#555556" fill-rule="nonzero"></path><path d="M114.2 406.7a.4.4 0 0 1 .4-.1l4.4.8 2.5.5c.3 0 .4.3.4.5s-.3.4-.5.3l-7-1.3a.4.4 0 0 1-.3-.5v-.2M137.8 461.2l3.7 1.9 2.2 1c.2.1.3.4.2.6-.1.2-.4.3-.6.2l-2.1-1-4.7-2.5a.4.4 0 0 1-.1-.5 17.7 17.7 0 0 1 6.2-6c.1 0 .3 0 .4.2l-.1.6c-1.6 1.3-3.6 3-4.9 4.6 4.7-1.2 13.5-2.7 16.5-2.8a.4.4 0 1 1 0 .8c-3 .1-12.2 1.7-16.7 2.9M160.7 402.6c-2.1-.2-4.8-.4-6.8-.1 5.2 3.2 19.5 14.2 21.6 16.2.2.1.2.4 0 .5-.1.2-.4.2-.6 0a282 282 0 0 0-21.7-16.2l1.3 3.9.7 2.3c.1.2 0 .4-.2.5-.2 0-.5 0-.6-.3l-.7-2.2c-.6-1.7-1.2-3.4-1.6-5 0-.2 0-.5.3-.5l1.6-.4c2.3-.2 5.3 0 6.8.5.2 0 .3.3.3.5s-.2.3-.4.3M203.3 376.3l-1 2.2c-.1.2-.4.3-.6.2a.4.4 0 0 1-.2-.6l1-2.2 2.5-4.6.3-.2h.2c2 1 5 4.3 6 6.1a.4.4 0 0 1-.8.5c-1.3-1.6-3-3.7-4.6-4.9 1.7 8 8.6 50 8.7 53.6 0 .2-.2.4-.4.4a.4.4 0 0 1-.4-.4c0-2.6-7.1-46.4-8.8-53.7-.7 1.1-1.3 2.4-1.9 3.6M264.1 395.9a.4.4 0 0 1-.3-.5c.2-2 .4-4.7.1-6.7-4.2 7-25.6 39.3-27.7 41.5-.2.2-.5.2-.6 0a.4.4 0 0 1 0-.5c2-2.3 24.2-35.6 27.8-41.7l-3.9 1.3-2.3.7c-.2.1-.4 0-.5-.2 0-.3 0-.5.3-.6l2.2-.7c1.7-.6 3.4-1.2 5-1.6.3 0 .5 0 .5.3.7 2 .5 6.5-.1 8.4 0 .2-.3.3-.5.3M288 437a.4.4 0 0 1 .3-.7l2.2 1 4.6 2.5c.2.1.3.3.2.5-1 2-4.3 5-6.1 6a.4.4 0 0 1-.5-.8c1.6-1.3 3.6-3 4.9-4.6a264 264 0 0 1-25.4 4.3.4.4 0 0 1-.4-.5c0-.2.2-.4.4-.4 2.9 0 20.2-3 25.6-4.3L290 438l-2.2-1M271 498.6c2 .2 4.6.4 6.6.1-5.2-3.3-22-15.5-24.2-17.7a.4.4 0 0 1 .2-.7l.4.1c2.3 2.2 19.6 14.9 24.4 17.8a80.7 80.7 0 0 0-2-6.2c0-.2 0-.4.2-.5.3 0 .5 0 .6.3l.7 2.2a63 63 0 0 1 1.6 5c0 .2 0 .5-.3.5-2 .7-6.5.5-8.4-.1a.4.4 0 0 1-.3-.5c0-.2.2-.3.5-.3M228.3 524.9l1-2.2a.4.4 0 0 1 .8.4l-1 2.1-2.5 4.7c-.1.2-.3.2-.5.1-2-1-5-4.2-6-6a.4.4 0 0 1 .8-.5 33 33 0 0 0 4.7 4.9c-1.7-7.8-6.4-45-6.5-48 0-.2.2-.4.4-.4.3 0 .5.2.5.4 0 3 5 41.2 6.4 48.1l1.9-3.6M167.5 505.3c.2 0 .3.2.3.5-.2 2-.4 4.7-.1 6.7a626.5 626.5 0 0 1 22.9-33.8l.3.1c.2.2.2.4 0 .6a653 653 0 0 0-22.7 33.8l3.9-1.3 2.3-.7c.2 0 .4 0 .5.2 0 .3 0 .5-.3.6l-2.2.7c-1.7.6-3.4 1.2-5 1.6-.2 0-.4 0-.5-.3-.7-2-.5-6.5.1-8.4 0-.2.3-.3.5-.3M236.8 336.8c-1-1.9-5.2-3.8-9-5-2-.7-3.8-1.2-5.1-1.4l-.6-.1a31 31 0 0 0-1.6-.3H219l-.8-.2-.1.2-.4 1.2-.1.2-.6 1.2-.1.2-.6.8-.2.2-.8.7c-2.6 1.8-10-.1-12.4-1.8h-.2v-.1l.6-2.2H200l-5.8.2c-4.7 0-8.7-.2-13-.8-.5 0-1 0-1.5-.2h-.2l-1.3-.3v.1a41.3 41.3 0 0 1-.1 1.9 21.3 21.3 0 0 1-.2 1.4c0 .2-.2.5-.6.6l-.6.1c-.6 0-1.5 0-2.5-.2h-.2c-2.4-.6-5.1-1.5-5.4-2.2v-.4l-.5.4-.4.5-.2.1a34.1 34.1 0 0 0-1.2 1.4l-.3.3-.4.4-.3.3-.3.5-.3.3-.4.5-.3.3a24.5 24.5 0 0 0-1.4 2.1l-.2.3-.3.5-.2.3-.2.4-.2.3-.1.4-.1.2-.1.4v.2l-.1.5v.1l.1.3.2.2c3 1.7 9.2 2.4 12 .6l.4-.3.3-.1c2.8-1.8 4.8-3 7.6-2.8l.5.1 2.9.6a55.1 55.1 0 0 1 5.9 2.4c3.8 1.6 7.5 3.2 12 3.6l2.8.2H212.4l2-.2.9-.1 2.7-.4.9-.1 1.9-.4 1.1-.2 1-.2v-.2l.4-.6v-.3l.2-.6v-.2-.6-.1l-.2-.6v-.1l-.3-.5-.1-.1-.3-.5-.1-.1a15.6 15.6 0 0 0-1.5-1.7l-.3-.5v-.3c0-.3.1-.6.5-1h.1l.4-.2c.4-.2.8-.3 1.3-.3.6-.1 1.3 0 1.6.2.6.5 1.3 1.7 2 3l.1.5a9 9 0 0 1 .7 2.8l-.1.8c2.2-.7 8.4-2.7 9.5-5v-.1c.2-.5.2-1 0-1.4zM219 324.2h.2c1.4.4 2.7.6 3.5.1.2-.1.4-.3.5-.6.2-.3.3-.6.3-1 .4-2.5.4-4.3-.2-5.4-.1-.4-.4-.7-.7-.9-.7-.5-2.6-.8-3.6-.5h-.1v.5a96.7 96.7 0 0 1 .2 5.5v1.9l-.1.4zm-5.3-19.4a1.7 1.7 0 0 0-.3.4 58 58 0 0 0-3.5 8.3h.3v.1l.4.2.2.1.3.2.3.1a39.2 39.2 0 0 1 .6.4l.2.1.4.3.2.1.3.2.1.2.3.2c.3.4.3 1 .2 1.8v.5c-.6 3.3-3.4 9.6-5 10.8h-.1l-.1.1c-1 .6-2.4.3-3.5 0h-.3l-.2.5-.4 1.2v.4l-.5 1.2c2.3 1.4 8.9 3 11.1 1.7h.2l.6-.6.2-.2.5-.7.2-.4a8.5 8.5 0 0 0 .5-1v-.3c.4-.7.6-1.7.8-2.8l.1-.3.1-.8.1-.8v-.6c.2-1.7.3-3.7.2-6v-.5a95 95 0 0 0-.3-5.7l-.1-.7a132.4 132.4 0 0 0-.4-3.4c-.4-2-1.2-3.5-3.7-4.3zm-.8 13c.2-1.2 0-1.5 0-1.5l-.3-.3-.4-.3h-.2c0-.2-.2-.2-.3-.3l-.2-.1-.3-.2-.3-.2-.2-.1-.3-.2h-.2l-.2-.2h-.2l-.1-.1-3.1 8.7-.4 1.2a576.2 576.2 0 0 0-1.2 3.8v.1h.2c.9.3 2 .5 2.7.2l.2-.1a18 18 0 0 0 3.5-6.3c.6-1.4 1-3 1.3-4zm-36.1 5.3c-.7-1.1-2.2-1.5-3.8-1.8l-.7-.1a31.2 31.2 0 0 0-3 9.5l.3.2a20.8 20.8 0 0 0 7 1.7h.4v-.1l.1-1a27.6 27.6 0 0 0-.3-8.4zM165 343.9V345.7l.1.2.1.2.1.2h.1l.3.2c2.5.8 3.2.8 5 .6h.4c1-.6 1.6-2.3 2-3.4v-.4l-.7.4-.4.1-1 .2-.4.1a13.6 13.6 0 0 1-3 .1h-.5a19.4 19.4 0 0 1-1.9-.2h-.2zm33 2v.2l-.2.5-.1.3-.2.7-.1.3-.3 1-.7 2.4-.3 1.1v.3l-.3.9v.2l-.3 1 .6.1a19.2 19.2 0 0 0 .8 0l.3.1h.6c1.4 0 1.6-.3 2.4-1.7a29 29 0 0 1 .6-1l.2-.4.3-.5.2-.4.3-.5.2-.4a44 44 0 0 0 1.1-2.4l.2-.3.1-.5v-.1h-.6a27 27 0 0 1-4.8-1zm-1.7 15.3l.6.6c.7.5 2.2-.4 4.1-2a109.9 109.9 0 0 0 10.5-11.2l.4-.5.4-.5.2-.3.4-.5h-.2a64 64 0 0 1-4 .2h-.4l-3.5-.1h-.5a10 10 0 0 1-.6 1.7 24.8 24.8 0 0 1-.4.9l-.3.5-.2.4c0 .2-.2.4-.3.5l-.2.5-.3.5-.3.5-.2.4-.2.3-.4.6c-.4.8-.7 1.3-1.1 1.6-.5.4-1 .5-2 .5h-.6-.3-.8-.7l-.1-.1-.4 2v.2l-.2.5V359c0 .4.8 1.3 1.6 2.2zm11-6.3l.5.1h1a4.6 4.6 0 0 0 1 0 3.3 3.3 0 0 0 .5-.3h.3c0-.2.2-.2.3-.3l.2-.2.4-.4.7-1.2.2-.4.4-1v-.2l.2-.4v-.2l.1-.3v-.2-.3-.4c-.1-.2-.2-.3-.4-.3l-.1-.1h-.2l-.9 1-.1.2c-1.2 1.5-2.3 3-3 3.7l-.3.3-.9.9zm19.1-12.4c0-.5 0-1-.3-1.6-.5-1.7-1.5-3.5-2.1-4-.2-.2-1.3-.2-2.1.2-.3.1-.5.3-.5.4 0 .2.4.6.8 1l.4.4.4.6a7.8 7.8 0 0 1 .5.6c.7 1.1 1.1 2.5.3 4.1.4 0 .8-.2 1.1-.3.5 0 1-.2 1.3-.3.2-.3.3-.8.2-1zm1 1.6h-.3l-.4.2c-4 1.2-8.3 2-12.7 2.4 0 .2-.5.7-1 1.3l.8.8c.6 1.5-.7 4-1.6 5.4-1.2 1.8-3.7 2-5.6 1.3-5.2 5.4-8.4 8.3-10.2 7-.6-.6-2.5-2.5-2.5-3.4-.1-2 2.9-12 3.3-13.5-2.3-.7-4.5-1.6-6.7-2.6-1.9-.7-3.8-1.6-5.9-2.3-4.5-1.5-6.5-.4-10.2 2l-.5 1.2c-.6 1.7-1.4 3.9-3 4h-.1c-2 .3-2.9.2-5.4-.6-1.5-.4-1.3-2.7-1.2-3.6-1.3-.3-2.5-.7-3.4-1.2-.4-.3-.7-.7-.7-1.2-.3-3 6.4-10.2 8-11.7l.3-.1c.4-2.5 1.9-6.9 3.3-9l.1-.3h.3c.3.2.7.2 1 .3 1.6.3 3.5.7 4.3 2.2.5 1 .7 3.5.6 5.8a105.8 105.8 0 0 1 3 .5 120.8 120.8 0 0 0 22.5.5c2.2-7 8-24.7 9.8-25.5h.5c3.6 1.2 4.2 3.6 4.4 5.8l.5 5.2h.5c1.3-.2 3 .1 3.8.7 1.5 1 1.9 3.5 1.2 7.1-.1 1-.5 1.8-1.2 2.2-1 .7-2.6.4-4.2 0 0 1.5-.3 2.9-.5 4l4.4.5c3.1.6 12.8 3.4 14.7 6.9.4.7.4 1.4.1 2-1 2.6-6 4.4-10.1 5.7z" fill="#555556" fill-rule="nonzero"></path><path d="M205.8 308.9l-2.8-1a265.7 265.7 0 0 1-5.6-2.1l5.8 1.5c1 .2 2 .4 2.9.8.9.3 1.8.6 2.7 1.2-1 0-2-.2-3-.4M202.9 312.5l3.6 1.3v.1c-1.3 0-2.6-.3-3.8-.6-1.2-.2-2.4-.6-3.7-1a432.1 432.1 0 0 1-7.2-2.2l7.4 1.6 3.7.8M196.6 316.7l4 1c.7 0 1.4.2 2 .4.6.3 1.3.6 1.8 1-.7.1-1.4 0-2-.2-.7-.1-1.3-.4-2-.7-1.3-.4-2.5-1-3.8-1.5M199.4 322.6l3.5 1.3v.1c-1.3 0-2.5-.3-3.7-.6-1.2-.2-2.4-.8-3.5-1.2a279.2 279.2 0 0 1-6.9-2.7l7 2 3.6 1.1M189.5 347.2a146.5 146.5 0 0 1-4.4-1l4.5.4c.7 0 1.5 0 2.2.2.8.2 1.5.3 2.2.7-.8.2-1.5.2-2.3.1-.7 0-1.5-.2-2.2-.4M189.5 351.6l-3.6-.6a393.7 393.7 0 0 1-7.3-1.6l7.4.9 3.7.5 3.6 1c-1.3.1-2.5 0-3.8-.2M190.1 356.6a128.3 128.3 0 0 1-6.1-1.5l4.2.5c.7 0 1.4 0 2 .2l2 .7v.1h-2M193 568.7h.6l4.8.9 2.3.4 3.1.6c1 .2 1.9.2 2.9.2h2.4l2.7.3h.7a665 665 0 0 1-5.2-1.3l-.4-.1-.8-.2a100.5 100.5 0 0 1-2.6-.7l-.5-.2a161.8 161.8 0 0 1-2.3-.6h-.2l-2-.6-.6-.2-.4-.2h-.1l-.4-.2-.2-.2h-.2c-.2-.2-.4-.5-.4-.8 0-.3.1-.5.3-.6v-.1l.5-.4.2-.1a46.7 46.7 0 0 1 7-4.2l.7-.2c.7 0 1.3.1 2 .3l.5.1a139 139 0 0 0 11.2 2h.8l.7.1.4.1.8.1.5.1.5.1 2.8.5 2.7.3h.9a9.2 9.2 0 0 0 .7.1c.6 0 1.2.1 1.6.4.5.3.5.7.5.9v.2c-.3.6-1 1.3-2.1 2a21.1 21.1 0 0 1-1 .5 516.8 516.8 0 0 0 5.3-2.1c1-.3 1.9-.6 2.5-.6h1.1v-.1l.2-.2h.1l.4-.3.2-.5v-.1c.2-.4.3-1 .4-1.7v-.1l-1.3-.4a168.5 168.5 0 0 0-5.4-1.8h-.5a40.4 40.4 0 0 1-5.2-2h-.2l-.3-.2c-.6-.3-1.3-.7-1.7-1.2a1.6 1.6 0 0 1-.4-1.3v-.2-.2l-1-.2-1-.4-.4-.2c-.6-.2-1.1-.5-1.6-.9a13 13 0 0 1-3.7-4.4l-1-1.8-.2-.5-.1-.3c-.6-1.1-1.1-2.3-1.8-3.4a8 8 0 0 0-.4-.5c-.1-.2-.3-.4-.5-.4-.2-.1-.6 0-1.2.3-.9.4-1.8.8-2.7 1.4l-1.1.6-2.9 1.5c-1.3.6-2.6 1.2-3.8 2a60 60 0 0 1-2.5 1.8c-4.5 3-10.6 7-8.7 12v.2l.8.1.8.5a4 4 0 0 1 1.4 2.7c.2 1.5-.5 2.8-1.6 3.1.7.3 1.7.4 2.6.5m36.1-3.9h-1.3l-2.9-.4-1.9-.3-.7-.2h-.8l-.8-.2-.6-.1-.5-.1-.7-.1h-.3l-.7-.2h-.8l-.3-.1h-.3-.1a148.2 148.2 0 0 1-9.2-1.7h-.3l-.2-.1c-.8-.2-1.5-.4-2.2-.1l-.5.1a21 21 0 0 0-1.8.9l-2 1.3a58.3 58.3 0 0 0-3 2.1l-.2.2.7.4h.2a282.7 282.7 0 0 0 17.8 4.8c.2.1.4.2.6.1H217l1-.1.7-.2 1-.2 1.3-.4.5-.2 3-1c2.4-1 6.2-3 6.3-3.8l-.1-.1c-.3-.2-1-.2-1.4-.3m-11.5 8.2l1.2 1.4.9 1 .4.4.4.4.5.6a9.9 9.9 0 0 1 .3.3c.2.3.4.5.7.6.9 0 5-1 6-1.4l1.4-.4 1.4-.5 5.8-2h.2c.5-.2 1.2-.4 1.4-.7v-.2-.4l-.1-1.6-.1-1.2c0-.7-.2-1.5-.4-2.2l-.1-.7-.1-.3h-.2H236.7c-1 0-2.5.5-4.3 1.2l-2.7 1c-3.8 1.6-8 3.4-11.4 3.8H217l.6.9m20.6-6.9l.6 2.9v.3l.1 1v.1l.1 1.6a36.5 36.5 0 0 0 2.2 0 9.5 9.5 0 0 0 2.7-.6c4.2-1.4 4.7-2 4.8-2.2l-1.6-.8-.3-.1-2.6-1-.8-.2-.6-.2-1.2-.3a42.7 42.7 0 0 1-3.4-.6v.1m4.5 8l.6-.1 1-.1a17 17 0 0 0 3.6-1.2l.4-.1c2.2-1 5.3-2.7 6.9-4.5.3-.4.5-1 .7-1.6.3-1 .5-2.4.3-3.7a6.4 6.4 0 0 0-1-3l-.1-.2-.4-.4v.4l.2 1a10.2 10.2 0 0 1-.4 2.2l-.6 1.2c-.3.3-.7.4-1 .4h-.2c-1-.3-1.8-1.7-2.3-2.7l-.2-.2-.8-2.5a11.5 11.5 0 0 0-.9-2.5l-.4-.4-.2-.1a5.5 5.5 0 0 0-.6-.3l-.4-.2-.3-.1-.2-.1v.2l.1.2a85 85 0 0 0 1 4.2 15.4 15.4 0 0 1 .5 2.7v.9a1.3 1.3 0 0 1-.2.5.8.8 0 0 1-.5.4c-.6 0-1.1-.1-1.7-.3l-.3-.1-.6-.2c-.5 0-1-.2-1.4-.3l-1.2-.3-2.7-.6h-.1l-.1.8-.2.7v.1l-.2.5v.1l-.2.3h-.1l1.6.4c1.2.2 2.4.4 3.6.8l.8.3 2.6 1h.3l1 .5h.2l.2.2.3.1.3.3v.8c-.2.6-1.2 1.2-3.4 2l-1.8.7-.5.1-.5.2c-.8.2-1.6.5-2.5.4H239l-.1.2-.4.4-.2.1a4 4 0 0 1-.5.3l2.3.1h2.6m14.5-10.4h.2l.5-.1c.2-.3.3-.7.1-1.1 0-.3-.2-.5-.3-.7l-.1-.2a1.6 1.6 0 0 0-.9-.7l.3 1.9v.9h.2m-5.9-3.1l.3-.5v-.1-.1c.2-.2.2-.5.2-.8v-.1l-.1-1c-.4-1.3-1.5-2.2-2.4-2l-.1.1.1.2.2.4.1.2.2.4v.3l.2.5v.3l.2.5.6 2 .4-.2.1-.1m-.6-7.2h-.2l-.6-.3h-1.5l-.6.3-.1.1a3 3 0 0 0-.3.3l-.2.1a3.6 3.6 0 0 0-.4.6l-.1.1a21.2 21.2 0 0 1 1.7.9h.1a2 2 0 0 1 .9-.3c.6 0 1.2.2 1.8.6.5.5 1 1.2 1.3 2v.1a4 4 0 0 1 0 2.3l-.2.5-.3.3v.1l-.3.3h-.1a2 2 0 0 1-.4.3l.1.2.2.3v.1a11.3 11.3 0 0 0 .8 1l.2.2h.1l.3.2h.1l.3-.2.2-.2a7.5 7.5 0 0 0 .5-2.7v-.8l-.1-.2v-.6-.2-.3c0-.4 0-.7-.2-1.1l-.1-.4-.3-.7-.3-.6-.2-.3-.6-.8a5.7 5.7 0 0 0-.8-.7l-.7-.5m-11.4 8.4h.3l2.7.7 2.6.6.6.2 1.6.4v-.1-.1l.1-.1v-.2-.3-.1-.3-.2l-.1-.3v-.3l-.1-.4-.1-.3-.1-.5-.1-.3a63.1 63.1 0 0 1-1-4.2v-.3-.1l-.1-.3v-.2l-.7-.4-.3-.1-3-1.7-1-.5-2.5-1.3-.4-.2.7 3.3.1.6.2.8.1.7v.5l.2.8v.4l.2.9a10.5 10.5 0 0 1 0 1v.5l.1.6a13.6 13.6 0 0 1 0 .8m-8.3-14.2l-.3-.2c-.9-.5-2.3-1.2-2.8-.8-.2.1-.2.6-.2 1.1a17 17 0 0 0 .1 1.6v2.8c-.1.7-.4 1.3-.9 1.9l-.4.4h-.1l-.5.4h-.1a3.5 3.5 0 0 1-1.4.3v.2l-.1.2v.4c.2.6 1.2 1.1 2 1.5h.2c1.5.9 3.3 1.4 5 2h.5a118 118 0 0 1 5.5 1.8l1 .3a22 22 0 0 0-.1-1.8v-.2l-.1-1v-.2a40.2 40.2 0 0 0-.4-2.4v-.3l-.3-1.3v-.3l-.3-1.4-.1-.3-.4-1.8-.8-.5a298.3 298.3 0 0 0-4-1.9s-.2 0-.3-.2l-.7-.3m-4-1l-.3-.8-.2-1-.6-1.3-.2-.5-1-1.5-1.1-1.4a9.7 9.7 0 0 0-2.7-2l-1.5-.6-1.4-.3-1.3.1a4.7 4.7 0 0 0-2.2 1.2l-.3.4-.4.5-.4.7-.2.4-.3.8-.1.5a5.1 5.1 0 0 1 .6.8l1 1.6.2.6.6 1.2.4.9.8 1.4c1.2 2.3 2.7 4.4 5.4 5.5 1.5.5 3.4 1 4.5-.4.8-.9.7-2 .7-3.2v-.9-.1-.6-.2l-.1-.8v-.2-.6-.1m-16.5-6.3c-.3-.4-.7-.8-1-.9a42.5 42.5 0 0 0-18.1 9.6c-1.8 1.8-4.6 4.9-4.6 6v1.1l.1.5.1.4.3.5s0 .2.2.3l.3.3.2.1a8 8 0 0 1 1.3-2.6l.1-.2 1-1.2 1.1-1 .2-.2 1.2-1 .2-.2a40.5 40.5 0 0 1 2.7-1.9l.2-.2a189.3 189.3 0 0 1 3.6-2.4l.1-.1c1.3-1 2.7-1.6 4-2.2a29.8 29.8 0 0 0 4.5-2.4l.3-.2 1-.5.9-.4.7-.3h.1l-.1-.2-.6-.7M191 564.6a3.7 3.7 0 0 0-1-1.6c-.2-.2-.5-.3-.8-.3h-.3c-.4 0-.7.4-.8.9l-.1.3c-.1.5-.1 1 0 1.6l.1.2c.2.5.5 1 1 1.4.3.3.6.4 1 .4h.1c.6-.2 1-1 1-2 0-.3 0-.6-.2-.9m-2.8-3c-.3-.9-.4-1.7-.3-2.5h-.1c-1.3-.7-2-2-1.9-4.1 0-1.2 1.7-3.3 5.7-7.4a42 42 0 0 1 18-9 3 3 0 0 1 1.6 1.2l.5.7.5.6a6.3 6.3 0 0 1 3-4.2c.6-.3 1.3-.5 2-.6 1.3-.1 2.7.2 4.1.9 2.1 1 4 3 5.2 5.3.6 1 1 2.1 1.2 3.2 1-.5 2.6.4 3.8 1l.7.4a223.4 223.4 0 0 1 13.8 7 4 4 0 0 1 2.3-1.8l.6-.2c1 0 2.1.3 3.1 1a7.8 7.8 0 0 1 2.9 5.2c.2 0 .4.1.5.3.4.3.8.8 1 1.4 1.7 0 2.3 1.6 2.5 2.1.3.7.2 1.4-.2 1.9-.4.4-.9.6-1.5.4-.1 1.6-.5 3.2-1.3 4.2-1.7 2-4.9 3.8-7.1 4.7-1.7.7-3.7 1.5-6 1.5-2 0-4.3 0-6.8-.2a149.2 149.2 0 0 1-6.2 2l-1.4.5c-.5.2-5.2 1.6-6.4 1.4-.6 0-1-.5-1.3-.9l-.2-.2a27 27 0 0 1-2.1-2.4s-1.4-1.5-2.1-2.5l-.4-.1-.5-.2c-1.2 0-2.5-.1-3.7-.3l-2.6-.2H207l-3.3-.3-3.1-.6c-2.4-.4-4.8-1-7.1-1.2h-.6c-1.9-.3-4-.5-5.2-2.3-.7-1-.9-2.4-.6-3.7.2-.9.5-1.6 1-2" fill="#555556" fill-rule="nonzero"></path><path d="M223.4 547a5.9 5.9 0 0 0-1.2-3.1 5.2 5.2 0 0 0-1.8-1.7h-.1l-.6-.3h-1.2c-.2 0-.4 0-.6.2-.5.2-.8.7-1 1.2a5 5 0 0 0 .3 4v.1l.5.7.1.1c.5.7 1.1 1.2 1.8 1.6l.4.1c.4.2.9.3 1.3.2.3 0 .5 0 .7-.2.7-.4 1.2-1.1 1.3-2v-.7-.2m.8 1a4.5 4.5 0 0 1-.5 1.6 3 3 0 0 1-1 .9l-.2.1c-1 .5-2 .5-3.2 0l-1-.7a6.7 6.7 0 0 1-2.4-5v-.3c0-.6 0-1 .2-1.5.2-.6.6-1 1-1.5.2 0 .4-.2.5-.3a3 3 0 0 1 1-.3h.2a3.4 3.4 0 0 1 1 .1l1 .3.3.2a4.6 4.6 0 0 1 1 .8l.3.3.4.4.2.3a7.1 7.1 0 0 1 1.2 2.7v1.8M204.2 553.6l.4 1h.1c.2.3.3.6.6.8l.6.3c.2.1.4.2.6.1h.1c1-.2 1.4-1.7 1-3.1a4 4 0 0 0-.4-1c-.2-.4-.4-.6-.7-.8l-.1-.1-.2-.1-.1-.1-.2-.1h-.2-.2-.3l-.3.1h-.1l-.2.3-.2.3a2.5 2.5 0 0 0-.3 1.3l.1 1.1m-1-1v-.1c0-1.4.7-2.5 1.8-2.8H205.3c.1-.1.3-.1.4 0h.5l.4.2c.8.5 1.4 1.3 1.8 2.5.5 2-.1 3.8-1.5 4.2a2 2 0 0 1-.6 0c-.5 0-1-.2-1.5-.6a3.7 3.7 0 0 1-.8-1h-.1a4.5 4.5 0 0 1-.5-1.2v-.1a5.8 5.8 0 0 1-.2-1.1M201 554v-1-.4-.7l-.3-1h-.2l-.3.2a5 5 0 0 0-.5.3l-.2.1a71.7 71.7 0 0 0-8.5 7.2 14.4 14.4 0 0 0 .1 3c.2 0 1-.2 2-.9 1.3-.8 2.5-1.8 3.6-2.7l.3-.2 1.5-1.3.4-.2 1.5-1.3.7-1m-10 8.3h-.3a.8.8 0 0 1-.5-.5v-.6a10 10 0 0 1-.2-2.7c.1-1.2 5.6-5.4 9-7.8l.5-.4.6-.3H201.1l.5.8.1.9v.1l.1.3v.2l.1.5v1.3c-.2 1.1-1.5 2.1-2.5 2.8l-.4.3-1.3 1-.5.4c-.8.8-1.8 1.5-2.7 2.2l-1 .6c-.4.4-1.7 1-2.5 1M241.6 560.5l.4.2 1 .3h.1l1 .3h.2c.2.1 1 .3 1.3.2l.1-.2v-.2-.1c-.4-.5-2-.7-2.6-.7h-.2l-.3-.1h-.3c-.9-.2-1.3-.2-1.4 0h-.1l.1.1.3.1.3.1m-1.4.1l-.1-.5v-.2c.2-.4.6-.6 1-.7l1.5.1h.2l.4.1.6.1c1 .1 2.1.3 2.6 1l.2.3v.5c0 .2 0 .4-.2.6v.2a1 1 0 0 1-.5.2h-1.4l-.3-.1-1.6-.5-.8-.2-.6-.2-.2-.1h-.2l-.2-.1-.2-.2-.2-.2M259.8 564l1.7.8 1.8.8c.2.1.3.3.2.5l-.2.5c-.4.8-.7 1.5-.3 2.2.2.4.5.6.9.6.5.1 1.2-.2 1.7-.6.1-.1.3-.2.4-.1l.3.3c.1.5.5.8.8 1 .6.3 1.4.4 2 .2.8-.3 1.6-1 1.7-1.7 0-.4-.1-.7-.5-1a.4.4 0 0 1-.2-.4c0-.2.2-.3.4-.3.8-.1 1.5-.7 1.7-1.6.2-1-.1-1.2-1.2-1.5a.4.4 0 0 1-.2-.7c.4-.2.4-.5.2-.9-.2-.3-.3-.3-1-.1h-.4a.4.4 0 0 1-.2-.4c0-.4-.2-.7-.5-.9-.3-.2-.8-.3-1.3-.1-1 .2-1.2.7-1.4 1.8l-.1.5-.3.3h-.4c-.5-.4-1-.3-1.4 0-.4.2-.6.5-.5.8 0 .2 0 .3-.2.4-.1.1-.3.1-.4 0l-2.8-1.3a.4.4 0 0 1 .3-.8l2.3 1.2c.1-.4.4-.8.8-1 .6-.4 1.3-.5 1.9-.3.2-1.2.5-2 2-2.4l.4-.1c.6-.1 1.2 0 1.6.3.4.3.6.7.7 1.1.5-.1 1-.1 1.6.5.3.5.4 1 .1 1.5.9.4 1.5 1 1.2 2.3-.2 1-.8 1.6-1.6 2 .2.3.3.7.3 1.2-.2 1-1.3 2-2.3 2.4-.9.2-1.9.1-2.7-.3-.4-.3-.8-.6-1-1-.6.4-1.3.6-2 .6a2 2 0 0 1-1.4-1c-.6-1.1-.2-2.2.2-3v-.2a14 14 0 0 0-1.3-.6l-1.8-.8a.4.4 0 1 1 .4-.7M312 365.7a93 93 0 0 1-1.9-7.6l-.1-1a38.6 38.6 0 0 1-.7-8.7 91 91 0 0 1 0-4.2c-1-.5-6.1-1.6-12.4-2-3.8-.3-8-.3-12 .1h-.1c-2.8.3-6.2 1.4-8.2 2l-.4.1-.2.1-.4.1h-.2l-.1.1v2.7c-.1.1 0 .3 0 .4V349.1l.5 3.4v.6a83.3 83.3 0 0 0 1.3 7.2l.3.7a73.1 73.1 0 0 0 5.4 13.8 34.9 34.9 0 0 1 2.4 6.8 37 37 0 0 1 10.1-2.4c4-.5 8.2-.6 11.6-.3l2 .1h.2l.5.1h.4a69.7 69.7 0 0 1 1.7.2l.7.1h.4l.6.1h.4l.6.1h.4a136.3 136.3 0 0 1 1 .2h.5l.4.1.4.1a18.2 18.2 0 0 1 1 .2l-2.2-4.6-.6-1.5-.6-1.3a55.8 55.8 0 0 1-2.6-7zm-37.6-20.2a312.6 312.6 0 0 0-5.4 5.7l-.6 1-.8 1.1c-.9 1.4-1.9 3-2.2 4l-.1.4a33.3 33.3 0 0 0 2.5 4.8c1.3 2.3 2.7 4.7 3.4 7.3l.6 1.8 1.6 5.6 1.3 4.6 1.6 5.8.9 2.8.9-.8 1.2-1.2a48 48 0 0 0 2.2-2.5l.1-.1a68.7 68.7 0 0 0 1.8-2.2l.1-.2a20.1 20.1 0 0 1 1.1-1.3c-.4-.6-.6-1.3-.8-2v-.2l-.2-.9a37.8 37.8 0 0 0-2.6-6.3c-.5-1-1-1.9-1.3-2.8l-.2-.4-.3-.8-1-2.3-.1-.5-.9-2.4-.2-.7a58.2 58.2 0 0 1-1-4l-.3-1.4-.1-.5-.1-.6-.5-3c0-.7-.2-1.4-.3-2l-.2-2v-.5h-.1l-.3.8c-.3.7-.6 1.4-.7 2.1v.3l-.7 2.8-.3 2.2-.2.8.3.8.4 1.3.7 2.1a57.3 57.3 0 0 1 2.8 7.4c.5 1.9 1 3.8 1.3 5.7a209 209 0 0 1-3.1-8.5l-1.7-4.3-.8-2-.3-1.2-.3-.8a4.8 4.8 0 0 1-1 0h-.8-.2l-2.3-.4h.4c.7-.2 1.3-.3 2-.3l1.9-.2.1-.9.3-1.9.7-3c.2-1 .6-2 1-2.8v-.3l.5-1.4.2-.8.1-.7v-.1zm4.2 46.3h.4l-.2-.7v-.2-.7-.2l-1.4 1.3c.2.3.5.4 1.2.5zm4.4 5.4l.2-.1 1-.2H285.4l.5.2a19.8 19.8 0 0 1 0-.9v-.5-.5l.1-.4.1-.5.1-.4.1-.5.2-.4v-.4l.3-.5.1-.3.3-.6.1-.3.5-.9.4-.8.2-.6v-.3c.2-.3.2-.5.2-.8v-.2l.1-1c0-1.4-.2-3-.8-4.8a21.9 21.9 0 0 0-2.3.8l-.1.1-.2.2-.3.3a54.7 54.7 0 0 0-2.4 3l-.4.4c-.7 1-1.5 1.7-2.2 2.5l-.2.2-.2 1v1.2c.2.9.6 1.6 1 2.3 0 .2.2.4.3.5l.3.6a12.5 12.5 0 0 1 1 2.3v.6h.2l.6-.3zm-.8 3.6l.2.7c0 .2.2.3.3.5.3.2.8.4 1.5.3H284.5l.4-.2c.7-.2 1-.7 1.1-1.4v-2-.5c-.1 0-.2 0-.2-.2h-.1l-.1-.2h-.3c-.3-.1-.5-.1-.8 0a4.8 4.8 0 0 0-1.7.3l-.5.4v.7c0 .6-.1 1.1 0 1.6zm6-9.5a4 4 0 0 0 1 1.6c.8.8 1.8 1.1 2.6 1 1.2 0 2.2-.8 2.5-2.2l.1-.6v-.3-.6-.4a18.9 18.9 0 0 0-.3-2l-.1-.6-.3-1.4-.1-.5-.3-1c0-.3 0-.5-.2-.8l-.1-.6v-.2h-.1l-.2-.6-.2-.8-.2-.9a39.4 39.4 0 0 0-3.6.9c.6 1.9.9 3.6.9 5v.1l-.1 1v.3l-.2.8-.1.4-.2.6-.5 1v.1l-.4.6.1.1zm2 4.8c-.6.8-.9 2-.9 3.2v.1h.2c.1-.2.3-.3.6-.4.5 0 1 .3 1.6.7l1.2 1.3.8 1 .3-1.5c.3-1.2.8-1.6 2.7-2-.5-.6-1-1.2-1-1.8 0-.8.4-1.2.8-1.5l.2-.3.1-.1v-.1-.3l-.1-.2-.2-.1h-.1a9.2 9.2 0 0 1-1.2-.1h-.1c-.3 0-.6-.2-.8-.3h-.1l-.4.4-.4.3h-.1l-.4.2h-.2l-.4.1c-.8.2-1.4.5-1.7 1l-.4.4zm8.8-2l.6.2c1.1.4 2.3.7 3.1.3l.4-.2.2-.2v-.2l.2-.2v-.1l.2-.3v-.2l.1-.3v-.1l.1-.3v-.2-.2l.1-.2v-.2-.1h-.3l-.1.1h-.4l-.1-.3v-.2-1-.4-.6-.2l-.2-.6v-.3l-.2-.4-.2-.5-.5.1h-.3c-1.1.3-2.2.4-3.2.2-1 0-1.8-.4-2.6-.9h-.2l-1-1-.2-.2v.1a39.9 39.9 0 0 1 .3 1.6v.4l.3 1.2v.3l.1 1v1.9l-.5 1.1.6.1h.1l.5.1h.4c.5 0 .9.2 1.1.5h.2l1 .4h.4zm6.6-4.5c-.2-1-.6-2-.8-2.5v-.1a13.8 13.8 0 0 1-.2-.6l-1.3.6.1.3.2.5.1.5.1.5.1.6v1.3h.2l1.4-.3h.1v-.8zm3.9-3.7c-1.2-.4-3-.2-3.7.3 1.7 1.6 3.5 3 6 3.3h.6c-.4-1-.8-2-1.5-2.8-.4-.3-.8-.7-1.4-.8zm-16-4.1l.2.7.4.9.2.3a7 7 0 0 0 1.9 2.1c.3.3.7.4 1 .6 1.4.4 2.9.5 4.7.1 1.1-.2 2.3-.7 3.3-1.4.7-.5 1.3-1 1.7-1.7l.1-.2.3-.6.2-.6v-.4l.1-.7v-.3-.6l-.1-.2-.7-.1h-1.4l-.4-.1a62 62 0 0 0-2.9 0h-.3l-5.2.3a57 57 0 0 0-3.5.4v.3l.4 1.2zm21.6 18.6l.4-.2c.2 0 .5-.1.6-.3 1.8-1.1 2.2-4 1.4-8.3a38 38 0 0 0-.5-2.3v-.2a177.2 177.2 0 0 0-.3-1l-.2-.7v-.4c-.2-.2-.2-.5-.3-.8l-.1-.5-.3-1v-.3l-.4-1v-.1l-.8-2.8h-.1l-1.3-.2h-.4a237.4 237.4 0 0 0-2.8-.3h-.4l-1-.2h-.3v.4a4.3 4.3 0 0 1 .1 1.1v.5l-.2.7-.1.4-.5 1-1 1.1h.6l.2-.1h1.2c.4 0 .8 0 1.1.2.9.2 1.5.7 2 1.2a7 7 0 0 1 1.2 2.2 30.7 30.7 0 0 1 .5 1.3v.4l-.1.1-.3.1h-1.3l-.4-.2-.7-.1-.4-.1a9.7 9.7 0 0 1-1.6-.7l-.4-.2-.5-.3-.4-.3c-.2 0-.4-.2-.5-.4l-.3-.2-.7-.6v.1l.2.6.1.4.2.7v.1l.4 1 .1.4c1.5 4.1 4 11 8.3 9.8zm1.6-15.5l.1-.2.3-.3.2-.2.2-.4.1-.2.3-.3v-.2l.3-.3v-.2l.2-.3v-.2l.2-.3v-.1-.3-.2l-.4-.1-.6-.1h-.1l-.8-.2h-.3l-.7-.2h-.2l1.2 4.3zm.2 1l1 3.2c1.7 7 .9 11-2.5 12.1-4.9 1.5-7.7-5.6-9.3-10l-1.2.1v.5c0 .2-.3 2.5-1.3 3.3-1.3 1-3.2.4-4.8-.1l-1.1-.4v.1c0 .5-.4.8-.7 1-.3.4-.5.6-.5 1 0 .3.5.9.8 1.3l.5.6v.4l-.3.2c-2.6.5-2.6.5-3 2.8v.8a.4.4 0 0 1-.6.3c-.6-.2-1-.8-1.7-1.5-.6-.8-1.5-1.8-2-1.7-.3 0-.6.5-.8.8 0 .2-.2.3-.4.3a.4.4 0 0 1-.3-.3c-.5-1.6-.1-3.7.8-5 .3-.5.6-.8 1-1a4.8 4.8 0 0 1-2.8-2.5c-.8 1.6-1 3-1 5.4l.1 1c.1 2 .3 4.2-2.4 4.5h-.1c-1 .1-1.7 0-2.2-.5-.8-.8-.7-2.1-.7-3.4v-.5c-.1-.1-.2-.3 0-.5 0-.6 0-1.2-.2-1.6l-1-2.2-.8-1.4c-.2-.2-.6-.3-1-.4-.7-.1-1.6-.3-1.8-1.3l-4-13.8-2.2-7.5c-.7-2.4-2-4.8-3.4-7.1a43.5 43.5 0 0 1-2.6-5.2c.3-1.5 2-4.2 3.3-6l.6-1c.7-1 5.7-6 6.3-6.6h.1v-.1l1.2-.4c2-.6 5.4-1.7 8.4-2h.4v-.1a63.5 63.5 0 0 1 25.3 2.2 32.6 32.6 0 0 0 0 4.7c.2 3 .2 6.3 1 9.5a71.8 71.8 0 0 0 5.7 17.3 199.2 199.2 0 0 0 2.8 6c.1 1.3-1.6 3.6-2.6 4.6zM85.7 442.7c-3 .8-7.2 2-9 4.4 0 .2-.3.4-.4.6-.8 2-.3 5 .2 7.8l.2 1.5a34.7 34.7 0 0 1 .3 2.8c7.8-2.5 21.8-6.7 28.4-7.5 1.5-.1 2.6-.1 3.2 0a8 8 0 0 1 .8.5l1 .5h.1l1 .7h.2a84.2 84.2 0 0 1 2.8 2v-.1-.4-.2a17.2 17.2 0 0 0-.1-1.1v-.2-.1l-.2-.5v-.3-.2-.3l-.2-.4v-.5l-.2-.9v-.4l-.2-.5v-.4l-.2-.5v-.4l-.2-.5v-.3l-.2-.5a24.5 24.5 0 0 0-.2-.7l-.1-.3-.1-.3-.1-.3-.1-.3-.1-.1-.2-.4c-3.8-5.4-15.5-4.7-22.3-3.3a33.7 33.7 0 0 0-4 1M73 462h-.2l-.2.2-.8.2c-.4 0-.7.2-1 .3a282.8 282.8 0 0 0-1.6.4l-.2.1-.8.2.5.3 1 .2 1.1.3a129.8 129.8 0 0 0 4.8 1.1l1.8.4h.3l1.6.4.5.1 1.5.4a65.5 65.5 0 0 0 2.1.4l.6.1 1.5.3a78.4 78.4 0 0 1 2.2.5h.5l1.5.4h.5l1.4.3.5.1 1.2.3h.4l1.2.3h.2c.2 0 .3.2.3.5 0 0 0 .2-.2.2l-.3.1a480.1 480.1 0 0 1-27.6-6.1l-.2-.2-1 .3h-.3l-2.2.8-.3.1-.7.3-.2.1a19.2 19.2 0 0 0-1.5.7h-.1l-.3.3h-.1l-.2.3c.3 1 7.5 4.8 12.8 7.5a489 489 0 0 1 8.9 4.7c1.8 1 3.2 1.6 4.5 1.8 2.3.4 4.4-.2 7.9-1.2l1.2-.3 3.4-1 11.6-3.1a131.3 131.3 0 0 0 18.6-6.7l-.6-.6-.3-.2-.8-.7-.2-.2-.8-.7-.3-.3-1.1-.9-.3-.2-1-.8-.4-.3-1.3-1-.3-.2-1.1-.9-.4-.3-1.4-1-.3-.2-1.2-.9-.3-.2-1.4-1-.3-.2-1-.8c-.2 0-.4-.2-.5-.3l-1.2-.8-.2-.1-1-.7-.3-.1a38 38 0 0 0-1-.7h-.1a20.5 20.5 0 0 0-1.7-.8c-2.1-.8-12.9 1.7-29 6.8a721.6 721.6 0 0 0-6.3 2m-5.7-15c.4-.8 1.4-3.5 1-4.5l-.3-.4h-.5c-.4.3-.6 1.6-.7 2.5 0 .7-.1 1.3-.3 1.6a.4.4 0 0 1-.6.1c-.8-.6-1.2-1.7-1.6-2.7-.2-.9-.5-1.7-1-2.2-.5.6-.3 1.5.2 2.8.3 1 .6 2 .4 2.7a3.4 3.4 0 0 1 1.1-.3 3 3 0 0 1 1.8.3l.5.4v-.3m-4.1 2.6c.1.4.3.7.7.9h.3l.3.2a2.2 2.2 0 0 0 1-.1l.8-.4c.6-.4 1-1.1.8-1.8-.1-.3-.4-.6-.7-.8-.5-.2-1.1-.3-1.7-.1-1 .3-1.8 1.3-1.5 2.1m49.6-5.1c1 1.5 2.7 9.8 2.5 12a123.3 123.3 0 0 1 14.8 12l-.1.2c-3.2 2.8-20.5 7.5-30.9 10.3l-4.6 1.2c-5.6 1.6-8 2.3-13-.7l-9-4.7c-9-4.7-13-6.9-13.1-8-.2-1.2 2.2-2.3 7.4-4-.3-1-.6-3.3-1.1-6.7-.2-2-.5-3.8-.7-4.6-.5 0-1 0-1.5-.3-.6-.3-1-.8-1.1-1.3v-.6c0-.6.2-1.3.7-1.7-.7-.4-1.2-1-1.7-1.6-.7-1-1.4-1.7-2.3-1.8a.4.4 0 0 1-.3-.5c0-.2.2-.4.4-.4 1.2.2 2 1.2 2.9 2.1l1 1.2c.1-.5-.1-1.3-.4-2.1-.5-1.4-1-3 .4-4h.5a6 6 0 0 1 1.5 2.8l.8 1.8.1-.6c.1-1.2.3-2.6 1.1-3.1.4-.2.8-.2 1.3 0 .3.1.5.4.7.8.2.7 0 2-.2 3 1-1.1 2-2.1 3.3-2.2l1 .1c.5.2 1 .5 1.5 1a.4.4 0 1 1-.6.6c-.4-.4-.8-.7-1.2-.8h-.6c-1.4 0-2.7 1.6-3.8 3l-.5.6c-.1.1-.3.2-.5.1l.4.6c.3 1.3-.6 2.7-2 3.2l.6 4.6c.3 2 .7 5.3 1.1 6.7a283.6 283.6 0 0 1 7.8-2.3l.9-.3-.1-.3c0-1.1-.3-2.6-.5-4.1-.5-3-1-6.2-.1-8.3 1.4-3.3 6.5-4.6 9.9-5.5l1.6-.4c1.8-.6 4.3-1.1 7.1-1.4 6.9-.8 15.3-.4 18.6 4.4M372.5 427.3v-.2l-.4-1.1c-.5-1-1.3-2-2.3-2.9-3.7-3.6-10.6-7-17-6.9h-.7a58.5 58.5 0 0 0-19.4 3.7c-1.7.5-3 1-4 1.1a65 65 0 0 1-5 .7c-6.6.8-17.3 2.4-18.6 6v.1c-.2.4-.3 1-.3 1.4V431.6a11.2 11.2 0 0 0 .5 1.9l.2.4v-.3l.4-.4.2-.3.4-.5.2-.2c.7-.6 1.4-1 2.3-1.5l.2-.2c.3 0 .5-.2.8-.3l.4-.2.8-.3.4-.2c.3 0 .6-.2.8-.3l.6-.1a34.1 34.1 0 0 1 3.5-1l.6-.2.8-.1.7-.2a45.3 45.3 0 0 1 4.5-.8l3.6-.8h.2l2.7-1 .6-.1 2.6-.9c.2 0 .4 0 .6-.2l2.5-.7.5-.1a198.3 198.3 0 0 1 11.4-2.9h.1l.6-.1h.4l.2-.1.7-.1c7-.8 13.6.9 18 3.4 2.4 1.4 4.1 3 4.7 4.8v.1c.1-.3 0-.5 0-.8zm-65 5.3a6 6 0 0 0-.6.6l-.2.2-.4.6-.1.3-.3.9v2.3a16.2 16.2 0 0 0 .1 1.1v.3a10.2 10.2 0 0 1 1.2-1.7l.3-.4.6-.8c1-1.3 2.2-3 2-3.5l-.2-.5a1 1 0 0 0-.4-.2h-.8-.1l-.8.6-.3.2zm15.7-5l-1 .2h-.2l-.6.1a162 162 0 0 0-2.7.5l-.4.1-1.7.4-1.6.4-.4.1a42.3 42.3 0 0 0-3 1h-.2l-1.4.7.2.2.3.2.5.8v.3c0 .5-.3 1.1-.8 1.9a18.3 18.3 0 0 1-1.4 2 15 15 0 0 0-2.5 3.9l.6 2.5v.2l.9 2.4.1-.4.2-.7.1-.3.9-2v-.1l.5-.8.2-.4.5-.7.3-.4.5-.7.4-.4.5-.7.4-.4a30.7 30.7 0 0 1 3.1-3l.6-.5.5-.4.6-.4a43.8 43.8 0 0 1 1-.9l.6-.4.5-.4.6-.4a42.2 42.2 0 0 1 1.3-1l1-.7.2-.2.9-.6.9-.7a11.2 11.2 0 0 0 .7-.6h-.2l-1.5.3zM311 451l.2.1c.1.2.3.2.4.3l-.1-.2-.1-.2-.2-.6c-.1-.7.2-1.3.5-2l1-1.1.9-1.3.1-.6c.3-1.6 1-4.8 3.5-5.8h.3c2.3-.7 5.6.6 9.6 4l.7.4.3.1.4.2.4.1h.4l.5.1H331l.5-.2h.5l.5-.2.4-.2.5-.2.3-.1-.9-.6-.6-.6h-.1l-.4-.4h-.1v-.1h-.1a.4.4 0 0 1 0-.7h.2c.2-.1.3 0 .4 0l2.4 2h.2l1.9-1.1v-.1a14 14 0 0 0-.4-1v-.2l-.6-1v-.2l.1-.3a.4.4 0 0 1 .5 0l.1.1.2.3v.1l.9 1.8 1-.7-.7-.4a126.9 126.9 0 0 0-1.2-.9v-.3l.3-.2.3.1a67.2 67.2 0 0 1 1 .6l.4.2.5.3v.1l.3-.1.5-.3.2-.2-.6-2a.4.4 0 1 1 .8-.3l.3.8.2-.1h.2l.7.4 1.2-.8-.6-2.8c0-.2.2-.4.4-.4s.4 0 .5.3l.1 1h.3l1 .6 2.2-1.5.2-.2v-.6h-.1l-.1-.5a.4.4 0 0 1 .3-.6h.2l.2.3.1.3h.4v.2h.1l.1.1.3-.1 1.2-.8.3-.2v-.3c-.1 0 0-.1 0-.2v-.2l.1-.2h.1c.2 0 .4 0 .5.2a2.4 2.4 0 0 1 0 .3l1-.4.3-.1a12 12 0 0 1 2.4-.7h.3l-.4-.2a7.5 7.5 0 0 0-2-.2h-.5a13.2 13.2 0 0 0-1.8.4h-.5l-1.1.4-.5.1a28.2 28.2 0 0 0-2.6 1c-.3 0-.5.2-.8.3l-.5.2-1.2.6-.6.3c-.3 0-.5.2-.7.3l-.6.3-.8.4-.5.2-1.2.6-3.5 1.7h-.1l-1.6.8c-4.2 1.9-7.7 2.7-9.5.5a4 4 0 0 1-.8-3.6 5.8 5.8 0 0 1 .5-1.3l.1-.2.3-.4.3-.6.4-.5.5-.6.2-.2.3-.3.5-.6 1.1-1 .3-.2 1.5-1.2.2-.2.3-.2a51 51 0 0 1 3.7-2.6l.4-.2a73 73 0 0 1 1.7-1 261 261 0 0 0-8.2 2.6 8 8 0 0 1-.7.2c-.6 1-2.1 2-4.4 3.7l-3.1 2.4-.3.1a64.3 64.3 0 0 0-1.8 1.5h-.1a33.5 33.5 0 0 0-5 5v.1l-.7 1v.2l-.7 1-.1.1-.5 1-.1.2-.4 1v.2l-.3 1-.1.3-.1 1v.3c0 .3.2.6.3.8l.2.4.3.5.2.3.4.7.2.3a8.6 8.6 0 0 0 1 1zm6.2-1.7l.4-.5c1.4-1.4 3-3 5.1-2.8h.9l.3.1.5.1.2.1a6.5 6.5 0 0 1 1.6.8l.2.2.3.2.1.1.5.4v-.7l.2-.3c0-.1 0-.3.2-.4l.3-.4.3-.3.5-.4.3-.2-.8-.2h-.2a5 5 0 0 1-.6-.3l-.2-.1-.7-.5c-4-3.3-7-4.6-9.1-3.8-2.2.8-2.7 3.7-3 5.2v.5l-.2.3c-.2.5-.6 1-1 1.4-.5.7-1.1 1.4-1.2 2v.9l.2.2.1.2.3.3.1.1.4.3.1.1h.3c1.4-.1 2.4-1.3 3.6-2.6zm21.7-3l-.4-.2v.5l.4-.3zm3.3-2.9l-.3-.2v.4l.3-.2zm-3.2-2l-1.2.9h-.1l.6 3 1.3.3.8-.7.9-.8-.5-1.6-1.7-1h-.1zm-3.7 2.3a19.8 19.8 0 0 0 2.1 1.1l-.5-2-.1.1-1.5.8zm-1 .5l-.8.4h-.2l-1 .4h-.1c-.8.2-1.5.4-2.1.4v.1l-.2.2c-.7.4-1.4 1-1.7 1.6l-.1.6v.1l.2.4.2.2.2.3.3.2.3.2.3.2.4.2.4.2.3.2.4.2h.3l.4.2.2.1.4.1h.4c.4 0 .9-.2 1.3-.5h.2l.5-.4h.2l.4-.4.2-.2.5-.4.2-.2.6-.5.2-.2.6-.6v-.6-.1l-.1-.7a15.2 15.2 0 0 1-3.1-1.7h-.1zm5.6-3.3l.2.1.3.2-.2-.6-.3.3zm.8-1.9v.3l.2-.1-.2-.2zm3 3.3l-.1-.1-.3-1.7h-.3l-.4-.4-.4-.2a55.3 55.3 0 0 1-.6-.3l-.6.5.5 1.8a53 53 0 0 1 1.4 1l.7-.6zm.8-1.1l-.3-.2.2.8.6-.4-.5-.2zm-2.1-2.1l.5.3h.2l-.2-.7-.5.4zm1-2.2l.1.3.2-.1v-.1l-.2-.1zm3.4 3.4c.3 0 .5-.2.8-.3v-.1-.6l-.1-.1-1.6-.8-1.4-.9-.8.6.3 1.9 1.8.8h.1c.3 0 .6-.3.9-.5zm2-5.7l.4.4.4.3.5.4.4.2v-.2l-.2-.7a18.6 18.6 0 0 0-.2-1.2l-.6.4-.8.4zm3.1 3l-.4-.2.1 1 1.2-.5c-.4 0-.6-.2-.9-.3zm2.3-.6v-.6-.2l.1-.5-.9-.3h-.2a6 6 0 0 1-.7-.4l-.1-.1a9 9 0 0 1-.8-.5l-.1-.1a10 10 0 0 1-.5-.5l.2 1.2v.1l.2 1.3 1 .5.4.2 1.2.3h.2v-.2-.2zm-6.2-2l-.2.2a39.5 39.5 0 0 1 .2 1v.6l.1.2v.7l.1.3V438.7l1.3.5 1.3-.5v-.1l-.2-1.4v-.1l-.2-.2a14 14 0 0 1-1-.6l-.3-.2-.6-.5-.3-.2-.2-.2zm-2.8 2a31 31 0 0 0 2.2 1.1l-.1-1v-.2l-.2-1.2-.2.1-1.3 1-.4.2zm9.3-4.8h-.4l-1 .2-.3.2c-.4 0-.8.2-1.2.4h-.1v.1a5.3 5.3 0 0 0 .6.5 17013 17013 0 0 1 .5.4v.1l.5.2.1.1a4.2 4.2 0 0 0 1 .4h.6l.2.1h.1v.3l.1.1v.7l-.1.5v.7l2-.5a4.6 4.6 0 0 0 .5-.5h.1l.3-.5v-.1l.3-.6c0-.4 0-.9-.4-1.3a3.5 3.5 0 0 0-2.1-1.5h-1.3zm-24.6-3.7h.2l.6.3 2.7.9h.2l.8.3h.3a16 16 0 0 0 2 .6l.3.2 1.1.3h.3l.8.3.5.1.7.2.5.1a83.9 83.9 0 0 0 1.8.4h.3l1 .2 2-.8.2-.1h-.3l-.5-.2-.7-.1-.5-.1a73.7 73.7 0 0 1-2.4-.6h-.5a103.2 103.2 0 0 1-2.7-.7l-.8-.2-.5-.2-.8-.2h-.3a265 265 0 0 1-5.2-1.5l-.3.2-.5.4c-.1 0-.2 0-.3.2zm11.7 4.3l-1-.2-.5-.1-.7-.2a39 39 0 0 1-2.3-.6l-.5-.2c-.3 0-.5 0-.7-.2h-.4l-.9-.4h-.2l-1-.4h-.3l-.7-.3h-.3l-.6-.3h-.2l-.7-.3-1.5-.6-.2.2-.8.7c.6.3 1.8 1 3.3 1.6l.1.1 1.5.7 1.6.7 1.6.6h.2l1.5.5h.2l1.3.4h.1l3-1.5h-.4l-.5-.2zm-14.4-1.4a20.3 20.3 0 0 0 2.4 2h.2l1 .7h.2l1.3.8h.2l1.5.7h.1l1.8.6h.3l1.4-.8.3-.1.4-.2h-.1l-3-1-.3-.1a44.5 44.5 0 0 1-4.5-2h-.1l-2.2-1.2-.7-.4-.6.6.4.4zm7.7 5.4a25 25 0 0 1-1.7-.6l-.2-.1-2.8-1.4h-.1l-1.1-.8h-.1l-1-.7-.7-.6-1-1-.4.4c.6.7 2.2 2.8 4.5 4.4.8.5 1.7 1 2.6 1.3l2-1zm-10.6-2.7l.1.3.1.2.2.3.2.3a10.3 10.3 0 0 0 1.2 1.5l.4.4.5.4.5.5a13 13 0 0 0 1.6 1.1c.8-.2 1.7-.5 2.7-1l-1.1-.5h-.1a15 15 0 0 1-1-.8h-.1l-1-.7-.9-.8-.7-.8a22 22 0 0 1-.7-.7v-.1l-.5-.6-.4-.5-.5.7-.2.3-.3.5zm-.5 1l-.1.5-.1.5c0 .9.1 1.6.7 2.4l.6.5h.2a3.4 3.4 0 0 0 1.8.5l1-.1-.3-.3-.3-.2-1-.8-.2-.2-.6-.7-.2-.2-.6-.7-.2-.2a12 12 0 0 1-.4-.6v-.1l-.3-.4zm39.2.2a65 65 0 0 0 4.1-1.2l.2-.1 1.5-.7h.1l.1-.2a2 2 0 0 0 .3-.6 2 2 0 0 0 0-.5v-.3-.4-.2l-.2-.6-.1-.2-.5-.9c-2.8-4.4-9.8-4.3-15.5-4.2h-4.4c-1.8-.2-3-.6-3.5-1.5a2 2 0 0 1-.2-1.3v-.1l.1-.4.4-.5-1.3.2h-.2l-1.3.4h-.3l-1.5.5-1.8.5a11 11 0 0 0-.7.3l-.4.2-.3.2c-.2 0-.4.2-.5.3l-.4.2-.6.3-.5.3-.7.4c-.2 0-.3.2-.5.3l-.8.5-1 .6-.7.5h.1l.2.1a84.2 84.2 0 0 0 3 .8l1 .3h.2l1 .3h.3l1 .3.4.1a225 225 0 0 0 2.6.7h.3l1 .3h.5a80.7 80.7 0 0 0 2 .5h.4l.8.2h.3a26.8 26.8 0 0 0 1 .2l1.5-.4 1.6-.3h.1l1.3-.1h1.4l.4.2a7 7 0 0 1 2 .7l.4.2.7.6.3.3.8 1v.1h.1a2.5 2.5 0 0 1 .3 2.6v.1l-.3.4 1.8-.4a273.4 273.4 0 0 0 2.6-.6zm8.2-3.7v-.1l.3-.5.3-.5v-.1l.1-.4v-.3l.1-.3v-.3-.3l-.2-.6c-.8-2-3.3-4-6.6-5.5a30 30 0 0 0-15.2-2.2l-.7.1h-.3l-.4.1-.5.1a5 5 0 0 0-1.9 1c-.2 0-.3.3-.4.5v1c.6 1.2 3.8 1.1 7.2 1h.5c5.7 0 12.7 0 15.7 4.6v.2c.3.3.5.7.6 1l.1.4.2.6V432.6l.6-.4.5-.5zm1.6-1.7c-.2 1.3-1 2.6-2.6 3.6-2 1.4-5.6 2.2-9.6 3.2l-5.4 1.4v.4c.2.2 0 .5-.2.5-.2.1-.4 0-.5-.2l-.1-.5-2.7.9c0 .2-.1.4-.3.4-.2 0-.3 0-.4-.2h-.2c.2.2.3.3.2.4 0 .3-.2.4-.4.4l-1-.2a35.4 35.4 0 0 0-1.1.6c0 .3-.1.5-.4.5-.2 0-.3-.1-.4-.3l-.5.3-.3.2h.2a.4.4 0 1 1-.3.8l-.8-.3-1.5 1c0 .1-.1.3-.3.3h-.2l-.4.3.1.1a.4.4 0 0 1-.5.7l-.3-.3-.7.5v.3c.1.2 0 .5-.2.5s-.4 0-.5-.2l-.9.8c.2 0 .3.2.3.4s-.2.4-.5.4l-.5-.1-1.3 1.1v.7c0 .2-.1.4-.4.4-.2 0-.3-.1-.4-.3-2 1.8-3.6 3.2-5.3 3.2-2.7 0-4-1.3-5.3-2.5-1.2-1.1-2.3-2.2-4.4-2.3-2.1-.1-3.6 1.5-5 3-1.7 2-3.5 4-6.4 2.5-3.8-2-6.8-12.5-6.3-17.2a10.7 10.7 0 0 1-.8-7.7c1.6-4.4 13.5-5.9 20.6-6.8l3.6-.5 4-1.1c3.5-1.1 8.4-2.7 14.4-3.4 1.8-.2 3.8-.3 5.9-.3 8.3 0 17.6 5.4 20 10.2.9 1.7.8 3.2 0 4.4zM289.6 513l.2-.2.8-.7.1-.1 1.1-1 .3-.2 1-.8.3-.3 1.2-.9.2-.1 1.6-1 .4-.3 1.3-.8c.2 0 .4-.2.5-.3l1.9-1a43 43 0 0 1 2.2-1l.6-.3 1.5-.6.8-.2 1.2-.5.8-.2 1-.3.9-.2.9-.3.7-.1.8-.2.7-.1.7-.1.6-.1h.3l-.5-1-.6-.9-.4-.8-.4-.7-.1-.1a117.7 117.7 0 0 0-.6-1l-.1-.2-.2-.3v-.1l-.2-.3-.1-.1-.2-.2v-.1l-.1-.2h-.1v-.2h-.2v-.1-.1h-.1a1 1 0 0 0 0-.2h-.1c-1-.8-5-.3-12.9 3.6l-.3.2a45.3 45.3 0 0 0-10.4 7l-.2.3c-.3.4-.4.7-.4 1a1.3 1.3 0 0 0 0 .2 5.9 5.9 0 0 0 .1.1l.1.2v.3h.1l.1.3v.1l.1.3.1.1.1.3v.2l.2.3.1.2.2.4v.2l.3.5a20.2 20.2 0 0 1 .4 1l.2.6v.2h.1v.1l.5 1 .2.5.7-.7zm6.6 20.2c.9-.7 3-2.5 6.4-4.6l.4-.2a83 83 0 0 1 22-9.7h.2l.2-.1-9.3-16.9a40 40 0 0 0-20.8 7.7 41.2 41.2 0 0 0-7 6.2l3.3 7.3 4.6 10.3zm1.5 0l1.3 2.8.2.3.4 1 .2.3c0 .3.2.5.3.7l1 2.3 27.3-13.7-.7-1.3-.3-.5-.2-.4-.2-.5-2.5-4.5-1 .2-.3.1-.8.3h-.4l-1.2.5h-.2l-1.4.5-.6.2-1.2.5-.5.2-1.8.7-.4.2-1.6.7-.6.3-2 1h-.1l-2 1-.6.4-1.5.8-.4.3a74.1 74.1 0 0 0-3.3 2l-.3.2-2.6 1.8-.2.1-1.8 1.4zm2.5 11.3a1.5 1.5 0 0 0 2 .7l29.3-14.6a1.5 1.5 0 0 0 .7-2.1l-.3-.6c-.4-.8-1.3-1.1-2-.7l-13 6.5-16.3 8.1c-.8.4-1 1.3-.7 2.1l.3.6zm5.5 4.7l.3.1h.2l26.2-13.1.1-.2v-.1-.2-.3-.2-.4-.2-.4l-.1-.3v-.5l-.2-.4a17.3 17.3 0 0 0-.4-1.6l-9.8 4.9-19.3 9.7a11.3 11.3 0 0 0 .7.9l.4.5h.1l.5.6c.5.6 1 1 1.3 1.2zm-20.5-42.7c0-3 8-7.2 11.4-9 2.6-1.3 7.9-3.7 11.3-4.1 1.2-.2 2.1 0 2.7.4.2.1.7.5 4.5 7.2l1.2-.1c.2 0 .3 0 .4.2l9.7 17.6v.3c0 .2-.1.2-.2.3l-.9.2 3.9 7h.3c.2-.2.5-.3.8-.3 1-.1 1.9.4 2.4 1.3l.3.6a2.3 2.3 0 0 1-.5 2.7c.6 1.8 1.5 5.5.3 6.1l-26.3 13.2c-1.2.6-3.6-2.4-4.7-3.9-1 0-1.9-.4-2.3-1.3l-.3-.6a2.4 2.4 0 0 1 1-3.2l.2-.1-3.4-7.3-.6.5a.4.4 0 0 1-.7-.1l-8.2-18.4c-.1-.1 0-.3 0-.4l.8-.9c-3-7-3-7.6-3-7.9zM98.4 535l5.8 7.4 21.5 27 32-24.8 2.7-2-4.6.4-29.4 22.7h-.6l-23.1-29-3.5-1.3-.8-.4zm38.5 26.8l-.4 3.2 6.1.7 1.1-9.2-6.8 5.3zm5.4 6.6l.2-1.8-5.4-.7h-.7l-.2 1.7 2.4.3 3.7.5zm-1.3-62l-3 24.7c0 .2-.2.4-.4.4l-14.5-1.8a.4.4 0 0 1-.3-.4l3-24.8-12.6-1.5-9.2 31.2-.6 2 22.8 28.6 20.2-15.6 8.8-6.8V541l-1.6-33-12.6-1.6zm-14.4-1.8l-.9 7.3-2 17 13.6 1.7 2.9-24.4-10.8-1.3-2.8-.3zM97 533.7h.2l5.4 2 9.8-33.3a.4.4 0 0 1 .4-.3l13.4 1.6 27.8 3.4c.2 0 .3.2.3.4l1.6 34.7 5.7-.7a.4.4 0 0 1 .3.8l-17.5 13.6v.3l-1.1 10-.3 2.7-.2.2-.3.1-7-.8a.4.4 0 0 1-.3-.5l.3-2.6.3-2.8-9.9 7.7-.3.1h-.2c-.2 0-.3-.1-.3-.2l-28.4-35.7a.4.4 0 0 1 .3-.7z" fill="#555556" fill-rule="nonzero"></path><path d="M113.8 510.7l-1.5 2.3 1.1.1 7 .9 1.2.1-1.2-3.5-2.6-.3-3.5-.4-.5.8zm0 3.3l-1 7.9 2.7.3 1-7.9-2.8-.3zm3.5.4l-1 8 2.7.2.5-4.3.5-3.6-2.4-.2h-.3zm-2.9 16.5l1-7.9-2.7-.3-.6 4.7-.4 3.2 2.7.3zm1.8-7.8l-1 8 2.8.2 1-7.8-2.8-.4zm2.5 8.8a.4.4 0 0 1-.4.3l-7-.8-.4-.2v-.2l1-8.8 1-8.3-1.4-.2a.4.4 0 0 1-.3-.2v-.4l2.6-4a.4.4 0 0 1 .4 0h.3l6.2.7c.2 0 .3.1.4.3l1.5 4.4v.1a.4.4 0 0 1-.2.4h-.1-.1l-1.4-.2-2 17zM143 516.3l-.2.4h1l3.6.5 3.6.4 1 .2-.5-1.7-.6-1.8-4-.5-2.1-.3-1.8 2.8zm1.2 1.4l-1 7.9 2.8.3 1-8-2.8-.2zm3.5.4l-1 7.9 2.8.3 1-7.9-1.8-.2-1-.1zm-2.8 16.5l1-7.9-1.9-.2-.8-.1-.3 2.1-.7 5.8 2.7.3zm4.5-7.5l-2.7-.3-.8 6.6-.2 1.3 2.7.3.9-7v-.9zm3.6-8.6l-.3.2-1.4-.2-1 8.3-1 8.7-.2.3h-.3l-7.1-.8-.3-.1v-.3l1-8.7 1-8.3-1.4-.2h-.2v-.2h-.1v-.2-.2l2.5-4h.2l.1-.1h.1l3.3.4 3.3.4c.2 0 .3 0 .4.2l1.5 4.4-.1.4zM126.1 526.3l9.1 1.1.5-3.5-9.2-1-.4 3.4zm10-3.2l.4.2v.3l-.5 4.3c0 .3-.2.4-.4.4l-10-1.2c-.1 0-.2 0-.3-.2v-.3l.5-4.3.1-.3H126.2l10 1.1zM137.5 508.7l-2.6-.3-6.5-.8-.5 3.5 9.2 1.1v-.2l.4-3.3zm.9-.3l-.5 4.3-.2.3h-.3l-1.8-.1-8.2-1a.4.4 0 0 1-.3-.5l.5-4.3a.4.4 0 0 1 .3-.4h.1l10 1.2c.2 0 .4.3.4.5zM127.3 517l.1.1.2.2h.3v.1h.2c.3 0 .4 0 .6-.2l.2-.4.1-.2-.1-.6v-.1l-.3-.2a1 1 0 0 0-.4-.2h-.3a1 1 0 0 0-.4.2l-.2.2-.2.4v.4l.2.2m.4-2.2h.8l.4.2c.3.1.4.3.6.5.2.2.3.6.3 1v.3c0 .4-.3.9-.6 1.2a1.8 1.8 0 0 1-2 .1l-.3-.3-.4-.4-.1-.4-.1-.7.2-.5.2-.3.3-.3.7-.4M134.9 546.5l-.1-.5-.2-.7-.1-.4-.3-.7-.2-.2-1-1.4-.2-.2-.6-.4-.4-.3-.6-.3-.5-.2-.7-.2h-.4l-.7 5.9 6 .7v-.4-.7m-12-2.6l-.3.7-.2.4-.2.7v.4l5.9.7.7-6h-1.1l-.4.1-.8.2-.3.1-.8.3v.1c-.7.3-1.2.8-1.7 1.3l-.5.7-.3.3m7.3 9.6l.4-.1.6-.3.4-.2.5-.3.4-.3.4-.4.4-.4.3-.3.3-.5.3-.4.2-.5.2-.5a6 6 0 0 0 .2-.9l-6-.7-.7 6h1.1l1-.2m-7.8-4l.3.8h.1c.2.4.3.7.6 1l.7.7.8.6.2.2.7.3.4.2a6 6 0 0 0 1 .3l.8-6-6-.7v1.1l.1.4.2.8.1.3m13.3-1.4l-.3 1.5-.1.2-.5 1-.1.2-.7 1a7.4 7.4 0 0 1-3.4 2.2h-.1l-1.2.3h-1.7a7.3 7.3 0 0 1-3.2-1.2l-1.7-1.5a7.3 7.3 0 0 1-1.5-5.4c0-.5.2-1 .3-1.3l.2-.5c0-.3.2-.5.3-.8l.3-.4a7 7 0 0 1 1.4-1.6l.2-.3.3-.1.2-.2.7-.4.3-.2.9-.3h.2a7.5 7.5 0 0 1 2.8-.3l.6.1a7.2 7.2 0 0 1 5.8 8M127.1 360.4h.6l.6-.1.1-.1.2-.1h.1l.3-.4.2-.2.2-.6v-.8-.2l-.2-.4a1.9 1.9 0 0 0-2.7-.6c-.4.3-.7.8-.8 1.3v.7l.2.5v.2l.2.1.4.4.6.3m3.2-2v.6l-.1.2-.1.4v.1l-.3.3v.1l-.3.4-.4.3c-.4.3-1 .5-1.5.5h-.4-.2l-.2-.2h-.3l-.2-.1-.3-.2-.4-.3v-.1l-.3-.3-.4-1v-.4-.2-.4-.1a2.7 2.7 0 0 1 3.2-2.2h.1l.4.2h.1l.4.2v.1c.2 0 .3.2.4.3a2.8 2.8 0 0 1 .6.8l.1.5.1.5" fill="#555556" fill-rule="nonzero"></path><path d="M604 526.2c-4.8 13-3.4 31.4-4.1 41.3-1.1 15.5-5.7 35.6-18.6 44.9-8 5.7-16.7 8.8-26.7 9 2 0-6.6 11.8-8 12.7-5.7 3.5-13 4-19.4 4-16.5.1-30.4-2.5-46-8.3a63.4 63.4 0 0 1-27.7-21c-9-11.4-11.6-23-15.9-36.6a58.2 58.2 0 0 0-18.7-26.6 16 16 0 0 1 13 4.3c-.5-3-3.4-5.2-6.3-6.4 6.3 2.6 7-12.2 6.7-14.6-.7-8.4-5.5-15.2-10-22.2 4.5 1.7 9.9 6.9 11.5 11-1.8-6-.1-19.7 3.3-25.4.2 3.7-.3 7.6 2.2 10.8-2.2-21.7 23.9-36.3 41-42.3 17.2-6 33.7-4.4 51.3-5.5a45.1 45.1 0 0 1 38 18.1c0-4.4-2.3-8.3-4.3-12.2 8.6 4.7 25.6 10.9 28.2 21.5 2.1-1.6 3.5-4.1 4.7-6.2 2.5 7.5-.7 13.8.6 20.8 5.4 2 12.6 2.2 16.8 6.6-4-1-9.8-1.4-12.7 2 5.4-.6 17.2 1 20.1 5.9-10.3 0-16 6-19 14.4" fill="#B78D43" fill-rule="nonzero"></path><path d="M604 526.2c-4.8 13-3.4 31.4-4.1 41.3-1.1 15.5-5.7 35.6-18.6 44.9-8 5.7-16.7 8.8-26.7 9 2 0-6.6 11.8-8 12.7-5.7 3.5-13 4-19.4 4-16.5.1-30.4-2.5-46-8.3a63.4 63.4 0 0 1-27.7-21c-9-11.4-11.6-23-15.9-36.6a58.2 58.2 0 0 0-18.7-26.6 16 16 0 0 1 13 4.3c-.5-3-3.4-5.2-6.3-6.4 6.3 2.6 7-12.2 6.7-14.6-.7-8.4-5.5-15.2-10-22.2 4.5 1.7 9.9 6.9 11.5 11-1.8-6-.1-19.7 3.3-25.4.2 3.7-.3 7.6 2.2 10.8-2.2-21.7 23.9-36.3 41-42.3 17.2-6 33.7-4.4 51.3-5.5a45.1 45.1 0 0 1 38 18.1c0-4.4-2.3-8.3-4.3-12.2 8.6 4.7 25.6 10.9 28.2 21.5 2.1-1.6 3.5-4.1 4.7-6.2 2.5 7.5-.7 13.8.6 20.8 5.4 2 12.6 2.2 16.8 6.6-4-1-9.8-1.4-12.7 2 5.4-.6 17.2 1 20.1 5.9-10.3 0-16 6-19 14.4z" stroke="#3E4147" stroke-width="1.3" stroke-linecap="round" stroke-linejoin="round"></path><path d="M595.1 526c.6 2.6-11.4 13-13.2 15.1-4.5 5.8-8 12.4-9.8 19.5a100.5 100.5 0 0 1 5-29.8c2.8-9.7 11-15.6 19.6-19.8 4.3-2.1 9.3 1.5 13.7 1.6-3.8 7.9-8.7 14.9-10.3 23.6-1.6 8.6-.3 17.7-.7 26.4.3-5.4-2-12.6-2.3-18.4-.2-6-.5-12.2-2-18.1" fill="#906E2D" fill-rule="nonzero"></path><path d="M532.7 498.1c-.5-7-3.5-13.7-7.2-20.1l2.2 64 .4-5.7c1-12.5 5.5-25.6 4.6-38.2m60.8-15.4c2.1-1.6 3.5-4.1 4.7-6.2 2.5 7.5-.7 13.8.6 20.8 5.4 2 12.6 2.2 16.8 6.6-4-1-9.8-1.4-12.7 2 5.4-.6 17.2 1 20.1 5.9-4.4 0-8 1.1-10.8 3-1.6 1-8.3 0-10.5.3-2.7.4-5.7.8-8.3 1.8-14.1 5.4-20.8 19-28.1 31a448 448 0 0 0-7.8 13c-7 12.2-8 26.3-8.6 40-2.7-12.2-4.4-22-.5-34.4 3.5-11 7.9-22.2 11.5-33.4-1 3-3.4 5.8-5 8.5A162 162 0 0 0 542 571c-6.1 18-7.4 36.2 14.5 43.8-1-.4-5 1.3-6.7 1-3.5-.3-7.7-2-10.8-3.5-10.2-5-13-14-16.8-24.1A68.3 68.3 0 0 0 505 562c5.8 8.8 11 19.2 11.5 30 .4 8.2 1 15.6 8 21 7.6 5.8 16 5.2 24.4 7.4-2.4 1.8-4 5.7-7.4 6.5-5.1 1.1-11.4-3.4-15.7-5.7-4.4-2.3-10.3-4.7-13.4-8.7-3.8-5-4.5-13-6-19-4.3-17.6-20.8-37.6-38.6-42.4-6-1.7-18.5-4.6-23.7.7 6-.2 15 5.8 20.2 9.2 4.2 2.7 7.6 6 11 9.7 8.8 9 14.1 20.6 19 32a116 116 0 0 0-23.7-25.5c6.2 8.6 11.6 17.1 16.8 26.4a41.5 41.5 0 0 0 13.3 15.7 99.8 99.8 0 0 1-32.2-27.6c-6.2-8.6-11.8-17.6-18.8-25.6-6.7-7.7-17-12-26.3-16.2a136 136 0 0 0-4.5-4.3 16 16 0 0 1 13 4.3c-.5-3-3.4-5.2-6.3-6.4 6.3 2.6 7-12.2 6.7-14.6-.7-8.4-5.5-15.2-10-22.2 4.5 1.7 9.9 6.9 11.5 11-1.8-6-.1-19.7 3.3-25.4.2 3.7-.3 7.6 2.2 10.8-2.2-21.7 23.9-36.3 41-42.3 17.2-6 33.7-4.4 51.3-5.5a45.1 45.1 0 0 1 38 18.1c0-4.4-2.3-8.3-4.3-12.2 8.6 4.7 25.6 10.9 28.2 21.5" fill="#906E2D" fill-rule="nonzero"></path><path d="M604 526.2c-4.8 13-3.4 31.4-4.1 41.3-1.1 15.5-5.7 35.6-18.6 44.9-8 5.7-16.7 8.8-26.7 9 2 0-6.6 11.8-8 12.7-5.7 3.5-13 4-19.4 4-16.5.1-30.4-2.5-46-8.3a63.4 63.4 0 0 1-27.7-21c-9-11.4-11.6-23-15.9-36.6a58.2 58.2 0 0 0-18.7-26.6 16 16 0 0 1 13 4.3c-.5-3-3.4-5.2-6.3-6.4 6.3 2.6 7-12.2 6.7-14.6-.7-8.4-5.5-15.2-10-22.2 4.5 1.7 9.9 6.9 11.5 11-1.8-6-.1-19.7 3.3-25.4.2 3.7-.3 7.6 2.2 10.8-2.2-21.7 23.9-36.3 41-42.3 17.2-6 33.7-4.4 51.3-5.5a45.1 45.1 0 0 1 38 18.1c0-4.4-2.3-8.3-4.3-12.2 8.6 4.7 25.6 10.9 28.2 21.5 2.1-1.6 3.5-4.1 4.7-6.2 2.5 7.5-.7 13.8.6 20.8 5.4 2 12.6 2.2 16.8 6.6-4-1-9.8-1.4-12.7 2 5.4-.6 17.2 1 20.1 5.9-10.3 0-16 6-19 14.4z" stroke="#3E4147" stroke-width="1.3" stroke-linecap="round" stroke-linejoin="round"></path><path d="M480 529.6l-1.1-.8 1.2.8z" fill="#C6A56B" fill-rule="nonzero"></path><path d="M227 324.2c1.4-1.3 9.5-8 27.7-16.8s39.8-21 39.8-21c8.8 2.7 17 8.8 28.4 19 11.5 10 38.5 35.7 50.6 47.9 12.2 12.1 19.3 20.4 33.4 27.1 14.2 6.8 34.1 8 48.3 10.7 14.2 2.7 21 3.4 26.4 12.1 5.4 8.8 8 46.6 8 46.6s33.1 18.3 36.5 16.9c3.4-1.3 19 2.7 19 2.7l8 6s-4-4.6-9.4-28.3c-5.4-23.6-3.4-36.4 4-45.9 10.1-12.8 38.5-12.1 52-33 13.5-21 12.8-52.7-6.7-95.3-19.6-42.5-66.2-2.7-69.6-.6-3.4 2-54 37.1-56.7 38.4-2.7 1.4-56.7-3.3-56.7-3.3s-22.3-16.2-50.6-33.8c-28.4-17.5-52.7-37.6-66.2-36.4-4.2.3-10.3 5.4-13.8 7.6-5.2 3.4-10.2 7.1-15 11-10.8 8.5-21 17.7-30.8 27.3-9.4 9.2-18.7 20-28.6 28.7" fill="#F7C9A1" fill-rule="nonzero"></path><path d="M227 324.2c1.4-1.3 9.5-8 27.7-16.8s39.8-21 39.8-21c8.8 2.7 17 8.8 28.4 19 11.5 10 38.5 35.7 50.6 47.9 12.2 12.1 19.3 20.4 33.4 27.1 14.2 6.8 34.1 8 48.3 10.7 14.2 2.7 21 3.4 26.4 12.1 5.4 8.8 8 46.6 8 46.6s33.1 18.3 36.5 16.9c3.4-1.3 19 2.7 19 2.7l8 6s-4-4.6-9.4-28.3c-5.4-23.6-3.4-36.4 4-45.9 10.1-12.8 38.5-12.1 52-33 13.5-21 12.8-52.7-6.7-95.3-19.6-42.5-66.2-2.7-69.6-.6-3.4 2-54 37.1-56.7 38.4-2.7 1.4-56.7-3.3-56.7-3.3s-22.3-16.2-50.6-33.8c-28.4-17.5-52.7-37.6-66.2-36.4-4.2.3-10.3 5.4-13.8 7.6-5.2 3.4-10.2 7.1-15 11-10.8 8.5-21 17.7-30.8 27.3-9.4 9.2-18.7 20-28.6 28.7" fill="#F7C9A1" fill-rule="nonzero"></path><path d="M541.1 432.5a58.6 58.6 0 0 0-31.3-3.1c-6.8.9-14.5 2.6-21.5 5.6.9 8.3 1.4 14.8 1.4 14.8s33 18.3 36.4 16.9c3.4-1.3 19 2.7 19 2.7l8 6s-4-4.6-9.4-28.3c-1.3-5.4-2.1-10.2-2.6-14.6" fill="#E39D74" fill-rule="nonzero"></path><path d="M574.7 475.4a39.2 39.2 0 0 0-7.2-12.3c-.6-.6-1.1-.9-1.3-1 .3-.1.9 0 1.6.5.8.5 1.7 1.3 2.6 2.4a34.3 34.3 0 0 1 7.6 21.1c0 3-.5 4.8-.8 5.2-.2-.5 0-2.3-.3-5-.2-2.8-.7-6.6-2.2-10.9" fill="#3E4147" fill-rule="nonzero"></path><path d="M582.3 477.2l-2.6-3.4c-5-6-9-8.9-9.6-9.8 1 .3 5.4 3 10.5 9 .9 1 1.8 2.1 2.7 3.5l1 1.4 1 1.4a51.8 51.8 0 0 1 4.8 10.2c1.6 4.7 1.1 8 .8 8.8-.2-.8 0-4-1.7-8.5a49.7 49.7 0 0 0-5-9.8l-.7-1-.2-.4-1-1.4M448.5 496.6a37 37 0 0 0 1.3 19.8l1.4 4.2a33.1 33.1 0 0 1-4.5-13.1 35.2 35.2 0 0 1 9.9-28.8 19 19 0 0 1 5.3-4c-.4.5-2.2 2-4.6 4.6a38.2 38.2 0 0 0-8.8 17.3" fill="#3E4147" fill-rule="nonzero"></path><path d="M390.4 316.4c-15.1-12-33.2-20.6-48-33.2-8.5-7.2-17-13.5-26.7-19-13.7-7.8-24.8-9.3-37.8 0a181.3 181.3 0 0 0-21.4 18.7 189.8 189.8 0 0 0-37.8 38l-13.7-9c9.9-8.8 19.2-19.6 28.6-28.8 9.8-9.6 20-18.8 30.7-27.3 5-3.9 10-7.6 15.1-11 3.5-2.2 9.6-7.3 13.8-7.6 13.5-1.2 37.8 18.9 66.2 36.4 19.2 12 35.6 23.2 44.2 29.2l-13.2 13.6z" fill="#E39D74" fill-rule="nonzero"></path><path d="M219.8 330.7c1.3-1.3 16.7-14.6 35-23.3 18.1-8.8 39.7-21 39.7-21 8.8 2.7 17 8.8 28.4 19 11.5 10 38.5 35.7 50.6 47.9 12.2 12.1 22.9 20 37 26.8" stroke="#3E4147" stroke-width="1.3" stroke-linecap="round" stroke-linejoin="round"></path><path d="M455.2 391c14.2 2.8 21 3.5 26.4 12.2 5.4 8.8 8 46.6 8 46.6s33.1 18.3 36.5 16.9c3.4-1.3 19 2.7 19 2.7l8 6s-4-4.6-9.4-28.3c-5.4-23.6-3.4-36.4 4-45.9 10.1-12.8 38.5-12.1 52-33 13.5-21 12.8-52.7-6.7-95.3-19.6-42.5-66.2-2.7-69.6-.6-3.4 2-54 37.1-56.7 38.4-2.7 1.4-56.7-3.3-56.7-3.3s-22.3-16.2-50.6-33.8c-28.4-17.5-52.7-37.6-66.2-36.4-4.2.3-10.3 5.4-13.8 7.6-5.2 3.4-10.2 7.1-15 11-10.8 8.5-21 17.7-30.8 27.3-9.4 9.2-18.7 20-28.6 28.7" stroke="#3E4147" stroke-width="1.3" stroke-linecap="round" stroke-linejoin="round"></path><path d="M410-6.6s2.7 54 3.4 95.2c.6 41.2 12.1 68.9 12.1 75.6 0 6.8-2.7 33.8-1.3 47.3 2 17.6 14.8 25 18.9 25.7 4 .6 104-13.5 104-13.5s5.3-33.8 7.4-44c2-10 33.7-32.3 41.8-85.7 8.1-53.3 14.9-102.6 14.9-102.6" stroke="#3E4147" stroke-width="1.3" fill="#C5A7D4" fill-rule="nonzero" stroke-linecap="round" stroke-linejoin="round"></path><path d="M466.7-7.1l-2 5.1c-7.3 20.1-18 37.4-28.5 56-4 6.7-7.4 14-10.8 20.8 11.3-12.8 33-20.6 47.8-29.4l7.2-47.7a8.8 8.8 0 0 1-.7-5l-13 .2zM539 166c-7.6.5-19.5 15.4-24.3 19.8-13.5 12.4-28 24.4-40.6 37.9l74.9-12c1.7-10.7 4.2-25.7 5.5-32 .2-1 .7-2.1 1.5-3.4-5.7-6.2-11.8-10.7-17-10.3M581.1 43.8c-1 25.2-1.3 50.4-2.5 75.5-.4 8.8-.3 19.6-3 28.2l-1.5 4.2c8.9-13.4 18.3-32 22.2-57.7 8.1-53.3 14.9-102.6 14.9-102.6l-33.2.3c1 17.4 3.8 35.3 3.1 52.1" fill="#AF96C1" fill-rule="nonzero"></path><path d="M410-6.6s2.7 54 3.4 95.2c.6 41.2 12.1 68.9 12.1 75.6 0 6.8-2.7 33.8-1.3 47.3 2 17.6 14.8 25 18.9 25.7 4 .6 104-13.5 104-13.5s5.3-33.8 7.4-44c2-10 33.7-32.3 41.8-85.7 8.1-53.3 14.9-102.6 14.9-102.6" stroke="#3E4147" stroke-width="1.3" stroke-linecap="round" stroke-linejoin="round"></path><path d="M414 388.4c-12.2-5.8-24.4-18.7-35.3-29.9l-.6-.8c10.8-17.5 21-32.1 22.4-43.6.7-6 0-9.3-.2-13.6-.2-4 0-8.8 2.3-17.4 4.7-18.3 11.4-14.9 13.5-21 2-6 2-15.5 3.3-28.3 1.4-12.8 0-17.6 4.8-22.3 4.7-4.7 35.8-13.5 68.2-8.1 32.4 5.4 47.9 18.9 47.9 18.9l10.1 14.9a2131.8 2131.8 0 0 0 15.4 42.2c4 10.8 9 16.8 16.8 25.1 9 9.6 21.1 20.4 26.2 33.3-.6 11.8-3.7 22-9 30.3-11 17-32 19.4-47 30.5 3.8 0 7.4-.2 10.9.7-5.4 5.8-9.7 8.4-12.8 16.4-2.6 6.6-3.5 8.2-11.2 6.6-6.1-1.3-16.9-2.5-22.2-5.1-13-6.5-17.6-31.7-23.3-43.7-3.2-6.7-10-15.1-12.1-20.5 1.4 14.5 5.1 29.2 6 43.6.4 8-1.7 15.6-2.2 23.6 0-.8-8.8-1.8-10-2.6-2.5-1.6-3.6-4.6-5-7-3.2-5.3-5.3-10.6-12.5-10.2 1.1-2.5 4.9-2.6 7.6-3.2-.8.2-8.3-3.1-18.5-4.6-12.6-1.8-28.7-2-33.5-4.2" fill="#85C3E9" fill-rule="nonzero"></path><path d="M414 388.4c-12.2-5.8-24.4-18.7-35.3-29.9l-.6-.8c10.8-17.5 21-32.1 22.4-43.6.7-6 0-9.3-.2-13.6-.2-4 0-8.8 2.3-17.4 4.7-18.3 11.4-14.9 13.5-21 2-6 2-15.5 3.3-28.3 1.4-12.8 0-17.6 4.8-22.3 4.7-4.7 35.8-13.5 68.2-8.1 32.4 5.4 47.9 18.9 47.9 18.9l10.1 14.9a2131.8 2131.8 0 0 0 15.4 42.2c4 10.8 9 16.8 16.8 25.1 9 9.6 21.1 20.4 26.2 33.3-.6 11.8-3.7 22-9 30.3-11 17-32 19.4-47 30.5 3.8 0 7.4-.2 10.9.7-5.4 5.8-9.7 8.4-12.8 16.4-2.6 6.6-3.5 8.2-11.2 6.6-6.1-1.3-16.9-2.5-22.2-5.1-13-6.5-17.6-31.7-23.3-43.7-3.2-6.7-10-15.1-12.1-20.5 1.4 14.5 5.1 29.2 6 43.6.4 8-1.7 15.6-2.2 23.6 0-.8-8.8-1.8-10-2.6-2.5-1.6-3.6-4.6-5-7-3.2-5.3-5.3-10.6-12.5-10.2 1.1-2.5 4.9-2.6 7.6-3.2-.8.2-8.3-3.1-18.5-4.6-12.6-1.8-28.7-2-33.5-4.2z" stroke="#3E4147" stroke-width="1.3" stroke-linecap="round" stroke-linejoin="round"></path><path d="M567 390.6c-5 2.3-9.8 4.8-14.2 8 3.8 0 7.4-.2 10.9.7L562 401l-6.3-1.2c-11.7-1-26-2-36.2-8.8.9 3.3 4.5 20.1-2.2 19.9-4.5-.2-9.8-14.2-11.2-17.8-3-7.5-4.8-15.6-7.9-23.2-3.2-8-9.2-15.2-14.8-22-4.1-4.8-9.5-13-9-19.6.4-3.6 1.4-7.2 1.7-10.8.3-2.9-1.7-14.6 3.5-13 3.5 1 2.8 9.2 3.4 12 1.2 5.3 2.4 10.6 4.2 15.7 4.5 12.7 9.2 25.3 14.8 37.5 4.5 10 6.5 23 14.2 31.1 4.2-5.6-5.2-14.6-2-20.9 8.7 4 17.6 5 27.2 6.5 2.9.5 16.5 1.3 25.5 4.3M473.2 369.1c.6-7 3.2-12 5.6-18.4v6l.4-.7c-1.1 9.3-1 19.4 2.2 28.4 2.3 6.5 5.4 12.9 2.4 19.2-1 2.5-5 11.6-8.1 11-4-.8-7.3-13-10.4-16l-1.2-1 1.9-.4c-.4.1-2.4-.7-5.5-1.6-4.4-1.8-9.4-2.1-13-5.1 5.4-.4 11-.6 16.4.1 3.5.5 8 2.2 10-2 1.1-2-.4-4.3-.7-6.4-.6-4.4-.3-8.7 0-13.1M479.2 356v-.5.5" fill="#70B1DE" fill-rule="nonzero"></path><path d="M401 287.4a20 20 0 0 0 3.2 14.3c3.9 5.9 8.6 8.9 15.3 12 8.8 4 21.7 12.7 31.6 11.6a17.7 17.7 0 0 0-7.9-7.3c4.2-5.5 18.8-4 24.9-3.7 13.7.8 35 7.7 47.5 0-3.4-10-25-19.6-34.8-21.3 5-9.3 25.5-6.4 33.3-2.2 11.7 6.4 22 17 30.8 26.8 5.7 6.3 16.6 17.2 21.2 3.7 7.2-21.2-10.6-58.4-22-75.6-5.5-8.3-13-15.2-12.4-25.6l.3-3.3c-6.5-3.7-17-8.5-31.4-11.8-1 1.2-2 2.3-2.9 3.1-14.9 15.2-26.2 32.8-48.8 31.7-10-.6-19.8-2.6-29.6-4.7-1.2 12.2-1.3 21.2-3.2 27-1.6 4.8-8 7.6-10.5 12.2a39.2 39.2 0 0 0-4.7 13" fill="#70B1DE" fill-rule="nonzero"></path><path d="M414 388.4c-12.2-5.8-24.4-18.7-35.3-29.9l-.6-.8c10.8-17.5 21-32.1 22.4-43.6.7-6 0-9.3-.2-13.6-.2-4 0-8.8 2.3-17.4 4.7-18.3 11.4-14.9 13.5-21 2-6 2-15.5 3.3-28.3 1.4-12.8 0-17.6 4.8-22.3 4.7-4.7 35.8-13.5 68.2-8.1 32.4 5.4 47.9 18.9 47.9 18.9l10.1 14.9a2131.8 2131.8 0 0 0 15.4 42.2c4 10.8 9 16.8 16.8 25.1 9 9.6 21.1 20.4 26.2 33.3-.6 11.8-3.7 22-9 30.3-11 17-32 19.4-47 30.5 3.8 0 7.4-.2 10.9.7-5.4 5.8-9.7 8.4-12.8 16.4-2.6 6.6-3.5 8.2-11.2 6.6-6.1-1.3-16.9-2.5-22.2-5.1-13-6.5-17.6-31.7-23.3-43.7-3.2-6.7-10-15.1-12.1-20.5 1.4 14.5 5.1 29.2 6 43.6.4 8-1.7 15.6-2.2 23.6 0-.8-8.8-1.8-10-2.6-2.5-1.6-3.6-4.6-5-7-3.2-5.3-5.3-10.6-12.5-10.2 1.1-2.5 4.9-2.6 7.6-3.2-.7.2-8.7-3.2-18.5-4.6-12.8-1.8-28.6-1.9-33.5-4.2z" stroke="#3E4147" stroke-width="1.3" stroke-linecap="round" stroke-linejoin="round"></path><path d="M457 242c-.4-2-.6-4.2-.3-6.2.2-2 .8-4 1.3-5.8 1.1-3.5 2-6.8 2.6-9.9 1.4-7.4 1.4-12.3 1.8-13.3.3 1 .6 6-.7 13.5a81 81 0 0 1-2.5 10.1c-.6 1.8-1 3.6-1.3 5.5-.3 2-.1 4 .3 6l2 10.6c2.4 11.4 3.8 19.1 3.6 20.4-.7-1.2-2.4-8.7-4.7-20.2l-2.2-10.6M408 341l-6-13c-1.7-4-3-7.9-4-11.5-.8-3.9-.9-7.2-.6-9.5 0-.6 0-1.1.2-1.7.1-.5.4-.9.6-1.2l.9-.6.6.2c-.3 0-.8 0-1.1.6l-.4 1.1v1.6c-.1 2.3 0 5.5 1 9.2.9 3.6 2.3 7.4 4 11.4 1.8 4 3.8 8.3 6 12.7l5.6 11.5c2.6 5.4 4.7 10 6 13.4a31 31 0 0 1 2 6.3c-.5-.5-1.4-2.6-2.9-6a369 369 0 0 0-6.2-13.1l-5.7-11.5" fill="#3E4147" fill-rule="nonzero"></path><path d="M343.6 344.3c-2.8-4-9-2-13-4-2.8-1.4-4.1-3.9-7-5.3-3-1.4-5.3 0-5.7-3.6-.6-7.6 17.8-6.3 21.7-6" stroke="#3E4147" stroke-width="1.3" fill="#F7C9A1" fill-rule="nonzero" stroke-linecap="round" stroke-linejoin="round"></path><path d="M551 333.3C543.8 313.1 538 289 535 281c-4-10.8-6.8-16.8-6.8-16.8-10.8 1.3-25.6 9.4-52.6 27.6-27 18.3-40.5 25.7-50.7 32.4-10 6.8-29 7.5-44.5 14.9s-27.7 16.2-33.8 19c-6 2.6-20.2 1.3-27.7 1.3-7.4 0-17.5-2.7-21.6-5.4-4-2.7 3.4-4.8 6.8-4.1 3.4.7 13.5 1.4 18.9 0 5.4-1.3 18.9-2.7 18.9-2.7s-2.7-7.4-7.4-10.8c-4.7-3.4-8.1-11.5-10.2-16.2-2-4.7-2-12.8-1.3-14.9.7-2 2-3.3 8.1-2 3.4-4 7.4-2 11.5.7 4 2.7 14.2 4.7 18.2 5.4 4 .7 9.5 1.3 14.2.7 4.7-.7 7.4 0 20.2-6.8 12.9-6.7 17.6-5.4 21.6-7.4s21.6-18.2 32.5-29c10.8-10.8 62-52 76.2-58.1 14.2-6 17.6-11.5 35.8 12.8 11.2 14.9 37.4 52.7 47.4 88.2-19 13.9-38.9 26.5-57.6 23.5" fill="#F7C9A1" fill-rule="nonzero"></path><path d="M551 333.3C543.8 313.1 538 289 535 281c-4-10.8-6.8-16.8-6.8-16.8-10.8 1.3-25.6 9.4-52.6 27.6-27 18.3-40.5 25.7-50.7 32.4-10 6.8-29 7.5-44.5 14.9s-27.7 16.2-33.8 19c-6 2.6-20.2 1.3-27.7 1.3-7.4 0-17.5-2.7-21.6-5.4-4-2.7 3.4-4.8 6.8-4.1 3.4.7 13.5 1.4 18.9 0 5.4-1.3 18.9-2.7 18.9-2.7s-2.7-7.4-7.4-10.8c-4.7-3.4-8.1-11.5-10.2-16.2-2-4.7-2-12.8-1.3-14.9.7-2 2-3.3 8.1-2 3.4-4 7.4-2 11.5.7 4 2.7 14.2 4.7 18.2 5.4 4 .7 9.5 1.3 14.2.7 4.7-.7 7.4 0 20.2-6.8 12.9-6.7 17.6-5.4 21.6-7.4s21.6-18.2 32.5-29c10.8-10.8 62-52 76.2-58.1 14.2-6 17.6-11.5 35.8 12.8 11.2 14.9 37.4 52.7 47.4 88.2-19 13.9-38.9 26.5-57.6 23.5z" stroke="#3E4147" stroke-width="1.3" stroke-linecap="round" stroke-linejoin="round"></path><path d="M334 301.2c20.8 13.2 39.2 18.7 45.6 15.2 8.1-4.5 28.8-6.3 46.8-10 18-3.5-3.5-7.9 3.7-13.3s57.5-38 78.2-49.6c20.7-11.7 28.8-15.3 39.6-4.5 16.4 14 57.6 85.9 55.7 124.9 30.3-38.5-24.8-118.9-42.4-142.3-18.2-24.3-21.6-18.9-35.8-12.8-14.1 6-65.4 47.3-76.2 58a300.1 300.1 0 0 1-32.5 29c-4 2.1-8.7.8-21.6 7.5-12.8 6.8-15.5 6.1-20.2 6.8-4.7.6-10.1 0-14.2-.7-4-.7-14.2-2.7-18.2-5.4-3-2-5.8-3.5-8.4-2.8" fill="#E39D74" fill-rule="nonzero"></path><path d="M608.6 309.8c6.3 22.5 6 44.2-8.9 58.3l-2 2.7c-14.9 10.8-27.7 2-38.5-18.2-2.8-5.3-5.6-12-8.2-19.3 18.7 3 38.6-9.6 57.6-23.5" fill="#85C3E9" fill-rule="nonzero"></path><path d="M608.6 309.8c6.3 22.5 6 44.2-8.9 58.3l-2 2.7c-14.9 10.8-27.7 2-38.5-18.2-2.8-5.3-5.6-12-8.2-19.3 18.7 3 38.6-9.6 57.6-23.5z" stroke="#3E4147" stroke-width="1.3" stroke-linecap="round" stroke-linejoin="round"></path><path d="M597.7 370.8c-14.9 10.8-27.7 2-38.5-18.2s-20.3-60.8-24.3-71.6c-4-10.8-6.8-16.8-6.8-16.8-10.8 1.3-25.6 9.4-52.6 27.6-27 18.3-40.5 25.7-50.7 32.4-10 6.8-29 7.5-44.5 14.9s-27.7 16.2-33.8 19c-6 2.6-20.2 1.3-27.7 1.3-7.4 0-17.5-2.7-21.6-5.4-4-2.7 3.4-4.8 6.8-4.1 3.4.7 13.5 1.4 18.9 0 5.4-1.3 18.9-2.7 18.9-2.7s-2.7-7.4-7.4-10.8c-4.7-3.4-8.1-11.5-10.2-16.2-2-4.7-2-12.8-1.3-14.9.7-2 2-3.3 8.1-2 3.4-4 7.4-2 11.5.7 4 2.7 14.2 4.7 18.2 5.4 4 .7 9.5 1.3 14.2.7 4.7-.7 7.4 0 20.2-6.8 12.9-6.7 17.6-5.4 21.6-7.4s21.6-18.2 32.5-29c10.8-10.8 62-52 76.2-58.1 14.2-6 17.6-11.5 35.8 12.8 18.3 24.3 77 110 38.5 146.5l-2 2.7z" stroke="#3E4147" stroke-width="1.3" stroke-linecap="round" stroke-linejoin="round"></path><path d="M336.3 324.4c1.4 4 4.9 5.9 7.3 8 6.2 4.8 10 8 10.6 8.8-1-.3-5-3.2-11.3-8l-4.2-3.1a12.7 12.7 0 0 1-3.6-5.2l-1-2.5-1.5-2c-1.8-2.3-4-4.2-5.3-6.3-1.5-2-2.4-4.1-2.9-6-1-3.6-.2-6 .2-6.6 0 .7-.4 3 .7 6.4.6 1.7 1.5 3.6 3 5.5 1.3 2 3.3 3.8 5.3 6.1l1.5 2.3 1.2 2.6M348.8 319.2c2.7 1.4 5.3 2.2 7.4 3.2a38.3 38.3 0 0 1 11.8 7.3c-1-.2-5.1-3.2-12.2-6.2-2.1-.9-4.8-1.7-7.6-3.1-1.3-.7-2.5-1.4-3.5-2.3-1.2-1-2-2.2-3-3.2-.8-1-1.7-1.9-2.6-2.6-2-1.4-3.8-2.6-5.2-4a9.8 9.8 0 0 1-1.6-2c-.4-.6-.6-1.3-.7-1.9 0-.2-.1-.6 0-.8 0-.3.1-.5.3-.6.1-.2.3-.3.5-.3s.2.2.3.2c-.3-.3-1 .5-.6 1.4.4 1 1.1 2.2 2.5 3.4 1.3 1.1 3.1 2.2 5.2 3.7 1 .7 2 1.6 2.9 2.7.9 1 1.8 2.2 2.9 3 .9.8 2 1.5 3.2 2.1M343 348.7a40 40 0 0 1-3.9-10c.7.3 2.6 4 5.1 9.4.3.7.6 1.3 1 1.6.3.3.8.4 1.4.3 1.2 0 2.2-.2 3.1-.3 1.8-.3 3-.6 3.4-.4-.2.3-1.3.9-3.1 1.4a20.4 20.4 0 0 1-4.4.5c-.4 0-.9-.2-1.2-.5-.7-.6-1-1.4-1.3-2M361 343.5c-.3.1-.8.3-1.5.3-.6 0-1.1-.5-1.4-.8l-1.5-1.8-2.4-3a11.7 11.7 0 0 1-2.1-3.3c.4 0 1.4 1 3 2.6l2.5 2.9 1.4 1.7c.3.3.5.4.7.4l1-.2c6.3-2.7 10.9-4.5 11.7-4.3-.4.7-4.8 2.7-11.3 5.5M407.5 299.1a43 43 0 0 0-9.2 3.5c-2 1.1-3.3 2-3.8 2a35.2 35.2 0 0 1 12.7-6.8h.2c.5 0 1-.2 1.4-.3l2.5-.4c3.3-.4 6.3-.1 8.7.4 2.5.5 4.4.9 5.8 1 1.5 0 2.4-.3 2.8-.3-.3.3-1.2.7-2.8.8-1.5.2-3.5-.1-6-.5-2.3-.4-5.1-.6-8.3-.2l-2.4.5-1.3.2-.3.1M510.1 181l1.4-10.9L513 159h.6l-.8 2.6c-.1-.4 0-1.3.2-2.6h.6a188.2 188.2 0 0 1-2.2 22.1l-.8 5.3A247 247 0 0 1 507 205v.4l-.2.2v.2h.1v.3c0 .1 0 .2-.2.2-.3 0-.1-.2-.2-.3l.2.2v-.1-.1h-.2l-.2.2v-.5l.2-.8.6-4.4 2.3-14.4.7-5.3M520.5 183.5l1-7.6c1-7.7 1.6-12.7 2-13.7a201.6 201.6 0 0 1-2.4 25.1 121.8 121.8 0 0 1-4.3 20.9c-.2-1.5 1.4-9.2 3.1-21l.6-3.7M430.4 183.8a294.9 294.9 0 0 1 2.8-23c.3 1.1-.2 6.1-.8 14l-.7 9-.4 4.5c-.8 11.9-1.2 20-1.7 21.2-.4-1.4-.3-9.3.5-21.3l.3-4.4M438.6 170.8c3.5-1.3 6-2 6.5-1.6-.2.6-2.6 1.5-6 2.8-3.5 1.3-5.9 2.3-6.4 2 .1-.6 2.4-1.9 5.9-3.2M494 163.3a57.4 57.4 0 0 1 16.9 3.3c-1 .1-6-1-13.7-1.8l-3.3-.3h-1.3l-1.5-.2-2.5-.2c-3.3-.1-6.2-.2-8.6-.1h-8.8c.7-.4 3.8-.9 8.7-1a105 105 0 0 1 11.2 0l1.6.2h1.3M539.1 176c8 4 12.8 7.8 13.2 8.6-1 0-6-3.5-13.8-7.4-7.8-4-13.6-6-14.2-6.8 1-.1 6.8 1.6 14.8 5.6M450.5 123.7l-5 66c-.2 3.9-.7 7-.4 9.3.2 2.3.9 3.7 1 4.2-.4-.3-1.4-1.6-1.8-4-.4-2.5-.1-5.7.1-9.6l4.8-66 2.4-32c1-12 1.7-20 2.2-21.2.4 1.4 0 9.3-1 21.2-.6 10-1.4 20.8-2.3 32.1" fill="#3E4147" fill-rule="nonzero"></path><path d="M469.5 139.7c3.4-32.7 6.8-61.9 10-86 1-7.7 1.8-12.7 2.3-13.6.2 1-.3 6-1.2 13.8a3778.4 3778.4 0 0 0-13.8 127.9l-.8 8.1c-.2 2.5-.6 4.6-.5 6.4 0 1.7.5 3.1 1.1 4 .6.8 1.3 1.1 1.6 1.4a3 3 0 0 1-2-1 7.4 7.4 0 0 1-1.6-4.4c-.2-1.9 0-4 .2-6.5l.7-8.1 4-42" fill="#3E4147" fill-rule="nonzero"></path><path d="M451.2 181.1c0-4.5 2-8 4.4-8 2.4 0 4.4 3.5 4.4 8s-2 8.1-4.4 8.1c-2.5 0-4.4-3.6-4.4-8z" stroke="#3E4147" stroke-width="1.3" stroke-linecap="round" stroke-linejoin="round"></path><path d="M467 47.9l19.3-10.8a103 103 0 0 1 12.3-6.3c-.7.8-5 3.5-11.8 7.4l-19 10.8-9.4 5.3a176.8 176.8 0 0 1-18.8 9.9c1-1 7.8-5 18.2-11l9.3-5.3M477.7 17.2l-2.3 14c-1.3 7.6-2.3 12.5-2.8 13.5-.2-1 .5-6 1.7-13.7l2.2-14A28010.1 28010.1 0 0 0 480-4a107 107 0 0 1 .9-5.4c-.2 0-.4.3-.2.3-.3.1-.4-.6.3-.6.3 0 .4.3.5.6v.8L481-4c-.5 3.6-1.2 8.6-2.2 14.5l-1 6.7" fill="#3E4147" fill-rule="nonzero"></path><path d="M456.8 496.4c-9.1 0-16.6-8.5-16.6-19 0-10.4 7.5-18.8 16.6-18.8 9.2 0 16.7 8.4 16.7 18.9 0 10.4-7.5 18.9-16.7 18.9m0-40.5c-10.6 0-19.3 9.6-19.3 21.6 0 11.9 8.7 21.6 19.3 21.6 10.7 0 19.4-9.7 19.4-21.6 0-12-8.7-21.6-19.4-21.6" fill="#FFF" fill-rule="nonzero"></path><path d="M456.8 496.4c-9.1 0-16.6-8.5-16.6-19 0-10.4 7.5-18.8 16.6-18.8 9.2 0 16.7 8.4 16.7 18.9 0 10.4-7.5 18.9-16.7 18.9zm0-40.5c-10.6 0-19.3 9.6-19.3 21.6 0 11.9 8.7 21.6 19.3 21.6 10.7 0 19.4-9.7 19.4-21.6 0-12-8.7-21.6-19.4-21.6z" stroke="#3E4147" stroke-width=".9"></path><path d="M451.9 547c-.5-16.6-1.2-34.6 1.7-51 2.3-12.7 9.4-24.1 15.5-35.4 5.8-10.7 10-23.1 27.2-22.6 7 .2 11 1.3 16.8 4.7 12 6.9 23.5 12.8 33.5 22 5.5 5 12.6 13.6 14.6 21 4.7 16.8 6.8 20.8-12.8 45.8-19.6 25-17.6 52-17.6 52s-4.7-29-34.4-33.8h-10.1s15.5 3.4 21.6 18.3c0 0-30.4-29-56-21" fill="#F7C9A1" fill-rule="nonzero"></path><path d="M451.9 547c-.5-16.6-1.2-34.6 1.7-51 2.3-12.7 9.4-24.1 15.5-35.4 5.8-10.7 10-23.1 27.2-22.6 7 .2 11 1.3 16.8 4.7 12 6.9 23.5 12.8 33.5 22 5.5 5 12.6 13.6 14.6 21 4.7 16.8 6.8 20.8-12.8 45.8-19.6 25-17.6 52-17.6 52s-4.7-29-34.4-33.8h-10.1s15.5 3.4 21.6 18.3c0 0-30.4-29-56-21z" stroke="#3E4147" stroke-width="1.3" stroke-linecap="round" stroke-linejoin="round"></path><path d="M555.9 521.4c10-16.9 22.9-25.7 22.9-25.7-.7-10-16.2-20-20.2-7.2" stroke="#3E4147" stroke-width="1.3" fill="#E39D74" fill-rule="nonzero" stroke-linecap="round" stroke-linejoin="round"></path><path d="M451.9 547c25.6-8 56 21 56 21-6-14.9-21.6-18.3-21.6-18.3h10.1c29.7 4.8 34.4 33.8 34.4 33.8s-2-27 17.6-52 17.5-29 12.8-45.9c-1.4-5.1-5.4-11-9.5-15.8 2.6 6 4.8 12 5.9 18.5 1.5 9 .5 17.6-3.2 26-4.5 9.8-11.4 18.3-14.7 28.8-.3 1-1 1.8-1.6 2.3a57.9 57.9 0 0 1-8.6 16.3c-1.5 2-4.7 1.5-6.3 0l-5.8-5.9-6.4-2.7c-12-5.6-39.2-15.5-59.2-8.2v2.1M495 488.3c-6.2-1.3-14.5 3.2-14.4 10.2 3.4-.6 4.5-1.1 8.2 0 3.7 1.2 4.7-.3 7.8-.7.3 0 5.5.1 5 .5 4.8-3.5-3.7-9.4-6.7-10" fill="#E39D74" fill-rule="nonzero"></path><path d="M451.9 547c-.5-16.6-1.2-34.6 1.7-51 2.3-12.7 9.4-24.1 15.5-35.4 5.8-10.7 10-23.1 27.2-22.6 7 .2 11 1.3 16.8 4.7 12 6.9 23.5 12.8 33.5 22 5.5 5 12.6 13.6 14.6 21 4.7 16.8 6.8 20.8-12.8 45.8-19.6 25-17.6 52-17.6 52s-4.7-29-34.4-33.8h-10.1s15.5 3.4 21.6 18.3c0 0-30.4-29-56-21z" stroke="#3E4147" stroke-width="1.3" stroke-linecap="round" stroke-linejoin="round"></path><path d="M510.6 521.8c.6 2.8 1.5 6.7 3.7 8.9 2 1.9 5.7 2.3 8.3 2.3 6.8.2 12.9-.8 19-2.8 1.4-.5 3.6-.5 3.3-2.1-.3-1.2-3.8-3.6-4.9-4.4-1.6-1.2-3-1.7-4.8-2.3-4-1.4-8-3-12-3.5-4.7-.7-8.8 1-12.4 2M480.1 525.7c-.2-1 1.3-4.2 1.9-5.7h-.2c-5-3.9-14.5-1.4-19.7 1.5-2.4 1.4-4 2.2-5.5 4.8-1.7 3-1.8 4.4 1 6.4 3.4 2.4 13.4 2.4 16-1.3" fill="#FFF" fill-rule="nonzero"></path><path d="M512.6 529.6c5.4 10.3 9.3 12.3 18.6 10.7 9.3-1.6 14.8-11 14.8-11l-13.8 3.4c-.6.2-8.3 2.4-9.5 1.5-1.2-1-5.8-1.3-5.8-1.3M481.6 523.3c-4 13.8-9.4 18.1-15.6 17.2-6-.9-12.2-7.3-12.2-7.3l10.7 1.7s4.8-.8 6.4-.8c1.5 0 3.7-1.8 3.7-1.8l2.4-2.6M473.5 482.1c6.2.2 7.7 2.2 15.4 1.8 7.6-.5 27-2.6 28.4-2.7 4.8-.4 1.7-.6 1.7-.6s-5-3.9-10.6-7.7c-9.2-6-13.8-6-20.6-5.6-7 .4-9.8 6.2-10.8 7.8-2.2 3.8-4.9 7.1-4.9 7.1" fill="#E78B63" fill-rule="nonzero"></path><path d="M519.8 526.3c-.5-4.5 3.2-8 8-7.8 5 .3 9.3 4 9.7 8.5.4 4.5-3.2 8-8 7.7-5-.2-9.3-4-9.7-8.4" fill="#CAA575" fill-rule="nonzero"></path><path d="M519.8 526.3c-.5-4.5 3.2-8 8-7.8 5 .3 9.3 4 9.7 8.5.4 4.5-3.2 8-8 7.7-5-.2-9.3-4-9.7-8.4z" stroke="#3E4147" stroke-width=".9" stroke-linecap="round" stroke-linejoin="round"></path><path d="M522.4 526.4c-.3-3.2 2.2-5.6 5.7-5.5 3.4.2 6.5 2.8 6.8 6 .3 3.2-2.2 5.6-5.7 5.5-3.5-.2-6.5-2.9-6.8-6" fill="#3E4147" fill-rule="nonzero"></path><path d="M524 531.8c-1.2-1-1.4-2.6-.4-3.5 1-1 2.7-.9 3.9.2 1.1 1 1.3 2.6.3 3.5-1 1-2.7.9-3.9-.2" fill="#FFF" fill-rule="nonzero"></path><path d="M472.4 534c.8 0 1.5 0 2.2-.3a77.9 77.9 0 0 0 3.3-3.7l3-6c-1-3.5-4.5-6-8.5-6-4.8 0-8.7 3.5-8.7 8 0 4.4 3.9 8 8.7 8" fill="#CAA575" fill-rule="nonzero"></path><path d="M472.4 534c.8 0 1.5 0 2.2-.3a77.9 77.9 0 0 0 3.3-3.7l3-6c-1-3.5-4.5-6-8.5-6-4.8 0-8.7 3.5-8.7 8 0 4.4 3.9 8 8.7 8z" stroke="#3E4147" stroke-width=".9" stroke-linecap="round" stroke-linejoin="round"></path><path d="M466.3 526c0-3.2 2.7-5.7 6.1-5.7 3.4 0 6.2 2.5 6.2 5.7 0 3.1-2.8 5.7-6.2 5.7-3.4 0-6.1-2.6-6.1-5.7" fill="#3E4147" fill-rule="nonzero"></path><path d="M467.3 531.3c-1-1-1-2.5 0-3.5s2.7-1 3.8 0c1 1 1 2.6 0 3.5-1 1-2.8 1-3.8 0" fill="#FFF" fill-rule="nonzero"></path><path d="M499.6 547.8c9.7 1.7 13.8 6.7 28.8 5.2 3.2-.4 6.1-1 8.6-2l1.7-3.8c-3.7.9-7.8.7-15-.7-14-2.7-19.4-2.1-24 1.3" fill="#B78D43" fill-rule="nonzero"></path><path d="M499.6 547.8c9.7 1.7 13.8 6.7 28.8 5.2 3.2-.4 6.1-1 8.6-2l1.7-3.8c-3.7.9-7.8.7-15-.7-14-2.7-19.4-2.1-24 1.3z" stroke="#3E4147" stroke-width="1.3" stroke-linecap="round" stroke-linejoin="round"></path><path d="M481 501.9c.2 1.5 1.1 2.7 1.8 3.9.8 1.2 1.3 2.4 1.6 3.4.6 2 .5 3.4.3 3.8-.3-.3-.6-1.6-1.3-3.5-.4-1-1-2-1.6-3-.7-1.2-1.8-2.5-2.1-4.4-.4-1.8 0-3.5.6-4.8a13.8 13.8 0 0 1 5-5.6c0 .5-.9 1.5-2 3.1-.6.8-1.3 1.8-1.8 3a6.8 6.8 0 0 0-.6 4M500.3 493.7c-1-.7-2.3 0-3.3.7l-1.5 1.1a5 5 0 0 1-1.6.7c-1 .3-2 .1-2.6-.3-.6-.4-.7-1-.6-1.1.2 0 .4.4.9.5.4.2 1.2.2 2 0l1.2-.7 1.5-1.2c.5-.4 1.1-.8 2-1 .8-.4 1.8-.3 2.6.1.9.5 1.4 1.2 1.8 2 .4.7.6 1.4.7 2.1.2 1.4 0 2.6.1 3.5 0 2 .4 3 .4 3.4-.2 0-.5-.3-.8-1a7 7 0 0 1-.6-2.3c-.2-1-.1-2.2-.3-3.4-.2-1.1-.8-2.5-1.9-3.1M520.5 481.4c-1.7.2-3 .2-3.2-.2.1-.6 1.3-.9 3-1 1.7-.3 2.9-.4 3.1.1 0 .6-1.2.9-3 1" fill="#3E4147" fill-rule="nonzero"></path><path d="M493.6 476.2c-3.7-.2-6.9-.3-9.5 0-3.8.3-6.2 2.5-8.2 3.8a12.4 12.4 0 0 1-3.8 2.2c.4-.4 1.6-1.2 3.3-2.8 1-.7 2-1.6 3.4-2.5a12.2 12.2 0 0 1 5.1-1.9 47.5 47.5 0 0 1 14.4.5c6 1 10.7 2.6 14.3 3.4 3.5 1 5.8 1.4 6.4 1.7-.7.1-3 0-6.6-.8-3.6-.6-8.4-2-14.3-3l-4.5-.6M469.5 533.5c1.5 0 2.9-.3 4-.8 1-.5 1.9-1.4 2.5-2.3 1.4-2 2.2-4.2 3-6 1.7-3.5 3-5.7 3.7-6 .2.7-.4 3.1-1.8 6.9-.7 1.8-1.3 4-2.9 6.5a9 9 0 0 1-3.5 3.2c-1.5.7-3.2 1-4.8 1-3.2.3-6.2.4-8.9.2-2.7-.3-5.1-1-7-1.9l-1.2-.6h-.7c-.5 0-1.1.4-1.6.7-1.1.7-2.2.7-2.5.4.4-.2 1-.6 1.7-1.4.4-.4 1-1 2-1.4a3 3 0 0 1 1.7 0c.6 0 1 .3 1.4.4 1.7.7 3.8 1.2 6.3 1.3 2.5.2 5.5 0 8.6-.2" fill="#3E4147" fill-rule="nonzero"></path><path d="M462.9 519.3c4.3-1.9 8.2-2 11-1.8 2.8.2 4.5.7 4.9 1-.5.2-2.2 0-5 0a26 26 0 0 0-10.4 2c-2 .8-3.5 2-4.7 3.3-1.2 1.3-2 2.7-2.6 4-1.2 2.3-1.8 4-2.2 4.4 0-.5.2-2.3 1.3-4.9a14.4 14.4 0 0 1 7.7-8" fill="#3E4147" fill-rule="nonzero"></path><path d="M457.6 534.8c-3.8 0-7.1-2.3-9.6 1 1.5-3.4 5.8-5.3 8.7-10-2.4 3.6 2.3 10.2 6.3 8M529 536.4c-3.7.2-7.2-.4-10.2-1.4l-2.1-.9a9.2 9.2 0 0 1-4.7-4.5c-1.1-2.3-1.4-4.3-1.8-5.9l-.7-3.3V520.1l.2-.1v.4l-.2-.1-.2-.1v-.1c0-.2 0-.2.2-.2h.1l.3.1.1.1a11 11 0 0 1 1.7 3.2c.6 1.5 1.2 3.5 2.2 5.3a7.4 7.4 0 0 0 3.8 3.3l2 .7c2.7.9 5.8 1.4 9.2 1.2a37.2 37.2 0 0 0 16.2-4.5l.9-.4 1.3-.4a6 6 0 0 1 3.7.8c1 .6 1.7 1.3 2.2 1.9 1 1.2 1.4 2.1 1.4 2.6l-2.3-1.7c-1.2-.8-2.7-2-4.7-1.5-.2 0-.4 0-.6.2l-.8.4-1.9 1a36.7 36.7 0 0 1-15.3 4.1" fill="#3E4147" fill-rule="nonzero"></path><path d="M531 519.9c-4-1.4-7.5-1.8-10-1.9-2.7 0-4.3.2-4.8 0 .4-.3 2-.9 4.7-1a31 31 0 0 1 19.8 6.8c2.1 1.8 3.2 3.1 3.3 3.6-.5-.1-1.7-1.2-3.9-2.7a37 37 0 0 0-9-4.8" fill="#3E4147" fill-rule="nonzero"></path><path d="M538.1 522.9c1.3 1 4 2.8 4.2 4.2.5 2.5-5.9 3.4-7.4 5.3 1-1.2 6-1.4 7.6-1.8 2.4-.6 5-.4 7.2-.9 1.6-.3 1.9.4.6-1.4-2.3-3.3-8.7-4.8-12.2-5.4" fill="#3E4147" fill-rule="nonzero"></path><path d="M511.4 525.4c2.9 4.8 7 6.4 12.2 6.1 8-.4 15.3-4.3 23.6-1.9-7.3.3-13.2 5.1-20.7 5-5.4-.2-13.1-1.2-15.3-6.5M450.7 533c4.1-2 9.3-.2 13.7.1 6.5.4 10.6-2.4 14.6-7.3-.8 4.2-3.2 8.6-7.6 9-4.7.3-9.5 1-14-.3-1.5-.4-3-1.4-4.5-1.6" fill="#3E4147" fill-rule="nonzero"></path><path d="M576 454.3c-10.6 0-19.3 9.7-19.3 21.7a1.3 1.3 0 1 0 2.7 0c0-10.5 7.5-19 16.7-19 9.1 0 16.6 8.5 16.6 19 0 10.4-7.5 18.9-16.6 18.9-2 0-3.8-.4-5.6-1.1a1.4 1.4 0 1 0-1 2.5c2.1.8 4.3 1.3 6.6 1.3 10.6 0 19.3-9.7 19.3-21.6 0-12-8.7-21.7-19.3-21.7" fill="#FFF" fill-rule="nonzero"></path><path d="M576 454.3c-10.6 0-19.3 9.7-19.3 21.7a1.3 1.3 0 1 0 2.7 0c0-10.5 7.5-19 16.7-19 9.1 0 16.6 8.5 16.6 19 0 10.4-7.5 18.9-16.6 18.9-2 0-3.8-.4-5.6-1.1a1.4 1.4 0 1 0-1 2.5c2.1.8 4.3 1.3 6.6 1.3 10.6 0 19.3-9.7 19.3-21.6 0-12-8.7-21.7-19.3-21.7z" stroke="#3E4147" stroke-width=".9"></path><path d="M411.8 267.5l-2 2.2-1.6 2a33 33 0 0 0-4.4 8.1l-.6 1.5a363.4 363.4 0 0 0-1 2.6l.2-1.5c0-.3 0-.8.2-1.2 0-.5.2-1 .4-1.6a28.4 28.4 0 0 1 5.8-10.7l2.1-2.3 2-2c4.4-4 8.6-6.8 11.6-8.8 3-2 5-3.3 5.7-3.5-.4.6-2.2 2-5.1 4.2-2.9 2.2-7 5-11.4 9.1l-1.9 1.9M536.7 292.5c2.4 4 4 7.6 5.3 10.8a45.9 45.9 0 0 1 3.6 13.4c-.6-.9-1.7-5.8-4.7-13-1.3-3-3-6.7-5.3-10.6a23.2 23.2 0 0 0-9.5-9.5l-5.7-3a20.2 20.2 0 0 1-5.6-3.6c.7.2 2.7 1.4 6 2.8 1.6.8 3.6 1.6 5.8 2.8a23.4 23.4 0 0 1 10.1 9.9M471.3 482c1.2-.4 2-.8 2.3-.4.2.5-.6 1.2-2 1.6-1.4.4-2.4.2-2.5-.3.1-.5 1-.6 2.2-1M500.3 372.7c-.8-2.2-1.8-4.4-3-6.3-1.3-2-2.7-3.8-4-5.6l-7.8-10.8-7.1-10a29.2 29.2 0 0 1-3-5c-.9-1.8-1.1-3.7-1.1-5.6 0-2 .4-3.7.7-5.2l.8-4c.4-2.2.5-3.6.7-4.1.1.4.3 2 0 4.3-.1 2.3-1 5.4-1 9 0 1.8.2 3.6 1 5.2.6 1.7 1.7 3.2 2.9 4.8l7.2 10 7.7 10.7c1.3 1.9 2.7 3.6 4 5.7a36 36 0 0 1 3.2 6.5c3.2 8.3 3.6 16.8 7.2 23.5a84 84 0 0 0 4 6.9l3.2 5.3c.5.8.8 1.5 1.3 2 .5.4 1 .6 1.4.4.5 0 .9-.3 1-.6.2-.2.2-.5.2-.7 0 .2.2.5 0 .9 0 .4-.4.8-1 1h-1c-.4 0-.8-.2-1-.5-.7-.5-1.2-1.2-1.7-2l-3.4-5.2c-1.3-2-2.7-4.3-4-7-1-1.7-1.7-3.5-2.4-5.4l-1.6-6c-1-4-1.8-8.2-3.4-12.2M484.3 392.4c.5 2.5.8 5 .3 7.6a26.7 26.7 0 0 1-3.7 8l-.7.6c-.3.2-.7.4-1.1.4-1-.1-1.4-.7-1.7-1.1l-.5-.8-.4-.6c-1.1-1.6-2.5-3-3.9-4.1l-4-3.2-1-.7-.4-.3v-.1h-.1l-.9.1-.9.1c-2.3.3-3.8.2-4.3 0l4.2-.7 1.9-.4h.4l.3.3.4.3 1 .6 4.1 3.1c1.5 1.2 3 2.6 4.2 4.4l.8 1.2c.3.4.7.7.9.6.1 0 .5-.2.8-.6l.9-1.3c1-1.8 2-4 2.5-6.1.4-2.2.1-4.6-.4-7-.4-2.2-1-4.4-1.5-6.5l-1.5-6a56.6 56.6 0 0 1-2.2-14.2c0-3.6.7-5.9 1-6.4 0 .7-.3 2.9-.1 6.4 0 3.5 1 8.2 2.5 13.9l1.5 6 1.6 6.5" fill="#3E4147" fill-rule="nonzero"></path><path d="M471.3 328.3c.2 4.5 1.8 8.6 3.6 12.1 1.8 3.6 4 6.7 5.9 9.5 2.1 3.2 3.8 5.8 4.8 7.9 1.1 2 1.6 3.4 1.7 4-.4-.4-1-1.7-2.3-3.6-1.2-2-3-4.5-5.2-7.6-2-2.9-4.1-6-6-9.6a30.6 30.6 0 0 1-3.7-12.7c-.3-4.3 1.2-8.2 1.8-11.7.3-1.4.4-2.8.3-4a18 18 0 0 0-.6-3.7l-1.8-6a15 15 0 0 1-.6-4.3 6 6 0 0 1 .4-2.2c.1.7 0 3 1 6.3.6 1.7 1.4 3.6 2.1 6 .3 1 .6 2.4.7 3.8.1 1.4 0 2.8-.2 4.3-.7 3.7-2.1 7.4-1.9 11.5M586 341.5a64.6 64.6 0 0 0 15-8.5c3-2.2 5.2-4.4 7.2-5.6 2-1.3 3.3-1.9 3.9-2l-3.4 2.6c-1.8 1.4-4 3.6-7.1 6a62.2 62.2 0 0 1-44 12.6c1.2-.4 9 .4 20.3-2.5a66 66 0 0 0 8-2.6M395.7 354.3l-.3.3c-2.2 3.1-3.8 5.7-5 7.7-1.1 2-1.8 3.3-2.2 3.6 0-.4.5-1.9 1.5-4a69.3 69.3 0 0 1 7.2-11.5l5-6.8c2.7-3.8 4.3-6.4 5-7-.2.9-1.6 3.6-4.2 7.6l-4.8 6.9-1.4 2-.7 1v.1l-.1.1z" fill="#3E4147" fill-rule="nonzero"></path><path d="M228.9 320.8c-8.4 11.5-7.3 31.9-8.4 45.6-.5 7.3-6.2 12.6-11.8 16.6-6 4.2-12 12-19 14.4-5.1 1.8-35.3-6.6-28.2-13.8-1-1.5-4.9-3-5.2-4.2-1.4-5.6 8.5-4.2 11.5-5.6-2.5-3.4-11.6-6.3-2.5-9.4 2.5-.9 4.9.8 7.6.1 2.4-.6 3-3.3 6.5-3.4 4.1 0 9-30.3 10.4-33.6 4.3-10.5 16.9-14 23.7-21.6" fill="#F7C9A1" fill-rule="nonzero"></path><path d="M202.1 370.4c.2-.2.2-.2 0 0M205.8 338.6c-2 3.8-3.6 8-4.7 12.3-3.1 12.1-12.4 16.5-21.4 24.2-2.1 1.8-8 6.6-5 9.5 2.2 2.2 5.8-1.8 7.7-2.8 5.7-3 12.2-4.6 17.1-8.8.2 1.2.5 2.3 1 3.3-2 5-5 9-10.2 13-10 7.8-19.5-3-29.1-1.4-1-1.4-1.1-3 .3-4.3-1-1.5-4.9-3-5.2-4.2-1.4-5.6 8.5-4.2 11.5-5.6-2.5-3.4-11.6-6.3-2.5-9.4 2.5-.9 4.9.8 7.6.1 2.4-.6 3-3.3 6.5-3.4 4.1 0 9-30.3 10.4-33.6 3.3-8 10.7-12.1 17.2-17 5-3.9 12.3-11.2 18.8-6 5.6 4.5-1.5 11.4-5.5 15.2a69 69 0 0 0-14.5 18.9" fill="#E39D74" fill-rule="nonzero"></path><path d="M178.4 389.3a286.6 286.6 0 0 1-16.3-4.7h-.4l-.2-.2h-.2v.1c-.2.2-.3.7-.4 1v1.2c-.2-.1-.4-.6-.4-1.3 0-.3 0-.7.3-1.2l.2-.5h.5l.8.3 8 2c2.4.6 5.2 1.5 8.3 2.2 1.4.3 2.8.5 4 .3 2.4-.3 4.4-1.7 6-3.1l4.1-3.9c2.4-2.2 4.5-2.9 5.1-2.9-.5.4-2.3 1.3-4.5 3.5l-4 4c-1.7 1.5-3.8 3.1-6.6 3.5-1.4.2-2.9 0-4.3-.3" fill="#3E4147" fill-rule="nonzero"></path><path d="M163.8 369.5l2 1.5a24.7 24.7 0 0 1 1.5 1.3l.6.5c.4.6 1.6 1.4.2 1.6l-1 .3-.7.2-2.5.3c-1.7.2-3.3.4-4.8.8-1.5.5-2.6 1.4-2.2 2.8v.5l.3.3.8.6 2 1.3 1.1.8.5.5.4.4c0 .2.4.4.2.5l-.4.5-.3.3-.2.4-.2.4v.5c0 .6.2 1.2.7 1.8.4.6 1 1 1.5 1.6a56.2 56.2 0 0 0 25.9 7.8c1.3-.4 2.7-1.1 3.9-1.9 2.5-1.5 4.7-3.4 7-5.4 2-2 4.2-4 6.5-5.9 1.1-1 2.3-1.7 3.4-2.6 1.2-.8 2.2-1.7 3.3-2.7 2-1.9 3.8-4 5-6.4.6-1.2 1-2.5 1.3-3.8.2-.6.2-1.3.3-2l.2-2c.8-10.8 1.5-21.2 3.4-31a38.4 38.4 0 0 1 4.5-13.1c0 1-2 5.6-3.4 13.3-1.8 9.7-2.5 20.2-3.3 31-.1 1.4-.2 2.8-.5 4.3-.3 1.3-.8 2.7-1.5 4a25.3 25.3 0 0 1-5.3 6.7c-1 1-2.2 2-3.4 2.8-1.1 1-2.3 1.7-3.4 2.6l-6.5 5.9a47.1 47.1 0 0 1-9.2 6.6c-.7.3-1.4.7-2.3.8-1.6.2-3.2 0-4.7-.1a62 62 0 0 1-18-5.5 23 23 0 0 1-4-2.5 9.3 9.3 0 0 1-1.9-1.9c-.5-.7-.9-1.6-.8-2.6a3.8 3.8 0 0 1 .8-2l-.4-.4-1-.7-2-1.3-1-.8a2 2 0 0 1-.5-.8l-.1-.7v-1.5l.8-1.3c.7-.7 1.6-1 2.4-1.3 1.7-.5 3.3-.7 5-.9l2.4-.3.5-.1-.3-.3-.5-.4-1-.8-2-1.5c-.5-.5-1.1-1-1.6-1.7-.3-.3-.5-.8-.6-1.3 0-.6.2-1.2.5-1.5.6-.8 1.3-1.2 2-1.5.8-.3 1.4-.6 2.3-.8 1.7-.5 3.3 0 4.6.2 1.4.2 2.8.2 3.8-.6 1-.7 2.1-2.1 3.8-2.6.8-.2 1.8-.1 2-.3.5-.2 1-.7 1.4-1.3 1.4-2.3 2.2-5.2 2.9-7.9.7-2.7 1.2-5.5 1.7-8.3l.8-4.2 1-4a37.3 37.3 0 0 1 13.2-20.6l2.8-2.2c1-.6 2.2-.8 3.2-.7 2 .4 3.2 1.2 4.2 1.5 1 .4 1.8.5 2.1.6-.3.1-1.1.2-2.2 0-1.2-.3-2.6-1-4.2-1.1-.9-.1-1.7 0-2.5.6-.9.6-1.7 1.4-2.6 2.2a36 36 0 0 0-12.7 20 93 93 0 0 0-1 4l-.8 4a129.4 129.4 0 0 1-3 12.7c-.5 1.4-1 2.7-1.8 4-.5.7-1 1.4-1.8 1.8-.4.3-1.1.3-1.3.3l-1 .1c-1.2.4-2 1.4-3.4 2.4-.6.6-1.5.9-2.3 1H170c-1.5-.3-3-.7-4.2-.4-1.3.4-2.8 1-3.6 1.9-.7.6.5 1.8 1.6 2.7" fill="#3E4147" fill-rule="nonzero"></path><path d="M234 360.9l-102 15.5c-3.6.5-5.5 5.1-5 8.7l.4 1.7c.6 3.6 3.8 7.5 7.4 7l101.6-18.2c3.5-.6 6-4 5.4-7.6l-.3-1.7c-.6-3.6-4-6-7.6-5.4" fill="#8D8F92" fill-rule="nonzero"></path><path d="M234 360.9l-102 15.5c-3.6.5-5.5 5.1-5 8.7l.4 1.7c.6 3.6 3.8 7.5 7.4 7l101.6-18.2c3.5-.6 6-4 5.4-7.6l-.3-1.7c-.6-3.6-4-6-7.6-5.4z" stroke="#3E4147" stroke-width="1.7" stroke-linecap="round" stroke-linejoin="round"></path><path d="M136.6 386l98.4-17.8c2.6-.2 3.3 2.4 1 2.9l-99 17.5-.4-2.6z" fill="#ECEDEE" fill-rule="nonzero"></path><path d="M126.3 389.6s-10 .5-10.2-2.2c-.4-2.7 10-5.5 10-5.5l.2 7.7z" fill="#3E4147" fill-rule="nonzero"></path><path d="M126.3 389.6s-10 .5-10.2-2.2c-.4-2.7 10-5.5 10-5.5l.2 7.7z" stroke="#3E4147" stroke-width="1.7" stroke-linecap="round" stroke-linejoin="round"></path><path fill="#8D8F92" fill-rule="nonzero" d="M131 377.5l-8 3.8 1 10 9.8 1.7z"></path><path stroke="#3E4147" stroke-width="1.7" d="M131 377.5l-8 3.8 1 10 9.8 1.7z" stroke-linecap="round" stroke-linejoin="round"></path><path d="M204 323.7c-11 8.5-12.6 15.6-12.3 28.5.2 3.8-.4 8-2.2 11.4-2.9 5.4-15.2 9.8-15.5 16.4-.4 10 11.6.8 15.3-.7 8.6-3.4 11.8-10 19-14.7 1.8-1.1 4-1.9 5-3.7a9 9 0 0 0 1-3.3l1.6-10.4" fill="#F7C9A1" fill-rule="nonzero"></path><path d="M183.2 383.2c-1.5.7-3 1.4-4.6 1.8-.9.2-1.7.3-2.7 0-.9-.2-1.7-1-2-1.8-.4-.9-.4-1.7-.4-2.5v-1.3l.3-1.2c.6-1.6 1.6-2.9 2.7-4 2.3-2.2 4.8-3.9 7.1-5.6a36 36 0 0 0 3.4-2.7c1-1 1.8-2 2.4-3.3 1.1-2.5 1.6-5.2 1.8-7.9v-4-4c.1-2.6.4-5.3 1-7.7.6-2.5 1.7-4.8 3-6.9a28.1 28.1 0 0 1 8.9-8.4l-2.8 2.7a33.7 33.7 0 0 0-5.2 6.3c-1.3 2-2.3 4.2-2.9 6.6a35.5 35.5 0 0 0-1 11.5v4c-.1 2.8-.6 5.7-1.9 8.4-.6 1.3-1.6 2.6-2.7 3.5-1 1-2.2 2-3.4 2.8-2.3 1.8-4.8 3.5-7 5.6-1 1-1.9 2.2-2.3 3.5-.4 1.3-.4 3 0 4.2.3.6.8 1 1.4 1.2.6.1 1.3 0 2-.1a19 19 0 0 0 4.4-1.7l3.7-2 2-1.1 2-.9a28 28 0 0 0 6.8-4.5l5.9-5.6c2-1.8 4-3.5 6.4-4.8a11 11 0 0 0 2.9-2c.7-.8 1-1.8 1.2-2.9l1-5.5c.6-3.2 1-5.2 1.3-5.7.1.6 0 2.6-.5 5.8l-.8 5.6c-.2 1-.5 2.4-1.4 3.4-.9 1-2 1.6-3.2 2.3a32.8 32.8 0 0 0-6.2 4.6l-5.9 5.6c-2 1.8-4.4 3.5-7 4.7l-2 .9-1.9 1-3.8 2.1" fill="#3E4147" fill-rule="nonzero"></path><path d="M200.3 354.8c-1.6 6.8-3.3 11-9 15.4-3.3 2.5-15.3 6.2-17.2 11.7V380c.2-6.6 12.5-11 15.4-16.4 1.8-3.3 2.4-7.6 2.2-11.4-.4-12.9 1.3-20 12.4-28.5l5 10c-4 6.5-7.2 14.6-8.8 21.1" fill="#E39D74" fill-rule="nonzero"></path><path d="M183.2 383.2c-1.5.7-3 1.4-4.6 1.8-.9.2-1.7.3-2.7 0-.9-.2-1.7-1-2-1.8-.4-.9-.4-1.7-.4-2.5v-1.3l.3-1.2c.6-1.6 1.6-2.9 2.7-4 2.3-2.2 4.8-3.9 7.1-5.6a36 36 0 0 0 3.4-2.7c1-1 1.8-2 2.4-3.3 1.1-2.5 1.6-5.2 1.8-7.9v-4-4c.1-2.6.4-5.3 1-7.7.6-2.5 1.7-4.8 3-6.9a28.1 28.1 0 0 1 8.9-8.4l-2.8 2.7a33.7 33.7 0 0 0-5.2 6.3c-1.3 2-2.3 4.2-2.9 6.6a35.5 35.5 0 0 0-1 11.5v4c-.1 2.8-.6 5.7-1.9 8.4-.6 1.3-1.6 2.6-2.7 3.5-1 1-2.2 2-3.4 2.8-2.3 1.8-4.8 3.5-7 5.6-1 1-1.9 2.2-2.3 3.5-.4 1.3-.4 3 0 4.2.3.6.8 1 1.4 1.2.6.1 1.3 0 2-.1a19 19 0 0 0 4.4-1.7l3.7-2 2-1.1 2-.9a28 28 0 0 0 6.8-4.5l5.9-5.6c2-1.8 4-3.5 6.4-4.8a11 11 0 0 0 2.9-2c.7-.8 1-1.8 1.2-2.9l1-5.5c.6-3.2 1-5.2 1.3-5.7.1.6 0 2.6-.5 5.8l-.8 5.6c-.2 1-.5 2.4-1.4 3.4-.9 1-2 1.6-3.2 2.3a32.8 32.8 0 0 0-6.2 4.6l-5.9 5.6c-2 1.8-4.4 3.5-7 4.7l-2 .9-1.9 1-3.8 2.1" fill="#3E4147" fill-rule="nonzero"></path><path d="M178.7 379.7a6 6 0 0 0-1.3 2.2v1c0 .3 0 .5.2.7.8.9 1.5.7 1.8.7 0 .2-.2.5-.7.6a2 2 0 0 1-1.7-.6c-.3-.3-.6-.7-.7-1.2v-1.4c.3-1 .9-2 1.6-2.7l1-1.2.3-.5.6-1.2.7.6a4.1 4.1 0 0 1 1.1 1.1c.4.5.6 1 .7 1.4.2.9 0 1.4 0 1.6-.3-.2-.4-.7-.7-1.3a6 6 0 0 0-1.3-1.6l-.1-.1a7 7 0 0 1-.5.7l-1 1.2M532.2 599.8c0 2.6.4 5 1.4 6.9 1 2 2.6 3.3 4.2 4.2a25 25 0 0 0 4.8 2l4 1.1a25 25 0 0 1 4.1 1.5 157.1 157.1 0 0 1-8.4-1.7c-1.5-.4-3.3-1-5-1.9-1.9-.9-3.7-2.5-4.8-4.6a16.3 16.3 0 0 1-1.6-7.5c0-2.4.2-4.7.3-6.7.6-6-.6-10.8-1.9-14.1-1.3-3.4-2.7-5.3-2.8-6 .5.5 2.1 2.3 3.7 5.6a27 27 0 0 1 2.3 14.5c-.1 2.1-.3 4.4-.3 6.7M580 497.8c-2.8.7-5.3 2-7.3 3.5a29 29 0 0 0-4.9 5c-2.4 3-4 5.7-5.1 7.7l-2.3 3.8a46.8 46.8 0 0 1 6.5-12.3c1.3-1.8 3-3.6 5-5.3a20.5 20.5 0 0 1 15.4-4.2 59.8 59.8 0 0 1 14.4 2.8c3.6 1 5.7 1.9 6.3 2.3-.7 0-3-.6-6.5-1.4a162 162 0 0 0-14.3-2.4c-2.3-.2-4.8-.1-7.3.5" fill="#3E4147" fill-rule="nonzero"></path><path d="M494.2 568.9a67.6 67.6 0 0 1 11.5 17.4 51 51 0 0 1 3.1 9.5c.7 3.2 1 6.3 1.9 9.3.4 1.4 1 2.8 1.7 4 .8 1.3 1.8 2.5 2.8 3.5 2.1 2 4.6 3.6 7 5.2 4.8 3 9.8 5.5 14.7 7.1 1.8.6 3.5.8 5 .6 1.4-.3 2.6-1 3.4-1.7l1-1.1.3-.6.3-.6c.3-.3.5-.5.8-.6.3 0 .5.2.5.3 0 0-.2-.2-.4 0-.2 0-.4.3-.5.6l-.2.5-.3.6-.9 1.5c-.9.9-2.2 1.7-3.8 2-1.7.4-3.6.2-5.5-.3a69.4 69.4 0 0 1-22.3-12.7 17.9 17.9 0 0 1-4.9-8c-.8-3.2-1.1-6.4-1.8-9.5-.8-3-1.7-6.2-3.1-9.2-2.8-6-6.6-11.8-11.3-17a81.3 81.3 0 0 0-21.4-17 40.2 40.2 0 0 0-8-3 25.4 25.4 0 0 0-14-.4c-3.5 1-5.2 2.6-6 2.8.5-.5 2.1-2.4 5.7-3.6 3.5-1.4 8.8-1.7 14.7 0 2.7.7 5.5 1.7 8.1 3a82.4 82.4 0 0 1 21.9 17.3" fill="#3E4147" fill-rule="nonzero"></path><path d="M481.8 591.6c3.7 6.2 6.6 12.6 11 17.6a54.3 54.3 0 0 0 15.7 11.3 78.4 78.4 0 0 0 17.2 6c2.8.8 5.6 1.4 8.3 2 2.7.6 5.4 1.3 8 1.1 1.8 0 3.4-.7 4.5-1.7s1.9-2 2.6-3c1.3-2 2.4-3.1 2.9-3.3l-2.3 3.7c-.6 1-1.3 2.2-2.6 3.4a8.2 8.2 0 0 1-5.1 2c-2.8.3-5.6-.5-8.3-1a191.2 191.2 0 0 1-17-4.6 78 78 0 0 1-17.3-8.4c-2.7-2-5.3-4.1-7.5-6.7-4.7-5.2-7.6-11.7-11.2-17.8a123.2 123.2 0 0 0-33-36.6c-2.8-2-5-3.3-6-4l.3-.2-.1.9a5 5 0 0 1-.3-1h.3c1.2.5 3.4 1.6 6.4 3.4a84 84 0 0 1 10.4 8c8.5 7.7 16.4 17.6 23 28.9" fill="#3E4147" fill-rule="nonzero"></path><path d="M470.2 613.3a63.4 63.4 0 0 1-13.3-14.6c-3.5-5.4-6.2-11-8.8-16.2-2.6-5.4-5-10.5-7.8-15.2a67 67 0 0 0-9.1-12.5c-5.3-5.7-9.8-7.9-10.6-8.7.5.1 2 .7 4 1.9s4.7 3.2 7.4 6a68 68 0 0 1 9.4 12.8c2.8 4.7 5.3 9.9 7.9 15.2 2.5 5.3 5.3 10.8 8.7 16 3.5 5.3 7.8 10.1 13 14.3 9.4 7.6 20 12.4 30 16.2l13.6 5a40 40 0 0 1 6.2 2.4 199 199 0 0 1-20.3-6.2c-10-3.8-20.7-8.7-30.3-16.4M446.5 553.3l2 1.6c6.2 4.7 9.8 8.2 10.4 9.1-1-.3-4.9-3.6-11.1-8.2l-2-1.4-.9-.6-1.2-.9-2-1.4-7.2-4.7c-2.1-1.4-3.8-2.4-5.2-2.7-1.4-.4-2.3-.1-2.7-.1.3-.3 1.3-.8 2.9-.6 1.5.2 3.4 1.2 5.5 2.5a141.5 141.5 0 0 1 10.6 6.9l.9.5" fill="#3E4147" fill-rule="nonzero"></path><path d="M440.5 532.4l.9 3.8c1.4 7.9.3 13-.1 14-.3-1.1.4-6.2-1-13.7l-1-3.8-.4-1.4-.1-.3-.4-1.2-1-2.3c-1.2-3-2.6-5.5-3.9-7.6-2.6-4-4.8-6.3-5.1-7 .7.4 3.1 2.4 6 6.4 1.4 2 2.9 4.6 4.2 7.6l1 2.4c0 .4.2.8.4 1.2v.4l.5 1.5M445.7 522.8a58 58 0 0 1 2.1 16.1c0 7.9-1 12.8-1.5 13.8-.3-1 .4-6 .4-13.8a60.3 60.3 0 0 0-5-23l-3.1-7.6a41 41 0 0 1-1.9-6.2c-.7-3.7-.4-6-.2-6.7.2.7.2 3 1.1 6.5l2 6 3.3 7.5c1 2.2 2 4.7 2.8 7.4M517 595.9c.1 1.7.1 3.4.4 5 .3 1.6 1 3 1.7 4.4 1.6 2.7 4 4.8 6.3 6.7l3.5 2.7a23.4 23.4 0 0 0 11.2 4.2c3.8.5 7 .6 9.4.8 2.3.1 3.8.4 4.3.6l-4.3.1c-2.4 0-5.6.1-9.5-.3a25.7 25.7 0 0 1-11.8-4.4l-3.7-2.7c-2.4-2-4.8-4.2-6.5-7.1-.9-1.5-1.5-3.1-1.8-4.8-.3-1.7-.4-3.5-.4-5.2.1-6.2-1.5-12-3.5-17-2.2-5.5-4.6-9.9-6.4-13-1.8-3.2-3-5.2-3.2-5.9a80.5 80.5 0 0 1 10.8 18.3c2 5.2 3.7 11.2 3.6 17.6" fill="#3E4147" fill-rule="nonzero"></path><path d="M466.5 561.2c2.8 1.7 5.1 3.4 7 5 6 5.2 8.4 9.8 8.7 10.8-.8-.6-3.5-5-9.5-9.9a63.5 63.5 0 0 0-10.4-6.8c-5.3-2.8-10-4.6-13.3-6a43.3 43.3 0 0 1-6-2.6 95.7 95.7 0 0 1 23.6 9.5M594.2 546.8c-.1 7.3 0 14.5-.2 21.4-.3 7-1 13.7-2.6 20-1.5 6.4-4 12.3-7.4 17.3a39.6 39.6 0 0 1-21.2 15.7c-2.3.6-3.8.7-4.3.7.4-.3 1.9-.7 4-1.5a38.6 38.6 0 0 0 20.5-15.7 52.8 52.8 0 0 0 7.2-16.9 95.8 95.8 0 0 0 2.5-19.7c.3-6.9.1-14 .2-21.3.1-6.7.5-13.2 2.1-19.4.8-3.1 1.9-6 3.4-8.8 1.4-2.7 3.3-5.3 5.7-7.1 1.2-1 2.5-1.7 3.9-2.2 1.4-.4 2.8-.5 4-.5 2.5 0 4.7.4 6.5.9 3.6.9 5.7 2 6.2 2.5-.7 0-2.9-1-6.4-1.6-1.8-.4-3.9-.7-6.3-.7-2.3 0-5 .7-7.2 2.6-2.2 1.7-3.9 4-5.3 6.7a36.5 36.5 0 0 0-3.3 8.5c-1.5 6-1.9 12.5-2 19.1" fill="#3E4147" fill-rule="nonzero"></path><path d="M569 520.1a363.2 363.2 0 0 0-18.3 30.3 105.8 105.8 0 0 0-10.7 28.3c-.8 3.7-1.3 6.9-1.7 9.2-.3 2.3-.5 3.8-.7 4.3a73 73 0 0 1 5.5-28c1.8-4.7 4-9.6 6.6-14.5 5-9.8 11.4-19.8 18.1-30.3 3.1-4.7 6.5-9.4 11-12.5 4.6-3.2 9.9-4.6 14.8-5.2a55 55 0 0 1 14.7.3c3.7.4 6 1 6.6 1.2-.7.1-3 0-6.6-.3l-6.4-.3a60 60 0 0 0-8.1.4c-4.8.5-9.9 1.9-14.2 5-4.3 2.9-7.6 7.4-10.7 12.1M174.4 368.7c-1.9.5-4 .6-5.5-.2-1.5-.7-2.6-1.5-3.7-1.7-1-.3-2-.1-2.5.2-.6.3-.8.7-1 .8 0-.2 0-.8.7-1.3.6-.5 1.7-.8 3-.6 1.3.2 2.6 1 4 1.6 1.3.6 3 .5 4.7 0l5-1.3c.6-.2 1-.7 1.6-1.2.5-.5 1-1 1.5-1.3 2-1.5 3.5-1.9 4-1.8-.3.4-1.7 1-3.4 2.5-.5.3-1 .8-1.4 1.3-.4.4-1 1.2-1.9 1.5l-5 1.5M233 368.3c.7 3.4 1.3 5.7 1 6.2-.6-.2-1.4-2.5-2.1-6-.7-3.3-.9-5.8-.5-6.2.5.3.9 2.7 1.6 6M525.5 392.5l1.5.7 1.3.8c.9.5 1.8 1 2.7 1.1l2.8.4c1 0 2 .2 2.9.3 3.7.5 7 1.3 10.2 1.9 3.7.7 6.7 1.2 9 1.3 2.3.1 3.7 0 4.3.2-.5.2-2 .5-4.3.6-2.3 0-5.5-.3-9.3-1-3-.6-6.5-1.3-10.1-1.8l-2.8-.3c-1 0-2-.1-3-.4-1-.2-2-.7-3-1.2l-1.3-.8a26237.2 26237.2 0 0 0-5.5-2.7v.3l.9 2.6.6 4.1c.3 4.8-.3 8.8-1.3 11.5-.9 2.8-2.2 4.2-2.6 4.6.1-.6 1.1-2.1 1.8-4.8a32.4 32.4 0 0 0-.5-17.5v-.3l-.4-.7-.3-.6v-.8c.6.5.2 0 .3.2l.3-.3c.2-.2.7.2 1.1.3l1 .5 1.2.6 2.5 1.2M482 405.2c1.4-3.3 2.4-6 2.5-8 0-2.1-.6-3.3-.6-3.8.2.1.5.4.9 1 .3.6.6 1.6.7 2.7.1 2.4-1 5.4-2.4 8.6-1.4 3.2-2.8 6-4.5 7.6l-1.3 1c-.5.2-1 .2-1.4 0-.8-.4-.9-1-.9-1l1 .4c.5.1 1.2-.3 1.9-1.1a33 33 0 0 0 4-7.4" fill="#3E4147" fill-rule="nonzero"></path><path d="M532.1 370.8c0 .3.1.5.5.4" fill="#70B1DE" fill-rule="nonzero"></path></g></g></g></svg> 