<?xml version="1.0" encoding="UTF-8"?> <svg xmlns="http://www.w3.org/2000/svg" xmlns:xlink="http://www.w3.org/1999/xlink" width="1166" height="821"><defs><path id="a" d="M0 820h855V0H0z"></path><path id="c" d="M.8 25.3h34V.2H.8z"></path><path id="e" d="M.4 25h20.9V1H.3z"></path><path id="g" d="M.5 18.4H39V.9H.5z"></path></defs><g fill="none" fill-rule="evenodd"><circle fill="#CEDD3E" cx="582.5" cy="436.5" r="374.5"></circle><g transform="matrix(1 0 0 -1 168 820.3)"><mask id="b" fill="#fff"><use xlink:href="#a"></use></mask><g mask="url(#b)"><path d="M638.8 167.2l-107 11.2 10-55.3a567 567 0 0 0 14.7-15 1916 1916 0 0 1 28.6-29.6c42-5 66.8-.5 77.1 2.3-3 .6-5.5 1.9-7.7 3.4-19.3 13.5-27.9 60-15.7 83" fill="#FFF" fill-rule="nonzero"></path><path d="M428.4 535.4a6.5 6.5 0 0 0-1.2 3.4 1 1 0 0 1-2 0c0-5.7 8.5-12.1 14-13.5l2.4-.3c2.6 0 3.8 1.3 4.2 2.2.7 1.3 1.2 3.6-.6 6.7a21 21 0 0 1-9.7 8l-1-1.7c2.7-1.1 7.2-4.2 9-7.3 1-1.9 1.3-3.4.5-4.8-.4-.8-1.5-1.6-4.2-.9-4 1-9 4.7-11.4 8.2" fill="#A7A9AC" fill-rule="nonzero"></path><path d="M556.3 695.8a3 3 0 0 1 2.6-1.6c1.3 0 2.7.7 3.4 1.9.2.3.4 1.1.6 2v.1l.7 3.5c.4 2.6 1 5.9 1.9 9l.9 3c.9 3.1 1.8 6.3 1.8 7.4 0 1-1.1 1.9-3 2.4-2.7.7-6.3.1-7.8-2.2a104.4 104.4 0 0 0-1.2-6.4c-.7-4.7-.3-9.1 0-12.7.2-2.5.4-4.7.1-6.4M565.5 701.4l-.6-3.4c.2-.5.9-2 3.4-2.3.1 0 .4 0 1 .4 3.7 2.7 9 14.2 9.7 18.7.3 2-1 3.3-2 4a7.7 7.7 0 0 1-7 .5l-1.7-6.1-.9-3.1c-.8-3-1.4-6-1.9-8.7M540.6 722a2 2 0 0 0 1.3-1c1.2-3.2 1.1-6-.2-8.5a13 13 0 0 0-5.2-4.9c.4-2.4 2.1-11 7.3-11 .3 0 .5 0 .7.2 1.3 1.4 1 6.8.8 12l-.2 3v5.8c0 4.4.1 8.5-1.4 10-.5.5-1 .7-2 .7-1.7 0-3-.5-4-1.6-1.7-1.9-2.1-5-2.2-6.8l.7.4c1.9 1.2 3.2 2 4.4 1.7M547.3 709l.2-6.8c-.2-3.9 1.4-5.9 2.4-6.8 1-1 2.3-1.3 3-1.2 1.8.3 1.8 2.5 1.3 7.8-.3 3.7-.7 8.3 0 13.1l.9 4.7.4 2c.4 1.9.5 3.4 0 4-.4.5-1.2.8-2.4.8-4.8 0-5.9-5-6-5.6v-3.4-5.8l.2-2.9" fill="#F5D4B8" fill-rule="nonzero"></path><path d="M436.8 140.6c6 18.4 13.5 41.2 9.9 70.4h-2.4c-7 0-14.2.8-22 3A180 180 0 0 0 375 204c-4 0-7.5.5-10 1.7a72.2 72.2 0 0 1-40.2-38c-4.2-8.6-7-17.8-9.2-27.1a264 264 0 0 1-4.8-28.4c-2.3-19.2-3.2-38.4-4.8-57.7a353.7 353.7 0 0 0-8.2-56l67.8-1.2A69 69 0 0 1 375.8 16c2.6 6.9 4.6 14 6.7 21.1 4 14.3 8.4 28.8 16.2 41.6a92.3 92.3 0 0 0 30.6 31l1 .6c-.7 8.6 2.6 18.7 6.5 30.3" fill="#71A3C3" fill-rule="nonzero"></path><path d="M462.5 202c-.5-3.4-2.6-5.9-4.9-5.9h-.4c-2.5.4-4 3.5-3.5 7.2.2 1.6.9 3 1.8 4.2 1 1.2 2.3 1.8 3.5 1.6 1.3-.2 2.4-1.1 3-2.6.6-1.3.7-2.9.5-4.5m43.8-48.9c-9.3 8.2-12.5 11.1-12.8 12.4-.9 3.1 1.3 12.4 5.2 28.7 2.6 10.7 5.4 22.6 7.5 33.8-4-.9-9-3-14.6-5.3-11.5-4.8-26-10.7-43-11.6 3.7-29.6-3.8-52.6-10-71a89.3 89.3 0 0 1-6.4-28.6l2.9 1.6 5 2.7c3.3 1.5 6.7 3.3 10.2 4.6 6.9 2.8 14.2 4.6 21.5 6a214 214 0 0 0-5.2-2A344.1 344.1 0 0 1 441 114l-5-2.5-4.5-2.7C461.5 90.5 567.2.2 573.3-5l71.3-3.3A95.2 95.2 0 0 1 634.5 25c-2 3.3-12.7 13.8-27.4 28.5a2544.8 2544.8 0 0 0-52 53.1c-18.6 19.6-36.8 35.8-48.8 46.5" fill="#71A3C3" fill-rule="nonzero"></path><path d="M488 237.5c-3.8-1.2-10.4-3.7-18.7-6.8-12.4-4.7-28-10.5-43.4-15.5a77.7 77.7 0 0 1 21.5-2.2h.1c17.1.7 31.7 6.8 43.4 11.6 6 2.5 11.3 4.7 15.7 5.5l1 5.6c-3.9 2.8-10 4.8-19.5 1.8" fill="#F5D4B8" fill-rule="nonzero"></path><path d="M381.1 372.9c3.6 3.9 7.8 7.2 12.2 10.1 4.4 3 9 5.7 13.8 7.9 9.5 4.5 19.4 8.4 29.3 11.9 10 3.5 20 6.6 30.2 9.3l15.3 4.1a101 101 0 0 0 15.7 2.5c-5-1.8-10-3.3-15.2-4.6a469 469 0 0 1-45.4-13.2c-9.8-3.5-19.6-7.3-29-11.9-4.7-2.4-9.4-4.6-14-7.3a90 90 0 0 1-12.9-8.8m92.3 70.4l13.8 12.7 13.7 12.7c4.4 4.4 9.3 8.4 14.4 12-4-5-8.3-9.4-13-13.5l-13.8-12.7-13.7-12.8c-4.6-4.2-9.5-8.1-14.5-12 4.2 4.8 8.5 9.3 13 13.6m32.6-84.7l-6.6-23.3-6.6-23.3c-2.1-7.8-4-15.7-7.6-23.1.8 8.1 3.4 15.8 5.7 23.6l6.6 23.3 6.6 23.4c2 7.8 4.5 15.5 7.6 23-1.4-8-3.3-15.9-5.7-23.6m-52.3-55.3a227.9 227.9 0 0 0-12.3-15.2l-4.2-5a206 206 0 0 0 14.9 21.4l16 20.6 16.1 20.5c5.2 7 10.9 13.5 17 19.7-4.7-7.3-9.8-14.3-15.4-21L469.6 324l-16-20.6m-27-26l-3-4.2-2.8-4.2-2.8-4.2-2.9-4.2-5.5-8.5c3 6 6.3 12 9.8 17.8 1.8 2.9 3.5 5.8 5.4 8.6l5.6 8.5a1088.6 1088.6 0 0 0 49 64.8 364.8 364.8 0 0 0 26.8 30.5 888.1 888.1 0 0 0-25.2-31.8 1283 1283 0 0 1-25-31.9 832.8 832.8 0 0 1-23.8-32.8l-5.7-8.4m-61-69.8c15.8-7.7 72.6 13.6 103.1 25 8.4 3.2 15 5.7 18.9 6.9 10.5 3.3 17.3.9 21.5-2.4.2 0 .3-.2.4-.3 2.2-1.9 3.7-4 4.6-5.4 5.1 17.8 9.3 145.5 10.7 201.3l-1.6-4-2-6.4-2-6.4c-.6-2.1-1.2-4.3-2-6.5 0 2.3.2 4.6.5 6.8l1.4 6.7 2.2 6.5 2.5 6.3a293 293 0 0 0 9.8 21.2c.5 1.1 1 2.2 1.7 3.3 4 8 8.4 16 12.7 23.9 2.1 4 4.2 7.9 6.2 12 1 2 2 3.9 2.8 6-3.6-4.6-7.6-9-11.6-13.1-4-3.9-7.7-7.8-11.9-11.4-4.1-3.5-8.5-6.9-13.2-9.7L532 479l6 5.5a174.7 174.7 0 0 1 21.5 24c1.6 2.3 3 4.6 4.4 7 1.4 2.3 2.5 4.8 3.4 7.2l.7 2 .5 1.8.9 4a285.3 285.3 0 0 1 5 47.5l-9.6-.1c-12.2 0-24.8.3-35.6.6l-1.5-20.7c-.1-1.2-1.9-3.6-6.5-9.5-1.8-2.2-3.6-4.5-5.2-6.8-8.8-11.8-17.4-22.7-25.1-25.6a45.9 45.9 0 0 1-3.3-1.3c-13-5.8-36.3-21.8-46.7-39.4a38.5 38.5 0 0 0 4.7-14.2c.7-5.2.2-10.6-2-15.5-2-4.8-5.7-9-10-11.9a55 55 0 0 0-21.7-8.2 27 27 0 0 0-7.9 0 20 20 0 0 0-13.4 8c-3.3 4.2-5.2 9-6.9 13.9v.3c-4.7-1.2-26.6-7-38.5-13.5-1.4-.7-3.7-2.5-6.5-5.2a246.1 246.1 0 0 1-11.1-11c-10-10.7-22.6-25-34.6-39.9-26.3-32.5-41.7-56.6-41.1-64.5.5-7.6 11.5-24.7 60.6-63l2-1.6c.2.2.3.6.4 1 1 2.9 2.8 8.3 9.1 13.9 7.1 6.3 13.1 6.3 15.6 6.3h.3c-3 5-25.3 30.8-39.5 46.9a40 40 0 0 0-21 4 49.7 49.7 0 0 1 41 4.8c6.1 3.7 11.6 8.4 16.4 13.7a95.7 95.7 0 0 1 12.5 17.3 1 1 0 0 0 1.9-.2 56.7 56.7 0 0 1 18-28.5l1.4-1.3.8-.6.8-.5 3-2.2 1.7-1 1.6-1c2.1-1.5 4.4-2.5 6.7-3.7 1-.7 2.3-1.1 3.5-1.6l3.5-1.6c-2.5.6-5 1.1-7.5 2-2.4 1-5 1.8-7.2 3.1-1.1.7-2.3 1.2-3.4 2l-3.2 2.3-.8.6-.7.7-1.5 1.3c-.2 0-.3.2-.5.4 1.4-5.8-.5-12-2.3-17.8-1-3.4-2.1-6.6-2.1-9 0-3.8 1.5-9.7 3-15.3 1.4-6 2.8-11.5 2.6-14.6-.2-1.5-1-3.8-2.3-7-4-10.3-11.5-29.5-4.4-52 .5-1.7 1.7-3 3.6-4" fill="#D8E9F7" fill-rule="nonzero"></path><path d="M323.5 576a67 67 0 0 1 19-11c7-2.7 14.3-4.2 21.7-4.7a92 92 0 0 1 12.6.1 75.5 75.5 0 0 0-25.8 9.5 91.6 91.6 0 0 0-27.4 24.9 1 1 0 0 0 1.5 1.3 96 96 0 0 1 47.2-25.5 80.4 80.4 0 0 1 27 0 83.6 83.6 0 0 1 18.7 6 58.2 58.2 0 0 0-14.4-.5c-7.3.5-14.5 2.1-21.4 4.4-7 2.3-13.6 5.3-20 8.7a73.1 73.1 0 0 0-17.7 12.6c6.2-3.7 12.4-7.2 18.7-10.8 6.2-3.5 12.8-6.3 19.6-8.6a88.3 88.3 0 0 1 21-4.3 69.8 69.8 0 0 1 21 1.9 1 1 0 0 0 .8-1.9c-5-2.7-10.1-5-15.5-6.8l4.7-10c2 4.8 6.4 10.6 13.4 9 4-1 7.7-6 9.2-12.5 1-5 .7-9.9-1-14a23 23 0 0 0 10.5-8.9c2.3-3.9 1.6-6.9.7-8.7-.6-1-2.2-3.2-6-3.2-.9 0-1.8.1-2.8.4-4.3 1-10 4.7-13.2 9-.3 0-.6-.2-.9-.4.1-1.8.3-6.7.1-12.2.5-3.8 1.4-7.6 2.5-11.3a141.3 141.3 0 0 1 8.3-22c1.4-3 2.8-6.1 4.3-9 2.3 3.7 5.3 7.4 8.6 11-.8.1-1.6.4-2.3.7-1.4.6-2.5 1.5-3.6 2.5a18 18 0 0 0-4.6 7l3-2.9a36.4 36.4 0 0 1 6.2-4.5l3-.9 3.7 3.6a32.1 32.1 0 0 0-11.4 10.2l-2.1 3.6-1 2-.7 1.9c-.5 1.3-.7 2.7-1.1 4-.3 1.3-.5 2.7-.6 4 1-2.5 1.8-5 3-7.5a44 44 0 0 1 9.6-12.6l1.3-1-.5 1-.7 1.8-.6 1.8-.4 1.8a33.7 33.7 0 0 0 0 9.3c.3 2.5.7 5 1.5 7.2a63.3 63.3 0 0 1 .3-14.3c.3-2.4.7-4.7 1.7-6.8.8-1.8 2-3.5 3.5-4.8 6.5 5.8 13.5 10.9 19.9 14.8-.6 4-2 7.8-3.8 11.3a45 45 0 0 1-7.6 10.2 103.4 103.4 0 0 1-20.2 15.6 53.8 53.8 0 0 0 21.7-14.2c3-3.2 5.7-6.7 7.8-10.6 1.9-3.5 3.2-7.2 4-11.1a99 99 0 0 0 8.8 4.7c-.8 3.3-1.7 6.6-3.2 9.6l-.6 1.3-.6 1.2-1.4 2.3a72.6 72.6 0 0 1-11 12.2 94.6 94.6 0 0 1-8.8 6.9 42.2 42.2 0 0 0 18.1-13.3l3.4-4.7 1.4-2.5.7-1.2.6-1.3c1.6-3 2.5-6.4 3.2-9.7l1.4.6a48.3 48.3 0 0 1-9 29.1 83.6 83.6 0 0 1-24.1 20.9c-4.6 2.9-9.3 5.4-14 8.4-1 .8-2.2 1.7-3.2 2.8-1 1.2-1.7 2.4-2.3 3.6-1.4 2.4-2.4 4.9-3.6 7.4a134 134 0 0 1-7.3 14.3 56.7 56.7 0 0 1-37.3 27.8 60.2 60.2 0 0 1-31.6 0 70 70 0 0 1-27.7-15.4 95.3 95.3 0 0 1-20-24.3 61.6 61.6 0 0 1 14-16.3" fill="#FDBE2A" fill-rule="nonzero"></path><path d="M440.2 529.2c1.4-.4 2-.2 2-.1.4.6.3 1.6-.4 2.7a19.3 19.3 0 0 1-8.6 6.7c-.8-1-1.7-1.8-2.6-2.7 2-2.7 6-5.7 9.6-6.6" fill="#FDBE2A" fill-rule="nonzero"></path><path d="M421.2 559.4c.6 1 2.3 0 1.7-1-1.2-1.9-1.8-3-1.3-4.2l.2-.4h.3c.5.2 1.3.3 2.2-.3 1.2-.8.8-2.6.4-4.9-.3-1-.7-3.3-.4-3.8l.6.1c1.6.7 3-.9.8-1.8l-1.2-.3c-.6 0-1 .2-1.3.4-1.5 1-1 3.4-.5 5.8.2 1 .5 2.4.4 2.9h-.7c-.7 0-2-.3-2.7 1.5-.9 2.3.3 4.2 1.5 6m-42-96.4c15.5 1.7 37.2 34 40.8 40.4 4 7 2.7 29 2.7 29.2 0 .4.2.8.6 1l1.2.6c-.8 1.5-1.3 3-1.3 4.6a3 3 0 0 0 6 0c0-.3 0-.8.3-1.3a20 20 0 0 1 5.9 19.9c-1.2 5.6-4.4 10.2-7.6 11-8.6 2-11.7-9.5-11.8-10a1 1 0 0 0-1.9-.2l-6 12.5a82 82 0 0 0-22.4-3.4A82.2 82.2 0 0 0 346 578c-4.2 2.3-8.2 4.8-12 7.7a89.5 89.5 0 0 1 18.1-14.2 66.2 66.2 0 0 1 34.5-10 1 1 0 0 0 .2-2c-7.5-1.3-15-1.8-22.7-1.3a69 69 0 0 0-46.3 20.3 41.9 41.9 0 0 1-12.9-18.5c-1.9-15.2 6-29.2 10.8-37.6 1.4-2.5 2.6-4.5 3-5.8.6-1.8 1.2-3.6 1.7-5.6 1.3-4.3 2.7-9.2 5.3-14.7 2-4.3 14.7-13 24-19.3 10-6.7 22.4-15 29.6-14.1" fill="#F5D4B8" fill-rule="nonzero"></path><path d="M391 451.6l-8.9 7 1.2-3.3 2.3-7.3c1.6-4.7 3.6-9.4 6.6-13.3a18 18 0 0 1 12.1-7.3 25 25 0 0 1 7.3 0 53.1 53.1 0 0 1 20.8 8c4 2.8 7.5 6.5 9.4 11 2 4.5 2.5 9.6 1.9 14.5a36.3 36.3 0 0 1-4.7 13.9h-.1a248.6 248.6 0 0 0-13.5 33.1l-1.1 4c-.5-3.8-1.3-7.3-2.5-9.5-4.3-7.4-24.2-36.7-40.1-41l10.6-8.1a95.4 95.4 0 0 0 11.7-10.4 79.7 79.7 0 0 0-13 8.7" fill="#F5D4B8" fill-rule="nonzero"></path><path d="M170.1 140c1.9-5.6 7.1-12.9 13.1-21.3 13.1-18.3 31-43.2 25.2-67.7 35.1 5.4 80.2 44.4 84.8 48.5-.6 5-7 47.1-42.5 83.2a1478 1478 0 0 0-80.6-42.8" fill="#FFF" fill-rule="nonzero"></path><path d="M526.7 437.6v-.3c0-3-.7-32.5-2-68.4 21.3 1.8 33.2 12 43.7 21.2 4 3.4 7.8 6.7 11.7 9-10 14.6-17 62.4-18.2 72a478.6 478.6 0 0 0-26.8-15.6c-3-5.9-5.8-11.8-8.4-17.9" fill="#ECEDEE" fill-rule="nonzero"></path><path d="M135 315c.2.2 7 15.5-2.7 22.7-17.7 8.1-58.6-1.1-65.7-2.9l26-75c6.4 1.5 46.1 9.7 80.3 3.9-18.8 25.7-37.5 50-37.7 50.4a1 1 0 0 0-.1 1M721.6 383.1l41 77.4C750 457.9 686 447 652.3 487.3c-4-12.5-12-22.6-23-36.3-7.2-9-15.3-19-24-32.2 53.3-47 110.6-36.8 116.2-35.7M111.8 406.8L220.1 459a203.8 203.8 0 0 1-51.3 72.4c-6.6-4.7-60.5-43.3-88-65.8 4.2-4 23-23.3 31-59M779.4 263.4l-78-43.7c2.7-3.9 13.6-19.3 29.3-36 16.5-17.4 41.8-39.7 68.7-47 19.7 12.3 43.7 32 50.5 37.6a48 48 0 0 0-22.5 10.6c-23.2 18-38.9 52.4-48 78.5M544.8 615.4a1 1 0 0 0-2 0v24c0 .5.5 1 1 1h12.7c.6 0 1-.5 1-1V615a1 1 0 0 0-2 0v23.2h-10.7v-23zm-7-.2a1 1 0 0 0-2 0v11.5h-10.6v-11.2a1 1 0 0 0-2 0v12.2c0 .5.4 1 1 1h12.6c.6 0 1-.5 1-1v-12.5zm23 44.8c0 .6.5 1 1 1h12.7c.6 0 1-.4 1-1v-45a1 1 0 0 0-2 0v44h-10.7v-43.8a1 1 0 0 0-2 0V660zm20.2 19.2c0 .5.5 1 1 1h12.7c.5 0 1-.5 1-1v-63.9a1 1 0 0 0-2 0v62.9H583v-62.6a1 1 0 0 0-2 0v63.6zm13.3-86.9c.5 0 1-.4 1-.9 0 0 .6-5.1 4.1-7.4 2.1-1.4 4.9-1.5 8.3-.4 7.1 2.4 8.4 19.6 9.3 40.1l.7 15.9c1 20 1.5 28.5-1.3 59.7a3522 3522 0 0 0-42.3-.5 17.2 17.2 0 0 0-3.5-4.3c-.8-.6-1.5-.8-2.2-.8h-.4c-1.8.3-3 1-3.8 1.8a5.7 5.7 0 0 0-5.4-3.3 5 5 0 0 0-3.3 1.4 3.3 3.3 0 0 0-2.2-1.4 4 4 0 0 0-.7 0c-1.3 0-2.8.6-4 1.7-.7.6-1.4 1.4-2 2.6l-.6-1c-.6-.6-1.3-1-2.2-1-3 0-5 2-6.4 4.3h-13.2c-10.8.1-18.5.3-22.1.5.4-6.5.4-16.2.3-28.4l.1-28.2c0-4.3.3-9.2.5-14.3.7-14.2 1.5-28.8-1.4-35.2 29.7-2.3 92-.9 92.7-.9z" fill="#FFF" fill-rule="nonzero"></path><path d="M534.7 605.3l41.3-.8" stroke="#3E4147" stroke-width="2" stroke-linecap="round" stroke-linejoin="round"></path><g transform="translate(360 538.7)"><mask id="d" fill="#fff"><use xlink:href="#c"></use></mask><g opacity=".8" mask="url(#d)" fill="#E4ADA3" fill-rule="nonzero"><path d="M4 .2c-6 6-3.7 20 8.3 24.3C25 29.1 34.8 13.1 34.8 13.1S11.9 11 4 0"></path></g></g><path d="M364 538.9a18 18 0 0 0 6.4 10c3.3 2.6 7.6 3.8 11.5 4.2 4 .4 7.8 0 11.3.2 1.8.1 3.5.3 5 1 1.4.7 2.7 2 3.7 3.7h.2c-.2-2-1-4-2.6-5.5a12.8 12.8 0 0 0-5.7-2.8c-4-.9-7.8-1-11.3-1.4-3.6-.5-6.9-1.2-10-2.8a27 27 0 0 1-4.3-2.9c-1.4-1-2.7-2.5-4.1-3.8h-.1" fill="#3E4147" fill-rule="nonzero"></path><g transform="translate(317.3 514.7)"><mask id="f" fill="#fff"><use xlink:href="#e"></use></mask><g opacity=".8" mask="url(#f)"><path d="M21.2 14.2a9.8 9.8 0 0 1-15.7 8.7C-3.6 16.9 2.3 1 2.3 1s7.5 14.2 18.9 13.2" fill="#E4ADA3" fill-rule="nonzero"></path></g></g><path d="M385.1 552.4l3.2.8a16.8 16.8 0 0 1 6.1 3 16.7 16.7 0 0 1 2.6 2.7v-.1c-.3-1.2-.7-2.4-1.5-3.5l-1.2-1.6-1.5-1.4c-1-.8-2.2-1.5-3.5-2-1.3-.5-2.5-.9-4-.8a1.5 1.5 0 0 0-.4 2.8h.2zM338.5 528.8l-3.9-1.6c-1.2-.6-2.3-1.3-3.2-2a30.4 30.4 0 0 1-5-5.6 33 33 0 0 0-3-3.4 11.6 11.6 0 0 0-4-2.7 8.8 8.8 0 0 0-5-.4c-1.5.3-2.9 1-4 1.8l-.1.1 4.2.4c1.3.3 2.3.7 3.2 1.4 1.8 1.2 3.1 3.4 4.8 5.7 1.7 2.3 3.9 4.8 7 6.1a12 12 0 0 0 9 .3v-.1M345.3 530.3c.4-2 .3-4-.2-6-.2-1-.6-1.8-1-2.6a4 4 0 0 1-.2-2.3c.2-1.5 1.7-2.3 3.3-2.8 1.6-.5 3.4-.6 5.5-.9a7.9 7.9 0 0 0-9 .2 5 5 0 0 0-1.8 3c-.2 1.3 0 2.4.3 3.4l1.1 2.7 1.1 2.6 1 2.7M355.8 521.5c.1.8.4 1.6 1.1 2.2.7.7 1.8.8 2.6.8 1.6-.1 3.1-.4 3.4-.1.3.2.6.6.6 1 .1.6 0 1.2-.2 1.7a6.5 6.5 0 0 1-2.5 3.2c1.6 0 3-1 4-2.4.5-.7.8-1.6.8-2.5 0-1-.3-2-1.2-2.8l-.8-.5-.8-.2-1.4.1-2.1.6c-.7.1-1.2.2-1.7 0a5 5 0 0 1-1.8-1" fill="#3E4147" fill-rule="nonzero"></path><path d="M345.3 496.7c1.8.6 3.5 1.3 5 2.3l6.4 4.1c4.3 2.6 8.8 5 13.6 6.7 4.7 1.8 9.6 3 14 5a42 42 0 0 1 6.5 3.5c-9.7-3.9-19.5-5.7-30-10.4-8.7-3.9-10-7.6-16.3-11.4l.8.2" fill="#CB6649" fill-rule="nonzero"></path><path d="M357.7 501.4l-6.3-4c-.8-.6-1.6-1-2.5-1.4l1.7-1a113.3 113.3 0 0 1 11.3-5.8l.9-.2.9-.1 1.8.3c1.3.3 2.6.8 3.8 1.4 5 2.6 9.3 6.3 12.7 10.7a29 29 0 0 1 6.2 13.1l-3-1.4c-4.7-2-9.6-3.3-14.2-5-4.6-1.8-9-4-13.3-6.6" fill="#FFF" fill-rule="nonzero"></path><path d="M392 516.6l-1.6-1c-.6-5.9-3.3-11.1-6.8-15.6a42 42 0 0 0-13.4-11.2c-1.3-.6-2.7-1.2-4.2-1.6a10 10 0 0 0-2.3-.3l-1.3.1-1.2.4a62 62 0 0 0-11.6 5.9l-1.8 1-.5.3h-.2c-.2.1-.5.1-.8 0-.8 0-1.6-.3-2.4-.6 6-1.4 13.5-9.4 20.1-10.7 5.7-1.2 14.6 3.1 21.2 10.7 6.3 7.3 5.8 15.8 7.9 23.6a22 22 0 0 0-1.1-1" fill="#E17A5A" fill-rule="nonzero"></path><path d="M339.5 491.1c0 .8.2 1.6.6 2.3.5.6 1 1.3 1.6 1.7 1.3 1 2.8 1.6 4.5 1.7l1.3-.1c.3 0 .6-.2.8-.3l.5-.3 1.8-1.1a117.4 117.4 0 0 1 11.3-5.8l.9-.2.9-.1a8 8 0 0 1 1.8.3c1.3.3 2.6.8 3.8 1.4 5 2.6 9.3 6.3 12.7 10.7 3.5 4.3 6.1 9.5 6.4 15a1 1 0 0 0 2-.1c-.4-6-3.2-11.6-6.8-16.2a42 42 0 0 0-13.4-11.2c-1.3-.6-2.7-1.2-4.2-1.6a10 10 0 0 0-2.3-.3l-1.3.1-1.2.4a62 62 0 0 0-11.6 5.9l-1.8 1-.5.3h-.2c-.2.1-.5.1-.8 0a13 13 0 0 1-3.6-1 8.3 8.3 0 0 1-3-2.5h-.2" fill="#3E4147" fill-rule="nonzero"></path><path d="M343.7 496.2a25 25 0 0 1 6.6 2.8l6.4 4.1c4.3 2.6 8.8 5 13.6 6.7 4.7 1.8 9.6 3 14 5 2.4 1 4.4 2.2 6.5 3.5l6.2 4.2v-.1c-1.2-2.2-3-4.2-5-5.8-2.1-1.5-4.5-2.6-6.8-3.6-4.7-2-9.6-3.3-14.2-5-4.6-1.8-9-4-13.3-6.6l-6.3-4a27 27 0 0 0-7.1-3.1 1 1 0 0 0-.6 1.9" fill="#3E4147" fill-rule="nonzero"></path><path d="M420.5 673.3c-3 5-9 8-14.9 7.7a16.6 16.6 0 0 1-13.8-9.5c-1-2-1.4-4.4-.9-6.7.5-2.2 2.2-4.2 4.5-4.6 2.3-.5 4.6.7 6.1 2.5 3.3 3.8 2.9 10-.4 13.8a13.8 13.8 0 0 1-13.7 3.8c-4.9-1.3-8.9-4.9-11.3-9.3-.8-1.5-1.4-3.4-.5-4.9 1.1-1.9 4-1.7 6-.6 3.3 2 5.4 6.3 4 10-1.2 3.4-4.9 5.4-8.4 6.3-8.5 2.2-17.7.2-25.2-4.4a48.4 48.4 0 0 1-17-19.6M548.4 761.6a17.5 17.5 0 0 1 3.3 21.5 17.5 17.5 0 0 1-20.7 7 8.8 8.8 0 0 1-4.1-3c-1-1.4-1.3-3.4-.4-4.9.6-.8 1.4-1.4 2.3-1.8 4.7-1.8 10.4 2.4 10.6 7.4.2 5-4.4 9.5-9.5 9.9-2.8.2-5.6-.7-8.2-1.6 1.6-1.4 4.4-.5 5.3 1.5 1 1.9.3 4.3-1.1 5.9a11.4 11.4 0 0 1-5.6 3c-9 2.4-19.3-.7-25.5-7.7M670 761.7c3.9 9.6 12.6 17 22.7 19.5 3 .7 6.5 1 9-.7 3.6-2.2 4.4-7.2 2.9-11a20 20 0 0 0-8.3-9c-1.4-.8-3.2-1.6-4.5-.7-1.8 1.4-.4 4.3 1.2 5.8 6 5.8 14.3 9.3 22.7 9.7 4 .1 8.6-1 9.9-4.7 1-3.1-1.6-6.8-4.8-7-.9 0-1.8.3-2.4 1-1.6 1.7.7 4.3 2.9 5.3a26 26 0 0 0 13.7 3.2 15 15 0 0 0 11.8-7M676.3 656.8c6.5 3.6 14.1 5.5 21.5 4.5 7.3-1 14.4-5 18.3-11.3 1.5-2.4 2.5-5.3 2.1-8-.3-2.9-2.3-5.6-5-6.2-2.8-.6-6 1.7-6 4.5.2 2.7 2.8 4.5 5.1 5.8 3.5 1.8 7.2 3.5 11 3.5 4 0 8.1-2.2 9.3-6 1.1-3.7-2.1-8.4-6-7.8-1 1.7 0 4 1.7 5s3.8.8 5.7.4a27.3 27.3 0 0 0 17-11.4" stroke="#3E4147" stroke-width="2" stroke-linecap="round" stroke-linejoin="round"></path><path d="M707.7 420.9c-2.4-13-17-21.2-32.5-18.3-15.5 3-26 15.8-23.6 28.8 2.4 13 17 21.2 32.5 18.3 15.5-2.9 26-15.8 23.6-28.8z" stroke="#C4D7E9" stroke-width="2" stroke-linecap="round" stroke-linejoin="round"></path><path stroke="#C4D7E9" stroke-width="2" d="M657 441.8l22.7-15.6-3.4 24" stroke-linecap="round" stroke-linejoin="round"></path><path stroke="#C4D7E9" stroke-width="2" d="M688.8 448.5l-9.1-22.3 25.8 8.6M679.7 426.2s7-13.3 15.9-20.9" stroke-linecap="round" stroke-linejoin="round"></path><path d="M650.6 221c4.7 2.2 7.7 5.2 9 9 2.3 6.5-1.3 13.5-1.4 13.5a1 1 0 0 0 .5 1.4c.3.1 26.5 11 26.6 33.6a380.8 380.8 0 0 1-24.7 76.2c-11-11.3-25.3-22.2-62.7-23.6 4.3-10.4 30.5-78 7.9-118 6 .4 26.2 2 44.8 8" fill="#FFF" fill-rule="nonzero"></path><path d="M660.5 243.5c1-2.3 3.1-8.2 1-14.2a15 15 0 0 0-3.4-5.6 49.1 49.1 0 0 1 25.3 19c3.8 6.7 4.3 16.9 3 28.5-4.3-16.7-21.6-25.7-26-27.7" fill="#ECEDEE" fill-rule="nonzero"></path><path d="M159.2 516.6c13.2-16 24.3-33.8 33-52.7a362 362 0 0 1-63.5-35.6" stroke="#C4D7E9" stroke-width="2" stroke-linecap="round" stroke-linejoin="round"></path><path d="M189.5 470.9l-11-6.8c-.9 3.2-3.2 5.9-6.2 7.2l13 6M180.1 487.2a187 187 0 0 1-51.3-29.2l-.7 7.4 48.6 27.5M170 500.8a269.6 269.6 0 0 1-52.2-32.7l-6 8.9 53 32.2M137.6 319.3c-.9 3.6-4.6 5-8.2 5.5a22.6 22.6 0 0 1-23.8-15c-3.3-9.6.8-21 9.2-26.8a26.3 26.3 0 0 1 28.8 0c3.8 2.6 7.1 6.6 7.4 11.2" stroke="#C4D7E9" stroke-width="2" stroke-linecap="round" stroke-linejoin="round"></path><path d="M110.2 288.5l23 13c3 1.6 5.8 3.2 8.2 5.5M104.9 306.7c2.6 0 5-1.5 7.3-2.7 4.4-2.5 9.2-4.5 14.1-5.8l-13 15.7c-1 1.2-2 2.4-2.4 3.8M126 299.2l-8.6 23.3M127.3 299.5l1.2 24M127.6 297.8c6.8-3.4 14-6.1 21.2-8.2M218 66.7A719 719 0 0 1 270.7 96c1.5 1 3 1.9 4.1 3.3 2.3 3.2 1.5 7.6.6 11.4-5 19-12.7 37.3-23 54-.1.3-43.8-27.3-47.8-29.8-2-1.3-9.5-4.3-10.1-6.7-.6-2.3 4.3-8.2 5.5-10.3a165 165 0 0 0 18-51.3z" stroke="#C4D7E9" stroke-width="2" stroke-linecap="round" stroke-linejoin="round"></path><path d="M198.3 122.3a389.4 389.4 0 0 1 45.9 24.2c4 2.6 7.8 5.3 11.6 8.2M203.7 111c20.4 10 40.4 20.8 60 32.4M208.7 100.9c20.1 8.7 39.6 19 58.3 30.5M212 89.9a253.4 253.4 0 0 1 57.6 29.9M215.8 78.8c19.9 9.1 39.4 19 58.6 29.7M207 136.6c12.7-16.8 22.3-39 26-59.8M222.2 146.1c11.3-18 21-40.7 27.3-61M236.8 155.3c13.4-18 22.2-39 25.8-61.2M790.3 156c-1.7 3-3 6.2-3.8 9.6 1.8 0 4 .2 4.6 1.8.5 1.2 0 2.5.3 3.7l.8 2c0 .6 0 1.3-.3 1.9l-2.3 9a25 25 0 0 1 7.7-2.5c1-.2 2.3-.2 2.8.7.3.5.3 1 .2 1.6l-.8 14.2M747.4 188l-2.6 16.5c4.6-3 10.2-4.4 15.7-4-.7 3.2-1 6.5-1 9.8l2.9-.9c.5 2.8.7 5.6.6 8.4 2.7-.5 5.3 1.3 6.6 3.6 1.3 2.4 1.5 5.2 1.7 7.9a19 19 0 0 0 1.6 7.8M620.9 306.2c4.5-21.3 7.1-43 7.7-64.9M659.4 322c1.4-2 2.3-4.4 3-6.7 5.7-15.8 9.2-32.4 10.3-49M618.7 294.2c17 4.2 33.3 11.3 48 20.8M621 285.6c17.3 4.5 34 11.9 48.9 21.8M621.4 278.3c18.6 2.7 36.6 9.8 52.2 20.4M623.1 267.9c18.8 1.5 37.2 8.4 52.3 19.8M624 259c19.3.8 38.3 7.9 53.5 20M624.4 247.7a88.8 88.8 0 0 1 51.4 24.5M632.6 308.5c4.9-20.3 8.1-41 9.8-61.8M643.4 313.4a186 186 0 0 0 10.5-62.3M652 318.7c8.6-20.3 13-42.4 12.8-64.5" stroke="#C4D7E9" stroke-width="2" stroke-linecap="round" stroke-linejoin="round"></path><path d="M106.2-17l-.2-.1 70.6 2.5-42.5 52.5c-2-13.8-11.3-32.2-28-54.8M2.3 209.2c-.6-7.8-.4-16.9 1-26.7 8.1-51.2 48.5-82.3 81.4-99.5 1.8 6.2 10.6 35.8 21.4 55.6-79.6 31-99 58.9-103.8 70.6" fill="#ECEDEE" fill-rule="nonzero"></path><path d="M137.1 314.8c3.2-4.1 26.8-35 47-63-5 17.1-31.6 66.5-46 81.5 3.1-7.3 0-16.2-1-18.5" fill="#FFF" fill-rule="nonzero"></path><path d="M152.6 522.2L66.3 473c0-2.2.2-10 1.4-15.7 14.5 13.7 60.4 47.3 84.9 65" fill="#ECEDEE" fill-rule="nonzero"></path><path d="M66.5 158.3a82.4 82.4 0 0 0 6.4 41.5l-65.3 37c-1-2.8-3.5-10.8-4.8-22 .5-3.4 6-27 63.7-56.5" fill="#FFF" fill-rule="nonzero"></path><path d="M575.2 580l.2.1c9.4.2 17.8.6 24.1 1.6l-1.2.6c-3.3 2.2-4.5 6.2-4.8 8-8.3-.2-65.7-1.4-93.4 1h-.3A80 80 0 0 0 489 593c2.8-4 10.2-11.5 26.3-11.9l11.3-.3c14.5-.4 32.8-1 48.7-.6" fill="#ECEDEE" fill-rule="nonzero"></path><path d="M536.4 700.8c-1 2.2-1.5 4.5-1.8 5.9-2-1-3.7-1.3-3.9-1.3a1 1 0 0 0-.4 2s2.2.4 4.6 1.6c2 1 4 2.4 5 4.4 1 2 1.1 4.2.2 6.7-.4 0-1.8-.8-2.8-1.4l-2.3-1.5-2.5-1.1c-1.9-.8-4-1.1-5.7-1.4-2.4-.4-4.6-.8-5.3-1.8-2-3.3 1.4-9.5 3.2-12l11.7-.1" fill="#F5D4B8" fill-rule="nonzero"></path><path d="M580.2 700.8c.4 3 0 6.7-.4 9.5-1-3-2.7-6.5-4.4-9.6h4.8" fill="#E4ADA3" fill-rule="nonzero"></path><path d="M434.4 815.8c.4.5.7 1 .9 1.6.1.3 0 .8-.1 1l-.3.2c-.3 0-.7-.3-.9-.8-.4-.8-.4-1.8-.1-2.7l.5.7" fill="#FDBE2A" fill-rule="nonzero"></path><path d="M658.1 571.9l-.2-2.6c0-.5.1-1.6.7-2h.6c.4.1.7.4.8.7.3.7 0 1.6-.3 2.2-.4.6-1 1.2-1.6 1.7" fill="#C5A7D4" fill-rule="nonzero"></path><path d="M627.6 803.4c.8 1 1.5 2 1.5 2.9v.1h-.3c-1.1 0-2-1.2-2-2.3 0-.5 0-1 .2-1.5l.6.8" fill="#85C3E9" fill-rule="nonzero"></path><path d="M632.8 746.8c2 1.8 3.4 3.4 4 5.4.7 1.7.7 4.2-1 5.6-1 1-3 1.3-4.7.8a13 13 0 0 1-4.7-3c-6.4-5.6-12.5-15.1-12.6-23.3 2.4 2.1 4.8 3.9 7.5 5.5a72 72 0 0 1 11.5 9" fill="#FDBE2A" fill-rule="nonzero"></path><path d="M663 726.6c2.7-.5 5.2-1.5 7.6-2.5l4.2-1.6c4.5-1.5 8.3-1.5 11.2 0 .4.2 1.5.8 1.6 1.7 0 .4 0 .8-.2 1.3-2.2 4.8-9.2 5.3-11.3 5.3a37.2 37.2 0 0 1-16.5-3.8c1.1 0 2.3-.1 3.5-.4" fill="#F3783C" fill-rule="nonzero"></path><path d="M700.3 679.8c1 .1 2 .8 2 1.6.1.4 0 .9-.5 1.6-1 1.7-7.5 7.2-10.8 7.2h-.2c-.6 0-1-.3-1.3-.8-.2-.5 0-1.5.8-2.6 2.4-3.5 8-7.1 10-7" fill="#C5A7D4" fill-rule="nonzero"></path><path d="M835 701.4a14.2 14.2 0 0 1-7 1.1c2.7-2.5 6-4.5 9.6-5.8.3 1.7-1 3.8-2.6 4.7" fill="#F3783C" fill-rule="nonzero"></path><path d="M759.2 705.8l.1.3c0 .2-.6.3-1.2.2-2.6-.5-4.5-3-5.8-5.3 3-.1 6 2 7 4.8" fill="#FDBE2A" fill-rule="nonzero"></path><path d="M696.2 618.7c-.6.2-1.3.7-2.1 1.2-1 .6-3.5 2.3-4.1 2-.6-.8.4-3 2.9-6.4l.4-.6c2.6-3.7 5.5-6 8.5-7a6 6 0 0 1 3.2-.1c1 .2 1.8.9 2.1 1.7.5 1.5-.8 3.1-1.2 3.6-2 2.4-5.2 3.7-8.3 5l-1.4.6M328.6 768c.6 0 1.5.2 1.6.7v.9c-.6 2-3 3.3-5 3l.7-2.3a4 4 0 0 1 2.7-2.2" fill="#85C3E9" fill-rule="nonzero"></path><path d="M485.4 745c1-.7 2-1.3 3-1.4 1 0 2 .4 2.2 1.1v1.5c-.7 2.1-3 4.7-5.6 6-1.2.6-2.3 1-3.4 1-.5 0-1-.1-1.4-.3-.7-.2-1.5-.6-1.6-1.2 0-.5.3-2.5 6.8-6.8" fill="#C5A7D4" fill-rule="nonzero"></path><path d="M412.4 742.4v2a17.4 17.4 0 0 0 1.7 8.3c1 2.5 2 5 2 7.4 0 1 0 3.1-1.5 4.2-1.6 1.3-4.2.4-5.5-1.2-1.2-1.6-1.7-3.8-1.6-6.9.2-4.8 1.8-10.6 5-13.8M254 661.3c.8-.6 2-.8 3-.6 1.6.5 2.8 1.5 4 2.9a9 9 0 0 1-4.6 1.9h-.1c-1 0-2-.4-2.6-1-.3-.4-.7-1-.6-1.6a2 2 0 0 1 .9-1.6" fill="#F3783C" fill-rule="nonzero"></path><path d="M354.4 705.1c1.7-1 4-1 6.4-.3 2.2.7 4.3 2 6.1 3.4l1.2.8c1.8 1.3 7.3 5 7 6.7-.2 1.2-3.5 2.4-10.3 2.3-5.1 0-9.6-2-12-5.3a6 6 0 0 1-1.2-2.6c-.3-1.9.9-4 2.8-5" fill="#C5A7D4" fill-rule="nonzero"></path><path d="M429.1 706c1.2-.6 2.8-.4 4.4-.2h.3a33.5 33.5 0 0 0 20.7-3.9 59.5 59.5 0 0 1-3.3 3.8c-3 3.6-6.2 7.3-10.3 9.1-3.9 1.7-9.2 1.6-12.1-1.8a5.8 5.8 0 0 1-1.5-3.8c0-1.3.8-2.6 1.8-3.1" fill="#85C3E9" fill-rule="nonzero"></path><path d="M442.2 645.9c-1.2-1.4-2.5-3-2.8-4.9-.3-1.5.3-3.5 1.8-4 1-.4 2.1-.2 3.6.5 4.6 2.1 7.9 6.3 11 10.4l.5.6c3 3.7 5.9 6.6 9.3 9-.4.2-.8.3-1.3.3a37.3 37.3 0 0 1-22.1-12" fill="#FDBE2A" fill-rule="nonzero"></path><path d="M508.4 229.1l-.5-2.9c2.8.8 4.4 2.2 5 2.9-.5 1-1.5 3-3.6 5.1l-.9-5" fill="#C4D7E9" fill-rule="nonzero"></path><path d="M361 254.4a60.8 60.8 0 0 0-20 13.9l-1.4-.1c-2.5 0-7.7 0-14.3-5.8-5-4.5-7-8.9-8-11.7 1.1-1.4 2-3.4 3-5.8 4-9 10.7-23.9 40-34.8-.2.2-.2.4-.3.7a70.8 70.8 0 0 0 1 43.6" fill="#F5D4B8" fill-rule="nonzero"></path><path d="M758.9 34.1a485.8 485.8 0 0 0-25.2 51c-14-30.9-10.2-89-9.7-96.6 23-2.3 59.7-6 81-8-14 6.7-29.5 24.6-46.1 53.6" fill="#ECEDEE" fill-rule="nonzero"></path><path d="M284.5 387.2c3.6-3.4 7.5-5 8.9-5.6 11.4 14 23 27.3 32.5 37.4 1 2.3 1.7 4.5 2 7v3.5a46 46 0 0 1-5.8 17 22.3 22.3 0 0 0 7.4-13c.3-1.4.4-2.6.5-4v-1.9l-.2-1.9c0-1.1-.3-2.3-.6-3.3 2.9 3 5.5 5.6 7.8 7.7-.1 4-.6 8.2-2.4 11.7-1.8 3.6-5.3 6.2-8 9.8a24.1 24.1 0 0 0-4.9 12.2c-.4 2.2-.2 4.4-.2 6.5 0 2.2.4 4.3.7 6.5l.4-3.2c0-1.1 0-2.2.2-3.2.3-2.1.4-4.2 1-6.3.7-4 1.9-8 4.4-11.3 2.4-3.3 6.1-6 8.2-10 1.2-2.5 1.9-5.1 2.2-7.7a42 42 0 0 1 1 9c0 2.4 0 4.8-.2 7.2 0 1.3-.2 2.5-.3 3.7l-.5 3.6a35.8 35.8 0 0 0 1.6-25.6c1.7 1.4 3 2.5 4 3 12 6.5 33.8 12.3 38.8 13.6l-1.6 5c-.8 2.3-1.5 4.5-2.6 6.4h-.6c-8 0-19.5 7.6-29.6 14.4l-3 2c.2-4.4-1-9.5-5-12.7a8.8 8.8 0 0 0-5.5-2c-1.2 0-2.5.3-3.9.8-4 1.6-6.2 5.3-6.2 10.4 0 4.7 2.2 11.1 5.8 14.3a26.1 26.1 0 0 0-7 7.4c-2.7 5.6-4.1 10.5-5.4 15l-1.7 5.4c-.4 1.2-1.5 3-2.8 5.5a77 77 0 0 0-11.1 29.5c-1-8.2-.2-16.7.7-25 1.4-14 2.8-28.4-5.2-40.7-7.3-14 0-28.4 7-42.3 8.3-16.7 16.3-32.4-4.6-43.7-3.2-2.3-8.1-2.6-12.6-.8-5 2-8.7 6-10.7 11.4a24 24 0 0 1 7.1-22.7" fill="#D09D2A" fill-rule="nonzero"></path><path d="M249.9 313.5c-.7 9.9 19.9 39 42.2 66.5-1.8.8-5.4 2.5-8.8 5.7-2.6.2-25 2.3-42.5 11.6-1.5-10.4-11-73.8-32.2-107.9a616 616 0 0 0 87.2-40.3l2.3 10.4c-31.3 25.5-47.5 43.7-48.2 54" fill="#ECEDEE" fill-rule="nonzero"></path><path d="M458.8 207l-.2.1c-.7 0-1.3-.6-1.6-1-.6-.7-1.1-1.9-1.3-3.1-.4-2.7.6-4.7 1.8-4.8 1.1-.2 2.7 1.4 3 4 .2 1.3 0 2.6-.3 3.5-.2.5-.7 1.3-1.4 1.4" fill="#A7A9AC" fill-rule="nonzero"></path><path d="M302.9 317.3l6.5-7.4 2.2 9.6a43 43 0 0 0-8.7-2.2" fill="#ECEDEE" fill-rule="nonzero"></path><path d="M307 409a14 14 0 0 0-1.3-4c11.4 10 5 22.7-2.3 37.1-6 11.9-12.6 25.1-9.2 38.1l-2.4-2.3a19.9 19.9 0 0 0-19.2-4.7c-2.6-23.6 7-30.6 17.1-38 4.3-3 8.8-6.3 12.2-10.8 4-5.1 5.7-10.5 5-15.4" fill="#FDBE2A" fill-rule="nonzero"></path><path d="M655.7 85.9c9.2-6.5 19.6-3.5 30.2 8.7h-38.4c2.4-3.7 5.2-6.7 8.2-8.7" fill="#ECEDEE" fill-rule="nonzero"></path><path d="M327 474c0-4.3 1.8-7.4 5-8.6 2.8-1 5.3-.8 7.4.9 3.8 3.1 4.7 8.4 4.2 12.5l-1.4 1c.3-5.3-1.2-9.6-4-12-1-.7-2-1-3.1-1-.8 0-1.6.1-2.4.5-1.7.6-3.7 2.3-3.7 6.6a19 19 0 0 0 4.8 11.9l-1.5 1.1c-2.9-2.3-5.3-8.2-5.3-13" fill="#A7A9AC" fill-rule="nonzero"></path><path d="M333.4 469.1c1.4-.5 2.5-.4 3.5.3 2.6 2.2 3.8 6.6 3.1 11.8a223 223 0 0 0-4.6 3.4 16.7 16.7 0 0 1-4.4-10.7c0-2.6.8-4.1 2.4-4.8" fill="#D09D2A" fill-rule="nonzero"></path><path d="M288.2 494.1c1.6 3.4 2.6 6.6 3 8.2 2 7.4 2.5 16 3 24.4 1 17 2.1 34.5 14.3 45 1 1.3 2 2.6 3.2 3.9-3.2-1-7-2.7-11-4.7-9.6-7.8-27-22.4-18.4-53.6a34.1 34.1 0 0 0 6-23.2" fill="#FDBE2A" fill-rule="nonzero"></path><path d="M292.9 566.7c-13.7-8-27.2-19.1-27.2-27.9 0-4 3.1-7 7-10.7 2.1-2 4.4-4.1 6.5-6.7-4.6 23 5 36.9 13.7 45.3M290.5 479.4c14.4 13 12.7 29.2 11 46.4-1.3 12.3-2.6 24.9 2 36.7-5.7-10-6.5-23-7.3-36a135 135 0 0 0-3-24.8c-1.1-4-5.4-17.7-16-22.4a18 18 0 0 0-12-1l2-1c9-4.4 16.8-3.7 23.3 2.1M314.5 578.4l1.8 1.6a58.4 58.4 0 0 0-8.9 11.9 1 1 0 0 0 0 .9l3.6 5.8c-6.5-3-22.5-12.7-31.7-38.5l4.7 3.5a107 107 0 0 0 30.5 14.8" fill="#FDBE2A" fill-rule="nonzero"></path><path d="M538 699.8c-18 0-32.9.2-37 .5.8-10.6.2-32.6.5-57.6.2-16.8 3.3-43.4-1.5-50.4" stroke="#3E4147" stroke-width="2" stroke-linecap="round" stroke-linejoin="round"></path><path d="M486.7 594.7c11.1-5.7 107.6-3.4 107.6-3.4s1.3-12.7 13.7-8.6c7.8 2.5 9 19.3 10 41 1.4 33.7 2.8 37.5-.7 76.6-5.2-.3-23.2-.5-43.6-.6" stroke="#3E4147" stroke-width="2" stroke-linecap="round" stroke-linejoin="round"></path><path d="M486.7 594.7s6.4-14.2 28.5-14.7c25.3-.6 79-3 92.8 2.7M530.5 706.3s14.7 3.2 10.5 14.2c-1 2.1-4.4-1.8-8.8-3.5-4.5-1.7-10-1.2-11.5-3.6-3-4.7 3.5-13.6 3.5-13.6" stroke="#3E4147" stroke-width="2" stroke-linecap="round" stroke-linejoin="round"></path><path d="M535.4 708.2s1.4-12.6 8.4-12.6c3.6 0 2.7 7.7 2.3 16.2-.4 8.4 1.6 17.5-4.4 17.5-8.1 0-7.2-11.2-7.2-11.2" stroke="#3E4147" stroke-width="2" stroke-linecap="round" stroke-linejoin="round"></path><path d="M546.5 702.4c-.4-6.8 4.2-9.6 6.6-9.2 4.9.8.5 10.5 2.1 21.8 1.1 7.5 3.9 12.6-2.1 12.6s-7-6.5-7-6.5" stroke="#3E4147" stroke-width="2" stroke-linecap="round" stroke-linejoin="round"></path><path d="M555.3 695.6c1.5-3.3 6-3 7.8 0 1 1.7 1.6 8.6 3.3 14.8 1.3 4.3 2.8 9.1 2.8 10.7 0 3.9-9.9 5.6-12.7.6" stroke="#3E4147" stroke-width="2" stroke-linecap="round" stroke-linejoin="round"></path><path d="M563.9 698s.5-2.8 4.3-3.3c3.7-.6 11 14.6 11.8 20 .8 5.3-7 7.8-11 5.3M580 714.7s2.1-8.7 1.1-15M429.2 536c13.7 10.5 6.7 31.5-1.2 33.3-9.6 2.2-13-10.6-13-10.6l-6.3 13.2M303.9 560.4c-2.7-20.2 11.9-38.5 13.8-44 1.9-5.6 3.2-12.4 7-20.4 2-4.2 12.5-11.8 24.4-19.8 10.8-7.2 22.7-15 30.2-14.2 15.8 1.8 37.4 33.6 41.6 40.9 4.2 7.3 2.8 29.8 2.8 29.8l2.2 1" stroke="#3E4147" stroke-width="2" stroke-linecap="round" stroke-linejoin="round"></path><path d="M424.8 519.9c.5-3.9 1.4-7.7 2.5-11.4a141.7 141.7 0 0 1 8.3-22l5-10.7v.1a38.4 38.4 0 0 0 5-14.8c.7-5.2.2-10.6-2-15.5-2-4.8-5.7-9-10-11.9a55 55 0 0 0-21.7-8.2 27 27 0 0 0-7.9 0 20 20 0 0 0-13.4 8c-3.3 4.2-5.2 9-6.9 13.9l-2.3 7.3a30 30 0 0 1-2.9 6.7 1 1 0 0 0 1.4 1.4l12.4-9.5a96.2 96.2 0 0 0 11.7-10.4 79.5 79.5 0 0 0-13 8.7c-4 3.3-8.2 6.4-12.3 9.6l1.5 1.4c1.5-2.4 2.2-4.9 3-7.3.9-2.4 1.6-4.9 2.4-7.3 1.6-4.7 3.6-9.4 6.6-13.3a18 18 0 0 1 12.1-7.3 25 25 0 0 1 7.3 0 53.1 53.1 0 0 1 20.8 8c4 2.8 7.5 6.5 9.4 11 2 4.5 2.5 9.6 1.9 14.5a36.4 36.4 0 0 1-4.7 13.9h-.1a248.6 248.6 0 0 0-13.5 33.1c-1.1 3.8-2.1 7.7-2.6 11.8a1 1 0 1 0 2 .2zM423.8 562c.1-1.4-.4-2.8-1-3.9-.6-1-1.2-2-1.3-2.9-.1-.4 0-.9.2-1.2.1-.2 0-.2 0-.1h.6l1.4-.1.7-.4.4-.5.2-.4c.2-1 0-1.6 0-2.3-.2-1.3-.6-2.5-.7-3.7V545v-.1h.3c.7.1 1.6 1 2.5 1.7.9.8 1.8 1.5 2.7 2.5a4 4 0 0 0-.3-2c-.2-.7-.6-1.3-1-1.8-.8-1.1-1.8-2.1-3.6-2.5-.5 0-1.1 0-1.6.3l-.7.7-.3.7c-.2 1 0 1.6 0 2.3l.7 3.7v1.4h.1a1 1 0 0 1-.5 0h-1.3c-.3 0-.6.2-.9.4l-.4.7c-.4.7-.7 1.5-.6 2.4a7 7 0 0 0 1.7 3.9c.8 1 1.6 1.8 2.7 2.7" fill="#3E4147" fill-rule="nonzero"></path><path d="M344.5 601.8c6.2-3.7 12.4-7.2 18.7-10.8 6.2-3.5 12.8-6.3 19.6-8.6a88.4 88.4 0 0 1 21-4.3 69.8 69.8 0 0 1 21 1.9 1 1 0 0 0 .8-1.9 82.3 82.3 0 0 0-53.7-9.5 97.8 97.8 0 0 0-48.2 26l1.5 1.3a88.8 88.8 0 0 1 43.4-31.6 66.3 66.3 0 0 1 18-2.7 1 1 0 0 0 0-2c-7.4-1.3-15-1.8-22.6-1.3a69 69 0 0 0-56.6 33.5 1 1 0 0 0 0 1A92.8 92.8 0 0 0 328 618a72 72 0 0 0 28.6 15.7 62.3 62.3 0 0 0 32.6.1 58.7 58.7 0 0 0 38.5-28.7c2.9-4.7 5.2-9.6 7.4-14.5l3.5-7.3c.6-1.1 1.3-2.2 2.1-3.2.8-.9 1.8-1.7 3-2.4 4.3-3 9.1-5.5 13.7-8.4a85.5 85.5 0 0 0 24.7-21.4 49.6 49.6 0 0 0 9.4-31 1 1 0 1 0-2 0 48.5 48.5 0 0 1-9 29.8 83.6 83.6 0 0 1-24.1 20.9c-4.6 2.9-9.3 5.4-14 8.5-1 .7-2.2 1.6-3.2 2.7-1 1.2-1.7 2.4-2.3 3.6-1.4 2.4-2.4 4.9-3.6 7.4-2.2 4.9-4.5 9.7-7.3 14.3a56.7 56.7 0 0 1-37.3 27.8 60.3 60.3 0 0 1-31.6 0 69.9 69.9 0 0 1-27.7-15.4 95.2 95.2 0 0 1-20.2-24.7v.9a67 67 0 0 1 33.3-27.9c7-2.6 14.3-4.1 21.7-4.6 7.4-.5 14.8 0 22.2 1.2l.1-2A68.3 68.3 0 0 0 351 570a91.7 91.7 0 0 0-27.4 24.9 1 1 0 0 0 1.5 1.3 96 96 0 0 1 47.2-25.5 80.4 80.4 0 0 1 27 0c8.8 1.6 17.4 4.9 25.3 9.3l.8-1.9a66.2 66.2 0 0 0-21.8-2c-7.3.6-14.5 2.2-21.4 4.5-7 2.3-13.6 5.3-20 8.7a73.2 73.2 0 0 0-17.7 12.6" fill="#3E4147" fill-rule="nonzero"></path><path d="M317.7 580c-36.7-30.7 4.3-73.7-26.5-101.3-16.6-14.9-36.7 6.6-36.7 6.6" stroke="#3E4147" stroke-width="2" stroke-linecap="round" stroke-linejoin="round"></path><path d="M258 482c21-11 31.1 8.2 34.2 20 5.8 22.3-1 53.7 17.1 69" stroke="#3E4147" stroke-width="2" stroke-linecap="round" stroke-linejoin="round"></path><path d="M315 577.5c-14-3-50.3-23.5-50.3-38.7 0-7.2 8.8-11 15.3-20 7.2-10 11.8-25.1 1.5-35.5M300.3 571.9c-9.6-8-27.8-23-19-55M313.7 600.8s-24.7-7-36.5-43.6M435 543.2c3.4-1 8.5-4.5 11-8.8 2.1-3.5 1.5-6.1.7-7.7-.5-1-1.9-2.7-5-2.7-.8 0-1.7 0-2.7.3-6 1.5-14.8 8.3-14.8 14.5a2 2 0 1 0 4 0c0-3.4 6.5-9.3 11.8-10.6 1-.2 2.7-.5 3.2.4.5 1 .3 2.3-.5 3.7-2.2 3.6-8.2 7.3-9.9 7.3M344.5 479.3c.7-5-.6-10.6-4.5-13.8a7.7 7.7 0 0 0-5-1.7c-1 0-2.1.2-3.4.7-3.6 1.4-5.6 4.7-5.6 9.4 0 5.2 2.6 11.9 6.4 14.2" stroke="#3E4147" stroke-width="2" stroke-linecap="round" stroke-linejoin="round"></path><path d="M335.5 485.8c-2-.8-5.5-6.9-5.5-11.9 0-3 1-5 3-5.7 1.8-.7 3.3-.5 4.5.4 2.7 2.2 4.4 6.7 3.4 13.2M439.8 475.3c11 19.4 38 37.1 50.7 41.7 7.7 2.8 16.7 14.4 24.7 25.2 5 6.8 11.4 14.2 11.5 15.8l1.5 21.7" stroke="#3E4147" stroke-width="2" stroke-linecap="round" stroke-linejoin="round"></path><path d="M460.7 549.8a42.6 42.6 0 0 0 18.1-13.3l3.4-4.7 1.4-2.5.7-1.2.6-1.3c1.7-3.4 2.7-7.2 3.5-11a1 1 0 1 0-2-.3c-.7 3.6-1.6 7.2-3.3 10.4l-.6 1.3-.6 1.2-1.4 2.3a72.7 72.7 0 0 1-11 12.2 94.6 94.6 0 0 1-8.8 6.9M444 547.5a53.8 53.8 0 0 0 21.7-14.2c3-3.2 5.7-6.7 7.8-10.6 2.1-4 3.6-8.2 4.2-12.6a1 1 0 0 0-2-.3c-.6 4.2-2 8.2-4 12a45 45 0 0 1-7.5 10 103.2 103.2 0 0 1-20.2 15.7M450.2 521.5a63 63 0 0 1 .3-14.3c.3-2.4.7-4.7 1.7-6.8 1-2 2.3-4 4-5.3h.1a1 1 0 0 0-1-1.8 25 25 0 0 0-7.2 4.6c-2.2 1.8-4 4-5.6 6.3l-2.1 3.6-1 2-.7 1.9c-.5 1.3-.7 2.7-1.1 4-.3 1.3-.5 2.7-.6 4 1-2.5 1.8-5 3-7.5a44.2 44.2 0 0 1 9.6-12.6c2-1.7 4.2-3.3 6.5-4.4l-1-1.7c-2 1.6-3.7 3.8-4.7 6l-.7 1.9-.6 1.8-.4 1.8a33.7 33.7 0 0 0 0 9.3c.3 2.5.7 5 1.5 7.2M438 498.7l3-2.9a36.4 36.4 0 0 1 6.2-4.5 11 11 0 0 1 3.4-1 1 1 0 0 0 0-2 9 9 0 0 0-4.4 1c-1.4.5-2.5 1.4-3.6 2.4a18 18 0 0 0-4.6 7" fill="#3E4147" fill-rule="nonzero"></path><path d="M384.3 448.9s-26-6.5-39.6-13.8c-13.6-7.3-95.1-102.4-93.8-121.5 1.3-19.2 60.4-63.2 63.5-65.8 1.8-1.5.7 6.9 10.3 15.3 9.5 8.5 16.5 5.2 16.5 6.5 0 2.8-40 48.2-40 48.2" stroke="#3E4147" stroke-width="2" stroke-linecap="round" stroke-linejoin="round"></path><path d="M392.2 314.7c-2.5.6-5 1.1-7.5 2-2.4 1-5 1.8-7.2 3.1-1.1.7-2.3 1.2-3.4 2l-3.2 2.3-.8.6-.7.7-1.5 1.3-2.9 2.6a58.7 58.7 0 0 0-15.8 27l2-.3c-3.7-6.4-8-12.3-13-17.7a77.2 77.2 0 0 0-16.7-14 48.4 48.4 0 0 0-20.8-7.2 40 40 0 0 0-21.4 4c7-1.8 14.2-2.7 21.2-1.9 7 .7 13.8 3.2 20 6.7 6 3.7 11.5 8.4 16.3 13.7a95.7 95.7 0 0 1 12.5 17.3 1 1 0 0 0 1.9-.2 56.7 56.7 0 0 1 18-28.5l1.4-1.3.8-.6.8-.5 3-2.2 1.7-1 1.6-1c2.1-1.5 4.4-2.5 6.7-3.7 1-.7 2.3-1.1 3.5-1.6l3.5-1.6" fill="#3E4147" fill-rule="nonzero"></path><path d="M364.7 331c6.2-9.9-2.7-23-2.7-30.8 0-7.8 6-23.8 5.6-29.8-.6-5.9-16-29.8-6.7-59.3 7-22 106.2 20.9 126.9 27.3C508.4 245 514 229 514 229c7.1 9.3 11.8 208.4 11.8 208.4" stroke="#3E4147" stroke-width="2" stroke-linecap="round" stroke-linejoin="round"></path><path d="M497.6 418.7c-5-1.8-10-3.3-15.2-4.6a469 469 0 0 1-45.4-13.2c-9.8-3.5-19.6-7.3-29-11.9-4.7-2.4-9.4-4.6-14-7.3-4.4-2.6-8.8-5.4-12.9-8.8 3.6 3.9 7.8 7.2 12.2 10.1 4.4 3 9 5.7 13.8 7.9a302 302 0 0 0 29.3 11.9c10 3.5 20 6.6 30.2 9.3l15.3 4.1a101 101 0 0 0 15.7 2.5M511.6 398.9c-3.7-4.3-7.6-8.3-11.5-12.3-3.9-4-8-7.8-12-11.7l-24.2-23.2-24.1-23.2c-4-3.9-8-7.9-12.2-11.6-4.1-3.7-8.3-7.4-12.7-10.9a291 291 0 0 0 11.4 12.3c3.9 4 8 7.8 12 11.6l24.2 23.3 24.2 23.2 12.1 11.6c4.2 3.7 8.3 7.4 12.8 10.9M506.2 382.2a889.6 889.6 0 0 0-25.2-31.8 1283 1283 0 0 1-25-31.9 831.4 831.4 0 0 1-23.8-32.8l-5.7-8.4-2.9-4.2-2.8-4.2-2.8-4.2-2.9-4.2-5.5-8.5c3 6 6.3 12 9.8 17.8 1.8 2.9 3.5 5.8 5.4 8.6a1088.6 1088.6 0 0 0 54.6 73.3 364.8 364.8 0 0 0 26.8 30.5M501.1 365.3c-4.7-7.3-9.8-14.3-15.4-21L469.6 324l-16-20.6a229.6 229.6 0 0 0-12.3-15.2l-4.2-5a207 207 0 0 0 14.9 21.4l16 20.6 16.1 20.5c5.2 7 10.9 13.5 17 19.7M511.6 382.2c-1.3-8-3.3-15.9-5.7-23.6l-6.6-23.3-6.6-23.3c-2.1-7.8-4-15.7-7.6-23.1.8 8.1 3.4 15.8 5.7 23.6l6.6 23.3 6.6 23.4c2 7.8 4.5 15.5 7.6 23M460.3 429.8c4.2 4.7 8.5 9.2 13 13.5l13.9 12.7 13.7 12.7c4.4 4.4 9.3 8.4 14.4 12-4-5-8.3-9.4-13-13.5l-13.8-12.7-13.7-12.8c-4.6-4.2-9.5-8.1-14.5-12" fill="#BDCFDD" fill-rule="nonzero"></path><path d="M576.3 579a286.7 286.7 0 0 0-5-48.8c-.3-1.4-.5-2.7-.9-4l-.5-2-.7-2c-1-2.7-2.1-5.2-3.5-7.6-5.5-9.6-12.8-17.9-20.4-25.7-4-3.9-7.7-7.8-11.9-11.4-4.1-3.5-8.5-6.9-13.2-9.7L532 479l6 5.5c2 1.8 4 3.7 5.8 5.7 7.6 7.7 14.8 16 20.1 25.3 1.4 2.3 2.5 4.8 3.4 7.2l.7 2 .5 1.8.9 4a285 285 0 0 1 5 48.5 1 1 0 1 0 2 0" fill="#3E4147" fill-rule="nonzero"></path><path d="M561.2 507.7l-1.1-3.3-1.3-3.2-2.9-6.2-6.3-12c-4.2-8-8.6-15.8-12.7-23.8-4-8-8-16-11.4-24.4l-2.4-6.2-2-6.4-2-6.4c-.6-2.1-1.2-4.3-2-6.5 0 2.3.2 4.6.5 6.8l1.4 6.7 2.2 6.5 2.5 6.3C527 444 531 452 535.2 460c4 8 8.4 16 12.7 23.9 2.1 4 4.2 7.9 6.2 12 1 2 2 4 2.8 6 .5 1 1 2 1.3 3l1 3.2a1 1 0 1 0 2-.5" fill="#3E4147" fill-rule="nonzero"></path><path d="M271.8 474.4c-4.5-35.5 17.8-35.6 29.3-50.6 7.2-9.4 6.2-18.6-.8-23.6-6-4.4-20-1.3-23 13.8-7-26 16.3-33.5 16.3-33.5M297.4 485.8c-16.5-31.8 39.5-65.8 2.9-85.6" stroke="#3E4147" stroke-width="2" stroke-linecap="round" stroke-linejoin="round"></path><path d="M322.2 476.8l.4-3.2c0-1.1 0-2.2.2-3.2.3-2.1.4-4.2 1-6.3.7-4 1.9-8 4.4-11.3 2.4-3.3 6.1-6 8.2-10 2-4.2 2.5-8.7 2.6-13l-1.9.4a37.1 37.1 0 0 1 2.5 14c0 2.3 0 4.7-.2 7.1 0 1.3-.2 2.5-.3 3.7l-.5 3.6a35.8 35.8 0 0 0 .3-29.2 1 1 0 0 0-1.9.3c0 4.3-.5 8.5-2.4 12-1.8 3.7-5.3 6.3-8 9.9a24.1 24.1 0 0 0-4.9 12.2c-.4 2.2-.2 4.4-.2 6.5 0 2.2.4 4.3.7 6.5M322.1 446.4a22.3 22.3 0 0 0 7.4-13c.3-1.3.4-2.5.5-3.8v-2l-.2-1.9c-.2-2.6-1-5-2-7.4a1 1 0 1 0-1.8.7c.8 2.3 1.6 4.5 1.8 7 .2 1.1.1 2.3.1 3.5a46 46 0 0 1-5.8 17" fill="#3E4147" fill-rule="nonzero"></path><path d="M316.2 250.5c5.4-5.6 5.2-28 46.6-42.4M341.2 269.6s8.9-10 21-14.6M508.6 236.1c-4.2-28-15.7-64.5-14.2-70.3.8-2.7 31-26.4 61.4-58.5C594 67 631 32.2 635.3 25.6c8-12.5 10.5-35 10.5-35l-73 3.4S458.4 92.2 429.6 108.7" stroke="#3E4147" stroke-width="2" stroke-linecap="round" stroke-linejoin="round"></path><path d="M471.8 126.4a214 214 0 0 0-5.2-2A340.6 340.6 0 0 1 441 114l-5-2.5-4.7-2.8a90.2 90.2 0 0 1-30.9-30.8c-7.6-12.7-12-27-16-41.2-2-7.1-4.1-14.3-6.8-21.3-2.6-7-6-13.8-10.8-19.7a1 1 0 0 0-.8-.4l-69.6 1.1a1 1 0 0 0-1 1.3c4.8 18.6 6.9 37.8 8.5 57 1.6 19.2 2.6 38.5 4.8 57.7 1.1 9.6 2.6 19.2 4.8 28.6 2.2 9.5 5.1 18.8 9.4 27.6a74.2 74.2 0 0 0 41.6 39.1 1 1 0 1 0 .7-1.9 72.3 72.3 0 0 1-40.5-38.1c-4.2-8.6-7-17.8-9.2-27.1-2.2-9.4-3.7-18.9-4.8-28.4-2.3-19.2-3.2-38.4-4.8-57.7a348.2 348.2 0 0 0-8.5-57.3l-1 1.2 69.6-1-.8-.4c4.6 5.6 8 12.2 10.6 19.1 2.6 6.9 4.6 14 6.7 21.1 4 14.3 8.4 28.8 16.2 41.6a92.3 92.3 0 0 0 31.6 31.6c1.6 1 3.1 2 4.8 2.8l5 2.7c3.3 1.5 6.7 3.3 10.2 4.6a119 119 0 0 0 21.5 6" fill="#3E4147" fill-rule="nonzero"></path><path d="M507.5 229.3c-16-2.6-46-25.5-85.2-14.2M447.6 212c6.4-49.1-18.4-80.4-16.2-102.2M461.5 202.1c-.4-3-2.3-5.2-4.2-5-1.9.3-3 3-2.6 6 .4 3 2.3 5.3 4.2 5 1.9-.3 3-3 2.6-6zM534.3 456.2s22.6 12.4 28.4 16.8c0 0 7.5-59.7 18.9-74.1-14.3-8-26.3-29-57.9-31.1M441.4 646.5a11.3 11.3 0 0 1-3-5.3c-.4-2 .5-4.4 2.4-5.2 1.5-.5 3 0 4.4.6 5 2.3 8.5 7 11.9 11.3 3 3.8 6 6.9 10 9.5-1.3 3.4-10.8-.5-13.2-1.6-4.7-2.2-9-5.4-12.5-9.3zM452 706.3c-3 3.7-6.4 7.5-10.7 9.4-4.4 2-10.2 1.6-13.3-2a6.7 6.7 0 0 1-1.7-4.5c0-1.6 1-3.3 2.4-4 1.5-.8 3.4-.6 5.2-.4 8.5 1 17-.9 23.8-6.2-1 2.8-3.8 5.5-5.7 7.7zM364.8 719c-4.9 0-10-1.8-12.9-5.8a7 7 0 0 1-1.3-3c-.4-2.4 1.2-4.8 3.3-6a9.5 9.5 0 0 1 7.2-.4c2.3.8 4.4 2.1 6.4 3.6 2 1.4 9.1 5.7 8.6 8.4-.6 3.2-9 3.3-11.3 3.2zM262.2 664c-1.8 1.2-3.7 2.4-5.8 2.5-2.1 0-4.4-1.6-4.3-3.7 0-2.3 3-3.6 5.3-3 2.2.6 3.8 2.5 5.3 4.3M324 774.3c.2-1.5.4-3 1-4.4a5 5 0 0 1 3.4-2.8c1.1-.2 2.4.2 2.8 1.3.2.5 0 1 0 1.5a5.5 5.5 0 0 1-6.5 3.5M406.5 756.2c0 2.6.2 5.4 1.8 7.5 1.6 2 4.9 3 7 1.4 1.4-1.1 1.9-3.2 1.8-5 0-3.5-1.7-6.7-2.9-10s-.4-6.6-1-9.6c-4.5 3-6.4 10.5-6.7 15.7zM491.5 746.4c.2-.6.3-1.3 0-2-.3-1.2-1.8-1.9-3-1.8-1.4 0-2.6.8-3.6 1.5-2.6 1.7-11.3 7.6-5 9.8 4.3 1.5 10.5-3.4 11.6-7.5zM434 813a4.7 4.7 0 0 0-.9 5.3c.4.7 1 1.4 2 1.3 1 0 1.5-1.5 1.2-2.5-.3-1-1.1-1.8-1.7-2.7-.5-1-.8-2.2-.2-3M627.6 799.6c-1 1.3-2 2.9-1.9 4.6.1 1.6 1.5 3.3 3.2 3.2.4 0 .8-.1 1-.4l.2-.7c0-2.8-3.9-4.6-3.4-7.3M625.7 756.4a14 14 0 0 0 5.1 3.2c2 .5 4.2.3 5.7-1 1.9-1.6 2.1-4.5 1.3-6.7-.8-2.3-2.5-4.2-4.3-5.8a73 73 0 0 0-11.7-9.1 60 60 0 0 1-8.9-6.8c-1 9.3 6.1 20.3 12.8 26.2zM676.1 731.8c4.8 0 10.2-1.6 12.2-6 .2-.5.4-1 .3-1.7-.1-1.2-1.1-2-2.2-2.5-3.6-1.9-8-1.3-12 0-3.8 1.3-7.5 3.2-11.5 4-3.4.7-6.8.4-9.8-1.3 6.5 5 14.9 7.6 23 7.5zM752 700c3.5-.2 7 2.1 8.2 5.4l.1.9c-.1 1-1.4 1.2-2.4 1-3.4-.7-5.7-4-7.3-7.3M702.7 683.5c.4-.7.7-1.4.7-2.1-.1-1.5-1.6-2.4-3-2.6-3.5-.3-13.6 7.6-11.7 11 2.3 4.6 12.5-3.8 14-6.3zM692.5 614.4a18 18 0 0 1 9-7.4 7 7 0 0 1 3.8-.2c1.2.3 2.3 1.2 2.8 2.4.5 1.5-.3 3.3-1.4 4.5-2.6 3-6.5 4.4-10.2 5.9-1.6.7-6.2 4.6-7.4 2.8-1.3-2 2.3-6.5 3.4-8zM657.3 572.8c-.3-1.2-.4-2.4-.4-3.5s.3-2.3 1.2-2.8c1-.6 2.3 0 2.8 1 .5 1.1.2 2.3-.4 3.3-.6 1-1.5 1.6-2.4 2.4M827.6 703.5c2.7 0 5.5 0 8-1.2 2.3-1.3 3.9-4.5 2.6-6.9a31 31 0 0 0-11.3 6.7M652 489.4c-6.2-21.6-24.9-36.1-48-70.7 57.1-51 118.2-36.5 118.2-36.5l42.2 79.7s-75.6-19-112.4 27.5zM596.4 332c40.5 1.3 54.3 13.7 64.5 24.4 0 0 39.3-86.2 23.3-114.2-16-28-80.2-30.2-80.2-30.2 26.2 43-7.6 120-7.6 120zM780 264.9L700 220s46.7-70.2 99.6-84.4a555.4 555.4 0 0 1 52.8 39.5s-40.8-1.8-72.4 89.8zM540.8 122.6l-10.1 57L640.4 168c-19-32.4 8.5-120.4 47.6-72.4h-42.2M668.3 81.8s-25.3-11.2-83.7-4.3M310 308.3l3 12.8M283.7 386.6s-25 1.8-43.7 12.3c0 0-9.3-73.1-32.9-110 43.8-15.1 89.3-41.3 89.3-41.3l2.8 12.3M168.9 532.7S84.9 473 67 455.2c-1.8 6.7-1.8 18.2-1.8 18.2L169 532.7z" stroke="#3E4147" stroke-width="2" stroke-linecap="round" stroke-linejoin="round"></path><path d="M168.9 532.7a201 201 0 0 0 52.4-74l-110.2-53.4c-8.9 41.1-32 60.5-32 60.5M175.2 262.3c-37.9 7.3-83.2-3.6-83.2-3.6l-26.7 76.9s56.5 14.4 72 0c15.6-14.5 48.5-76.5 48.5-88-22.2 31-49.8 67-49.8 67s7.4 16.2-3.2 24M1.8 215.1s1-35.5 105.8-76a319.6 319.6 0 0 1-22.3-57.6C-31.6 141.8 7.1 238.2 7.1 238.2l67.1-38s-10.6-22.7-6.4-43.7M250.9 184c-32.2-19.1-82-43.6-82-43.6 5.3-18.2 48-54.6 38.2-90.6C245 54.7 294.3 99 294.3 99s-4.6 45.8-43.4 84.9zM116.6 0c7.6 11.9 15.7 27.4 16.7 40.4L166.1 0M723.1-12.4s-5.8 67 10.7 100c0 0 42.2-105 80.9-109 38.6-4-91.6 9-91.6 9zM514 228.9s-2-3.1-7.4-4" stroke="#3E4147" stroke-width="2" stroke-linecap="round" stroke-linejoin="round"></path><path d="M330.7 557.2c1.8-1.2.8-6.6-1.4-8-2.1-1.4-13 .6-15 0-2-.7-5.2-9-7.6-11.7-1.6-2-3.5 3.6-3.2 6.3.3 2.8 6 12.4 10.5 13.4s14.8 1.1 16.7 0" fill="#D09D2A" fill-rule="nonzero"></path><path d="M330.7 557.2c1.8-1.2.8-6.6-1.4-8-2.1-1.4-13 .6-15 0-2-.7-5.2-9-7.6-11.7-1.6-2-3.5 3.6-3.2 6.3.3 2.8 6 12.4 10.5 13.4s14.8 1.1 16.7 0z" stroke="#3E4147" stroke-width="2" stroke-linecap="round" stroke-linejoin="round"></path><path fill="#DDE778" fill-rule="nonzero" d="M525.2 626.7v-10.2l10.6-.2v10.4z"></path><path fill="#CEDD3E" fill-rule="nonzero" d="M544.8 638.3v-22.2l10.7-.2v22.4z"></path><path fill="#B5C933" fill-rule="nonzero" d="M562.8 659v-43.3l10.7-.2V659z"></path><path d="M583 678.2v-62.6-.3l10.7-.2v63.1H583z" fill="#94A727" fill-rule="nonzero"></path><path stroke="#3E4147" stroke-width="2" d="M517.5 679.2l-2.3-63.5 82.6-1.7" stroke-linecap="round" stroke-linejoin="round"></path><path stroke="#3E4147" stroke-width="2" d="M524.2 615.5v12.2h12.6v-12.5M543.8 615.4v24h12.7V615M561.8 615.2V660h12.7v-45M582 615.6v63.6h12.7v-63.9" stroke-linecap="round" stroke-linejoin="round"></path><path d="M727 207.3c3.8-8 9.7-15 17-20 .7-.4 1.4-1 2.3-1 .7 0 1.4.4 2 .7 14.7 7.6 29 16 42.8 25.2M763 171.3a52.8 52.8 0 0 1 24.6-15.3c1-.3 2.1-.5 3.2-.3 1 .1 1.9.7 2.7 1.3l29.7 19.5c.4.3 1.1.3 1.4.7.3.4-.9.6-.5.3" stroke="#C4D7E9" stroke-width="2" stroke-linecap="round" stroke-linejoin="round"></path><path d="M686.3 278.7c0-23.7-27.2-34.7-27.2-34.7s9-16.4-8.4-24" stroke="#3E4147" stroke-width="2" stroke-linecap="round" stroke-linejoin="round"></path><path d="M424.3 512c-.5-3.9-1.3-7.4-2.5-9.6-4.3-7.4-24.2-36.7-40.1-41l10.6-8.1.2-.1c19.1 6.9 28.6 38.2 32.5 56l-.7 2.8M391 451.6l-8.9 7 1.2-3.3 2.3-7.3.3-.7c.9 3.7 6.3 2.2 10.3.4l-5.2 3.9M386.7 559.6c-7.5-1.3-15-1.8-22.7-1.3a69 69 0 0 0-46.3 20.3 41.9 41.9 0 0 1-12.9-18.5 40 40 0 0 1 .2-11c1.5 5.8 5.7 20.6 12.5 26.5 0 0 23.2-28 69.2-16" fill="#E4ADA3" fill-rule="nonzero"></path><path d="M408.2 570.7a82 82 0 0 0-22.5-3.4A82.4 82.4 0 0 0 346 578c-4.2 2.3-8.2 4.8-12 7.7l3.5-3.4c4-3.5 8.2-6.8 12.7-9.6 14.2-6.4 36.8-14.2 59.8-5.8l-1.7 3.7z" fill="#E4ADA3" fill-rule="nonzero"></path><path d="M430.6 535.8c1-1.4 2.7-2.9 4.5-4.1.6 1.7 1 3.4 1.3 5.2-1.3.8-2.5 1.4-3.2 1.6-.8-1-1.7-1.8-2.6-2.7M435.6 486.5c1.4-3 2.8-6.1 4.3-9 2.3 3.7 5.3 7.4 8.6 11-.8.1-1.6.4-2.3.7-1.4.6-2.5 1.5-3.6 2.5a18 18 0 0 0-4.6 7l3-2.9a36.8 36.8 0 0 1 6.2-4.5l3-.9 3.7 3.6a26.4 26.4 0 0 0-9.1 7.2 61.7 61.7 0 0 0-14.2 22.2l1.9 2.8a25.3 25.3 0 0 0-7 6.3l-.8-.5c.1-1.8.3-6.7.1-12.2.5-3.8 1.4-7.6 2.5-11.3a142 142 0 0 1 8.3-22M437 545.8l-.7-2 .8-.4v2.4" fill="#D09D2A" fill-rule="nonzero"></path><path d="M529.2 578.6l-.6-8.2c14 0 30.5-.4 45.4-1.7l.3 9.4-9.5-.1c-12.2 0-24.8.3-35.6.6M533.4 477.5a118 118 0 0 0-7.6-6 232.5 232.5 0 0 1-25.8-28.9s27.3 21.9 32.7 27c0 0-15.9-41.6-13.7-85.3 4.7-94.7-6.7-117.4-17.2-143.9a18.3 18.3 0 0 0 12.2-9.1c5.1 17.8 9.3 145.5 10.7 201.3l-1.6-4-2-6.4-2-6.4c-.6-2.1-1.2-4.3-2-6.5 0 2.3.2 4.6.5 6.8l1.4 6.7 2.2 6.5 2.5 6.3a293 293 0 0 0 9.8 21.2c.5 1.1 1 2.2 1.7 3.3 4 8 8.4 16 12.7 23.9 2.1 4 4.2 7.9 6.2 12 1 2 2 3.9 2.8 6-3.6-4.6-7.6-9-11.6-13.1-4-3.9-7.7-7.8-11.9-11.4M314.6 249l.3 1c.5 1.3 1.1 3.2 2.3 5.4-24.6 13.8-54.3 53-63.5 65.6a18 18 0 0 1-1.8-7.4c.5-7.6 11.5-24.7 60.6-63l2-1.6M396.2 313.4c-33.8 12.8-38.2 46-47.3 48-4.5 1-18-12.8-32.7-23.7a244.9 244.9 0 0 0-29-18.2 50.2 50.2 0 0 1 33.2 6.4c6.1 3.7 11.6 8.4 16.4 13.7a95.7 95.7 0 0 1 12.5 17.3 1 1 0 0 0 1.9-.2 56.7 56.7 0 0 1 18-28.5l1.4-1.3.8-.6.8-.5 3-2.2 1.7-1 1.6-1c2.1-1.5 4.4-2.5 6.7-3.7 1-.7 2.3-1.1 3.5-1.6l3.5-1.6c-2.5.6-5 1.1-7.5 2-2.4 1-5 1.8-7.2 3.1-1.1.7-2.3 1.2-3.4 2l-3.2 2.3-.8.6-.7.7-1.5 1.3c-.2 0-.3.2-.5.4 1.4-5.8-.5-12-2.3-17.8-1-3.4-2.1-6.6-2.1-9 0-3.8 1.5-9.7 3-15.3 1.4-5.9 2.8-11.5 2.6-14.6-.2-1.5-1-3.8-2.3-7-3.3-8.5-9-23.2-6.9-40.8-1 22.4 14.9 43.3 13.3 51.2-4.1 19.9-4.4 29.5-3 34.2 3 9.1 26.5 5.4 26.5 5.4" fill="#C4D7E9" fill-rule="nonzero"></path><path d="M314.6 249l.3 1c1 2.9 2.8 8.3 9.1 13.9 7.1 6.3 13.1 6.3 15.6 6.3h.3c-3 5-25.3 30.8-39.5 46.9a38.6 38.6 0 0 0-14.9 1.6l-15.7-31.3a449.5 449.5 0 0 1 44.8-38.4" fill="#C4D7E9" fill-rule="nonzero"></path><path d="M488 237.5c-3.8-1.2-10.4-3.7-18.7-6.8-12.4-4.7-28-10.5-43.4-15.5l4.1-1c28.8 7.8 53.8 18.4 62.9 20 4.7.8 9.7-.2 14-1.9l.6 3.4c-3.8 2.8-10 4.8-19.4 1.8" fill="#E4ADA3" fill-rule="nonzero"></path><path d="M358.4 202.7c18.4-6.7 50.3 2.1 71.5 9.6-2.4.4-5 1-7.5 1.7a180 180 0 0 0-47.5-10.1c-4 0-7.5.5-10 1.7-2.3-.9-4.4-1.8-6.5-2.9M375.8 16c2.6 6.9 4.6 14 6.6 21.1 4.1 14.3 8.5 28.8 16.3 41.6a92.3 92.3 0 0 0 30.6 31l1 .6v5a61.7 61.7 0 0 1-27-17.5c-21.1-26.6-27.6-68.2-37.5-100.1a69.4 69.4 0 0 1 10 18.3M435.1 113.1l5 2.7c3.3 1.5 6.7 3.3 10.2 4.6l2.3.9c-5.4-1-12.7-2.6-20.2-5.2-.2-1.6-.2-3.1-.2-4.6l2.9 1.6M598.7-6.2c-38 51.8-149.2 100.3-137.4 128.7A340.6 340.6 0 0 1 441 114l-4.8-2.6c-1.6-.8-3.1-1.8-4.6-2.7C461.5 90.5 567.2.2 573.3-5l25.4-1.2z" fill="#5D91AB" fill-rule="nonzero"></path><path d="M474-1.8s23.8 50.8 20.7 80.3l65.5-40.1s1.5-20.2-7.6-57c-9-37-78.6 16.8-78.6 16.8" fill="#FFF" fill-rule="nonzero"></path><path d="M474-1.8s23.8 50.8 20.7 80.3l65.5-40.1s1.5-20.2-7.6-57c-9-37-78.6 16.8-78.6 16.8z" stroke="#3E4147" stroke-width="2" stroke-linecap="round" stroke-linejoin="round"></path><g transform="translate(536 693.3)"><mask id="h" fill="#fff"><use xlink:href="#g"></use></mask><g opacity=".8" mask="url(#h)"><path d="M7.8 3.2c.3 0 .5.1.7.3 1.3 1.4 1 6.8.8 12L9 18.4c-1.5-1.9-4-2.5-6.2-2.5-.8-.6-1.6-1.2-2.4-1.6.4-2.5 2.1-11 7.3-11M32.3 2.3c.1 0 .4 0 1 .5 1.8 1.3 4 4.6 5.7 8.2-4-.6-7 1.1-8.5 2.2A148 148 0 0 1 29 4.7c.2-.5.9-2 3.4-2.4M11.2 16.1v-.5l.3-6.7c-.2-4 1.4-6 2.4-6.8 1-1 2.3-1.3 3-1.2 1.8.3 1.8 2.5 1.3 7.8-.1 1.6-.3 3.5-.3 5.4-2.7-.8-5 .6-6.7 2M22.9.9c1.3 0 2.7.6 3.3 1.8.3.4.5 1.2.7 2.1l.7 3.6.9 4.9c-3.6-1.7-7-.4-8.6.5 0-1.7.2-3.4.3-5 .2-2.4.4-4.6.1-6.4A3 3 0 0 1 23 1" fill="#E4ADA3" fill-rule="nonzero"></path></g></g><path d="M439.3 525.3l2.3-.3c2.6 0 3.8 1.3 4.2 2.2.7 1.3 1.2 3.5-.4 6.4l-2-.5.1-.2c1-1.8 1.3-3.4.5-4.8-.4-.8-1.5-1.6-4.2-.9-1.3.3-2.6 1-3.9 1.7l-.7-2c1.4-.7 2.8-1.3 4-1.6" fill="#E6E7E8" fill-rule="nonzero"></path></g></g></g></svg> 